<svg xmlns="http://www.w3.org/2000/svg" xmlns:xlink="http://www.w3.org/1999/xlink" viewBox="0 0 581.02 482.07"><defs><style>.cls-1,.cls-18,.cls-20,.cls-21,.cls-30,.cls-31,.cls-32,.cls-74{fill:none;}.cls-1{opacity:0.8;}.cls-2{isolation:isolate;}.cls-3{fill:#848383;}.cls-4{fill:#efefef;}.cls-5,.cls-6{fill:#d0cfd0;}.cls-21,.cls-30,.cls-6{stroke:#eaeaea;}.cls-18,.cls-21,.cls-30,.cls-31,.cls-6,.cls-74{stroke-miterlimit:10;}.cls-21,.cls-6{stroke-width:4px;}.cls-7{fill:#f4c4a4;}.cls-17,.cls-34,.cls-8{fill:#5b5b5a;}.cls-36,.cls-44,.cls-70,.cls-8{opacity:0.2;}.cls-9{fill:#f8ac1a;}.cls-10{fill:#fff;}.cls-11{fill:#e0e0e0;}.cls-12{fill:#626261;}.cls-13{fill:#bdbcbc;}.cls-14{fill:#4e7a92;}.cls-15{fill:#9a9b9c;}.cls-16,.cls-38{fill:#fcd6b7;}.cls-18{stroke:#f5ad1f;}.cls-18,.cls-74{stroke-width:2px;}.cls-19{fill:#3c3c3b;}.cls-19,.cls-73{opacity:0.4;}.cls-22{clip-path:url(#clip-path);}.cls-23{fill:#5d737b;}.cls-24{fill:#798c91;}.cls-25{fill:#87cdd3;}.cls-25,.cls-26{opacity:0.5;}.cls-26{fill:url(#linear-gradient);}.cls-27{opacity:0.7;mix-blend-mode:screen;fill:url(#linear-gradient-2);}.cls-28,.cls-46{mix-blend-mode:multiply;}.cls-28{fill:url(#linear-gradient-3);}.cls-29{fill:#be1622;}.cls-30{stroke-width:3.92px;}.cls-31{stroke:#1d1d1b;}.cls-32{stroke:#be1622;stroke-linecap:round;stroke-linejoin:round;stroke-dasharray:2.96 2.96;}.cls-33,.cls-52{fill:#eaeaea;}.cls-33,.cls-34,.cls-35,.cls-37,.cls-38{fill-rule:evenodd;}.cls-35,.cls-57{fill:#36a9e1;}.cls-36{fill:url(#Sfumatura_senza_nome_3);}.cls-37,.cls-42{fill:#deb99b;}.cls-39{fill:#e30613;}.cls-40{fill:url(#Sfumatura_senza_nome_122);}.cls-41{fill:#f9b233;}.cls-43{fill:url(#Sfumatura_senza_nome_74);}.cls-44{fill:url(#Sfumatura_senza_nome_3-2);}.cls-45{fill:#2d2e83;}.cls-46{fill:#d9d9d9;}.cls-47{fill:#303b45;}.cls-48{fill:#353430;}.cls-49{fill:#8d8d8e;}.cls-50{fill:#f6bbc6;}.cls-51{fill:#ef7967;}.cls-53{fill:#ebebeb;}.cls-54{fill:#a9a9a9;}.cls-55{fill:#dfe5ee;}.cls-56{fill:#9ea6b0;}.cls-58,.cls-60{fill:#605f5f;}.cls-58,.cls-72{opacity:0.3;}.cls-59{fill:#353634;}.cls-61{fill:#7d7d7d;}.cls-62{fill:#75747a;}.cls-63{fill:#a2a0a0;}.cls-64{fill:#2e2f2f;}.cls-65{fill:#939294;}.cls-66{fill:#acaaab;}.cls-67{fill:#dcdcdc;}.cls-68{fill:#0a0b0b;}.cls-69{fill:#dce5f0;}.cls-71{fill:#a7dcf6;}.cls-74{stroke:#4e7a92;}</style><clipPath id="clip-path" transform="translate(-7.93 -9.22)"><circle class="cls-1" cx="300.34" cy="82.09" r="70.87"/></clipPath><linearGradient id="linear-gradient" x1="461.81" y1="-37.5" x2="461.81" y2="-157.06" gradientTransform="translate(-168.04 184.3)" gradientUnits="userSpaceOnUse"><stop offset="0" stop-color="#fff" stop-opacity="0.5"/><stop offset="0.17" stop-color="#f7f7f7" stop-opacity="0.48"/><stop offset="0.35" stop-color="#dedede" stop-opacity="0.44"/><stop offset="0.53" stop-color="#b5b5b5" stop-opacity="0.35"/><stop offset="0.71" stop-color="#7b7b7b" stop-opacity="0.24"/><stop offset="0.9" stop-color="#323232" stop-opacity="0.1"/><stop offset="1" stop-color="#010101" stop-opacity="0"/></linearGradient><linearGradient id="linear-gradient-2" x1="85.15" y1="664.34" x2="173.98" y2="664.34" gradientTransform="translate(422.96 759.26) rotate(180)" gradientUnits="userSpaceOnUse"><stop offset="0" stop-color="#fff" stop-opacity="0.4"/><stop offset="0.16" stop-color="#ececec" stop-opacity="0.37"/><stop offset="0.41" stop-color="#b9b9b9" stop-opacity="0.29"/><stop offset="0.71" stop-color="#656565" stop-opacity="0.16"/><stop offset="1" stop-color="#010101" stop-opacity="0"/></linearGradient><linearGradient id="linear-gradient-3" x1="648.08" y1="501.4" x2="648.08" y2="447.09" gradientTransform="translate(-198.11 735.2) rotate(-90)" gradientUnits="userSpaceOnUse"><stop offset="0" stop-color="#b4b4b4" stop-opacity="0.11"/><stop offset="0.24" stop-color="#bdbdbd" stop-opacity="0.13"/><stop offset="0.59" stop-color="#d6d6d6" stop-opacity="0.2"/><stop offset="1" stop-color="#fff" stop-opacity="0.3"/></linearGradient><linearGradient id="Sfumatura_senza_nome_3" x1="-635.14" y1="80.69" x2="-635.14" y2="176.01" gradientTransform="matrix(-1, 0, 0, 1, -187.51, 0)" gradientUnits="userSpaceOnUse"><stop offset="0" stop-color="#fff"/><stop offset="1" stop-opacity="0"/></linearGradient><radialGradient id="Sfumatura_senza_nome_122" cx="555.18" cy="347.22" r="7.83" gradientTransform="matrix(0.84, -0.54, 1.99, 3.07, -681.51, -673.15)" gradientUnits="userSpaceOnUse"><stop offset="0" stop-color="#6786a0"/><stop offset="0.24" stop-color="#6686a1" stop-opacity="0.99"/><stop offset="0.34" stop-color="#6488a4" stop-opacity="0.94"/><stop offset="0.42" stop-color="#608ba9" stop-opacity="0.86"/><stop offset="0.48" stop-color="#5b8fb0" stop-opacity="0.75"/><stop offset="0.54" stop-color="#5494b9" stop-opacity="0.61"/><stop offset="0.59" stop-color="#4b9ac5" stop-opacity="0.43"/><stop offset="0.63" stop-color="#41a1d2" stop-opacity="0.23"/><stop offset="0.67" stop-color="#36a9e1" stop-opacity="0"/></radialGradient><radialGradient id="Sfumatura_senza_nome_74" cx="276.67" cy="472.25" r="13.09" gradientTransform="matrix(0.84, -0.54, 1.37, 2.1, -409.16, -746.14)" gradientUnits="userSpaceOnUse"><stop offset="0.49" stop-color="#fff"/><stop offset="0.68" stop-color="#fdfdfd"/><stop offset="0.78" stop-color="#f5f5f5"/><stop offset="0.85" stop-color="#e8e8e8"/><stop offset="0.91" stop-color="#d6d6d6"/><stop offset="0.97" stop-color="#bebebe"/><stop offset="1" stop-color="#afafaf"/></radialGradient><linearGradient id="Sfumatura_senza_nome_3-2" x1="-616.11" y1="380.92" x2="-616.11" y2="474.24" xlink:href="#Sfumatura_senza_nome_3"/></defs><title>G05_13</title><g class="cls-2"><g id="Criminal"><polygon class="cls-3" points="379.85 269.01 379.85 273.76 290.31 326.63 290.16 326.54 290.16 321.79 379.85 269.01"/><polygon class="cls-4" points="290.16 321.79 290.16 326.54 194.06 270.81 194.06 266.06 290.16 321.79"/><polygon class="cls-5" points="194.06 266.06 284.14 213.9 379.63 269.03 290.16 321.79 194.06 266.06"/><circle class="cls-6" cx="72.87" cy="264" r="70.87"/><path class="cls-7" d="M71.48,286l-.39-2.68a1.34,1.34,0,0,0-1.51-1.13l-.56-3.9a1.37,1.37,0,0,0-1.55-1.16l-.18,0-.51-3.51a2.21,2.21,0,0,0-2.51-1.87l-11.08,1.6a1.72,1.72,0,0,0-.59.2L42.55,279l-.73,2.39L58.51,294a1.85,1.85,0,0,1,1.37-1l8.06-1.17A2.61,2.61,0,0,0,70.16,289L70,288a.46.46,0,0,1,.37-.5A1.33,1.33,0,0,0,71.48,286Z" transform="translate(-7.93 -9.22)"/><path class="cls-8" d="M127.28,306.63l-.56.74-4.68-3.5L121,305.31,117.89,303a1.4,1.4,0,0,1-.36-.41,1.66,1.66,0,0,1-.14-.37l-1.58-7.31-.49-2.3a2.76,2.76,0,0,0-1-1.59l-2.09-1.57V249a2.57,2.57,0,0,0-2.56-2.57H98.58v-.73a1,1,0,0,0-1-1H92.42v-.4a5,5,0,0,0-10.07,0,.45.45,0,0,0,0,.11v.29H77.16a1,1,0,0,0-1,1v.73H65.11A2.56,2.56,0,0,0,62.55,249v39l-.71.1a1.83,1.83,0,0,0-.53.17l-9.1,4.88-3,1.57a1.65,1.65,0,0,0-.83,1.11l-2.85,14.22a1.4,1.4,0,0,0,0,.54l1.88,10.19-.38,2.46-2.58-.46-.8,4.51-.63-.1-.89,4,4.8,3.11,7,3.83,5.94,1.42,1.18-9.2-1.26-.22.79-4.5-1.93-.35c1.24-1.71,1.76-2.26,2.41-3.29a27.3,27.3,0,0,0,3.46-7.64l.61-2.3H102l1.72,1.06a2.61,2.61,0,0,0,1.15.38l4.19.34a1.42,1.42,0,0,1,.61.2l3.15,2-.53.73,4.67,3.49-.58.77,7.9,6.55,3.74-2.31L134,319.5l3.58-5.86ZM89.11,243.44v.68H85.66v-.68a1.73,1.73,0,1,1,3.45,0Z" transform="translate(-7.93 -9.22)"/><rect class="cls-9" x="42.54" y="206.66" width="65.85" height="87.05" rx="3.4" ry="3.4"/><rect class="cls-10" x="45.49" y="210.06" width="59.95" height="80.25"/><path class="cls-11" d="M64.05,236.29a4.59,4.59,0,1,0,4.59,4.59A4.59,4.59,0,0,0,64.05,236.29Zm0,7.29a2.7,2.7,0,1,1,2.69-2.7A2.7,2.7,0,0,1,64.05,243.58Z" transform="translate(-7.93 -9.22)"/><path class="cls-11" d="M64.05,250.51a4.6,4.6,0,1,0,4.59,4.6A4.6,4.6,0,0,0,64.05,250.51Zm0,7.29a2.7,2.7,0,1,1,2.69-2.69A2.69,2.69,0,0,1,64.05,257.8Z" transform="translate(-7.93 -9.22)"/><path class="cls-11" d="M64.05,264.83a4.59,4.59,0,1,0,4.59,4.59A4.59,4.59,0,0,0,64.05,264.83Zm0,7.29a2.7,2.7,0,1,1,2.69-2.7A2.7,2.7,0,0,1,64.05,272.12Z" transform="translate(-7.93 -9.22)"/><path class="cls-12" d="M64.26,229.3v0a1.67,1.67,0,0,1-.45,1.31,1.86,1.86,0,0,1-1.32.44,1.92,1.92,0,0,1-1.4-.52,2,2,0,0,1-.51-1.48v-1.62a2,2,0,0,1,.5-1.47,1.77,1.77,0,0,1,1.35-.53,2,2,0,0,1,1.37.44,1.63,1.63,0,0,1,.47,1.31v0h-1a1.13,1.13,0,0,0-.18-.73.8.8,0,0,0-.62-.21.66.66,0,0,0-.6.29,1.55,1.55,0,0,0-.2.87v1.63a1.41,1.41,0,0,0,.22.88.86.86,0,0,0,1.21.08,1.2,1.2,0,0,0,.17-.74Z" transform="translate(-7.93 -9.22)"/><path class="cls-12" d="M66.76,227.86l-.36,0a.49.49,0,0,0-.3.1.55.55,0,0,0-.18.26V231h-1v-4.06h1l0,.58a1.24,1.24,0,0,1,.3-.48.57.57,0,0,1,.42-.17h.13l.12,0Z" transform="translate(-7.93 -9.22)"/><path class="cls-12" d="M68.36,226H67.3v-.81h1.06Zm0,5H67.3v-4.06h1.06Z" transform="translate(-7.93 -9.22)"/><path class="cls-12" d="M70.1,226.94l.05.52a1.24,1.24,0,0,1,.41-.44,1.1,1.1,0,0,1,.57-.15.92.92,0,0,1,.55.16,1,1,0,0,1,.36.51,1.36,1.36,0,0,1,.41-.5,1.07,1.07,0,0,1,.59-.17,1,1,0,0,1,.81.42,2.33,2.33,0,0,1,.3,1.31V231H73.09v-2.4a1.65,1.65,0,0,0-.11-.71.35.35,0,0,0-.33-.19.53.53,0,0,0-.3.09,1,1,0,0,0-.21.27.92.92,0,0,1,0,.16.61.61,0,0,1,0,.14V231H71.1v-2.4a1.63,1.63,0,0,0-.1-.7.38.38,0,0,0-.34-.2.46.46,0,0,0-.28.08.58.58,0,0,0-.2.21v3H69.12v-4.06Z" transform="translate(-7.93 -9.22)"/><path class="cls-12" d="M76.41,231.08a1.51,1.51,0,0,1-1.25-.56,2.24,2.24,0,0,1-.44-1.43v-.15a2.51,2.51,0,0,1,.42-1.5,1.43,1.43,0,0,1,1.2-.57,1.3,1.3,0,0,1,1.1.49,2.08,2.08,0,0,1,.38,1.33v.58h-2a1.36,1.36,0,0,0,.2.72.63.63,0,0,0,.55.26,1.62,1.62,0,0,0,.53-.07,2.4,2.4,0,0,0,.45-.23l.28.66a1.94,1.94,0,0,1-.59.33A2.3,2.3,0,0,1,76.41,231.08Zm-.07-3.38a.4.4,0,0,0-.39.23,1.69,1.69,0,0,0-.17.64h1v-.09a1.48,1.48,0,0,0-.1-.58A.36.36,0,0,0,76.34,227.7Z" transform="translate(-7.93 -9.22)"/><path class="cls-12" d="M81.62,231.08a1.51,1.51,0,0,1-1.25-.56,2.24,2.24,0,0,1-.44-1.43v-.15a2.45,2.45,0,0,1,.43-1.5,1.39,1.39,0,0,1,1.19-.57,1.3,1.3,0,0,1,1.1.49,2.08,2.08,0,0,1,.38,1.33v.58H81a1.36,1.36,0,0,0,.2.72.63.63,0,0,0,.55.26,1.62,1.62,0,0,0,.53-.07,2.4,2.4,0,0,0,.45-.23l.28.66a1.83,1.83,0,0,1-.59.33A2.3,2.3,0,0,1,81.62,231.08Zm-.07-3.38a.41.41,0,0,0-.39.23,1.69,1.69,0,0,0-.17.64h1v-.09a1.48,1.48,0,0,0-.1-.58A.36.36,0,0,0,81.55,227.7Z" transform="translate(-7.93 -9.22)"/><path class="cls-12" d="M84.84,229.5l0,.31h0l.06-.31.49-2.56h1.11L85.41,231h-1l-1.15-4.06h1.11Z" transform="translate(-7.93 -9.22)"/><path class="cls-12" d="M88.08,226H87v-.81h1Zm0,5H87v-4.06h1Z" transform="translate(-7.93 -9.22)"/><path class="cls-12" d="M88.7,229a3,3,0,0,1,.35-1.54,1.13,1.13,0,0,1,1-.58.9.9,0,0,1,.44.11,1.1,1.1,0,0,1,.35.33v-2.16h1.06V231H91l-.08-.46a1.13,1.13,0,0,1-.38.4.91.91,0,0,1-.49.14,1.16,1.16,0,0,1-1-.55,2.72,2.72,0,0,1-.35-1.46Zm1,.08a2.28,2.28,0,0,0,.13.87.47.47,0,0,0,.45.31.65.65,0,0,0,.31-.08.7.7,0,0,0,.21-.24v-1.86a.6.6,0,0,0-.22-.27.47.47,0,0,0-.74.25,2.52,2.52,0,0,0-.14.94Z" transform="translate(-7.93 -9.22)"/><path class="cls-12" d="M94.17,231.08a1.5,1.5,0,0,1-1.24-.56,2.19,2.19,0,0,1-.45-1.43v-.15a2.51,2.51,0,0,1,.43-1.5,1.4,1.4,0,0,1,1.2-.57,1.31,1.31,0,0,1,1.1.49,2.14,2.14,0,0,1,.38,1.33v.58h-2a1.46,1.46,0,0,0,.21.72.63.63,0,0,0,.55.26,1.56,1.56,0,0,0,.52-.07,2.46,2.46,0,0,0,.46-.23l.27.66a1.72,1.72,0,0,1-.59.33A2.26,2.26,0,0,1,94.17,231.08Zm-.06-3.38a.42.42,0,0,0-.4.23,1.71,1.71,0,0,0-.16.64h1v-.09a1.31,1.31,0,0,0-.1-.58A.34.34,0,0,0,94.11,227.7Z" transform="translate(-7.93 -9.22)"/><path class="cls-12" d="M97.1,226.94l.05.57a1.28,1.28,0,0,1,.42-.47.9.9,0,0,1,.55-.17,1,1,0,0,1,.82.4,2.22,2.22,0,0,1,.29,1.27V231H98.17v-2.46a1.28,1.28,0,0,0-.11-.65.35.35,0,0,0-.33-.19.66.66,0,0,0-.32.08.87.87,0,0,0-.24.23v3H96.11v-4.06Z" transform="translate(-7.93 -9.22)"/><path class="cls-12" d="M101.4,230.25a.36.36,0,0,0,.34-.17.8.8,0,0,0,.12-.47h1v0a1.37,1.37,0,0,1-.4,1,1.39,1.39,0,0,1-1,.41,1.42,1.42,0,0,1-1.22-.58,2.42,2.42,0,0,1-.42-1.47v-.11a2.47,2.47,0,0,1,.42-1.48,1.44,1.44,0,0,1,1.22-.57,1.36,1.36,0,0,1,1,.42,1.56,1.56,0,0,1,.38,1.14v0h-1a1.09,1.09,0,0,0-.12-.55.35.35,0,0,0-.34-.2.47.47,0,0,0-.46.33,2.66,2.66,0,0,0-.13.89V229a2.66,2.66,0,0,0,.13.89A.47.47,0,0,0,101.4,230.25Z" transform="translate(-7.93 -9.22)"/><path class="cls-12" d="M104.92,231.08a1.51,1.51,0,0,1-1.25-.56,2.24,2.24,0,0,1-.44-1.43v-.15a2.51,2.51,0,0,1,.42-1.5,1.43,1.43,0,0,1,1.2-.57,1.3,1.3,0,0,1,1.1.49,2.08,2.08,0,0,1,.38,1.33v.58h-2a1.36,1.36,0,0,0,.2.72.63.63,0,0,0,.55.26,1.62,1.62,0,0,0,.53-.07A2.4,2.4,0,0,0,106,230l.28.66a1.83,1.83,0,0,1-.59.33A2.3,2.3,0,0,1,104.92,231.08Zm-.07-3.38a.4.4,0,0,0-.39.23,1.69,1.69,0,0,0-.17.64h1v-.09a1.48,1.48,0,0,0-.1-.58A.36.36,0,0,0,104.85,227.7Z" transform="translate(-7.93 -9.22)"/><rect class="cls-13" x="67.28" y="227.57" width="31.7" height="1.81"/><rect class="cls-13" x="67.28" y="230.75" width="31.7" height="1.81"/><rect class="cls-13" x="67.28" y="233.94" width="31.7" height="1.81"/><rect class="cls-13" x="67.28" y="241.8" width="31.7" height="1.81"/><rect class="cls-13" x="67.28" y="244.98" width="31.7" height="1.81"/><rect class="cls-13" x="67.28" y="248.17" width="31.7" height="1.81"/><rect class="cls-13" x="67.28" y="256.11" width="31.7" height="1.81"/><rect class="cls-13" x="67.28" y="259.3" width="31.7" height="1.81"/><rect class="cls-13" x="67.28" y="262.48" width="31.7" height="1.81"/><polygon class="cls-14" points="55.78 234.68 51.76 230.66 53.22 229.21 55.73 231.72 61.4 225.64 62.9 227.04 55.78 234.68"/><polygon class="cls-14" points="55.78 248.13 51.76 244.11 53.22 242.66 55.73 245.17 61.4 239.09 62.9 240.49 55.78 248.13"/><polygon class="cls-14" points="55.78 262.47 51.76 258.45 53.22 257 55.73 259.51 61.4 253.43 62.9 254.83 55.78 262.47"/><path class="cls-13" d="M90.08,213.08a6.68,6.68,0,0,0-13.36,0v2.8H90.08v-2.8Zm-9-1.18a2.29,2.29,0,0,1,2.29-2.29,2.29,2.29,0,0,1,2.29,2.29v.91H81.11Z" transform="translate(-7.93 -9.22)"/><rect class="cls-13" x="73.18" y="203.59" width="4.58" height="0.23"/><path class="cls-11" d="M90.08,213.08a6.68,6.68,0,0,0-13.36,0v.23a6.68,6.68,0,0,1,13.36,0v-.23Z" transform="translate(-7.93 -9.22)"/><path class="cls-15" d="M90.08,213.23v2.65H76.72v-2.8H90.08Z" transform="translate(-7.93 -9.22)"/><rect class="cls-13" x="60.63" y="204.39" width="29.68" height="8.93" rx="3.72" ry="3.72"/><path class="cls-11" d="M97,213.61H69.84a1.28,1.28,0,0,0-1.28,1.29v.23a1.28,1.28,0,0,1,1.28-1.29H97a1.29,1.29,0,0,1,1.29,1.29v-.23A1.29,1.29,0,0,0,97,213.61Z" transform="translate(-7.93 -9.22)"/><path class="cls-15" d="M97,220.94H69.84a1.28,1.28,0,0,1-1.28-1.29v1.6a1.28,1.28,0,0,0,1.28,1.29H97a1.29,1.29,0,0,0,1.29-1.29v-1.6A1.29,1.29,0,0,1,97,220.94Z" transform="translate(-7.93 -9.22)"/><path class="cls-11" d="M95.38,215.88h-24a.34.34,0,0,1-.34-.33h0a.34.34,0,0,1,.34-.33h24a.33.33,0,0,1,.33.33h0A.33.33,0,0,1,95.38,215.88Z" transform="translate(-7.93 -9.22)"/><path class="cls-11" d="M95.38,217.92h-24a.34.34,0,0,1-.34-.34h0a.34.34,0,0,1,.34-.33h24a.33.33,0,0,1,.33.33h0A.34.34,0,0,1,95.38,217.92Z" transform="translate(-7.93 -9.22)"/><path class="cls-11" d="M95.38,220h-24a.34.34,0,0,1-.34-.33h0a.34.34,0,0,1,.34-.34h24a.34.34,0,0,1,.33.34h0A.33.33,0,0,1,95.38,220Z" transform="translate(-7.93 -9.22)"/><rect class="cls-15" x="63.15" y="205.72" width="24.63" height="0.67" rx="0.28" ry="0.28"/><path class="cls-15" d="M95.38,217.64h-24a.34.34,0,0,1-.34-.34h0a.34.34,0,0,1,.34-.33h24a.33.33,0,0,1,.33.33h0A.34.34,0,0,1,95.38,217.64Z" transform="translate(-7.93 -9.22)"/><path class="cls-15" d="M95.38,219.67h-24a.34.34,0,0,1-.34-.33h0a.34.34,0,0,1,.34-.34h24a.34.34,0,0,1,.33.34h0A.33.33,0,0,1,95.38,219.67Z" transform="translate(-7.93 -9.22)"/><path class="cls-11" d="M64.05,279.23a4.59,4.59,0,1,0,4.59,4.59A4.6,4.6,0,0,0,64.05,279.23Zm0,7.29a2.7,2.7,0,1,1,2.69-2.7A2.7,2.7,0,0,1,64.05,286.52Z" transform="translate(-7.93 -9.22)"/><rect class="cls-13" x="67.28" y="270.51" width="31.7" height="1.81"/><rect class="cls-13" x="67.28" y="273.7" width="31.7" height="1.81"/><rect class="cls-13" x="67.28" y="276.88" width="31.7" height="1.81"/><path class="cls-16" d="M65.53,279.36a3,3,0,0,0-4.79-3.7l-7.89,9.11a1.93,1.93,0,0,1-2.37.44l-3.9-2.08a8.3,8.3,0,0,1-2.73-2.37L42.55,279l-3.26,1.74a1.8,1.8,0,0,0-.91,1.23l-3.15,15.69a1.73,1.73,0,0,0,0,.6l2.07,11.25-1.15,7.55,12.94-1.69c1.85-2.6,2.47-3.21,3.29-4.51a30.23,30.23,0,0,0,3.81-8.43l2.14-8a1.58,1.58,0,0,1,.19-.44l.79-5.57Z" transform="translate(-7.93 -9.22)"/><rect class="cls-11" x="39.96" y="306.74" width="5.06" height="18.1" transform="translate(352.92 319.72) rotate(100.03)"/><path class="cls-17" d="M32.44,316.59l-1.54,7a71,71,0,0,0,19.28,13.6l2.18-17.05Z" transform="translate(-7.93 -9.22)"/><line class="cls-18" x1="23.94" y1="309.94" x2="44.08" y2="313.55"/><line class="cls-18" x1="23.44" y1="312.19" x2="43.79" y2="315.83"/><line class="cls-18" x1="22.95" y1="314.43" x2="43.5" y2="318.1"/><path class="cls-19" d="M45.6,319l1.49.21.94-5,3.42-2-1.75,2.3,2.14.41-.88,5,1.4.24-2.18,17.05a70.25,70.25,0,0,1-7.18-4Z" transform="translate(-7.93 -9.22)"/><path class="cls-20" d="M93,284.55l-.79,1.05a.38.38,0,0,0,.11.56l3.91,2.31.06,0,2.07.74a.42.42,0,0,0,.36-.05l1.79-1.34a.42.42,0,0,0,.14-.24l.57-3.09a.39.39,0,0,0-.39-.45l-.48,0,.17.78-.17-.78-7.06.31A.38.38,0,0,0,93,284.55Z" transform="translate(-7.93 -9.22)"/><rect class="cls-11" x="113.64" y="291.01" width="6.7" height="17.9" transform="translate(195.33 -19.45) rotate(36.85)"/><path class="cls-16" d="M93.52,268.38a.48.48,0,0,0-.45,0l-16.21,9.87a1.37,1.37,0,0,0-.08,2.29l2.26,1.6.17.17,1.61-1.52,13.31-4.68,5,2.05.78,3.67.46,2.22.48,0a.39.39,0,0,1,.39.45l-.57,3.09a.42.42,0,0,1-.14.24l-.33.24c4,2.84,9.78,3.09,14.54,1.29a1.46,1.46,0,0,1-.16-.41l-1.74-8.07-.55-2.54a3,3,0,0,0-1.12-1.75l-3.6-2.71Z" transform="translate(-7.93 -9.22)"/><path class="cls-17" d="M143.53,306.18l-18.06-12.34-12,16,16.91,14A71.23,71.23,0,0,0,143.53,306.18Z" transform="translate(-7.93 -9.22)"/><path class="cls-7" d="M87.79,286l5,.1c-.21-.12,8.64-2.22,8.64-2.22l-1.33-6.34-5.34-2.2-14.31,5L78.73,282C79,282.28,87.79,286,87.79,286Z" transform="translate(-7.93 -9.22)"/><path class="cls-14" d="M108.05,278.31l-37.92,2.45.26,4.72,38.06-2.28a1.51,1.51,0,0,0,1.4-1.67l-.2-1.88A1.51,1.51,0,0,0,108.05,278.31Z" transform="translate(-7.93 -9.22)"/><polygon class="cls-16" points="62.46 276.26 57.46 274.5 62.2 271.54 62.46 276.26"/><polygon class="cls-14" points="57.46 274.5 59.4 275.18 59.23 273.39 57.46 274.5"/><line class="cls-18" x1="107.22" y1="302.19" x2="119.48" y2="285.81"/><line class="cls-18" x1="109.01" y1="303.65" x2="121.39" y2="287.1"/><line class="cls-18" x1="110.78" y1="305.1" x2="123.29" y2="288.38"/><path class="cls-16" d="M100.16,288.09l-1.46,1.1a.42.42,0,0,1-.36.05l-2.07-.74-.06,0-2.39-1.41-5.24-3L83.83,282a3.4,3.4,0,0,0-4.09,1l-.5.67a3.26,3.26,0,0,0,1.87,4.13l1.91.74,4.55,3,6.55,6.11a2.12,2.12,0,0,0,.38.29l5,3.06a2.84,2.84,0,0,0,1.26.41l4.63.38a1.53,1.53,0,0,1,.68.23l3.47,2.25,9-11.92-3.41-2.57a1.4,1.4,0,0,1-.39-.45C109.94,291.18,104.16,290.93,100.16,288.09Z" transform="translate(-7.93 -9.22)"/><path class="cls-19" d="M116.54,305.73l-.46.61-5.09-4-.42.58-1.84-1.31-2.68.47,3.47,2.25-.58.8L114.1,309l-.64.85,16.91,14c1.62-1.58,3.16-3.25,4.62-5Z" transform="translate(-7.93 -9.22)"/><circle class="cls-21" cx="72.87" cy="264" r="70.87"/><circle class="cls-6" cx="292.41" cy="72.87" r="70.87"/><g class="cls-22"><g id="_4" data-name="4"><polygon class="cls-23" points="279.65 62.98 278.64 51.35 265.31 51.92 266.31 63.55 279.65 62.98"/><polygon class="cls-23" points="286.5 143.39 285.5 131.76 272.16 132.32 273.16 143.95 286.5 143.39"/><path class="cls-24" d="M342.24,147.91l-.37-13.73a3.94,3.94,0,0,0-2.71-3.57l-6.57-2.31,1.72,19.64,4.54,2A2.37,2.37,0,0,0,342.24,147.91Z" transform="translate(-7.93 -9.22)"/><polygon class="cls-24" points="270 140.86 262.71 56.27 269.29 55.99 276.59 140.58 270 140.86"/><path class="cls-23" d="M306.25,139.33c-6-.81-10.74,10-10.74,10l-11,.47-7.3-84.59,8.63-.36a6.93,6.93,0,0,1,6.91,6.5l3.56,41.34,38,13.9a4.08,4.08,0,0,1,3,3.64l1.08,16a3.51,3.51,0,0,1-4.84,3.75C323.26,145.46,310,139.83,306.25,139.33Z" transform="translate(-7.93 -9.22)"/><path class="cls-24" d="M303.92,120.91l25.59,7.34a5.31,5.31,0,0,1,3.71,4.93l.19,5a4.59,4.59,0,0,1-6,4.82c-7.42-2.48-19.54-6.13-25.49-7.91a5.3,5.3,0,0,1-3.65-4.92l-.17-4.36A4.6,4.6,0,0,1,303.92,120.91Z" transform="translate(-7.93 -9.22)"/><path class="cls-23" d="M291.48,89.17c4.72-.55,10.7,2.17,15.28,3.61,11.65,3.67,11.51,20.24,12.38,30.34l-6.41-3.56c1.95-.09-.68-10.71-1.08-12.11-3.48-12.19-16.42-12.92-26.06-12.93C287.11,90.87,289.12,89.45,291.48,89.17Z" transform="translate(-7.93 -9.22)"/><path class="cls-23" d="M293.35,109.65s7.9-2.68,12.92-6.87a1.54,1.54,0,0,1,2.4,1.52c-.46,5.88-7.11,9.27-13.45,11.69C287.72,118.85,293.35,109.65,293.35,109.65Z" transform="translate(-7.93 -9.22)"/><path class="cls-24" d="M294.52,135.57,292.67,114a4.06,4.06,0,0,0-4.23-3.71h0a4.07,4.07,0,0,0-3.89,4.42l1.85,21.54a4.09,4.09,0,0,0,4.24,3.72h0A4.07,4.07,0,0,0,294.52,135.57Z" transform="translate(-7.93 -9.22)"/><polygon class="cls-24" points="282.1 90.12 279.12 55.58 275.11 55.75 278.08 90.28 282.1 90.12"/></g><rect class="cls-25" x="248.98" y="27.23" width="89.2" height="119.77"/><rect class="cls-26" x="249.35" y="27.23" width="88.83" height="119.56"/><rect class="cls-20" x="249.16" y="27.34" width="88.83" height="119.56"/><polygon class="cls-27" points="248.98 146.8 337.81 146.8 337.81 43.05 248.98 105.08 248.98 146.8"/><polygon class="cls-28" points="248.98 27.23 248.98 147 303.29 147 269.18 27.23 248.98 27.23"/><rect class="cls-29" x="248.98" y="39.1" width="89.2" height="3.78"/></g><circle class="cls-30" cx="292.41" cy="72.87" r="70.87"/><rect class="cls-29" x="263.58" y="78.33" width="65.48" height="42.8" rx="2.27" ry="2.27"/><rect class="cls-10" x="267.12" y="88.45" width="58.68" height="29.76" rx="2.27" ry="2.27"/><line class="cls-31" x1="269.67" y1="93.21" x2="322.25" y2="93.21"/><line class="cls-31" x1="269.67" y1="97.21" x2="322.25" y2="97.21"/><line class="cls-31" x1="269.67" y1="101.22" x2="322.25" y2="101.22"/><line class="cls-31" x1="269.67" y1="105.22" x2="322.25" y2="105.22"/><line class="cls-31" x1="269.67" y1="109.22" x2="322.25" y2="109.22"/><line class="cls-31" x1="269.67" y1="113.22" x2="322.25" y2="113.22"/><path class="cls-10" d="M291.87,92.93h-1.74v1.12h1.94v.88h-3V90.21H292v.87h-1.85v1h1.74Z" transform="translate(-7.93 -9.22)"/><path class="cls-10" d="M294,94.93l-1.51-4.72h1.17l.57,2a15.45,15.45,0,0,1,.42,1.69h0c.11-.57.26-1.13.42-1.67l.61-2h1.13l-1.59,4.72Z" transform="translate(-7.93 -9.22)"/><path class="cls-10" d="M298.37,90.21v4.72H297.3V90.21Z" transform="translate(-7.93 -9.22)"/><path class="cls-10" d="M299.3,90.27a9.84,9.84,0,0,1,1.44-.1,3,3,0,0,1,1.93.51,2.08,2.08,0,0,1,.8,1.78,2.42,2.42,0,0,1-.78,1.91,3.43,3.43,0,0,1-2.18.61,10.16,10.16,0,0,1-1.21-.07Zm1.07,3.85a2.06,2.06,0,0,0,.37,0,1.46,1.46,0,0,0,1.6-1.65,1.36,1.36,0,0,0-1.49-1.5,2.27,2.27,0,0,0-.48,0Z" transform="translate(-7.93 -9.22)"/><path class="cls-10" d="M307,92.93h-1.74v1.12h1.94v.88h-3V90.21h2.91v.87h-1.84v1H307Z" transform="translate(-7.93 -9.22)"/><path class="cls-10" d="M307.91,94.93V90.21h1.24l1,1.73a12.68,12.68,0,0,1,.77,1.62h0a17.73,17.73,0,0,1-.09-2V90.21h1v4.72h-1.12l-1-1.82a18.47,18.47,0,0,1-.82-1.67h0c0,.62.05,1.29.05,2.06v1.42Z" transform="translate(-7.93 -9.22)"/><path class="cls-10" d="M316.2,94.8A3.15,3.15,0,0,1,315,95a2.25,2.25,0,0,1-2.47-2.36,2.41,2.41,0,0,1,2.58-2.51,2.75,2.75,0,0,1,1.16.21l-.22.85a2.28,2.28,0,0,0-.89-.18,1.56,1.56,0,0,0,0,3.11A2.53,2.53,0,0,0,316,94Z" transform="translate(-7.93 -9.22)"/><path class="cls-10" d="M319.71,92.93H318v1.12h1.94v.88h-3V90.21h2.92v.87H318v1h1.74Z" transform="translate(-7.93 -9.22)"/><rect class="cls-32" x="242.9" y="35.74" width="101.29" height="10.17" rx="2.27" ry="2.27"/><circle class="cls-6" cx="450.16" cy="112.87" r="70.87"/><path class="cls-16" d="M461.89,153.3l-44-9.66L411,175a70.67,70.67,0,0,0,27.68,15.2l1.59-7.24Z" transform="translate(-7.93 -9.22)"/><path class="cls-33" d="M428,67.93h59.7c8.27,0,6,4.84,6,10.76v81.08c0,5.91,2.24,10.75-6,10.75H427c-8.27,0-6-4.84-6-10.75V78.69C420.94,72.77,419.71,67.93,428,67.93Z" transform="translate(-7.93 -9.22)"/><rect class="cls-17" x="440.73" y="61.25" width="17.34" height="1.56" rx="0.78" ry="0.78"/><path class="cls-34" d="M457.33,163a2.63,2.63,0,1,1-2.63,2.62A2.62,2.62,0,0,1,457.33,163Z" transform="translate(-7.93 -9.22)"/><path class="cls-35" d="M425.78,76.54h63.09c.13,0,.23.06.23.14v83.78c0,.08-.1.14-.23.14H425.78c-.12,0-.22-.06-.22-.14V76.68C425.56,76.6,425.66,76.54,425.78,76.54Z" transform="translate(-7.93 -9.22)"/><path class="cls-36" d="M426.49,160.6h17.37l25.85-84.06H426.49a.92.92,0,0,0-.93.92v82.22A.92.92,0,0,0,426.49,160.6Z" transform="translate(-7.93 -9.22)"/><path class="cls-37" d="M420.49,153.84c4.41,6.87,11,17.35,3.76,25.4C421,176.76,416.87,163.56,420.49,153.84Z" transform="translate(-7.93 -9.22)"/><path class="cls-38" d="M420.49,153.84c3,5.33,7.33,15.06,4.61,23.67S414.69,166.86,420.49,153.84Z" transform="translate(-7.93 -9.22)"/><path class="cls-39" d="M486.32,104.47a25.88,25.88,0,0,1-11.18,16.69,25.51,25.51,0,1,1-27.79-42.79A26,26,0,0,1,467.43,75C471.82,76,487.16,100.41,486.32,104.47Z" transform="translate(-7.93 -9.22)"/><path class="cls-40" d="M482.64,85.87a26.21,26.21,0,0,1,3.84,17.81L467.93,75.13A26.19,26.19,0,0,1,482.64,85.87Z" transform="translate(-7.93 -9.22)"/><path class="cls-41" d="M465.87,109.2l-13,8.47-2.08-3.2,1.51-7.28c.4-2.13.64-3.55.71-4.28a6.88,6.88,0,0,0,0-1.76,3.26,3.26,0,0,0-.48-1.23,1.7,1.7,0,0,0-1.17-.81,2.21,2.21,0,0,0-1.54.43,4.09,4.09,0,0,0-1.4,1.6,14.34,14.34,0,0,0-1,2.7l-4.69-1.39a16.61,16.61,0,0,1,1.18-3.29A10.12,10.12,0,0,1,445.38,97a12.32,12.32,0,0,1,2.32-1.91,8.89,8.89,0,0,1,3.51-1.41,5.88,5.88,0,0,1,3.27.37,5.4,5.4,0,0,1,2.41,2.06,8.31,8.31,0,0,1,1,2.12,8.52,8.52,0,0,1,.33,2.3,14.76,14.76,0,0,1-.28,2.78q-.3,1.55-1.54,6.17l.08.12,6.79-4.41Z" transform="translate(-7.93 -9.22)"/><path class="cls-41" d="M470.88,86a5.12,5.12,0,0,1,.84,3.53,6.9,6.9,0,0,1-1.82,3.65l.05.08q4.86-2.35,7.26,1.33a5.5,5.5,0,0,1,.57,5.23,11,11,0,0,1-4.57,5,19.77,19.77,0,0,1-2.82,1.53,16.26,16.26,0,0,1-3.17,1l-2.62-4a13.07,13.07,0,0,0,3-.67,11.89,11.89,0,0,0,2.45-1.18,5.43,5.43,0,0,0,2-2,1.84,1.84,0,0,0-.18-1.88,1.88,1.88,0,0,0-1.12-.89,2.88,2.88,0,0,0-1.62.2,11.67,11.67,0,0,0-2.34,1.23l-1.11.72-2.37-3.65,1.13-.74q3.71-2.4,2.47-4.29a1.39,1.39,0,0,0-1.23-.7,3.24,3.24,0,0,0-1.69.61,8,8,0,0,0-2.82,3.47l-4.12-1.94a11.83,11.83,0,0,1,2-3.29,14.9,14.9,0,0,1,3.15-2.64,9,9,0,0,1,5.09-1.74A4.21,4.21,0,0,1,470.88,86Z" transform="translate(-7.93 -9.22)"/><line class="cls-20" x1="482.88" y1="103.56" x2="479.68" y2="95.58"/><path class="cls-16" d="M496.07,174.32c-.75-.67-1.47-1.29-2.16-1.89l2.36,9.34a73.15,73.15,0,0,0,6-4.31A16,16,0,0,1,496.07,174.32Z" transform="translate(-7.93 -9.22)"/><path class="cls-16" d="M477.79,132.7c-4-2.66-8-.94-10.32.34l11.93,23.82c1,2,5,6.88,8.63,9.77a8.74,8.74,0,0,1-1.21-2.52Z" transform="translate(-7.93 -9.22)"/><path class="cls-16" d="M487,119.9l.12-.18Z" transform="translate(-7.93 -9.22)"/><path class="cls-16" d="M508.78,119.26a5.71,5.71,0,0,1,.76.93A5.71,5.71,0,0,0,508.78,119.26Z" transform="translate(-7.93 -9.22)"/><path class="cls-16" d="M497.75,120.38a6.6,6.6,0,0,1,.51,1A6.6,6.6,0,0,0,497.75,120.38Z" transform="translate(-7.93 -9.22)"/><path class="cls-16" d="M497.11,119.52a6.7,6.7,0,0,1,.45.6A6.7,6.7,0,0,0,497.11,119.52Z" transform="translate(-7.93 -9.22)"/><path class="cls-16" d="M498.26,121.37a5.65,5.65,0,0,1,.29-1A5.65,5.65,0,0,0,498.26,121.37Z" transform="translate(-7.93 -9.22)"/><path class="cls-16" d="M486.67,120.61a.31.31,0,0,0-.05.1C486.64,120.76,486.65,120.71,486.67,120.61Z" transform="translate(-7.93 -9.22)"/><path class="cls-16" d="M488,166.63c1.32,2,3.4,3.67,5.88,5.8l-.94-3.68C491.84,169.19,490,168.21,488,166.63Z" transform="translate(-7.93 -9.22)"/><path class="cls-16" d="M509.91,119.43c1.15,4.47,2.42,9.5,2.42,9.5s-2-5.33-3.62-9.74c-3-3-8.56-2.71-10.15,1.2,1.31,4.93,2.91,11,2.91,11s-2.8-7.34-4.43-12c-2.63-2.89-7.58-3-9.72,0,1.27,5,3.24,13.6,3.24,13.6s-2.88-8.61-3.94-12.31l-8-29.77c-1.91-7.33-14.47-5.76-11.91,3.1l11.11,38.66a15.4,15.4,0,0,1,4.63,5.3l9.44,16.33a29.12,29.12,0,0,1,2.26,7.29l23.37-.91a70.4,70.4,0,0,0,8.67-18.92l-5.5-20.09C519.23,116.5,512.23,115.59,509.91,119.43Z" transform="translate(-7.93 -9.22)"/><path class="cls-16" d="M517.49,160.71l-23.37.91c.58,3.27.56,6.45-1.13,7.13h0l.94,3.68c.69.6,1.41,1.22,2.16,1.89a16,16,0,0,0,6.22,3.14A71.35,71.35,0,0,0,517.49,160.71Z" transform="translate(-7.93 -9.22)"/><path class="cls-16" d="M493,168.75l-1.78-7,2.93-.11a29.12,29.12,0,0,0-2.26-7.29L482.42,138a15.4,15.4,0,0,0-4.63-5.3l9,31.41a8.74,8.74,0,0,0,1.21,2.52C490,168.21,491.84,169.19,493,168.75Z" transform="translate(-7.93 -9.22)"/><path class="cls-16" d="M493,168.75h0c1.69-.68,1.71-3.86,1.13-7.13l-2.93.11Z" transform="translate(-7.93 -9.22)"/><path class="cls-42" d="M497.56,120.12l.19.26Z" transform="translate(-7.93 -9.22)"/><path class="cls-42" d="M497,119.42v0l.07.06Z" transform="translate(-7.93 -9.22)"/><path class="cls-42" d="M486.67,120.57v0a5.1,5.1,0,0,1,.32-.71A5.94,5.94,0,0,0,486.67,120.57Z" transform="translate(-7.93 -9.22)"/><path class="cls-42" d="M487.31,119.4a3.45,3.45,0,0,0-.2.32,3.21,3.21,0,0,1,.21-.3Z" transform="translate(-7.93 -9.22)"/><path class="cls-42" d="M508.7,119.15v0a.23.23,0,0,1,.07.07A1,1,0,0,0,508.7,119.15Z" transform="translate(-7.93 -9.22)"/><path class="cls-42" d="M498.56,120.39v0Z" transform="translate(-7.93 -9.22)"/><path class="cls-42" d="M509.91,119.43a4.46,4.46,0,0,0-.37.76,4.86,4.86,0,0,1,.37-.76Z" transform="translate(-7.93 -9.22)"/><path class="cls-42" d="M487.32,119.42a3.21,3.21,0,0,0-.21.3l-.12.18a5.1,5.1,0,0,0-.32.71c0,.1,0,.15-.05.1,1.06,3.7,3.94,12.31,3.94,12.31S488.59,124.44,487.32,119.42Z" transform="translate(-7.93 -9.22)"/><path class="cls-42" d="M498.56,120.39v0a5.65,5.65,0,0,0-.29,1,6.6,6.6,0,0,0-.51-1l-.19-.26a6.7,6.7,0,0,0-.45-.6l-.07-.06c1.63,4.63,4.43,12,4.43,12S499.87,125.32,498.56,120.39Z" transform="translate(-7.93 -9.22)"/><path class="cls-42" d="M509.91,119.43a4.86,4.86,0,0,0-.37.76,5.71,5.71,0,0,0-.76-.93.23.23,0,0,0-.07-.07c1.61,4.41,3.62,9.74,3.62,9.74S511.06,123.9,509.91,119.43Z" transform="translate(-7.93 -9.22)"/><path class="cls-43" d="M478.34,87.38a76,76,0,0,1,6.76,12.13,12.58,12.58,0,0,1,1.25,4.54.15.15,0,0,0,0,.06v0h0c-.57-2.81-3-4.46-5.32-5.75-2.84-1.58-5.93-3.49-7.81-6.39a9.79,9.79,0,0,1-2-4.85c-.57-3.07-.77-10.55-3.62-12l.08,0a11.56,11.56,0,0,1,3.3,2.64A65.44,65.44,0,0,1,478.34,87.38Z" transform="translate(-7.93 -9.22)"/><path class="cls-16" d="M424.49,135c1.67-7.86-3.22-10.49-8.06-12l-8.53,40.18a27.22,27.22,0,0,0,0,8.92,73.44,73.44,0,0,0,7.65,6.66l1-6Z" transform="translate(-7.93 -9.22)"/><circle class="cls-21" cx="450.16" cy="112.87" r="70.87"/><circle class="cls-6" cx="430.16" cy="409.2" r="70.87"/><path class="cls-33" d="M411,368.47H465.2c8.06,0,8.32,4.72,8.32,10.47v79c0,5.76-.26,10.47-8.32,10.47H411c-8.05,0-8.32-4.71-8.32-10.47v-79C402.65,373.19,402.92,368.47,411,368.47Z" transform="translate(-7.93 -9.22)"/><path class="cls-35" d="M407.2,376.85H469c.12,0,.22.07.22.15v82c0,.08-.1.15-.22.15H407.2c-.12,0-.22-.07-.22-.15V377C407,376.92,407.08,376.85,407.2,376.85Z" transform="translate(-7.93 -9.22)"/><rect class="cls-17" x="421.72" y="361.72" width="16.88" height="1.51" rx="0.76" ry="0.76"/><path class="cls-34" d="M438.09,461.06a2.56,2.56,0,1,1-2.56,2.56A2.56,2.56,0,0,1,438.09,461.06Z" transform="translate(-7.93 -9.22)"/><path class="cls-44" d="M407.89,459.16h17l25.3-82.31H407.89a.91.91,0,0,0-.91.91v80.49A.91.91,0,0,0,407.89,459.16Z" transform="translate(-7.93 -9.22)"/><path class="cls-45" d="M456.79,448.14h0Z" transform="translate(-7.93 -9.22)"/><path class="cls-45" d="M457.45,445.92h0Z" transform="translate(-7.93 -9.22)"/><path class="cls-45" d="M456.64,446.92h0S456.63,446.91,456.64,446.92Z" transform="translate(-7.93 -9.22)"/><path class="cls-45" d="M461.85,435.2a9.8,9.8,0,0,0-2.68-1.74,10.35,10.35,0,0,0-2.68-.74c-.2,0-2.37-.36-2.22,0,.05.14.75-.09.75,0s-1.26.23-1.2.45,1.22-.12,1.28-.33c.13-.54,1.08.12.6.25a7.85,7.85,0,0,1-1.3.23,3.91,3.91,0,0,0-1.61.93,4.84,4.84,0,0,0-1.87,3.71c0,.38,0,.76,0,1.14,0,.15-.11.4-.08.53.05.28.35.89.13,1.16s.37,1.54.53,1.81.67,1.52.5,1.42c-.48-.28-.7-1.23-.93-1.71a6.47,6.47,0,0,1-.39-2c.06-1.44-.2-3,.4-4.34a5.88,5.88,0,0,1,1.26-1.78c.25-.25,1.32-.6,1.39-.85s-1.13.43-1.21.48a4.49,4.49,0,0,0-1.55,1.69c-.83,1.6-.7,3.56-.53,5.32,0,.43.1.87.17,1.29s.19.29.23.46.84,1.88,1.07,1.81.07-.29.41-.12c0,0,.31.29.28.22.09.23,1.24,1.15,1.17,1.24-.2.29-1.33-.93-1.45-1.1s-.37,0-.1.23a3,3,0,0,1,.72.8c.12.33.59.41.86.5s.76.66,1.06.7.49.25.81.16c.06,0,.12.17.14.18s.69-.06.68.16-1.75-.32-1.87-.38c-.35-.17-.67-.36-1-.56s-.93-.4-1-.66-.55-.42-.66-.76a5,5,0,0,0-.76-1.17,5.52,5.52,0,0,1-.83-2.37c-.52-3.23-.35-7.56,3.25-8.88-.05,0,.84-.17.56-.3s-.63.27-.88.34a2.19,2.19,0,0,0-.87.45c-.2.19-.68.37-.76.65s-.37.38-.45.56-.42.42-.56.65a6.16,6.16,0,0,0-.83,2.84,16.13,16.13,0,0,0,.1,2.78,6.63,6.63,0,0,0,.18,1.86,6.12,6.12,0,0,0,1.39,2.26c.13.14.94,1.22.92,1.23-.49.34-1-1.32-1.25-1s1.13,1.1.95,1.34-.95-.62-1-.73a1.75,1.75,0,0,0-.67-.68c-.21-.1-.36-.55-.48-.76a4.45,4.45,0,0,1-.94-2.4,13.57,13.57,0,0,0,0-1.92c-.06-1.4-.25-3.13.54-4.32.27-.41.4-.94.79-1.24l1.08-.8c.17-.13,1.12-.65,1.14-.85a6.33,6.33,0,0,0-3.29,2.85,3.58,3.58,0,0,0-.45,2.11,11.56,11.56,0,0,0,0,1.86,2.74,2.74,0,0,1-.1,1.29c-.27.21.17,1.86.26,2.18a5.26,5.26,0,0,0,.94,1.64,11,11,0,0,1,1,1.16,4.35,4.35,0,0,0,1,.93,4.54,4.54,0,0,0,2,.75c.64.16,1.34.32,2,.54.13,0,.08.19-.05.17-.39-.06-.78-.14-1.16-.21a14.48,14.48,0,0,1-2.28-.63,7.07,7.07,0,0,1-.76-.43c-.35-.15,0,.28,0,.29a3,3,0,0,0,1.17.67c.23.06,1.8.12,1.82.37s-3.17-.31-3.12-.41c-.09.18.72.22.72.47s-.34,0-.45.08.54.4.56.06a6.79,6.79,0,0,1,1.51.08c.66.08,1.33.09,2,.16.18,0,.71,0,.83.16s1-.16,1.14-.18a16.61,16.61,0,0,0,1.74-.51c.06,0,1.11.14,1-.17s-1.7.11-1.83-.08c-.31-.42,1.56-.26,1.7-.28s2.13.17,2.08-.3a19.21,19.21,0,0,0-2,.23c-.1,0-.22-.18-.35-.17A3.69,3.69,0,0,1,459,447c-.39-.11-.77-.25-1.16-.37s-.46-.3,0-.21.79.23,1.18.34.85.06,1.25.18a1.61,1.61,0,0,0,.82.1c.19,0,.61-.32.21-.28a6.25,6.25,0,0,1-2.27-.29,3.63,3.63,0,0,1-.85-.26s-.39-.25-.12-.2a18.92,18.92,0,0,0,2.15.35c0-.18-1.75-.43-1.61-.65s1.6.31,1.82.36a11.08,11.08,0,0,0,2.08.15,2.13,2.13,0,0,1,.71,0c.16.07.6-.13.36-.25s-1.27.1-1.69.08a9.33,9.33,0,0,1-4.05-1.22,10.56,10.56,0,0,1-1.56-1.08c-.2-.18-1.16-1.34-1.4-1.24s.91,1.25,1,1.37a5.9,5.9,0,0,0,1.18.93c.05,0,.86.46.54.53-.64.15-1.91-1.26-2.29-1.66a18.54,18.54,0,0,0-2-2.34c.09,1.48,2,2.94,3.09,3.68.14.1.71.35.74.54.05.39-.65-.14-.7-.17a9.36,9.36,0,0,1-1.73-1.41,8.51,8.51,0,0,1-2.32-4c0-.14-.28-.84-.19-1s.1-.49.23-.18.26,2.24.64,2.19-.53-1.41-.15-1.52.39,1.2.46,1.31.29.53.45.75.26,0,.31,0c.16-.21-.11-.16-.15-.26s-.77-1.44-.56-1.53.61,1.19.7,1.36,1,1.25,1,1.07-1-1.46-.78-1.56.68.91.84,1,.12.38.34.5.64.37.65.5.45.25.42,0-.48-.54-.64-.69a3.48,3.48,0,0,1-1.19-1.64,9.84,9.84,0,0,1,1.27,1.39c.15.19.49.41.6.62s.61.32.72.68a10,10,0,0,0,1.3.79,10.59,10.59,0,0,1,1.65.74c0,.49-3.48-1.63-3.46-1.63-.17.13,1,1.16,1.18,1.21.72.23,1.38.63,2.12.85a10.2,10.2,0,0,1,1.58.24,5.26,5.26,0,0,0,2.09.21c-.27-.29-1.52-.35-1.9-.35a6.82,6.82,0,0,1-1.46-.32c-.33-.07.18-.25.17-.25a7.77,7.77,0,0,1,1,.21c.37,0,.74,0,1.12.06.05,0,1,.26.73-.12a9.07,9.07,0,0,0-1.95-.14,9.48,9.48,0,0,1-2.5-.95,7.56,7.56,0,0,1-1.51-1.09,9.36,9.36,0,0,1-1.8-1.58,5.84,5.84,0,0,1-1.24-2.12,1,1,0,0,0-.28-.53c-.19-.24-.08-.89,0-1.16a2,2,0,0,1,1.26-1.44c.71-.19,1.43.71,1.88,1.14.64.62,5.75,5.73,6.3,4.92a9,9,0,0,0-1.14-.71,15.47,15.47,0,0,1-1.52-1.24c-.5-.43-.87-.95-1.34-1.41a12.16,12.16,0,0,1-1.66-1.54c-.7-1-2.26-1.83-3.28-.86a2.24,2.24,0,0,0-.89,1.48c0,.1.14,1.68-.16,1.65-.52-.07.15-2.63.32-2.89a2.17,2.17,0,0,1,2.36-1c1,.37,1.46,1.12,2.24,1.73a29.58,29.58,0,0,1,2.78,2.71,6.4,6.4,0,0,0,1.67,1.34c.47.24.35-.15,0-.33a6.52,6.52,0,0,1-1.3-1c-.42-.45-.71-1-1.11-1.47a13,13,0,0,0-1.35-1.32c-.48-.43-1-.85-1.49-1.27a3.65,3.65,0,0,0-1.39-.63c-.28-.09-1.08-.09-1.26-.27s-.84.32-1,.4c-1,.48-1.27,1.58-1.5,2.59,0,.1-.06.85-.08.86-.44.22-.16-1.07-.14-1.19.19-.76.74-2.3,1.57-2.59a4.23,4.23,0,0,1,3.2.1,5.77,5.77,0,0,1,1.47,1,6.12,6.12,0,0,1,1.34,1.35c.1.22.73.5.92.74.35.44.61.94,1,1.36.14.15,1.64,1.47,1.84,1.23,0,0-1.09-1-1.22-1.07-.76-.68-1.06-1.53-1.78-2.22-1.48-1.41-2.87-2.87-5-3a3.32,3.32,0,0,0-3.29,2.16,8.78,8.78,0,0,0-.55,2.71c0,.18.55,1.38.28,1.53s-.37-1-.39-1.11a5.71,5.71,0,0,1,.29-2.92,3.64,3.64,0,0,1,4.46-2.61c1.67.4,2.81,1.59,4.08,2.64l2,1.63c.06,0,1,.8,1.07.63a20.26,20.26,0,0,0-2-1.84c-.73-.66-1.43-1.41-2.19-2-1.39-1.06-3.64-1.84-5.35-1.13a4.8,4.8,0,0,0-2.76,4.33,7.33,7.33,0,0,0,.49,2.79c0,.15.79,1.69.55,1.71.08,0-.4-.64-.4-.64-.2-.43-.19-1-.54-1.37s-.2-.68-.3-1a8.91,8.91,0,0,1-.08-.94c-.05-2,.7-4.32,2.73-5.07a4.44,4.44,0,0,1,2.26-.38,7.93,7.93,0,0,1,3,1.15,21.63,21.63,0,0,1,2.69,2.1c.21.17,1.41,1.55,1.67,1.48a9.62,9.62,0,0,0-1.11-1.34c-.28-.28-.58-.52-.85-.83s-.91-.67-.93-.92c-.05-.52-2-1.21-2.47-1.36a11,11,0,0,0-1.39-.39s-1.12-.23-.78-.4,1.33.22,1.71.34a10.5,10.5,0,0,1,2.82,1.31,4.83,4.83,0,0,1,1.07.9c.17.17.69.44.71.72s1.38,1.51,1.2.74C462.9,436.62,462.36,435.68,461.85,435.2Zm-8.17,11.7c-.19.32-2-.61-1.31-.77C452.51,446,453.79,446.72,453.68,446.9Zm.26.14c0-.14.24-.19.28,0S454,447.21,453.94,447Zm2.42,1.08c-.19.05-.33-.16-.1-.21S456.49,448.08,456.36,448.12Zm1.9-2.53c-.05.1-.51,0-.51-.13C457.72,445.18,458.36,445.43,458.26,445.59Zm-3.37-5.43c0,.25-.29,0-.31-.11S454.88,440,454.89,440.16Zm-.38-.67c.23.17,0,.56-.15.15,0-.17-.23-.37-.25-.54C454,438.21,454.44,439.43,454.51,439.49Zm-.75-.17c.08-.19.46.61.51.81v0a.28.28,0,0,1,0,.2C454.11,440.48,453.71,439.45,453.76,439.32Zm-.52.11c-.14-.22.17,0,.2,0S453.29,439.65,453.24,439.43Zm-.08-2.55a2.76,2.76,0,0,1,1.73-1.88h0a.22.22,0,0,1,.22,0c.06.12-.74.67-.8.71-.23.15-.36.16-.51.39s-.17.6-.31.8a8.59,8.59,0,0,0-.26,2.32C452.88,439.25,453.08,437.13,453.16,436.88Zm-2,3.87h0c0-.15.11-.41.18-.17s-.1.5-.18.17Zm5.67,7.39h0c-.08,0-.23,0-.2-.1S457,448,456.81,448.14Zm-.16-1.22h0c-.13,0-.5-.24-.28-.29S456.86,446.78,456.65,446.92Zm.9,1.31h0c-.53.2-.41-.27-.34-.21s.63,0,.63.11A.52.52,0,0,1,457.55,448.23Zm.7,0c-.16,0-.22-.18,0-.22S458.43,448.22,458.25,448.26Zm.27-.62h0c-.17,0-1.75.1-1.67-.25a4.85,4.85,0,0,1,1.81.17A.13.13,0,0,1,458.52,447.64Zm-1.26-2c.06-.14.42.21.21.27h0C457.27,445.92,457.19,445.78,457.26,445.65ZM458,447l.5.13c.17.06.07.22-.05.2-.28-.07-1.81-.28-1.49-.5h0C457.27,446.7,457.78,446.92,458,447Zm-1.31-.68a2,2,0,0,0,.34-.13c.34,0,.15.25,0,.29s-1.19-.13-.66-.27Zm-4.42-5.06h0V441c0-.16.36.37.38.41a10.08,10.08,0,0,0,1.08,2,8.36,8.36,0,0,0,1.35,1.44c.43.37.9.48,1.37.83,0,0-.11.21-.15.21a4,4,0,0,1-.38-.24,6.51,6.51,0,0,1-1.71-1.27,7.24,7.24,0,0,1-1.93-3.14S452.33,441.33,452.31,441.23Zm-.21,1.51c.13.36.34.74.48,1.06a.21.21,0,0,0,.39-.16c0-.08-.57-.63-.28-.71.07,0,1.37,1.72,1.57,1.91a12.53,12.53,0,0,0,1,.79c.12.09,1,.37,1,.51,0,.46-1.67-.75-1.78-.85l-1.11-1c-.13-.12-.58-.22-.32,0s.31.21.36.41c.11.4.62.4.81.7s1.92,1.21,1.88,1.29c-.13.29-2.24-.86-2.25-.81s.3-.17.29-.18a6.75,6.75,0,0,0-.53-.54c-.35-.33-.95-.67-1.07-1.17-.22-.88-1.24-1.63-1.09-2.65C451.8,441.5,452,442.4,452.1,442.74Z" transform="translate(-7.93 -9.22)"/><polygon class="cls-45" points="443.21 431.53 443.21 431.53 443.21 431.53 443.21 431.53"/><path class="cls-45" d="M451.39,441.36c0,.1,0,0,0,0Z" transform="translate(-7.93 -9.22)"/><path class="cls-45" d="M452.31,441.23Z" transform="translate(-7.93 -9.22)"/><path class="cls-45" d="M454.9,435h0Z" transform="translate(-7.93 -9.22)"/><path class="cls-45" d="M457,446.79h0Z" transform="translate(-7.93 -9.22)"/><path class="cls-45" d="M454.27,440.15v0Z" transform="translate(-7.93 -9.22)"/><path class="cls-45" d="M452.21,426.75c.15,0,.6,0,.61-.22s-.64,0-.71,0-.66.14-.76.3C451.12,427.21,452.11,426.79,452.21,426.75Z" transform="translate(-7.93 -9.22)"/><path class="cls-45" d="M447.22,439.41c.21-.08.21-.56.11-.72-.24-.4-.17.62-.15.73Z" transform="translate(-7.93 -9.22)"/><path class="cls-45" d="M460.68,448l.89-.18C461.54,447.51,460.76,447.82,460.68,448Z" transform="translate(-7.93 -9.22)"/><path class="cls-45" d="M456.21,438.86c-.16.15.27.57.36.52s0-.35,0-.46c.28.27.42.65.71.93s.53.43.77.62a21.21,21.21,0,0,0,1.95,1.29,11,11,0,0,0,1.92,1c.38.14,1.66.54,2,.32-.08-.13-.63-.17-.76-.27s-.35-.06-.51-.05a2.3,2.3,0,0,1-.83-.37,35.41,35.41,0,0,1-3.12-1.94,6.23,6.23,0,0,1-2.23-2.44c-.26-.54-.63-2.2-1.55-1.47a1.23,1.23,0,0,0-.29,1.44,13.54,13.54,0,0,0,.63,1.79,9,9,0,0,0,2.53,2.68,8.8,8.8,0,0,0,1.48.89c.31.16,1.22.7,1.55.59.11,0,.4.2.51.24a2.27,2.27,0,0,0,.78.12c.42,0,1.55.3,1.85,0a13.68,13.68,0,0,0-1.42-.29c-.69-.24-1.3-.79-2-1a7.07,7.07,0,0,1-1.84-1.08c-.52-.38-2.21-1.23-2.09-2a12.76,12.76,0,0,0,1.72,1.49c.49.29,1,.63,1.49.95a12.57,12.57,0,0,0,2.34,1.11c.1,0,1.88.6,1.74.24-.05-.1-.85-.12-1-.18-.51-.25-1.05-.43-1.54-.72-.73-.43-1.47-.78-2.17-1.24s-1.57-1.25-2.44-1.76c-.58-.33-.62-.69-.77-1.29a8.58,8.58,0,0,1-.41-1.24c0-.09-.25-.47-.34-.44-.28.08-.06.71,0,.86a7.5,7.5,0,0,0,1.13,2.58,8.69,8.69,0,0,0,2.85,2.31,14,14,0,0,0,1.58.84c.17.08,1.46.47,1.46.66,0,.37-1.24-.28-1.35-.27s-.68-.35-.86-.43a7.78,7.78,0,0,1-1.06-.59,9.13,9.13,0,0,1-3.44-3.4,5,5,0,0,1-.6-2.29c.06-.71.46-.43.76-.14s.1.6.25.85.22.39.34.57S456.42,438.65,456.21,438.86Z" transform="translate(-7.93 -9.22)"/><path class="cls-45" d="M457.33,437.77a10.72,10.72,0,0,0,1.63,1.67c.25.19,3.54,2.81,3.76,2.51,0,.05-1.37-1.19-1.53-1.23a3.48,3.48,0,0,1-1-.7c-.43-.42-.91-.78-1.31-1.22s-.62-.47-.81-.82a7,7,0,0,0-1-1,6.54,6.54,0,0,0-1.18-.85c-.58-.38-.64.29-.28.18h0c.34-.1.79.58,1.06.77,0,0,.31.2.29.31,0,.31-.38-.19-.51-.17s.85,1.62,1,1.76c.5.58,1.22,1,1.69,1.6.15.2.49.22.69.35.38.23.72.51,1.09.75a6.44,6.44,0,0,0,.9.39c.19.09.57.39.78.38s-.8-.63-.92-.67c-.38-.15-.84-1-1.32-.86-.24.07-1.44-1.12-1.64-1.3a11.64,11.64,0,0,1-1.74-1.77C456.76,437.55,457.06,437.45,457.33,437.77Z" transform="translate(-7.93 -9.22)"/><path class="cls-45" d="M455.63,436.29Z" transform="translate(-7.93 -9.22)"/><path class="cls-45" d="M449.22,439.3a10,10,0,0,0,.41,3.49c.06.19,1.08,2.32,1.4,2,.06-.06-1.06-1.84-1.11-2.07a16.68,16.68,0,0,1-.41-3.14c0-.55,0-1.11,0-1.65,0-.3-.08-1.2.12-1.42a2,2,0,0,1,0-.35,8,8,0,0,1,.41-.76c.16-.26.59-.74.6-1.06h0c-.32,0-1.32,1.55-1.23,1.8a3,3,0,0,1-.1,1.27C449.29,438,449.24,438.66,449.22,439.3Z" transform="translate(-7.93 -9.22)"/><path class="cls-45" d="M447.53,431.46c.17-.17.39-.31.58-.47s.76-.2.83-.3c.52-.81,2-1.25,2.93-1.44.42-.09.83-.13,1.25-.22a2,2,0,0,0,.72-.18c.23-.13.29,0,.54-.08a5.16,5.16,0,0,1,1.78-.23c.18,0,1.69,0,1.61-.23a.34.34,0,0,0-.36,0,2.58,2.58,0,0,1-1,0c-.35-.17-1,.13-1.41,0-.88-.2-2,.86-3,.59-.43-.12-1.36.38-1.73.59s-1.05.47-1.55.73c-.25.14-2.36,1.7-2.1,1.92S447.44,431.55,447.53,431.46Z" transform="translate(-7.93 -9.22)"/><path class="cls-45" d="M447,431.42c.1,0,.14-.28.23-.36.28-.26.58-.46.87-.71a8.41,8.41,0,0,1,1.44-.8,4.47,4.47,0,0,0,.77-.51c.08-.08.33,0,.5-.14s.21.07.4.07.23-.28.32-.35a4.07,4.07,0,0,1,1.68-.65c.5-.09,1-.44,1.51-.5s1.17.11,1.65-.19h0a1.91,1.91,0,0,0-.79-.13c-.12,0-.25.12-.38.15-.28,0-.56-.08-.84,0-1.05.24-2,1-3.08,1.15a1.34,1.34,0,0,0-.6.16c-.16.12-.06.25-.34.29a3.06,3.06,0,0,0-1.14.5,21.16,21.16,0,0,0-2.49,1.89C446.44,431.45,447,431.42,447,431.42Z" transform="translate(-7.93 -9.22)"/><path class="cls-45" d="M448.4,436.84c.31-.51.37-1.13.7-1.62a9.4,9.4,0,0,1,2-2.23,6.41,6.41,0,0,1,1.73-1c.13-.05,1.62-.41,1.53-.57s-.69.06-.78.08a7,7,0,0,0-3.21,1.83,8.67,8.67,0,0,0-2,2.88,10.75,10.75,0,0,0-.63,3.12c0,.17-.38,2.06-.05,2,.06,0,.26-2.66.27-2.83A3.62,3.62,0,0,1,448.4,436.84Z" transform="translate(-7.93 -9.22)"/><path class="cls-45" d="M453.57,431.48c.27-.06-.31,0,0,0Z" transform="translate(-7.93 -9.22)"/><path class="cls-45" d="M447,435.29c.15,0,.46-.78.55-.9a5.62,5.62,0,0,1,.71-1c.18-.16,1-.71,1-1-.34.07-.61.44-.87.64s0-.38.1-.45c.41-.33.81-.69,1.24-1a5.77,5.77,0,0,0,.82-.73,4.59,4.59,0,0,1,2.08-1.09c.94-.15,2-.89,3-.72.38.07.41-.26.08-.19a7.78,7.78,0,0,0-1.73.33,4.1,4.1,0,0,1-1.3.29c-.37,0-.87.48-1.21.64a7.55,7.55,0,0,0-2.06,1.48c-.37.36-.78.68-1.14,1.05-.63.65,0,.37,0,.62,0,0-.32.22-.31.21-.23.09-.51.57-.62.76a5.34,5.34,0,0,0-.65,1.68l0,0C446.79,435.74,446.86,435.29,447,435.29Z" transform="translate(-7.93 -9.22)"/><path class="cls-45" d="M461.63,445.86h0c.74-.22-.61-.37-.77-.4a7.39,7.39,0,0,1-1.94-.65c-.35-.18-3.52-2.4-3.53-2.38-.34.4,2.4,2.24,2.72,2.39a10.22,10.22,0,0,0,2,.69,5.8,5.8,0,0,0,1.51.35Z" transform="translate(-7.93 -9.22)"/><path class="cls-45" d="M454.79,432.32a4.36,4.36,0,0,1,1.57,0,3.77,3.77,0,0,1,1.2.29c.5.38,1.3.31,1.84.56a6.63,6.63,0,0,1,.93.45,6.75,6.75,0,0,1,1.12.63c.13.14,1.28,1.55,1.51,1.34s-1.32-1.49-1.45-1.61a3.38,3.38,0,0,0-1.34-.82,6,6,0,0,1-1.26-.33c-.46-.22-1-.24-1.42-.42a4.64,4.64,0,0,0-1.85-.38,2.52,2.52,0,0,1-.82.08c-.46-.08-.65.35,0,.21Z" transform="translate(-7.93 -9.22)"/><path class="cls-45" d="M454.79,432.32Z" transform="translate(-7.93 -9.22)"/><path class="cls-45" d="M446.84,437.61c.26-.35.25-1,.46-1.39a13.84,13.84,0,0,1,.74-1.43,9.33,9.33,0,0,1,1.78-2.12A7.77,7.77,0,0,1,452.6,431a11.7,11.7,0,0,1,1.75-.41c.83-.11.18,0,.12-.16-.17-.35-2.69.63-3,.85s-.79.49-1.17.77-.58.5-.92.72a8.29,8.29,0,0,0-1.87,2.25c-.11.16-.06.32-.13.49s-.24.32-.29.53-.48,1.15-.28,1.54Z" transform="translate(-7.93 -9.22)"/><path class="cls-45" d="M452,427.58a6.24,6.24,0,0,0,1.53-.38,2.05,2.05,0,0,0,.47-.29c.07-.05.29.06.39,0,.38-.13-.13-.52-.48-.19s-1.14.25-1.54.43a5.3,5.3,0,0,1-1.07.44,10.31,10.31,0,0,0-2.42,1.2c-.48.28-1.79,1-1.88,1.57,1.44-.64,2.62-2.2,4.26-2.52C451.49,427.82,451.78,427.61,452,427.58Z" transform="translate(-7.93 -9.22)"/><path class="cls-45" d="M452.37,431.37h0Z" transform="translate(-7.93 -9.22)"/><path class="cls-45" d="M450.5,432.51a15.13,15.13,0,0,0-1.66,1.64,6.93,6.93,0,0,0-1.18,2.35c-.05.16-.57,1.92-.32,1.95.05,0,.42-1.64.48-1.8a8.78,8.78,0,0,1,1.22-2.28,8.26,8.26,0,0,1,1.67-1.82c.21-.15,2.05-1.18,2.06-1.17s-.26,0-.36,0h0A5.18,5.18,0,0,0,450.5,432.51Z" transform="translate(-7.93 -9.22)"/><path class="cls-45" d="M446.75,434.44c.2,0,.39-.46.45-.61a5,5,0,0,1,.49-.79,5.56,5.56,0,0,1,1.21-1.44,9.21,9.21,0,0,1,2.34-1.71c.15-.07.75-.13.74-.36s-.38,0-.44.07a16,16,0,0,0-2.14,1.11c-.41.35-.69.78-1.08,1.17a4.47,4.47,0,0,0-.44.43c-.09.14-.34.66-.5.71C447.06,433.12,446.54,434.48,446.75,434.44Z" transform="translate(-7.93 -9.22)"/><path class="cls-45" d="M446.75,434.44c-.08,0,0,0,0,0Z" transform="translate(-7.93 -9.22)"/><path class="cls-45" d="M460.13,431.66a4.26,4.26,0,0,1-1-.37,9,9,0,0,0-1.37-.39,8.44,8.44,0,0,0-4.82.43c-.1.05.25,0,.35,0s-.06,0,0,0l.05,0h0a11.7,11.7,0,0,1,4.25-.34,7,7,0,0,1,1.28.37,4.55,4.55,0,0,1,2.13.93c.23.27.5-.11.17-.19S460.51,431.67,460.13,431.66Z" transform="translate(-7.93 -9.22)"/><path class="cls-45" d="M453.32,431.36l-.05,0C453.33,431.37,453.34,431.37,453.32,431.36Z" transform="translate(-7.93 -9.22)"/><path class="cls-45" d="M451.09,430.93c-.37.21-1.52.81-1.56,1.29.3,0,1-.7,1.23-.88a6.81,6.81,0,0,1,1.76-.9,9,9,0,0,1,1.86-.3c.36,0,1.65.08,1.87-.26a22.18,22.18,0,0,0-3.27.17A6.39,6.39,0,0,0,451.09,430.93Z" transform="translate(-7.93 -9.22)"/><path class="cls-45" d="M460.46,432.44a6.26,6.26,0,0,0-1.46-.61,3.65,3.65,0,0,0-1.47-.42c-.22,0,.81.36.82.37a9.15,9.15,0,0,1,1.49.56,18.07,18.07,0,0,0,2.42,1.55C462.52,433.63,460.68,432.61,460.46,432.44Z" transform="translate(-7.93 -9.22)"/><path class="cls-45" d="M457.53,431.41Z" transform="translate(-7.93 -9.22)"/><path class="cls-45" d="M448.2,442.46c0-.09,0,.13,0,0Z" transform="translate(-7.93 -9.22)"/><path class="cls-45" d="M448.79,443.41c0-.06-.38-1.21-.4-1.39a9.33,9.33,0,0,1,0-1.83,20.92,20.92,0,0,0,.06-2.92c-.21.05-.17,2-.18,2.13a10.85,10.85,0,0,0-.09,3.06C448.22,442.59,448.7,443.54,448.79,443.41Z" transform="translate(-7.93 -9.22)"/><path class="cls-45" d="M452.2,428.64c.05.21,1.71-.45,1.93-.49s2.45-.17,2.3-.39c-.05-.07-.51,0-.62,0-.29-.17-1.1.1-1.44.18.05,0,.09,0,0,0S452.14,428.33,452.2,428.64Z" transform="translate(-7.93 -9.22)"/><path class="cls-45" d="M454.34,427.92h0S454.28,427.94,454.34,427.92Z" transform="translate(-7.93 -9.22)"/><path class="cls-45" d="M454.71,448.71c-.4,0-.78,0-1.17,0-.15,0-.68-.29-.6.12h0v0c.07.37.24,0,.35,0s.59.15.71.19,1.78.24,1.82-.1S454.82,448.7,454.71,448.71Z" transform="translate(-7.93 -9.22)"/><path class="cls-45" d="M453,448.89Z" transform="translate(-7.93 -9.22)"/><path class="cls-45" d="M456,431.79h0a10.29,10.29,0,0,1,1.91.4c.34.13,1.66.83,2,.61C459.61,432.48,456,431.48,456,431.79Z" transform="translate(-7.93 -9.22)"/><path class="cls-45" d="M463.32,439.31c-.13-.09-1.46-1.35-1.54-1.16s1.93,1.89,2.08,1.82C464.26,439.78,463.47,439.41,463.32,439.31Z" transform="translate(-7.93 -9.22)"/><path class="cls-45" d="M463.86,440c-.07,0,0,0,0,0Z" transform="translate(-7.93 -9.22)"/><path class="cls-45" d="M451.07,446.27a10.84,10.84,0,0,0-1.19-1.33c-.16-.15-.92-1.33-1-1.32-.39.1.63,1.2.77,1.35s1.07,1.36,1.4,1.3h0C451.12,446.26,451.09,446.26,451.07,446.27Z" transform="translate(-7.93 -9.22)"/><path class="cls-45" d="M446.65,433.44c.26,0,.65-.95.83-1.15s1.22-1.1,1.14-1.19-1.17,1-1.24,1.06S446.35,433.5,446.65,433.44Z" transform="translate(-7.93 -9.22)"/><path class="cls-45" d="M446.65,433.44c-.09,0,0,0,0,0Z" transform="translate(-7.93 -9.22)"/><path class="cls-45" d="M457,429.45a5.74,5.74,0,0,0-.84,0,3.12,3.12,0,0,0-1.1.1c-.44.1-1.16-.23-1.51.24-.17.23.63-.07.59-.07a7.78,7.78,0,0,1,1.18-.06c.3,0,1.43.05,1.67-.16l0,0Z" transform="translate(-7.93 -9.22)"/><path class="cls-45" d="M450.52,427.2a1.24,1.24,0,0,0-.27,0c-.22.08-.41.31-.64.4s-1.12.55-1,.75S450.66,427.37,450.52,427.2Z" transform="translate(-7.93 -9.22)"/><path class="cls-45" d="M457.85,428.86c-.18,0-1.71,0-1.66.16a5.25,5.25,0,0,0,1.68,0c.15,0,.59.3.69.06s-.59-.25-.71-.22Z" transform="translate(-7.93 -9.22)"/><path class="cls-45" d="M457.85,428.86Z" transform="translate(-7.93 -9.22)"/><path class="cls-45" d="M457.14,430.49c.06-.1-.75-.23-.94-.22h0c-.13,0-1.38,0-1.28.25C454.92,430.56,457.15,430.47,457.14,430.49Z" transform="translate(-7.93 -9.22)"/><path class="cls-45" d="M462.89,446.59h0a13.57,13.57,0,0,1-1.49,0c0,.39,1.05.2,1.22.22C463.15,446.86,463.44,446.52,462.89,446.59Z" transform="translate(-7.93 -9.22)"/><path class="cls-45" d="M452.75,432.44s1.3-.29,1.39-.49-.52,0-.55,0S452.67,432.33,452.75,432.44Z" transform="translate(-7.93 -9.22)"/><path class="cls-45" d="M453.59,431.92Z" transform="translate(-7.93 -9.22)"/><path class="cls-45" d="M458,430.56a.16.16,0,0,0,.19.09h0c.16-.1,1,.45,1.1.22S457.89,430.35,458,430.56Z" transform="translate(-7.93 -9.22)"/><path class="cls-45" d="M459.8,431.14c.09,0,0,0,0,0,.16,0,.95.32,1,.19s-.77-.33-.85-.38C459.42,430.65,459.46,431.25,459.8,431.14Z" transform="translate(-7.93 -9.22)"/><path class="cls-45" d="M459.8,431.14h0S459.79,431.15,459.8,431.14Z" transform="translate(-7.93 -9.22)"/><path class="cls-45" d="M462.91,442.1h0s0,0,0,0c.07.21,1.09.55,1.15.42S462.87,441.8,462.91,442.1Z" transform="translate(-7.93 -9.22)"/><path class="cls-45" d="M456.05,431.41c.13-.05,1.1,0,1.1,0,.06-.17-.74-.26-.86-.24s-.35.1-.5,0C455.86,431.25,455.6,431.48,456.05,431.41Z" transform="translate(-7.93 -9.22)"/><path class="cls-45" d="M457.09,429.57c.56-.05,1.09.13,1.66.1A2.06,2.06,0,0,0,457.09,429.57Z" transform="translate(-7.93 -9.22)"/><path class="cls-45" d="M455.4,431.29c-.12-.15-.9-.1-.92.09s.49.11.55.1S455.49,431.39,455.4,431.29Z" transform="translate(-7.93 -9.22)"/><path class="cls-45" d="M454.42,441.93c-.08-.22-.29-.18-.25.09s.38.51.49.44-.22-.38-.22-.47S454.42,441.92,454.42,441.93Z" transform="translate(-7.93 -9.22)"/><path class="cls-45" d="M454.47,431.81a1.91,1.91,0,0,0,.67,0c.05,0,0,0,0,0s.61,0,.57-.15S454.42,431.63,454.47,431.81Z" transform="translate(-7.93 -9.22)"/><path class="cls-45" d="M455.17,431.79h0S455.15,431.79,455.17,431.79Z" transform="translate(-7.93 -9.22)"/><path class="cls-45" d="M460.45,446.42c.08.18.72.29.72.05C461.13,446.47,460.37,446.24,460.45,446.42Z" transform="translate(-7.93 -9.22)"/><path class="cls-45" d="M456.48,427.93s.4.05.4.05c.25,0,.33-.39-.09-.26C456.79,427.72,456.4,427.82,456.48,427.93Z" transform="translate(-7.93 -9.22)"/><path class="cls-45" d="M456.79,427.72Z" transform="translate(-7.93 -9.22)"/><path class="cls-45" d="M458.07,430.1c.22-.1-.6-.33-.65-.11s.49.12.62.11C458,430.11,457.91,430.13,458.07,430.1Z" transform="translate(-7.93 -9.22)"/><path class="cls-45" d="M451.09,427.22a.17.17,0,0,0,0-.33C450.89,426.88,450.67,427.31,451.09,427.22Z" transform="translate(-7.93 -9.22)"/><path class="cls-45" d="M460,430.57Z" transform="translate(-7.93 -9.22)"/><path class="cls-45" d="M460,430.57s.14,0,.14-.1-.58-.21-.63-.1S460,430.59,460,430.57Z" transform="translate(-7.93 -9.22)"/><path class="cls-45" d="M457,430.1Z" transform="translate(-7.93 -9.22)"/><path class="cls-45" d="M457.16,429.94c-.14-.39-.65.32-.17.16C457.1,430.08,457.16,430,457.16,429.94Z" transform="translate(-7.93 -9.22)"/><path class="cls-45" d="M453.34,433.05h0c.22-.11.71-.07.81-.36C454,432.78,453.46,432.85,453.34,433.05Z" transform="translate(-7.93 -9.22)"/><path class="cls-45" d="M452.92,433.23c-.06-.07-.5.26-.22.25h0C452.8,433.44,453,433.32,452.92,433.23Z" transform="translate(-7.93 -9.22)"/><ellipse class="cls-46" cx="283.57" cy="266.01" rx="59.55" ry="30.97"/><path class="cls-47" d="M297.45,271.21a14.8,14.8,0,0,0-1.14,4.5,2.93,2.93,0,0,0,.88,2.27,36.9,36.9,0,0,0,4,.88c.93.05,4,2.48,6.2,2.63s5.06.83,5.37-.93-11-8.73-11-8.73Z" transform="translate(-7.93 -9.22)"/><path class="cls-48" d="M310.27,178.24l2.35,2.64s6.14,22.27,6,24.16-2.65,2.26-4.16,1.69-5.66-14.34-5.66-14.34Z" transform="translate(-7.93 -9.22)"/><path class="cls-47" d="M297.93,265.85l-.46,6s-.13,1.44,1.82,1.54a2.56,2.56,0,0,0,2.55-1.61l1.37-9Z" transform="translate(-7.93 -9.22)"/><path class="cls-47" d="M284.75,271.27l-1.14,5.44s.35,1.93,2.11,1.66,2.28-2.63,2.28-2.63l1.05-5.78Z" transform="translate(-7.93 -9.22)"/><path class="cls-47" d="M283.79,275.83s.17,1.58,1.58,1.49a4.57,4.57,0,0,0,2.63-1.58l-.36,5.61s-.78,8.42-3.24,9.29-2.92-2.57-3-3.77A24.69,24.69,0,0,1,283.79,275.83Z" transform="translate(-7.93 -9.22)"/><path class="cls-17" d="M288.46,213.13s.46,8.8.92,10.43-.92,23.17-.92,23.17-4.39,23.48-4.16,24.87,4.18.7,5.1-.69,6.24-20.48,7.17-26.5,3.7-19.93,3.7-19.93.24,16.92.24,18.31-2.9,25.61-2.9,25.61.12.74,2.46,1.09a2.86,2.86,0,0,0,2.66-1.06c1.38-2.26,1.71-6.18,1.71-6.18l6.26-31.74.87-23.19L307.92,206Z" transform="translate(-7.93 -9.22)"/><path class="cls-17" d="M297.28,179s7.7-2.49,10.85-1.7a5.7,5.7,0,0,1,4.47,4c.26,1-1.05,26.55-1.05,26.55s-13.67,11.3-19.45,8.41c-4.18-2.09-4.52-4.45-4.38-5.6a13.45,13.45,0,0,0,.12-2.1l2.9-26.84Z" transform="translate(-7.93 -9.22)"/><path class="cls-48" d="M310.21,198.11l-15.95,3.19-3.33-16.87-.37-.87-3.46,2.38.74,22.53a13.45,13.45,0,0,1-.12,2.1c-.12,1,.11,2.77,2.62,4.56,5.3-2.73,16-8.6,20.24-13C313,199.66,310.21,198.11,310.21,198.11Z" transform="translate(-7.93 -9.22)"/><path class="cls-49" d="M299.54,178.94s-1.66.61-1.93,1.26.92,1.34,3.32,2.71a13.51,13.51,0,0,0,2.35,1,7.11,7.11,0,0,0,1.43-3.29C304.88,176.39,299.54,178.94,299.54,178.94Z" transform="translate(-7.93 -9.22)"/><path class="cls-50" d="M312.67,173.23a7.66,7.66,0,1,1-4.75-9.75A7.67,7.67,0,0,1,312.67,173.23Z" transform="translate(-7.93 -9.22)"/><path class="cls-50" d="M307.1,172.79l-2.61,7.89h0a4.93,4.93,0,0,1-5.5.57h0a1.22,1.22,0,0,1-.6-1.37l1.94-7.65Z" transform="translate(-7.93 -9.22)"/><path class="cls-51" d="M311.9,171.07a2,2,0,0,0,1.15-.31s0,0,0,0a7.66,7.66,0,0,0-14.91-2.49,5.81,5.81,0,0,0-.26,1,2.55,2.55,0,0,0,1,.31c.79.07,3.37-1,3.13-2,.12.52.23,1,.35,1.56a1.85,1.85,0,0,0,1.12-1.36A11.4,11.4,0,0,0,311.9,171.07Z" transform="translate(-7.93 -9.22)"/><path class="cls-48" d="M312.48,205.88s-1.53-3.41-.15-5h0c1.37-1.58,2.89-2.72,5.15-.76,0,0,4.44,6.32,3.06,7.91h0C319.17,209.61,314.74,207.84,312.48,205.88Z" transform="translate(-7.93 -9.22)"/><path class="cls-50" d="M301.2,169.53a2.34,2.34,0,1,1-1.45-3A2.34,2.34,0,0,1,301.2,169.53Z" transform="translate(-7.93 -9.22)"/><path class="cls-50" d="M321.67,206.2a2.84,2.84,0,1,1-2.84-2.83A2.84,2.84,0,0,1,321.67,206.2Z" transform="translate(-7.93 -9.22)"/><polygon class="cls-17" points="293.86 171.31 292.72 174.06 289.65 174.34 288.01 171.31 290.37 168.74 290.99 168.57 290.81 169.27 293.86 171.31"/><polygon class="cls-48" points="295.31 174.81 292.8 173.81 293.86 171.31 295.31 174.81"/><circle class="cls-52" cx="292.18" cy="171.96" r="0.82"/><polygon class="cls-48" points="296.75 170.88 295.31 174.81 297.38 172.67 296.75 170.88"/><path class="cls-53" d="M311.44,210.37l-.12,3.76s-14.69,6.28-20.42,4.59c-3.33-1-3.35-3.31-3.25-4.16.06-.52,0-3.24,0-3.55,0,0,1.33,3.93,5,4.44C296.86,216,311.44,210.37,311.44,210.37Z" transform="translate(-7.93 -9.22)"/><path class="cls-53" d="M310.33,211.08l1-.18s-8.51-21.12-15.44-28.33c-.82-.85-2.75-1.94-3.05-1.82a10.17,10.17,0,0,0-2.14.88s3.15.78,6.47,4.71C301.66,191.62,310.33,211.08,310.33,211.08Z" transform="translate(-7.93 -9.22)"/><path class="cls-17" d="M292.72,191.56s-.13-9.14-2-9.93c0,0-4.17.89-5.48,3.78s-1,5.47-2.21,9.93c-.82,3-2.77,9.6-2.37,12.09s3,3.82,9.2,1.32,21.56-8.55,21.56-8.55l-.13-2.76-20.14,3Z" transform="translate(-7.93 -9.22)"/><path class="cls-50" d="M316.12,198.43a2.83,2.83,0,1,1-2.83-2.83A2.82,2.82,0,0,1,316.12,198.43Z" transform="translate(-7.93 -9.22)"/><path class="cls-50" d="M317.84,201l-2-3.12a.8.8,0,0,0-1.34.87l2,3.12a.8.8,0,0,0,1.1.23A.79.79,0,0,0,317.84,201Z" transform="translate(-7.93 -9.22)"/><path class="cls-54" d="M288,216.65a3.62,3.62,0,0,1-.37-2.09c.06-.52,0-3.24,0-3.55a7.6,7.6,0,0,0,3.16,3.84Z" transform="translate(-7.93 -9.22)"/><polygon class="cls-54" points="299.58 195.55 298.33 192.98 299.5 192.56 300.54 194.83 299.58 195.55"/><polygon class="cls-55" points="322.63 185.85 308.52 194.94 303.82 199.68 318.54 191.13 322.63 185.85"/><polygon class="cls-56" points="322.63 185.85 322.87 186.16 318.83 191.53 304.09 200.02 303.82 199.68 318.54 191.13 322.63 185.85"/><polygon class="cls-57" points="321.64 186.69 309.12 194.62 304.76 198.98 318.31 191.04 321.64 186.69"/><circle class="cls-6" cx="132.87" cy="112.87" r="70.87"/><path class="cls-20" d="M153,133.41l-.79,1.06a.37.37,0,0,0,.11.55l3.91,2.31.06,0,2.07.75a.39.39,0,0,0,.36-.06l1.79-1.34a.39.39,0,0,0,.14-.23l.57-3.09a.39.39,0,0,0-.39-.45l-.48,0,.17.77-.17-.77-7.06.3A.41.41,0,0,0,153,133.41Z" transform="translate(-7.93 -9.22)"/><circle class="cls-21" cx="132.87" cy="112.87" r="70.87"/><path class="cls-58" d="M187.54,133.2l-46.25-26.7a6,6,0,0,0-6,0L107,122.92a6,6,0,0,0,0,10.42l2.68,1.55-19.15,11a4.25,4.25,0,0,0,0,7.37l16.27,9.13a4.22,4.22,0,0,0,4.21,0l23.17-13.29,19,11a6,6,0,0,0,6,0l28.28-16.4A6,6,0,0,0,187.54,133.2Z" transform="translate(-7.93 -9.22)"/><polygon class="cls-59" points="121.49 86.1 143.08 73.55 143.07 75.81 121.48 88.36 121.49 86.1"/><path class="cls-60" d="M133.74,77.48c-1.4-.49-3.28.28-3.87.52-4.87,2-19.7,7.37-19.7,7.37a2,2,0,0,1,2,.2l17.27,9.75L151,82.77S138,79,133.74,77.48Z" transform="translate(-7.93 -9.22)"/><path class="cls-61" d="M160.8,118.89l-.09,32.47a1.94,1.94,0,0,1-.81,1.78l21.59-12.55a1.93,1.93,0,0,0,.81-1.78l.09-32.46Z" transform="translate(-7.93 -9.22)"/><polygon class="cls-60" points="121.48 88.36 143.07 75.81 171.69 92.34 150.1 104.89 121.48 88.36"/><path class="cls-61" d="M158,114.11l21.6-12.55a6.1,6.1,0,0,1,2.76,4.79L160.8,118.89A6.07,6.07,0,0,0,158,114.11Z" transform="translate(-7.93 -9.22)"/><path class="cls-62" d="M129.42,95.32v2.26L158,114.11a6.07,6.07,0,0,1,2.77,4.78l-.09,32.47c0,1.76-1.25,2.47-2.79,1.59L112,126.45a6.08,6.08,0,0,1-2.76-4.79l.09-34.51c0-1.76,1.26-2.47,2.79-1.58Z" transform="translate(-7.93 -9.22)"/><g class="cls-2"><path class="cls-59" d="M129.38,83.54v2.08a2.66,2.66,0,0,1-1.55,2.18,8.35,8.35,0,0,1-7.57,0,2.65,2.65,0,0,1-1.58-2.2V83.51a2.65,2.65,0,0,0,1.57,2.2,8.35,8.35,0,0,0,7.57,0A2.65,2.65,0,0,0,129.38,83.54Z" transform="translate(-7.93 -9.22)"/><path class="cls-61" d="M127.8,81.33c2.1,1.21,2.11,3.18,0,4.39a8.35,8.35,0,0,1-7.57,0c-2.09-1.21-2.1-3.17,0-4.38A8.33,8.33,0,0,1,127.8,81.33Z" transform="translate(-7.93 -9.22)"/></g><path class="cls-60" d="M112.15,107,123,101.42c2.75-1.59,6.55-1.37,10.76,1.06l-11,6.61C118.53,106.67,114.9,105.43,112.15,107Z" transform="translate(-7.93 -9.22)"/><path class="cls-62" d="M144.37,138.28,134.76,145c2.72-1.58,4.66-5.47,4.67-10.23,0-9.6-6.42-22-14.77-26.86l9.06-5.45c8.34,4.82,15.09,16.5,15.06,26.1C148.77,133.34,147.09,136.7,144.37,138.28Z" transform="translate(-7.93 -9.22)"/><g class="cls-2"><path class="cls-59" d="M124.11,107.6c8.68,5,15.69,17.15,15.66,27.12s-7.09,14-15.76,9-15.69-17.16-15.66-27.13S115.44,102.59,124.11,107.6Z" transform="translate(-7.93 -9.22)"/></g><path class="cls-59" d="M149.88,116.08l1.08-.63a2.14,2.14,0,0,1,2.16.21l-1.08.63A2.14,2.14,0,0,0,149.88,116.08Z" transform="translate(-7.93 -9.22)"/><path class="cls-60" d="M155.26,122.85l-1.08.63a2.12,2.12,0,0,0,.89-2,6.67,6.67,0,0,0-3-5.24l1.08-.63a6.69,6.69,0,0,1,3,5.24A2.11,2.11,0,0,1,155.26,122.85Z" transform="translate(-7.93 -9.22)"/><path class="cls-63" d="M152,116.29a6.67,6.67,0,0,1,3,5.24c0,1.93-1.37,2.71-3,1.74a6.68,6.68,0,0,1-3-5.25C149,116.1,150.37,115.32,152,116.29Z" transform="translate(-7.93 -9.22)"/><path class="cls-60" d="M115.16,90.57a8.69,8.69,0,0,1,3.94,6.82c0,2.51-1.78,3.52-4,2.26a8.69,8.69,0,0,1-3.93-6.82C111.21,90.33,113,89.31,115.16,90.57Z" transform="translate(-7.93 -9.22)"/><g class="cls-2"><path class="cls-64" d="M128.36,83.15v.36a2.14,2.14,0,0,1-1.26,1.76,6.74,6.74,0,0,1-6.12,0,2.14,2.14,0,0,1-1.27-1.78v-.36A2.16,2.16,0,0,0,121,84.91a6.76,6.76,0,0,0,6.13,0A2.14,2.14,0,0,0,128.36,83.15Z" transform="translate(-7.93 -9.22)"/><path class="cls-63" d="M127.08,81.37c1.7,1,1.71,2.56,0,3.54a6.76,6.76,0,0,1-6.13,0c-1.69-1-1.7-2.56,0-3.54A6.72,6.72,0,0,1,127.08,81.37Z" transform="translate(-7.93 -9.22)"/></g><path class="cls-61" d="M165,95.22l-14.66-3.08v13.38L165,97a.85.85,0,0,0,.5-.69l0-1.79A.87.87,0,0,1,165,95.22Z" transform="translate(-7.93 -9.22)"/><path class="cls-62" d="M133.19,86.3a.85.85,0,0,1-.51-.71l0,10.71a.85.85,0,0,0,.51.7l14.75,8.52,0-10.7Z" transform="translate(-7.93 -9.22)"/><path class="cls-65" d="M150.36,93.58v11.91a2.45,2.45,0,0,1-2.43,0l0-11.91A2.38,2.38,0,0,0,150.36,93.58Z" transform="translate(-7.93 -9.22)"/><path class="cls-63" d="M165,93.82a.74.74,0,0,1,0,1.4s-11.11-1.31-14.66-.4a3.47,3.47,0,0,1-2.42,0L133.19,86.3c-.68-.39-.75-1.18,0-1.41,3.52-1.09,9.68-.72,14.76-.22a6.08,6.08,0,0,1,2.32.63Z" transform="translate(-7.93 -9.22)"/><g class="cls-2"><path class="cls-60" d="M168.92,126.66l0-7.51-1.08-.63,0,7.51a.84.84,0,0,0,.36.78l1.08.63A.86.86,0,0,1,168.92,126.66Z" transform="translate(-7.93 -9.22)"/><path class="cls-61" d="M176.44,112.56a.85.85,0,0,0-.87.09L169,116.42l1.08.63,6.53-3.78a.87.87,0,0,1,.87-.08Z" transform="translate(-7.93 -9.22)"/><path class="cls-66" d="M168.9,119.15l-1.08-.63a2.67,2.67,0,0,1,1.22-2.1l1.08.63A2.67,2.67,0,0,0,168.9,119.15Z" transform="translate(-7.93 -9.22)"/><path class="cls-65" d="M176.65,113.27c.67-.39,1.22-.07,1.22.7l0,7.51a2.69,2.69,0,0,1-1.21,2.1l-6.54,3.77c-.67.39-1.22.08-1.22-.69l0-7.51a2.67,2.67,0,0,1,1.22-2.1Z" transform="translate(-7.93 -9.22)"/></g><path class="cls-60" d="M96.9,119.93l18-10.46c2.38-1.38,5.68-1.18,9.32.92l-18,10.45C102.58,118.74,99.28,118.55,96.9,119.93Z" transform="translate(-7.93 -9.22)"/><path class="cls-62" d="M133.43,141.38l-18,10.46c2.35-1.37,3.81-4.27,3.82-8.4,0-8.31-5.82-18.42-13.05-22.6l18-10.45c7.23,4.17,13.07,14.29,13,22.6C137.24,137.11,135.78,140,133.43,141.38Z" transform="translate(-7.93 -9.22)"/><ellipse class="cls-62" cx="106.17" cy="135.88" rx="10.69" ry="18.45" transform="translate(-61.83 62.52) rotate(-30.16)"/><ellipse class="cls-59" cx="105.96" cy="135.88" rx="9.2" ry="15.88" transform="translate(-61.86 62.42) rotate(-30.16)"/><path class="cls-67" d="M106,124.18c5.62,3.25,10.17,11.12,10.15,17.58s-4.59,9.07-10.22,5.83S95.76,136.46,95.78,130,100.37,120.93,106,124.18Z" transform="translate(-7.93 -9.22)"/><path class="cls-65" d="M117.23,142.39c0-7.15-5-15.86-11.23-19.45l-.4-.22c-5.62-2.5-10,.46-10,7.1,0,7.14,5,15.85,11.23,19.45l.41.22C112.84,152,117.21,149,117.23,142.39Z" transform="translate(-7.93 -9.22)"/><path class="cls-68" d="M117.23,142.39c0-7.15-5-15.86-11.23-19.45l-.4-.22c-5.62-2.5-10,.46-10,7.1,0,7.14,5,15.85,11.23,19.45l.41.22C112.84,152,117.21,149,117.23,142.39Z" transform="translate(-7.93 -9.22)"/><path class="cls-69" d="M117.21,142.45c0-7.06-4.95-15.67-11.1-19.22l-.4-.22c-5.55-2.47-9.87.45-9.89,7,0,7.06,5,15.67,11.1,19.22l.4.22C112.87,151.94,117.19,149,117.21,142.45Z" transform="translate(-7.93 -9.22)"/><g class="cls-70"><path class="cls-71" d="M108.06,124.57,99,141a26.79,26.79,0,0,0,1.83,2.75l9.41-17.13A20.89,20.89,0,0,0,108.06,124.57Z" transform="translate(-7.93 -9.22)"/></g><g class="cls-70"><path class="cls-71" d="M111.28,127.7l-9.46,17.21c.3.35.61.69.92,1l9.41-17.12C111.87,128.43,111.58,128.06,111.28,127.7Z" transform="translate(-7.93 -9.22)"/></g><g class="cls-70"><path class="cls-71" d="M116.08,136.2l-7.55,13.74a7.75,7.75,0,0,0,3.34.34l5.23-9.52A20.71,20.71,0,0,0,116.08,136.2Z" transform="translate(-7.93 -9.22)"/></g><g class="cls-72"><path class="cls-10" d="M110,137.5a12.2,12.2,0,0,0-5.53-9.57l-.2-.11c-2.76-1.23-4.91.23-4.92,3.5a12.16,12.16,0,0,0,5.53,9.57l.19.11C107.79,142.23,109.94,140.77,110,137.5Z" transform="translate(-7.93 -9.22)"/></g><g class="cls-73"><path class="cls-10" d="M111.47,142.63a6.33,6.33,0,0,0-2.86-4.95l-.1-.05c-1.43-.64-2.54.11-2.55,1.8a6.33,6.33,0,0,0,2.86,4.95l.1.05C110.35,145.07,111.46,144.32,111.47,142.63Z" transform="translate(-7.93 -9.22)"/></g><path class="cls-59" d="M174.65,131.24c.67-.39,1.22-.07,1.22.7l0,6.1a2.67,2.67,0,0,1-1.22,2.1l-2.53,1.46c-.67.39-1.22.08-1.22-.69l0-6.1a2.72,2.72,0,0,1,1.22-2.11Z" transform="translate(-7.93 -9.22)"/><path class="cls-60" d="M175.87,131.94c0-.51-.24-.81-.6-.85a1.14,1.14,0,0,1,.13.52v6.11a2.69,2.69,0,0,1-1.21,2.1l-2.53,1.46a1,1,0,0,1-.63.15c.2.37.62.46,1.1.17l2.53-1.46a2.67,2.67,0,0,0,1.22-2.1Z" transform="translate(-7.93 -9.22)"/><path class="cls-60" d="M150.5,130.82a1.75,1.75,0,0,1,.79,1.38c0,.51-.36.72-.8.46a1.76,1.76,0,0,1-.8-1.38C149.7,130.77,150.06,130.57,150.5,130.82Z" transform="translate(-7.93 -9.22)"/><path class="cls-60" d="M149.7,133.49a1.18,1.18,0,0,1,.53.92c0,.34-.24.47-.54.3a1.18,1.18,0,0,1-.53-.92C149.16,133.45,149.4,133.32,149.7,133.49Z" transform="translate(-7.93 -9.22)"/><circle class="cls-6" cx="508.16" cy="264" r="70.87"/><path class="cls-7" d="M506.77,286l-.39-2.68a1.34,1.34,0,0,0-1.51-1.13l-.56-3.9a1.37,1.37,0,0,0-1.55-1.16l-.18,0-.51-3.51a2.21,2.21,0,0,0-2.51-1.87l-11.08,1.6a1.72,1.72,0,0,0-.59.2L477.84,279l-.73,2.39L493.79,294a1.88,1.88,0,0,1,1.38-1l8.06-1.17a2.61,2.61,0,0,0,2.22-2.91l-.12-.92a.46.46,0,0,1,.37-.5A1.33,1.33,0,0,0,506.77,286Z" transform="translate(-7.93 -9.22)"/><path class="cls-8" d="M553.18,303a1.4,1.4,0,0,1-.36-.41,1.66,1.66,0,0,1-.14-.37l-1.58-7.31-.49-2.3a2.76,2.76,0,0,0-1-1.59l-2.09-1.57V249a2.57,2.57,0,0,0-2.56-2.57H533.87v-.73a1,1,0,0,0-1-1h-5.19v-.4a5,5,0,0,0-10.08,0v.4h-5.18a1,1,0,0,0-1,1v.73H500.4a2.56,2.56,0,0,0-2.56,2.57v39l-.71.1a1.83,1.83,0,0,0-.53.17l-9.1,4.88-2.95,1.57a1.65,1.65,0,0,0-.83,1.11l-2.85,14.22a1.4,1.4,0,0,0,0,.54l1.88,10.19-.38,2.46-2.58-.46-.8,4.51-.63-.1-.89,4,4.8,3.11,7,3.83,5.94,1.42,1.18-9.2-1.26-.22.79-4.5-1.93-.35c1.24-1.71,1.76-2.26,2.41-3.29a27.3,27.3,0,0,0,3.46-7.64l.61-2.3h36.41l.88,3.46-2.08.47,3.14,23.57,20.79-11.94ZM524.4,243.44v.68H521v-.68a1.73,1.73,0,1,1,3.45,0Z" transform="translate(-7.93 -9.22)"/><rect class="cls-9" x="477.83" y="206.66" width="65.85" height="87.05" rx="3.4" ry="3.4"/><rect class="cls-10" x="480.78" y="210.06" width="59.95" height="80.25"/><path class="cls-12" d="M510.08,229.82h-1.37L508.4,231h-1.1l1.55-5.46h1.09l1.55,5.46h-1.1Zm-1.15-.84h.93l-.46-1.73h0Z" transform="translate(-7.93 -9.22)"/><path class="cls-12" d="M513.36,230.25a.37.37,0,0,0,.34-.17.88.88,0,0,0,.11-.47h1v0a1.34,1.34,0,0,1-.4,1,1.39,1.39,0,0,1-1,.41,1.41,1.41,0,0,1-1.22-.58,2.35,2.35,0,0,1-.43-1.47v-.11a2.4,2.4,0,0,1,.43-1.48,1.42,1.42,0,0,1,1.21-.57,1.36,1.36,0,0,1,1,.42,1.56,1.56,0,0,1,.38,1.14v0h-1a1.22,1.22,0,0,0-.11-.55.38.38,0,0,0-.35-.2.47.47,0,0,0-.46.33,2.69,2.69,0,0,0-.12.89V229a2.69,2.69,0,0,0,.12.89A.47.47,0,0,0,513.36,230.25Z" transform="translate(-7.93 -9.22)"/><path class="cls-12" d="M516.55,225.93v1h.55v.76h-.55v2.06a.68.68,0,0,0,.08.37.24.24,0,0,0,.2.11H517l.12,0,.08.78a1.53,1.53,0,0,1-.29.07,1.42,1.42,0,0,1-.31,0,1,1,0,0,1-.79-.32,1.5,1.5,0,0,1-.27-1V227.7H515v-.76h.5v-1Z" transform="translate(-7.93 -9.22)"/><path class="cls-12" d="M518.8,226h-1v-.81h1Zm0,5h-1v-4.06h1Z" transform="translate(-7.93 -9.22)"/><path class="cls-12" d="M519.43,228.93a2.36,2.36,0,0,1,.44-1.49,1.6,1.6,0,0,1,2.45,0,2.36,2.36,0,0,1,.45,1.49V229a2.37,2.37,0,0,1-.44,1.48,1.6,1.6,0,0,1-2.46,0,2.4,2.4,0,0,1-.44-1.49Zm1.05.09a2.42,2.42,0,0,0,.14.9.5.5,0,0,0,.48.33.49.49,0,0,0,.47-.33,2.42,2.42,0,0,0,.14-.9v-.09a2.5,2.5,0,0,0-.14-.9.5.5,0,0,0-.48-.33.48.48,0,0,0-.47.34,2.4,2.4,0,0,0-.14.89Z" transform="translate(-7.93 -9.22)"/><path class="cls-12" d="M524.31,226.94l0,.57a1.49,1.49,0,0,1,.42-.47.93.93,0,0,1,.56-.17.94.94,0,0,1,.81.4,2.14,2.14,0,0,1,.3,1.27V231h-1.06v-2.46a1.4,1.4,0,0,0-.11-.65.37.37,0,0,0-.34-.19.62.62,0,0,0-.31.08.66.66,0,0,0-.24.23v3h-1.06v-4.06Z" transform="translate(-7.93 -9.22)"/><path class="cls-12" d="M528.92,229.94a.43.43,0,0,0-.14-.31,2.36,2.36,0,0,0-.53-.31,2.65,2.65,0,0,1-.93-.52,1,1,0,0,1-.32-.74,1.09,1.09,0,0,1,.4-.84,1.48,1.48,0,0,1,1.05-.35,1.59,1.59,0,0,1,1.09.36,1.12,1.12,0,0,1,.39.91v0h-1a.73.73,0,0,0-.11-.41.41.41,0,0,0-.34-.15.41.41,0,0,0-.31.12.37.37,0,0,0-.13.29.37.37,0,0,0,.12.29,3.27,3.27,0,0,0,.54.31,2.66,2.66,0,0,1,1,.51,1,1,0,0,1,.31.78,1.06,1.06,0,0,1-.41.85,1.72,1.72,0,0,1-1.1.33,1.54,1.54,0,0,1-1.12-.41,1.21,1.21,0,0,1-.39-.92v0h1a.66.66,0,0,0,.16.47.56.56,0,0,0,.41.15.5.5,0,0,0,.34-.11A.39.39,0,0,0,528.92,229.94Z" transform="translate(-7.93 -9.22)"/><path class="cls-13" d="M525.37,213.08a6.68,6.68,0,0,0-13.36,0v2.8h13.36v-2.8Zm-9-1.18a2.29,2.29,0,0,1,2.29-2.29A2.29,2.29,0,0,1,521,211.9v.91H516.4Z" transform="translate(-7.93 -9.22)"/><rect class="cls-13" x="508.47" y="203.59" width="4.58" height="0.23"/><path class="cls-11" d="M525.37,213.08a6.68,6.68,0,0,0-13.36,0v.23a6.68,6.68,0,0,1,13.36,0v-.23Z" transform="translate(-7.93 -9.22)"/><path class="cls-15" d="M525.37,213.23v2.65H512v-2.8h13.36Z" transform="translate(-7.93 -9.22)"/><rect class="cls-13" x="495.92" y="204.39" width="29.68" height="8.93" rx="3.72" ry="3.72"/><path class="cls-11" d="M532.24,213.61H505.13a1.28,1.28,0,0,0-1.28,1.29v.23a1.28,1.28,0,0,1,1.28-1.29h27.11a1.29,1.29,0,0,1,1.29,1.29v-.23A1.29,1.29,0,0,0,532.24,213.61Z" transform="translate(-7.93 -9.22)"/><path class="cls-15" d="M532.24,220.94H505.13a1.28,1.28,0,0,1-1.28-1.29v1.6a1.28,1.28,0,0,0,1.28,1.29h27.11a1.29,1.29,0,0,0,1.29-1.29v-1.6A1.29,1.29,0,0,1,532.24,220.94Z" transform="translate(-7.93 -9.22)"/><path class="cls-11" d="M530.67,215.88h-24a.34.34,0,0,1-.34-.33h0a.34.34,0,0,1,.34-.33h24a.33.33,0,0,1,.33.33h0A.33.33,0,0,1,530.67,215.88Z" transform="translate(-7.93 -9.22)"/><path class="cls-11" d="M530.67,217.92h-24a.34.34,0,0,1-.34-.34h0a.34.34,0,0,1,.34-.33h24a.33.33,0,0,1,.33.33h0A.34.34,0,0,1,530.67,217.92Z" transform="translate(-7.93 -9.22)"/><path class="cls-11" d="M530.67,220h-24a.34.34,0,0,1-.34-.33h0a.34.34,0,0,1,.34-.34h24a.34.34,0,0,1,.33.34h0A.33.33,0,0,1,530.67,220Z" transform="translate(-7.93 -9.22)"/><rect class="cls-15" x="498.44" y="205.72" width="24.63" height="0.67" rx="0.28" ry="0.28"/><path class="cls-15" d="M530.67,217.64h-24a.34.34,0,0,1-.34-.34h0a.34.34,0,0,1,.34-.33h24a.33.33,0,0,1,.33.33h0A.34.34,0,0,1,530.67,217.64Z" transform="translate(-7.93 -9.22)"/><path class="cls-15" d="M530.67,219.67h-24a.34.34,0,0,1-.34-.33h0a.34.34,0,0,1,.34-.34h24a.34.34,0,0,1,.33.34h0A.33.33,0,0,1,530.67,219.67Z" transform="translate(-7.93 -9.22)"/><path class="cls-12" d="M494.17,242.12h-.83v-3.55l-.78,0V238l1.61-.17Z" transform="translate(-7.93 -9.22)"/><path class="cls-12" d="M496.33,242.12h-.81v-.74h.81Z" transform="translate(-7.93 -9.22)"/><path class="cls-12" d="M498.4,242.12v-4.26h1.32a1.38,1.38,0,0,1,1.1.5,1.88,1.88,0,0,1,.44,1.28v.7a1.9,1.9,0,0,1-.44,1.29,1.4,1.4,0,0,1-1.1.49Zm.83-3.62v3h.49a.59.59,0,0,0,.51-.32,1.53,1.53,0,0,0,.2-.82v-.71a1.52,1.52,0,0,0-.2-.81.59.59,0,0,0-.51-.32Z" transform="translate(-7.93 -9.22)"/><path class="cls-12" d="M503.37,242.12a1.23,1.23,0,0,1-.08-.23,1.84,1.84,0,0,1-.05-.25,1.13,1.13,0,0,1-.27.39.64.64,0,0,1-.42.15.87.87,0,0,1-.67-.25,1,1,0,0,1-.23-.7.89.89,0,0,1,.3-.71,1.37,1.37,0,0,1,.92-.26h.36V240a.64.64,0,0,0-.09-.36.3.3,0,0,0-.26-.13.27.27,0,0,0-.23.11.46.46,0,0,0-.08.29h-.8v0a.84.84,0,0,1,.31-.7,1.23,1.23,0,0,1,.85-.29,1.17,1.17,0,0,1,.82.29,1.09,1.09,0,0,1,.31.82v1.3a2.77,2.77,0,0,0,0,.42,1.8,1.8,0,0,0,.1.4Zm-.61-.55a.43.43,0,0,0,.29-.1.51.51,0,0,0,.18-.24v-.5h-.36a.33.33,0,0,0-.3.13.55.55,0,0,0-.1.34.46.46,0,0,0,.08.27A.24.24,0,0,0,502.76,241.57Z" transform="translate(-7.93 -9.22)"/><path class="cls-12" d="M505.56,238.16V239H506v.59h-.43v1.62a.6.6,0,0,0,.05.28.2.2,0,0,0,.17.09h.09l.1,0,.06.61-.22.06a1,1,0,0,1-.25,0,.8.8,0,0,1-.62-.24,1.21,1.21,0,0,1-.21-.78v-1.62h-.38V239h.38v-.79Z" transform="translate(-7.93 -9.22)"/><path class="cls-12" d="M507.66,242.18a1.16,1.16,0,0,1-1-.43,1.74,1.74,0,0,1-.35-1.12v-.12a1.91,1.91,0,0,1,.34-1.17,1.09,1.09,0,0,1,.93-.45,1,1,0,0,1,.86.39,1.63,1.63,0,0,1,.3,1v.45h-1.6a1.09,1.09,0,0,0,.16.56.48.48,0,0,0,.43.21,1.22,1.22,0,0,0,.41-.06,2,2,0,0,0,.36-.18l.21.52a1.43,1.43,0,0,1-.46.26A1.79,1.79,0,0,1,507.66,242.18Zm-.05-2.64a.33.33,0,0,0-.31.18,1.32,1.32,0,0,0-.12.51H508v-.08a1.1,1.1,0,0,0-.08-.45A.27.27,0,0,0,507.61,239.54Z" transform="translate(-7.93 -9.22)"/><path class="cls-12" d="M494.92,253.12h-2.61v-.55l1.18-1.49a2.92,2.92,0,0,0,.36-.59,1,1,0,0,0,.11-.44.83.83,0,0,0-.1-.45.41.41,0,0,0-.33-.16.39.39,0,0,0-.36.21,1,1,0,0,0-.12.53h-.82v0a1.34,1.34,0,0,1,.34-1,1.39,1.39,0,0,1,1.89-.06,1.21,1.21,0,0,1,.34.91,1.49,1.49,0,0,1-.19.72,8.19,8.19,0,0,1-.65.88l-.58.84h1.54Z" transform="translate(-7.93 -9.22)"/><path class="cls-12" d="M496.33,253.12h-.81v-.74h.81Z" transform="translate(-7.93 -9.22)"/><path class="cls-12" d="M501,249.5h-1v3.62h-.83V249.5h-1v-.64H501Z" transform="translate(-7.93 -9.22)"/><path class="cls-12" d="M502.18,249.18h-.82v-.63h.82Zm0,3.94h-.82V250h.82Z" transform="translate(-7.93 -9.22)"/><path class="cls-12" d="M503.55,250l0,.41a1,1,0,0,1,.32-.35.84.84,0,0,1,.45-.12.78.78,0,0,1,.43.13.87.87,0,0,1,.28.4,1,1,0,0,1,.32-.39.81.81,0,0,1,.46-.14.71.71,0,0,1,.63.34,1.75,1.75,0,0,1,.23,1v1.87h-.82v-1.87a1.16,1.16,0,0,0-.09-.55.26.26,0,0,0-.26-.16.4.4,0,0,0-.23.08.58.58,0,0,0-.16.21.45.45,0,0,0,0,.12v2.17h-.82v-1.87a1.19,1.19,0,0,0-.09-.55.28.28,0,0,0-.26-.16.43.43,0,0,0-.22.06.66.66,0,0,0-.16.17v2.35h-.82V250Z" transform="translate(-7.93 -9.22)"/><path class="cls-12" d="M508.47,253.18a1.16,1.16,0,0,1-1-.43,1.74,1.74,0,0,1-.35-1.12v-.12a2,2,0,0,1,.33-1.17,1.12,1.12,0,0,1,.94-.45,1,1,0,0,1,.86.39,1.63,1.63,0,0,1,.3,1v.45H508a1,1,0,0,0,.16.56.47.47,0,0,0,.43.21,1.22,1.22,0,0,0,.41-.06,1.67,1.67,0,0,0,.35-.18l.22.52a1.43,1.43,0,0,1-.46.26A1.79,1.79,0,0,1,508.47,253.18Zm-.05-2.64a.33.33,0,0,0-.31.18,1.31,1.31,0,0,0-.13.51h.79v-.08a1.1,1.1,0,0,0-.08-.45A.28.28,0,0,0,508.42,250.54Z" transform="translate(-7.93 -9.22)"/><path class="cls-12" d="M493.55,261.63a.46.46,0,0,0,.38-.17.75.75,0,0,0,.12-.45.6.6,0,0,0-.13-.4.45.45,0,0,0-.36-.17.41.41,0,0,0-.32.15.51.51,0,0,0-.13.37h-.81v0a1,1,0,0,1,.35-.82,1.32,1.32,0,0,1,.91-.33,1.44,1.44,0,0,1,1,.32,1.12,1.12,0,0,1,.36.89.93.93,0,0,1-.16.54,1.08,1.08,0,0,1-.43.39,1.06,1.06,0,0,1,.48.38,1.28,1.28,0,0,1-.23,1.54,1.49,1.49,0,0,1-1,.33,1.42,1.42,0,0,1-.92-.31,1,1,0,0,1-.38-.9v0h.81a.59.59,0,0,0,.14.42.44.44,0,0,0,.35.17.53.53,0,0,0,.41-.17.69.69,0,0,0,.16-.45.74.74,0,0,0-.15-.51.57.57,0,0,0-.42-.16h-.43v-.62Z" transform="translate(-7.93 -9.22)"/><path class="cls-12" d="M496.33,264.12h-.81v-.74h.81Z" transform="translate(-7.93 -9.22)"/><path class="cls-12" d="M499.27,264.12h-.82v-4.26h.82Z" transform="translate(-7.93 -9.22)"/><path class="cls-12" d="M500.89,260.16V261h.43v.59h-.43v1.62a.48.48,0,0,0,.06.28.18.18,0,0,0,.16.09h.1l.09,0,.07.61-.23.06a.9.9,0,0,1-.24,0,.78.78,0,0,1-.62-.24,1.21,1.21,0,0,1-.21-.78v-1.62h-.39V261h.39v-.79Z" transform="translate(-7.93 -9.22)"/><path class="cls-12" d="M503,264.18a1.16,1.16,0,0,1-1-.43,1.69,1.69,0,0,1-.35-1.12v-.12a2,2,0,0,1,.33-1.17,1.1,1.1,0,0,1,.94-.45,1,1,0,0,1,.86.39,1.63,1.63,0,0,1,.3,1v.45h-1.6a1,1,0,0,0,.16.56.46.46,0,0,0,.42.21,1.25,1.25,0,0,0,.42-.06,1.67,1.67,0,0,0,.35-.18l.22.52a1.54,1.54,0,0,1-.46.26A1.83,1.83,0,0,1,503,264.18Zm-.05-2.64a.33.33,0,0,0-.31.18,1.31,1.31,0,0,0-.13.51h.79v-.08a1.1,1.1,0,0,0-.08-.45A.29.29,0,0,0,503,261.54Z" transform="translate(-7.93 -9.22)"/><path class="cls-12" d="M505.3,261l0,.41a1.11,1.11,0,0,1,.33-.35.83.83,0,0,1,.44-.12.72.72,0,0,1,.71.53,1.06,1.06,0,0,1,.33-.39.78.78,0,0,1,.46-.14.73.73,0,0,1,.63.34,1.83,1.83,0,0,1,.23,1v1.87h-.83v-1.87a1.34,1.34,0,0,0-.08-.55.28.28,0,0,0-.26-.16.36.36,0,0,0-.23.08.6.6,0,0,0-.17.21.53.53,0,0,1,0,.12.41.41,0,0,1,0,.11v2.06h-.83v-1.87a1.38,1.38,0,0,0-.08-.55.3.3,0,0,0-.27-.16.37.37,0,0,0-.21.06.52.52,0,0,0-.16.17v2.35h-.83V261Z" transform="translate(-7.93 -9.22)"/><path class="cls-12" d="M494.57,273.53H495v.65h-.41v.94h-.83v-.94H492.2l0-.5,1.58-2.82h.83Zm-1.67,0h.84V272h0l-.07.17Z" transform="translate(-7.93 -9.22)"/><path class="cls-12" d="M496.33,275.12h-.81v-.74h.81Z" transform="translate(-7.93 -9.22)"/><path class="cls-12" d="M501.42,275.12h-.82l-1.35-2.72h0v2.72h-.83v-4.26h.83l1.35,2.72h0v-2.72h.82Z" transform="translate(-7.93 -9.22)"/><path class="cls-12" d="M503.61,275.12a1.23,1.23,0,0,1-.08-.23,1.87,1.87,0,0,1,0-.25,1,1,0,0,1-.28.39.6.6,0,0,1-.42.15.87.87,0,0,1-.67-.25,1,1,0,0,1-.23-.7.9.9,0,0,1,.31-.72,1.39,1.39,0,0,1,.91-.25h.36V273a.64.64,0,0,0-.09-.36.29.29,0,0,0-.26-.13.28.28,0,0,0-.23.11.46.46,0,0,0-.08.29H502v0a.84.84,0,0,1,.31-.7,1.26,1.26,0,0,1,.86-.29,1.16,1.16,0,0,1,.81.29,1.06,1.06,0,0,1,.31.82v1.3a2.77,2.77,0,0,0,0,.42,2.6,2.6,0,0,0,.1.4Zm-.61-.55a.47.47,0,0,0,.3-.1.56.56,0,0,0,.17-.24v-.5h-.36a.33.33,0,0,0-.3.13.62.62,0,0,0-.1.34.46.46,0,0,0,.08.27A.26.26,0,0,0,503,274.57Z" transform="translate(-7.93 -9.22)"/><path class="cls-12" d="M505.6,272l0,.41A1.11,1.11,0,0,1,506,272a.84.84,0,0,1,.45-.12.8.8,0,0,1,.43.13.79.79,0,0,1,.27.4,1.16,1.16,0,0,1,.33-.39.78.78,0,0,1,.46-.14.72.72,0,0,1,.63.34,1.83,1.83,0,0,1,.23,1v1.87h-.83v-1.87a1.19,1.19,0,0,0-.08-.55.27.27,0,0,0-.26-.16.38.38,0,0,0-.23.08.49.49,0,0,0-.16.21V273a.41.41,0,0,1,0,.11v2.06h-.83v-1.87a1.22,1.22,0,0,0-.08-.55.29.29,0,0,0-.26-.16.4.4,0,0,0-.22.06.52.52,0,0,0-.16.17v2.35h-.83V272Z" transform="translate(-7.93 -9.22)"/><path class="cls-12" d="M510.53,275.18a1.19,1.19,0,0,1-1-.43,1.74,1.74,0,0,1-.34-1.12v-.12a2,2,0,0,1,.33-1.17,1.1,1.1,0,0,1,.94-.45,1,1,0,0,1,.86.39,1.63,1.63,0,0,1,.29,1v.45H510a1,1,0,0,0,.16.56.46.46,0,0,0,.42.21,1.29,1.29,0,0,0,.42-.06,2,2,0,0,0,.35-.18l.22.52a1.54,1.54,0,0,1-.46.26A1.83,1.83,0,0,1,510.53,275.18Zm0-2.64a.33.33,0,0,0-.31.18,1.31,1.31,0,0,0-.13.51h.79v-.08a1.1,1.1,0,0,0-.08-.45A.29.29,0,0,0,510.48,272.54Z" transform="translate(-7.93 -9.22)"/><path class="cls-12" d="M492.36,284.24l.23-2.38h2.18v.66h-1.5l-.11,1a.92.92,0,0,1,.27-.16,1,1,0,0,1,.35-.06,1,1,0,0,1,.83.36,1.64,1.64,0,0,1,.29,1.05,1.57,1.57,0,0,1-.32,1,1.17,1.17,0,0,1-1,.4,1.38,1.38,0,0,1-.92-.31,1,1,0,0,1-.38-.86h0l.8,0a.63.63,0,0,0,.14.43.44.44,0,0,0,.35.15.4.4,0,0,0,.37-.2,1.57,1.57,0,0,0,0-1.18.43.43,0,0,0-.39-.22.5.5,0,0,0-.31.09.51.51,0,0,0-.15.26Z" transform="translate(-7.93 -9.22)"/><path class="cls-12" d="M496.33,286.12h-.81v-.74h.81Z" transform="translate(-7.93 -9.22)"/><path class="cls-12" d="M501.43,284.59a1.61,1.61,0,0,1-2.69,1.17,1.58,1.58,0,0,1-.42-1.17V283.4a1.61,1.61,0,0,1,.42-1.18,1.7,1.7,0,0,1,2.26,0,1.57,1.57,0,0,1,.43,1.18Zm-.83-1.2a1.13,1.13,0,0,0-.18-.7.66.66,0,0,0-.55-.24.65.65,0,0,0-.54.23,1.18,1.18,0,0,0-.18.71v1.2a1.18,1.18,0,0,0,.18.71.63.63,0,0,0,.54.24.66.66,0,0,0,.55-.24,1.18,1.18,0,0,0,.18-.71Z" transform="translate(-7.93 -9.22)"/><path class="cls-12" d="M502.14,286.12v-2.58h-.4V283h.4v-.36a1.09,1.09,0,0,1,.28-.81,1,1,0,0,1,.78-.29l.19,0,.22,0-.06.62-.12,0h-.13a.29.29,0,0,0-.25.12.54.54,0,0,0-.08.33V283h.51v.59H503v2.58Z" transform="translate(-7.93 -9.22)"/><path class="cls-12" d="M504,286.12v-2.58h-.4V283h.4v-.36a1.09,1.09,0,0,1,.28-.81,1,1,0,0,1,.78-.29l.19,0,.22,0-.06.62-.12,0h-.13a.29.29,0,0,0-.25.12.54.54,0,0,0-.09.33V283h.51v.59h-.51v2.58Z" transform="translate(-7.93 -9.22)"/><path class="cls-12" d="M506.83,286.18a1.17,1.17,0,0,1-1-.43,1.74,1.74,0,0,1-.35-1.12v-.12a1.91,1.91,0,0,1,.34-1.17,1.09,1.09,0,0,1,.93-.45,1,1,0,0,1,.86.39,1.63,1.63,0,0,1,.3,1v.45h-1.6a1.09,1.09,0,0,0,.16.56.48.48,0,0,0,.43.21,1.22,1.22,0,0,0,.41-.06,2,2,0,0,0,.36-.18l.21.52a1.43,1.43,0,0,1-.46.26A1.79,1.79,0,0,1,506.83,286.18Zm-.05-2.64a.33.33,0,0,0-.31.18,1.32,1.32,0,0,0-.12.51h.78v-.08a1.1,1.1,0,0,0-.08-.45A.27.27,0,0,0,506.78,283.54Z" transform="translate(-7.93 -9.22)"/><path class="cls-12" d="M509.12,283l0,.44a1,1,0,0,1,.33-.36.76.76,0,0,1,1.06.18,1.64,1.64,0,0,1,.24,1v1.92H510V284.2a1.05,1.05,0,0,0-.09-.51.28.28,0,0,0-.26-.15.55.55,0,0,0-.25.07.52.52,0,0,0-.18.18v2.33h-.83V283Z" transform="translate(-7.93 -9.22)"/><path class="cls-12" d="M512.48,285.54a.3.3,0,0,0,.27-.13.65.65,0,0,0,.09-.37h.76a1.13,1.13,0,0,1-.31.82,1.23,1.23,0,0,1-1.76-.13,1.92,1.92,0,0,1-.33-1.16v-.08a1.92,1.92,0,0,1,.33-1.16,1.11,1.11,0,0,1,1-.45,1,1,0,0,1,.82.33,1.28,1.28,0,0,1,.3.89v0h-.75a.89.89,0,0,0-.09-.43.29.29,0,0,0-.27-.16.37.37,0,0,0-.36.26,2.21,2.21,0,0,0-.1.7v.08a2.12,2.12,0,0,0,.1.7A.37.37,0,0,0,512.48,285.54Z" transform="translate(-7.93 -9.22)"/><path class="cls-12" d="M515.23,286.18a1.16,1.16,0,0,1-1-.43,1.74,1.74,0,0,1-.35-1.12v-.12a2,2,0,0,1,.33-1.17,1.1,1.1,0,0,1,.94-.45,1,1,0,0,1,.86.39,1.63,1.63,0,0,1,.3,1v.45h-1.6a1,1,0,0,0,.16.56.47.47,0,0,0,.43.21,1.22,1.22,0,0,0,.41-.06,1.67,1.67,0,0,0,.35-.18l.22.52a1.54,1.54,0,0,1-.46.26A1.79,1.79,0,0,1,515.23,286.18Zm-.05-2.64a.33.33,0,0,0-.31.18,1.31,1.31,0,0,0-.13.51h.79v-.08a1.1,1.1,0,0,0-.08-.45A.29.29,0,0,0,515.18,283.54Z" transform="translate(-7.93 -9.22)"/><line class="cls-74" x1="515.83" y1="228.45" x2="511.07" y2="228.45"/><line class="cls-74" x1="530.42" y1="228.45" x2="517.92" y2="228.45"/><line class="cls-74" x1="535.26" y1="228.45" x2="531.87" y2="228.45"/><line class="cls-74" x1="513.81" y1="231.83" x2="511.07" y2="231.83"/><line class="cls-74" x1="524.13" y1="231.83" x2="515.83" y2="231.83"/><line class="cls-74" x1="535.26" y1="231.83" x2="525.99" y2="231.83"/><line class="cls-74" x1="515.5" y1="234.74" x2="511.07" y2="234.74"/><line class="cls-74" x1="527.04" y1="234.74" x2="517.44" y2="234.74"/><line class="cls-74" x1="516.83" y1="240.45" x2="511.07" y2="240.45"/><line class="cls-74" x1="531.42" y1="240.45" x2="518.92" y2="240.45"/><line class="cls-74" x1="535.26" y1="240.45" x2="532.87" y2="240.45"/><line class="cls-74" x1="518.81" y1="243.83" x2="511.07" y2="243.83"/><line class="cls-74" x1="529.13" y1="243.83" x2="520.83" y2="243.83"/><line class="cls-74" x1="535.26" y1="243.83" x2="530.99" y2="243.83"/><line class="cls-74" x1="513.83" y1="251.45" x2="511.07" y2="251.45"/><line class="cls-74" x1="528.42" y1="251.45" x2="515.92" y2="251.45"/><line class="cls-74" x1="535.26" y1="251.45" x2="529.87" y2="251.45"/><line class="cls-74" x1="515.81" y1="254.83" x2="511.07" y2="254.83"/><line class="cls-74" x1="526.13" y1="254.83" x2="517.83" y2="254.83"/><line class="cls-74" x1="535.26" y1="254.83" x2="527.99" y2="254.83"/><line class="cls-74" x1="513.5" y1="257.74" x2="511.07" y2="257.74"/><path class="cls-16" d="M500.82,279.36a3,3,0,0,0-4.79-3.7l-7.89,9.11a1.93,1.93,0,0,1-2.37.44l-3.9-2.08a8.3,8.3,0,0,1-2.73-2.37l-1.3-1.77-3.26,1.74a1.8,1.8,0,0,0-.91,1.23l-3.15,15.69a1.73,1.73,0,0,0,0,.6l2.07,11.25-1.15,7.55,12.94-1.69c1.85-2.6,2.47-3.21,3.29-4.51a30.23,30.23,0,0,0,3.81-8.43l2.14-8a1.93,1.93,0,0,1,.18-.44l.8-5.57Z" transform="translate(-7.93 -9.22)"/><rect class="cls-11" x="475.25" y="306.74" width="5.06" height="18.1" transform="matrix(-0.17, 0.98, -0.98, -0.17, 864.02, -108.91)"/><path class="cls-17" d="M467.73,316.59l-1.54,7a71,71,0,0,0,19.28,13.6l2.18-17.05Z" transform="translate(-7.93 -9.22)"/><line class="cls-18" x1="459.23" y1="309.94" x2="479.37" y2="313.55"/><line class="cls-18" x1="458.73" y1="312.19" x2="479.08" y2="315.83"/><line class="cls-18" x1="458.24" y1="314.43" x2="478.79" y2="318.1"/><path class="cls-19" d="M480.89,319l1.49.21.94-5,3.42-2-1.75,2.3,2.14.41-.88,5,1.4.24-2.18,17.05a70.25,70.25,0,0,1-7.18-4Z" transform="translate(-7.93 -9.22)"/><path class="cls-20" d="M528.27,284.55l-.79,1.05a.38.38,0,0,0,.11.56l3.91,2.31.06,0,2.07.74a.42.42,0,0,0,.36-.05l1.79-1.34a.42.42,0,0,0,.14-.24l.57-3.09a.39.39,0,0,0-.39-.45l-.48,0,.17.78-.17-.78-7.06.31A.38.38,0,0,0,528.27,284.55Z" transform="translate(-7.93 -9.22)"/><rect class="cls-11" x="545.33" y="303.28" width="6.7" height="17.9" transform="translate(730.13 -299.2) rotate(77.81)"/><path class="cls-16" d="M551.66,273a.48.48,0,0,0-.36-.26l-18.72-3.17a1.37,1.37,0,0,0-1.56,1.67l.65,2.69a1,1,0,0,1,0,.24l2.21-.1,13.11,5.2,2.41,4.8-1.83,3.29-1.1,2,.37.3a.38.38,0,0,1,0,.59l-2.45,2a.38.38,0,0,1-.27.08l-.4,0c1.16,4.77,5.36,8.74,10.13,10.51a1.34,1.34,0,0,1,.15-.41l4-7.24,1.25-2.28a3,3,0,0,0,.3-2.05l-.94-4.41Z" transform="translate(-7.93 -9.22)"/><path class="cls-17" d="M562.78,327.26l-3.69-14.09-19.55,4.19L543.12,339C550.46,338.59,555.87,330,562.78,327.26Z" transform="translate(-7.93 -9.22)"/><path class="cls-7" d="M535.79,282.52l3.72,3.37c-.08-.23,8,4,8,4l3.15-5.67-2.59-5.16L534,273.47l-2.38.1C531.57,274,535.79,282.52,535.79,282.52Z" transform="translate(-7.93 -9.22)"/><path class="cls-14" d="M556.12,290l-30.24-23-2.9,3.73L553.21,294a1.51,1.51,0,0,0,2.16-.34l1.08-1.55A1.5,1.5,0,0,0,556.12,290Z" transform="translate(-7.93 -9.22)"/><polygon class="cls-16" points="515.05 261.52 512.43 256.91 517.95 257.79 515.05 261.52"/><polygon class="cls-14" points="512.43 256.91 513.45 258.7 514.49 257.24 512.43 256.91"/><line class="cls-18" x1="531.85" y1="310.45" x2="551.85" y2="306.12"/><line class="cls-18" x1="532.24" y1="312.72" x2="552.44" y2="308.35"/><line class="cls-18" x1="532.63" y1="314.98" x2="553.04" y2="310.56"/><path class="cls-16" d="M543.75,292.23l-1.82-.13a.38.38,0,0,1-.31-.19L540.55,290l0-.06-.88-2.63-2-5.68-2.2-4.71a3.38,3.38,0,0,0-3.77-1.88l-.82.17a3.25,3.25,0,0,0-1.29,4.34l1,1.82,1.46,5.26.94,8.91a2.6,2.6,0,0,0,.09.47l1.76,5.57a2.82,2.82,0,0,0,.68,1.14l3.25,3.32a1.46,1.46,0,0,1,.36.61l1.15,4,14.59-3.11-.89-4.18a1.47,1.47,0,0,1,0-.59C549.11,301,544.91,297,543.75,292.23Z" transform="translate(-7.93 -9.22)"/><path class="cls-19" d="M544.55,316.29l-.74.16-1.22-6.36-.7.15-.52-2.19L539,306.64l1.15,4-1,.23,1.36,6.29-1,.22L543.12,339c2.26-.13,4.52-.38,6.76-.73Z" transform="translate(-7.93 -9.22)"/><circle class="cls-21" cx="508.16" cy="264" r="70.87"/></g></g></svg>