<svg xmlns="http://www.w3.org/2000/svg" xmlns:xlink="http://www.w3.org/1999/xlink" viewBox="0 0 479.56 280.2"><defs><style>.cls-1{fill:#848383;}.cls-10,.cls-2{fill:#efefef;}.cls-3{fill:#d0cfd0;}.cls-4{fill:#f9b233;}.cls-5{fill:#6cb75a;}.cls-6{fill:#6786a0;}.cls-7,.cls-8{fill:#ddd;}.cls-10,.cls-8{font-size:7.1px;font-family:Roboto-Bold, Roboto;font-weight:700;}.cls-14,.cls-9{fill:none;}.cls-9{stroke:#eaeaea;stroke-miterlimit:10;stroke-width:3.92px;}.cls-11,.cls-32{fill:#fff;}.cls-12{fill:#5b5b5a;}.cls-13{fill:#0e7689;}.cls-15{fill:#f6eab2;}.cls-16{fill:#75be87;}.cls-17{fill:#7899b6;}.cls-18{fill:#91afc6;}.cls-19{fill:#5f8d2f;}.cls-20{fill:#57832e;}.cls-21{fill:#9ea6b0;}.cls-22{fill:#dce7f5;}.cls-23{fill:#c4cfdb;}.cls-24{fill:#323232;}.cls-25{fill:#00a19a;}.cls-26{fill:url(#linear-gradient);}.cls-27{fill:#2bb4ab;}.cls-28{fill:#00a571;}.cls-29{fill:#212322;}.cls-30{fill:#ea5459;}.cls-31{fill:#ed6a71;}.cls-32{opacity:0.5;}</style><linearGradient id="linear-gradient" x1="298.01" y1="216" x2="541.39" y2="216" gradientUnits="userSpaceOnUse"><stop offset="0" stop-color="#009b80"/><stop offset="0.51" stop-color="#00817c"/><stop offset="1" stop-color="#006386"/></linearGradient></defs><title>G05_02</title><g id="Tiles"><polygon class="cls-1" points="332.9 222.59 332.9 227.34 243.36 280.2 243.21 280.11 243.21 275.36 332.9 222.59"/><polygon class="cls-2" points="243.21 275.36 243.21 280.11 147.11 224.38 147.11 219.63 243.21 275.36"/><polygon class="cls-3" points="147.11 219.63 237.2 167.48 332.68 222.6 243.21 275.36 147.11 219.63"/></g><g id="Criminal"><circle class="cls-4" cx="72.83" cy="161.83" r="70.87"/><path class="cls-5" d="M28.87,204.17a70.89,70.89,0,0,0,130.34,0Z" transform="translate(-21.21 -14.47)"/><path class="cls-6" d="M55.58,163.46a11.51,11.51,0,0,0-2.17,11.36c1,3.05.23,5.17-2.59,6.22,1.29-1.23-3.46-20.19,5.74-23.41A41.94,41.94,0,0,1,55.58,163.46Z" transform="translate(-21.21 -14.47)"/><polygon class="cls-6" points="46.1 194.23 57.23 194.23 55.23 167.44 44.1 167.44 46.1 194.23"/><polygon class="cls-6" points="84.1 194.23 95.23 194.23 92.23 167.44 81.1 167.44 84.1 194.23"/><path class="cls-7" d="M259.25,205.84l-61,33.79,38.71,27.06,61-33.79ZM245,217l30.22,21.12-1.19.65L243.8,217.66Zm-2.27,1.26,31.53,22-1.18.65-31.53-22Zm-2.28,1.26L261,233.92l-1.19.66-20.59-14.4ZM235.88,222l31.53,22.05-1.18.65-31.53-22Zm-2.27,1.26,28.44,19.89-1.18.65L232.43,224Zm-2.27,1.26L251.93,239l-1.18.65-20.6-14.39Zm-2.28,1.26,25.28,17.68-1.18.65-25.28-17.67Zm-2.27,1.26,30.85,21.57-1.18.66-30.85-21.57Zm-4.55,2.52L251,249.72l-1.18.65-28.77-20.12ZM220,230.86l20.85,14.57-1.18.66-20.85-14.58Zm-2.27,1.26,27,18.87-1.18.65-27-18.87Zm-2.27,1.26,25.27,17.67-1.18.66L214.23,234Zm23.36,27.8-2.45-1.87c-.5-.39-1.5-.91-1.56-1.43s.17-.51-.54-.69c-.52-.13-1.29-.09-1.38-.52a3.87,3.87,0,0,1,.82-.46l.07,0,1.38-.51c-1.68.24-3.37.44-5.07.55-.47,0-1.67.12-1.28-.41a2.86,2.86,0,0,1,.58-.34l.16-.09.07,0,.26-.15-.08.06a12,12,0,0,1,2.33-.78l3.3-.77-9.75.89c.32,0,.57-.46.9-.49L238.3,253l-.53.29a1.08,1.08,0,0,1-.36.2l-4.54,1.07a26.87,26.87,0,0,0-3.29.85c-.23.48,2.55.19,2.93.15,1.42-.13,2.82-.31,4.22-.53l-.64.36a1.28,1.28,0,0,1-.25.14l-2,.76c.22.28.87.27,1.32.38.74.18.49.26.54.68s1,1,1.56,1.43l2.45,1.88S238.77,261.18,238.78,261.18Zm41.59-20.8-34.29-24,1.18-.65,34.29,24Z" transform="translate(-21.21 -14.47)"/><polygon class="cls-7" points="224.86 201.93 259.15 225.9 260.33 225.25 226.04 201.27 224.86 201.93"/><path class="cls-7" d="M239.67,260.69l-2.45-1.88c-.52-.4-1.49-.88-1.56-1.43s.2-.5-.54-.68c-.45-.11-1.1-.1-1.32-.38l2-.76a1.28,1.28,0,0,0,.25-.14l.64-.36c-1.4.22-2.8.4-4.22.53-.38,0-3.16.33-2.93-.15a26.87,26.87,0,0,1,3.29-.85l4.54-1.07a1.08,1.08,0,0,0,.36-.2l.53-.29-11.76,1.08c-.33,0-.58.46-.9.49l9.75-.89-3.3.77a12,12,0,0,0-2.33.78l.08-.06-.26.15-.07,0-.16.09a2.86,2.86,0,0,0-.58.34c-.39.53.81.44,1.28.41,1.7-.11,3.39-.31,5.07-.55l-1.38.51-.07,0a3.87,3.87,0,0,0-.82.46c.09.43.86.39,1.38.52.71.18.49.28.54.69s1.06,1,1.56,1.43l2.45,1.87S239.69,260.7,239.67,260.69Z" transform="translate(-21.21 -14.47)"/><polygon class="cls-7" points="246.2 229.61 214.67 207.57 213.49 208.22 245.02 230.27 246.2 229.61"/><polygon class="cls-7" points="253.02 225.83 221.49 203.79 220.31 204.44 251.84 226.49 253.02 225.83"/><polygon class="cls-7" points="236.43 234.18 205.57 212.61 204.39 213.26 235.25 234.83 236.43 234.18"/><polygon class="cls-7" points="253.98 223.66 223.77 202.53 222.59 203.19 252.8 224.31 253.98 223.66"/><polygon class="cls-7" points="229.8 235.24 201.02 215.13 199.84 215.78 228.62 235.9 229.8 235.24"/><polygon class="cls-7" points="240.84 228.72 212.4 208.83 211.21 209.48 239.66 229.37 240.84 228.72"/><polygon class="cls-7" points="223.46 236.51 196.47 217.64 195.29 218.3 222.28 237.17 223.46 236.51"/><polygon class="cls-7" points="219.48 236.58 194.2 218.9 193.02 219.56 218.3 237.23 219.48 236.58"/><polygon class="cls-7" points="233.13 229.02 207.85 211.35 206.66 212 231.94 229.68 233.13 229.02"/><polygon class="cls-7" points="219.6 230.96 198.75 216.38 197.57 217.04 218.41 231.61 219.6 230.96"/><polygon class="cls-7" points="230.71 224.49 210.12 210.09 208.94 210.74 229.53 225.14 230.71 224.49"/><polygon class="cls-7" points="239.81 219.45 219.22 205.05 218.04 205.71 238.63 220.1 239.81 219.45"/><text class="cls-8" transform="matrix(0.74, 0.52, -0.87, 0.48, 234.78, 198.69)">AGREEMENT</text><circle class="cls-4" cx="406.74" cy="161.83" r="70.87"/><circle class="cls-9" cx="72.83" cy="161.83" r="70.87"/><path class="cls-2" d="M259.57,200.27l-59.09,37.09,40.13,24.89,59.09-37.08Zm-13.64,11.94,31.33,19.43-1.15.72-31.32-19.44Zm-2.2,1.38,32.69,20.28-1.14.72-32.69-20.28Zm-2.2,1.38,21.35,13.25-1.15.72-21.35-13.25Zm-4.41,2.76L269.81,238l-1.14.72L236,218.45Zm-2.2,1.39,29.49,18.29-1.14.72-29.49-18.3Zm-2.2,1.38,21.35,13.25-1.14.71-21.35-13.24Zm-2.2,1.38,26.21,16.26-1.15.72L229.37,222.6Zm-2.2,1.38,32,19.85-1.15.72-32-19.85ZM223.91,226l29.84,18.51-1.15.72-29.83-18.52Zm-2.2,1.38,21.61,13.41-1.14.72-21.61-13.41Zm-2.2,1.38,28,17.36-1.14.72-28-17.36Zm-2.2,1.38,26.21,16.27-1.15.71-26.21-16.26Zm24.85,26.48-2.55-1.73c-.52-.36-1.54-.82-1.64-1.35s.14-.51-.57-.65c-.52-.1-1.29,0-1.41-.44a3.36,3.36,0,0,1,.8-.51l.06,0,1.35-.59c-1.66.33-3.34.63-5,.83-.46.06-1.66.21-1.3-.34a3.2,3.2,0,0,1,.56-.37l.16-.1.06,0,.26-.16-.08.06a11.88,11.88,0,0,1,2.29-.9l3.24-1-9.68,1.42c.31,0,.55-.49.87-.54l11.68-1.72-.51.32a.89.89,0,0,1-.35.22l-4.47,1.31a29.87,29.87,0,0,0-3.24,1c-.21.5,2.55.06,2.93,0,1.41-.22,2.8-.47,4.19-.76l-.62.39a1.38,1.38,0,0,1-.25.15l-2,.87c.24.27.89.22,1.34.31.75.14.51.24.58.65s1.09,1,1.64,1.34l2.54,1.74S242.15,256.65,242.16,256.65Zm40.38-23L247,211.54l1.14-.72,35.56,22.06Z" transform="translate(-21.21 -14.47)"/><polygon class="cls-2" points="225.78 197.07 261.33 219.13 262.47 218.41 226.92 196.35 225.78 197.07"/><path class="cls-2" d="M243,256.11l-2.54-1.74c-.55-.37-1.55-.8-1.64-1.34s.17-.51-.58-.65c-.45-.09-1.1,0-1.34-.31l2-.87a1.38,1.38,0,0,0,.25-.15l.62-.39c-1.39.29-2.78.54-4.19.76-.38.06-3.14.5-2.93,0a29.87,29.87,0,0,1,3.24-1l4.47-1.31a.89.89,0,0,0,.35-.22l.51-.32-11.68,1.72c-.32.05-.56.5-.87.54l9.68-1.42-3.24,1a11.88,11.88,0,0,0-2.29.9l.08-.06-.26.16-.06,0-.16.1a3.2,3.2,0,0,0-.56.37c-.36.55.84.4,1.3.34,1.69-.2,3.37-.5,5-.83l-1.35.59-.06,0a3.36,3.36,0,0,0-.8.51c.12.42.89.34,1.41.44.71.14.5.25.57.65s1.12,1,1.64,1.35l2.55,1.73S243,256.12,243,256.11Z" transform="translate(-21.21 -14.47)"/><polygon class="cls-2" points="248.6 223.54 215.91 203.26 214.76 203.98 247.45 224.26 248.6 223.54"/><polygon class="cls-2" points="255.21 219.4 222.52 199.11 221.37 199.83 254.06 220.11 255.21 219.4"/><polygon class="cls-2" points="239.09 228.64 207.1 208.79 205.96 209.51 237.95 229.35 239.09 228.64"/><polygon class="cls-2" points="256.04 217.17 224.72 197.73 223.57 198.45 254.9 217.88 256.04 217.17"/><polygon class="cls-2" points="232.53 230.06 202.7 211.55 201.55 212.27 231.39 230.78 232.53 230.06"/><polygon class="cls-2" points="243.2 222.94 213.71 204.64 212.56 205.36 242.05 223.66 243.2 222.94"/><polygon class="cls-2" points="226.28 231.68 198.29 214.32 197.15 215.03 225.13 232.4 226.28 231.68"/><polygon class="cls-2" points="222.3 231.96 196.09 215.7 194.95 216.42 221.16 232.68 222.3 231.96"/><polygon class="cls-2" points="235.51 223.67 209.3 207.41 208.16 208.12 234.37 224.39 235.51 223.67"/><polygon class="cls-2" points="222.11 226.34 200.5 212.93 199.35 213.65 220.97 227.06 222.11 226.34"/><polygon class="cls-2" points="232.85 219.27 211.5 206.02 210.36 206.74 231.71 219.99 232.85 219.27"/><polygon class="cls-2" points="241.66 213.74 220.31 200.5 219.17 201.21 240.52 214.46 241.66 213.74"/><text class="cls-10" transform="matrix(0.76, 0.47, -0.85, 0.53, 235.53, 193.29)">AGREEMENT</text><path class="cls-1" d="M301.53,242.8l-5.07,2,.49.89,5.76-2.26.12,0A1,1,0,0,0,301.53,242.8Z" transform="translate(-21.21 -14.47)"/><path class="cls-1" d="M268.79,257.2a3.49,3.49,0,0,1-1.47,2.33l3.23-1.27.06.16-3.18,1.25a3.79,3.79,0,0,1,2.71.69l2.92-1.14-1.25-3.2Z" transform="translate(-21.21 -14.47)"/><polygon class="cls-1" points="283.09 233.02 283.09 233.02 281.49 228.95 275.73 231.2 268.33 234.1 268.46 234.42 268.5 234.54 269.75 237.73 269.93 238.17 272.28 237.25 277.86 235.07 283.09 233.02"/><path class="cls-1" d="M291.5,246.73l5-1.94,5.07-2a1,1,0,0,1,1.3.58l-.12,0,1.59,4.08.61-.24a2.19,2.19,0,1,0-1.6-4.07l.17-.07a1.71,1.71,0,0,0-2.21-1l-5.19,2-4.83,1.89Z" transform="translate(-21.21 -14.47)"/><polygon class="cls-1" points="255.19 239.75 251.76 241.09 253.01 244.29 261.69 240.89 269.75 237.73 268.5 234.54 255.19 239.75"/><rect class="cls-1" x="272.39" y="255.68" width="1.25" height="3.43" transform="translate(-96.24 102.72) rotate(-21.37)"/><path class="cls-1" d="M270.55,258.26l-3.23,1.27-.75.29.06.16.8-.31,3.18-1.25Zm-3.94,1.64.13-.06Z" transform="translate(-21.21 -14.47)"/><path class="cls-1" d="M266.74,259.84l-.13.06Z" transform="translate(-21.21 -14.47)"/><path class="cls-11" d="M261.37,193.93l-57.61,39.33,41.05,23.34,57.62-39.33ZM248.2,206.38l32.05,18.22-1.11.76-32-18.22Zm-2.14,1.47,33.44,19-1.11.76-33.45-19Zm-2.15,1.46,21.84,12.42-1.12.76-21.84-12.42Zm-4.3,2.93,33.45,19-1.12.77L238.5,213Zm-2.14,1.47,30.17,17.15-1.12.76-30.17-17.15Zm-2.15,1.46,21.84,12.42-1.11.76L234.2,215.94Zm-2.15,1.47L260,231.88l-1.12.76L232.06,217.4ZM231,218.11l32.73,18.6-1.11.76-32.73-18.6ZM226.73,221l30.52,17.35-1.11.76L225.61,221.8Zm-2.15,1.46,22.12,12.57-1.12.76-22.11-12.57ZM222.44,224l28.63,16.27L250,241l-28.63-16.27Zm-2.15,1.46,26.81,15.25-1.11.76L219.17,226.2Zm25.85,25.51-2.61-1.64c-.54-.34-1.58-.76-1.69-1.28s.12-.51-.6-.63c-.53-.08-1.29,0-1.43-.39a4.9,4.9,0,0,1,.78-.54l.07,0,1.32-.64c-1.64.4-3.31.76-5,1-.46.07-1.66.27-1.32-.29a3,3,0,0,1,.55-.4l.16-.1.06,0,.25-.17-.08.06a12.52,12.52,0,0,1,2.25-1l3.21-1.07-9.62,1.79c.31-.06.52-.51.84-.57l11.61-2.17-.49.34a1.06,1.06,0,0,1-.35.23l-4.41,1.48a28.82,28.82,0,0,0-3.2,1.16c-.19.5,2.55-.05,2.93-.12,1.4-.27,2.78-.58,4.15-.92l-.61.42a1.6,1.6,0,0,1-.23.16l-2,.94c.25.26.89.19,1.35.26.76.11.52.22.6.63s1.13.92,1.69,1.28l2.61,1.63S246.14,250.94,246.14,250.94Zm39.47-24.59-36.38-20.67,1.12-.77,36.37,20.68Z" transform="translate(-21.21 -14.47)"/><polygon class="cls-12" points="228.02 191.2 264.39 211.88 265.51 211.12 229.13 190.44 228.02 191.2"/><path class="cls-13" d="M247,250.36l-2.61-1.63c-.56-.36-1.57-.75-1.69-1.28s.16-.52-.6-.63c-.46-.07-1.1,0-1.35-.26l2-.94a1.6,1.6,0,0,0,.23-.16l.61-.42c-1.37.34-2.75.65-4.15.92-.38.07-3.12.62-2.93.12a28.82,28.82,0,0,1,3.2-1.16l4.41-1.48a1.06,1.06,0,0,0,.35-.23l.49-.34L233.29,245c-.32.06-.53.51-.84.57l9.62-1.79-3.21,1.07a12.52,12.52,0,0,0-2.25,1l.08-.06-.25.17-.06,0-.16.1a3,3,0,0,0-.55.4c-.34.56.86.36,1.32.29,1.68-.27,3.35-.63,5-1l-1.32.64-.07,0a4.9,4.9,0,0,0-.78.54c.14.42.9.31,1.43.39.72.12.52.23.6.63s1.15.94,1.69,1.28l2.61,1.64S247,250.38,247,250.36Z" transform="translate(-21.21 -14.47)"/><polygon class="cls-12" points="251.84 216.78 218.4 197.77 217.28 198.53 250.73 217.54 251.84 216.78"/><polygon class="cls-12" points="258.29 212.38 224.84 193.37 223.72 194.13 257.17 213.14 258.29 212.38"/><polygon class="cls-12" points="242.54 222.24 209.81 203.63 208.69 204.39 241.42 223 242.54 222.24"/><polygon class="cls-12" points="259.04 210.12 226.99 191.91 225.87 192.67 257.92 210.88 259.04 210.12"/><polygon class="cls-12" points="236.04 223.91 205.51 206.56 204.4 207.32 234.93 224.68 236.04 223.91"/><polygon class="cls-12" points="246.42 216.38 216.25 199.23 215.13 200 245.31 217.15 246.42 216.38"/><polygon class="cls-12" points="229.85 225.77 201.22 209.49 200.11 210.25 228.74 226.53 229.85 225.77"/><polygon class="cls-12" points="225.89 226.2 199.07 210.96 197.96 211.72 224.77 226.96 225.89 226.2"/><polygon class="cls-12" points="238.77 217.41 211.96 202.17 210.84 202.93 237.66 218.17 238.77 217.41"/><polygon class="cls-12" points="225.48 220.6 203.37 208.03 202.25 208.79 224.37 221.36 225.48 220.6"/><polygon class="cls-12" points="235.95 213.12 214.1 200.7 212.99 201.46 234.83 213.88 235.95 213.12"/><polygon class="cls-12" points="244.54 207.25 222.69 194.84 221.58 195.6 243.42 208.01 244.54 207.25"/><path class="cls-13" d="M262.26,202.3l-1.39-.79-1.16.46-.81-.45,5.53-2.08.81.47-2.81,3.61-.8-.45Zm-.54-1.12,1,.56,1.15-1.39h0Z" transform="translate(-21.21 -14.47)"/><path class="cls-13" d="M266.4,205.06a3.37,3.37,0,0,1-2.13-.41,1.14,1.14,0,0,1-.7-1,1.45,1.45,0,0,1,.78-1.1l.87-.6a3.43,3.43,0,0,1,1.67-.59,2.75,2.75,0,0,1,1.61.32c.48.27.73.57.73.88a1.08,1.08,0,0,1-.58.89h0l-.75-.42a.7.7,0,0,0,.33-.48c0-.15-.1-.3-.33-.43A1.4,1.4,0,0,0,267,202a2.23,2.23,0,0,0-1,.4l-.87.59a1.13,1.13,0,0,0-.54.66c-.05.22.06.41.32.56a2.45,2.45,0,0,0,.5.21,1.57,1.57,0,0,0,.41,0l.77-.52-.7-.4.58-.4L268,204Z" transform="translate(-21.21 -14.47)"/><path class="cls-13" d="M269,205.15l-1.67,1.14-.79-.45,4.17-2.85,1.49.85c.45.26.69.53.73.82s-.14.57-.53.84a1.94,1.94,0,0,1-.71.29,2.7,2.7,0,0,1-.85,0,.49.49,0,0,1,.14.53,1.27,1.27,0,0,1-.48.52l-.3.21a1.64,1.64,0,0,0-.32.27.36.36,0,0,0-.13.28l-.06,0-.82-.46c0-.09.05-.18.17-.29a3.47,3.47,0,0,1,.37-.3l.3-.2A.6.6,0,0,0,270,206c0-.14-.08-.27-.28-.38Zm.64-.44.68.39a1.19,1.19,0,0,0,.65.18,1,1,0,0,0,.61-.21.55.55,0,0,0,.29-.4c0-.14-.11-.27-.32-.39l-.7-.4Z" transform="translate(-21.21 -14.47)"/><path class="cls-13" d="M274.44,208.06l-1.64-.93-1.19.81,1.92,1.08-.65.44-2.7-1.53,4.17-2.85,2.7,1.53-.65.44L274.5,206l-1.05.72,1.63.93Z" transform="translate(-21.21 -14.47)"/><path class="cls-13" d="M277.63,209.87l-1.64-.93-1.19.81,1.92,1.09-.65.44-2.7-1.54,4.17-2.85,2.7,1.54-.65.44-1.9-1.09-1.05.72,1.63.93Z" transform="translate(-21.21 -14.47)"/><path class="cls-13" d="M281.76,209.29,279.69,212h0l4.09-1.52,1,.59-4.17,2.85-.79-.46,1.24-.84,1.92-1.22h0l-4.15,1.51-.53-.3,2-2.7h0l-1.76,1.29-1.24.85-.79-.45,4.17-2.84Z" transform="translate(-21.21 -14.47)"/><path class="cls-13" d="M285.66,214.43,284,213.5l-1.19.82,1.91,1.08-.64.44-2.71-1.53,4.17-2.85,2.7,1.53-.65.44-1.9-1.08-1.05.71,1.64.93Z" transform="translate(-21.21 -14.47)"/><path class="cls-13" d="M287.78,217.93l-.79-.45,1.26-2.85h0l-2.85,1.94-.79-.45,4.17-2.85.79.45-1.25,2.85h0l2.84-1.94.79.45Z" transform="translate(-21.21 -14.47)"/><path class="cls-13" d="M294.77,217.5l-1.11-.64-3.53,2.41-.79-.45,3.53-2.41-1.12-.63.65-.44,3,1.72Z" transform="translate(-21.21 -14.47)"/><path class="cls-14" d="M301.25,240.35l-5,2.14.52.88,5.68-2.43.13-.05A1,1,0,0,0,301.25,240.35Z" transform="translate(-21.21 -14.47)"/><path class="cls-15" d="M269,255.75a3.45,3.45,0,0,1-1.4,2.37l3.2-1.36.06.16-3.14,1.34a3.79,3.79,0,0,1,2.74.6l2.88-1.23L272,254.48Z" transform="translate(-21.21 -14.47)"/><polygon class="cls-16" points="282.95 230.49 282.95 230.49 281.23 226.46 275.54 228.89 268.24 232.01 268.37 232.33 268.42 232.45 269.77 235.6 269.95 236.04 272.28 235.04 277.78 232.69 282.95 230.49"/><path class="cls-13" d="M291.35,244.58l4.89-2.09,5-2.14a1,1,0,0,1,1.32.54l-.13.05,1.72,4,.6-.26a2.17,2.17,0,0,0,1.26-1.45,2.25,2.25,0,0,0-.1-1.42,2.21,2.21,0,0,0-2.88-1.15l.16-.07a1.69,1.69,0,0,0-2.22-.89l-5.13,2.19-4.78,2Z" transform="translate(-21.21 -14.47)"/><polygon class="cls-13" points="255.27 238.06 251.88 239.51 253.23 242.67 261.8 239 269.77 235.6 268.42 232.45 255.27 238.06"/><rect class="cls-16" x="272.57" y="254.09" width="1.25" height="3.43" transform="translate(-99.74 113.4) rotate(-23.13)"/><path class="cls-13" d="M270.76,256.76l-3.2,1.36-.73.31.07.16.78-.33,3.14-1.34Zm-3.89,1.75.13-.06Z" transform="translate(-21.21 -14.47)"/><path d="M267,258.45l-.13.06Z" transform="translate(-21.21 -14.47)"/><path class="cls-17" d="M116.59,181.69l6.06,1.8a2.9,2.9,0,1,0,4.63,2.32V173.4l-13.41-4.69v16.44l-28.18,5.66h-33V168.1a16.77,16.77,0,0,1,16.77-16.77H91.19a7.53,7.53,0,0,1,7.5-7.5h22.5A12.17,12.17,0,0,1,133.32,156v29.57a9.08,9.08,0,0,1-8.29,9.16,8.87,8.87,0,0,1-9.46-8.86A8.17,8.17,0,0,1,116.59,181.69Z" transform="translate(-21.21 -14.47)"/><path class="cls-18" d="M106.25,175.1l-11.16-3.81a5.77,5.77,0,0,1-3.9-5.45V151.33a7.53,7.53,0,0,1,7.5-7.5h15.18v25.81A5.77,5.77,0,0,1,106.25,175.1Z" transform="translate(-21.21 -14.47)"/><polygon class="cls-17" points="29.48 194.23 40.6 194.23 42.6 173.44 31.48 173.44 29.48 194.23"/><polygon class="cls-17" points="66.48 194.23 77.6 194.23 75.6 173.44 64.48 173.44 66.48 194.23"/><circle class="cls-4" cx="236.74" cy="72.83" r="70.87"/><circle id="_Tracciato_" data-name="&lt;Tracciato&gt;" class="cls-19" cx="272.32" cy="87.4" r="5.78"/><path class="cls-20" d="M274.37,142a71.72,71.72,0,0,0-85.52-70.39,70.8,70.8,0,0,0,26,71.89h59.5C274.34,143,274.37,142.52,274.37,142Z" transform="translate(-21.21 -14.47)"/><path class="cls-21" d="M284.25,119.73c-2.66-4-9.95-5.72-12.85-9.46L256,113.19C262,121,268.73,118,274,123.27c2.71,2.71,1.59,11,.69,16.47-2.47.06-4.46,1.73-4.46,3.78H280S287.55,124.68,284.25,119.73Z" transform="translate(-21.21 -14.47)"/><path class="cls-21" d="M223.53,98.4l1.31,41.52a4,4,0,0,0-3.22,3.6h9.31l5.72-30.29C233.83,111.6,225.6,100.9,223.53,98.4Z" transform="translate(-21.21 -14.47)"/><path class="cls-22" d="M223.53,74.54,217.18,71,218.61,89h0c.24,6.27,1.15,12,4.9,16.51a27.44,27.44,0,0,0,7.4,6.25,30,30,0,0,0,6.62,2.88l-.27-6.86a21,21,0,0,1-13.73-19h0Z" transform="translate(-21.21 -14.47)"/><path class="cls-23" d="M312.07,73.46c.31-11.48-10.95-21.09-22.35-21.41-.11,0-.2,0-.31,0h-.3v0a3.15,3.15,0,0,0,0,6.28v0a14.81,14.81,0,1,1,0,29.62l-27.5-3.75S248.34,81.36,245,78.82C239.58,74.73,233.73,57,233.73,57a6,6,0,0,0-5.6-3.83L226,56.8l-4.61,0-4.23,3.62a33,33,0,0,0-5.66,1.48c-1.28.64-.18,3.64,0,4.84.34,2.3,1.73,5.15,4,5.57.41.08,1.24,0,1.65.07a5.43,5.43,0,0,1,3.49,2.12c2.08,2.89,2.86,14.26,2.86,14.26h0c.33,8.81,1.29,11.79,6.18,18.52,4.14,5.71,9.12,25,11,32.83a3.77,3.77,0,0,0-2.55,3.37h9.32l1.28-25.08,20.87-3.76c2.9,3.74,4.42,4.63,8.84,6.48,3.26,1.35,7.93.88,10.58,3.54s3.71,10.07,4.09,15.15a4,4,0,0,0-3.52,3.67h9.7S301.57,120,296.52,115c-1.31-1.31-6.1-3-7.41-4.29-3.64-3.64-.87-12.9-.87-12.9C299.93,97.77,311.62,89.68,312.07,73.46Z" transform="translate(-21.21 -14.47)"/><path class="cls-24" d="M220.85,61c0-.52.29-1,1.44-1.17a6.05,6.05,0,0,1,2.73.73A2.87,2.87,0,0,1,223.16,62C222,62.11,220.91,61.5,220.85,61Z" transform="translate(-21.21 -14.47)"/><path class="cls-12" d="M229.28,56.81l.35,1.36a.19.19,0,0,1-.13.23.19.19,0,0,1-.23-.13h0l-.27-1.4a.13.13,0,0,1,.11-.16.13.13,0,0,1,.16.1Z" transform="translate(-21.21 -14.47)"/><path class="cls-12" d="M231.29,63.54l1,2.63h0a.43.43,0,0,1-.26.56.43.43,0,0,1-.56-.26v0l-.82-2.71a.35.35,0,0,1,.24-.44.35.35,0,0,1,.43.21Z" transform="translate(-21.21 -14.47)"/><path class="cls-12" d="M234.51,71.29l1.31,2.45,0,0a.69.69,0,0,1-1.21.65l0,0-1.19-2.6a.6.6,0,0,1,.29-.8.61.61,0,0,1,.79.26Z" transform="translate(-21.21 -14.47)"/><path class="cls-12" d="M238.89,78.31l1.85,2,.08.09a.88.88,0,0,1,0,1.25.87.87,0,0,1-1.24,0l0,0-1.9-2.23a.81.81,0,0,1,.1-1.15.8.8,0,0,1,1.12.06Z" transform="translate(-21.21 -14.47)"/><path class="cls-12" d="M245.19,83l2.61.85.07,0a1.07,1.07,0,0,1-.66,2l-.05,0-2.71-1a1,1,0,0,1-.59-1.3,1,1,0,0,1,1.25-.6Z" transform="translate(-21.21 -14.47)"/><path class="cls-12" d="M253.2,85.16l2.74.53h0a1.28,1.28,0,1,1-.49,2.52h-.06l-2.77-.69a1.21,1.21,0,0,1,.52-2.36Z" transform="translate(-21.21 -14.47)"/><path class="cls-12" d="M261.47,86.61l2.77.43h0A1.47,1.47,0,0,1,263.8,90h-.05L261,89.43a1.44,1.44,0,0,1,.48-2.83Z" transform="translate(-21.21 -14.47)"/><path class="cls-12" d="M269.77,88l2.77.51h0a1.3,1.3,0,0,1-.38,2.57l-2.81-.32a1.39,1.39,0,1,1,.31-2.77h.1Z" transform="translate(-21.21 -14.47)"/><path class="cls-12" d="M278.07,89.54l2.77.54h0a.83.83,0,0,1-.21,1.65l-2.83-.17a1,1,0,0,1,.12-2l.13,0Z" transform="translate(-21.21 -14.47)"/><path class="cls-12" d="M286.39,91.25l1.38.32a.13.13,0,0,1,.11.17.15.15,0,0,1-.14.11l-1.42,0a.31.31,0,0,1-.32-.31.3.3,0,0,1,.31-.32Z" transform="translate(-21.21 -14.47)"/><path class="cls-12" d="M226,63.71l.47,1.33a.18.18,0,1,1-.34.13h0l-.39-1.37a.14.14,0,0,1,.1-.17.14.14,0,0,1,.17.09Z" transform="translate(-21.21 -14.47)"/><path class="cls-12" d="M228.55,70.18l1.2,2.51h0a.45.45,0,0,1-.21.59.44.44,0,0,1-.58-.21v0l-1.06-2.6a.35.35,0,0,1,.19-.46.35.35,0,0,1,.45.17Z" transform="translate(-21.21 -14.47)"/><path class="cls-12" d="M232.46,77.52,234,79.8l0,0a.69.69,0,0,1-.19,1,.68.68,0,0,1-1-.19l0,0-1.44-2.45a.6.6,0,0,1,1-.64Z" transform="translate(-21.21 -14.47)"/><path class="cls-12" d="M237.54,83.93l1,.88c.34.29.7.51,1.05.77l.09.07a.88.88,0,1,1-1.06,1.41l0,0c-.39-.31-.81-.6-1.16-.94l-1.06-1a.82.82,0,0,1,0-1.16.81.81,0,0,1,1.12,0Z" transform="translate(-21.21 -14.47)"/><path class="cls-12" d="M244.45,87.83l2.61.84h.05a1.08,1.08,0,0,1,.7,1.35,1.07,1.07,0,0,1-1.35.69h-.05l-2.67-1a1,1,0,0,1,.65-1.9Z" transform="translate(-21.21 -14.47)"/><path class="cls-12" d="M252.41,90l2.71.55h0a1.29,1.29,0,0,1-.51,2.52l-.06,0-2.74-.7a1.22,1.22,0,0,1-.87-1.47,1.2,1.2,0,0,1,1.4-.88Z" transform="translate(-21.21 -14.47)"/><path class="cls-12" d="M260.58,91.47l2.75.42h0a1.48,1.48,0,0,1-.45,2.92h0l-2.77-.51a1.44,1.44,0,0,1,.48-2.83Z" transform="translate(-21.21 -14.47)"/><path class="cls-12" d="M268.81,92.8l2.74.46h0a1.3,1.3,0,0,1-.34,2.57l-2.8-.27a1.4,1.4,0,1,1,.28-2.78h.11Z" transform="translate(-21.21 -14.47)"/><path class="cls-12" d="M277,94.19l2.76.47h0a.83.83,0,0,1,.68,1,.84.84,0,0,1-.85.69l-2.81-.11a1,1,0,1,1,.08-2H277Z" transform="translate(-21.21 -14.47)"/><path class="cls-12" d="M285.31,95.67l1.39.28a.15.15,0,0,1,.12.17.15.15,0,0,1-.14.11l-1.42.07a.32.32,0,0,1,0-.63Z" transform="translate(-21.21 -14.47)"/><path class="cls-12" d="M222,65.71l.47,1.34a.18.18,0,0,1-.11.24.19.19,0,0,1-.25-.11v0l-.38-1.37a.14.14,0,0,1,.1-.17.14.14,0,0,1,.17.09Z" transform="translate(-21.21 -14.47)"/><path class="cls-12" d="M224.64,72.59l1.23,2.71v0a.49.49,0,0,1-.9.41v0l-1.06-2.82a.39.39,0,0,1,.72-.3Z" transform="translate(-21.21 -14.47)"/><path class="cls-12" d="M228.62,80.57l1.52,2.54,0,0a.78.78,0,0,1-.27,1.07.77.77,0,0,1-1.06-.27l0,0-1.42-2.68a.69.69,0,0,1,1.21-.68Z" transform="translate(-21.21 -14.47)"/><path class="cls-12" d="M233.62,87.8a22.88,22.88,0,0,0,2,2,1,1,0,1,1-1.31,1.51s0,0,0,0a22.6,22.6,0,0,1-2.09-2.3.93.93,0,0,1,1.41-1.2Z" transform="translate(-21.21 -14.47)"/><path class="cls-12" d="M240.46,92.57c.91.31,1.84.59,2.78.84a1.2,1.2,0,1,1-.61,2.32h0c-1-.3-2-.63-2.91-1a1.14,1.14,0,0,1,.79-2.14Z" transform="translate(-21.21 -14.47)"/><path class="cls-12" d="M249,94.68l2.92.51h0a1.41,1.41,0,0,1-.49,2.78h-.07l-2.95-.67a1.34,1.34,0,0,1,.53-2.63Z" transform="translate(-21.21 -14.47)"/><path class="cls-12" d="M257.78,96.16c1,.16,2,.31,2.94.49h0a1.45,1.45,0,0,1-.44,2.86c-1-.13-2-.29-3-.44a1.48,1.48,0,0,1-1.23-1.68,1.46,1.46,0,0,1,1.68-1.23h0Z" transform="translate(-21.21 -14.47)"/><path class="cls-12" d="M266.6,97.62l2.95.49h0a1.2,1.2,0,0,1,1,1.4,1.22,1.22,0,0,1-1.29,1c-1-.09-2-.18-3-.29a1.31,1.31,0,0,1,.27-2.61h.07Z" transform="translate(-21.21 -14.47)"/><path class="cls-12" d="M275.45,99.1l2.95.51a.75.75,0,0,1-.16,1.49c-1,0-2-.09-3-.15a.93.93,0,0,1,.11-1.86h.1Z" transform="translate(-21.21 -14.47)"/><path class="cls-12" d="M284.31,100.68l1.39.27a.15.15,0,0,1,.12.17.13.13,0,0,1-.14.11l-1.43,0A.3.3,0,0,1,284,101a.29.29,0,0,1,.29-.29Z" transform="translate(-21.21 -14.47)"/><path class="cls-12" d="M228.27,91.52l1,1v0a.2.2,0,0,1,0,.28.22.22,0,0,1-.29,0v0l-.94-1.07a.13.13,0,0,1,0-.2.14.14,0,0,1,.19,0Z" transform="translate(-21.21 -14.47)"/><path class="cls-12" d="M233.94,95.64l2.54,1.22,0,0a.53.53,0,0,1-.45,1l0,0-2.5-1.43a.42.42,0,0,1,.39-.75Z" transform="translate(-21.21 -14.47)"/><path class="cls-12" d="M241.77,98.8l2.71.8h0a.81.81,0,0,1-.46,1.56l0,0-2.72-1a.73.73,0,0,1-.44-.93.72.72,0,0,1,.89-.45Z" transform="translate(-21.21 -14.47)"/><path class="cls-12" d="M250,100.92l2.77.54h0a1.05,1.05,0,0,1-.4,2.07h-.06l-2.79-.71a1,1,0,0,1-.7-1.18,1,1,0,0,1,1.12-.72Z" transform="translate(-21.21 -14.47)"/><path class="cls-12" d="M258.34,102.33l2.81.34h0a1.33,1.33,0,0,1-.32,2.65l-.1,0-2.82-.55a1.23,1.23,0,0,1,.38-2.42Z" transform="translate(-21.21 -14.47)"/><path class="cls-12" d="M266.78,103.27c.94.1,1.88.21,2.81.35h0a1.43,1.43,0,0,1-.31,2.85c-.95-.08-1.91-.17-2.86-.27a1.47,1.47,0,1,1,.33-2.93Z" transform="translate(-21.21 -14.47)"/><path class="cls-12" d="M275.22,104.37c.94.12,1.88.25,2.82.4h0a1,1,0,0,1,.81,1.11,1,1,0,0,1-.94.81c-1,0-1.92,0-2.88,0a1.17,1.17,0,0,1-1.16-1.19,1.19,1.19,0,0,1,1.19-1.16h.15Z" transform="translate(-21.21 -14.47)"/><path class="cls-12" d="M283.68,105.65c.47.07.94.17,1.41.25a.14.14,0,0,1,.11.17.15.15,0,0,1-.12.12l-1.42.18a.36.36,0,1,1-.07-.72Z" transform="translate(-21.21 -14.47)"/><path class="cls-12" d="M228.27,98.52l1,1h0a.22.22,0,0,1,0,.29.21.21,0,0,1-.29,0h0l-.94-1.07a.13.13,0,0,1,0-.2.14.14,0,0,1,.19,0Z" transform="translate(-21.21 -14.47)"/><path class="cls-12" d="M233.94,102.56l2.54,1.16,0,0a.53.53,0,0,1-.44,1l0,0-2.53-1.38a.41.41,0,0,1-.16-.57.41.41,0,0,1,.54-.18Z" transform="translate(-21.21 -14.47)"/><path class="cls-12" d="M241.79,105.52l2.71.71h0a.81.81,0,0,1,.58,1,.8.8,0,0,1-1,.57h-.05l-2.72-.89a.71.71,0,0,1-.47-.91.72.72,0,0,1,.87-.48Z" transform="translate(-21.21 -14.47)"/><path class="cls-12" d="M250,107.35l2.78.44h0a1.05,1.05,0,1,1-.33,2.08h-.05l-2.8-.6a1,1,0,0,1-.75-1.16,1,1,0,0,1,1.1-.75Z" transform="translate(-21.21 -14.47)"/><path class="cls-12" d="M258.36,108.45l2.8.22h0a1.33,1.33,0,0,1-.22,2.66l-.1,0-2.82-.44a1.22,1.22,0,0,1,.28-2.43Z" transform="translate(-21.21 -14.47)"/><path class="cls-12" d="M266.78,109.05c.93.06,1.87.14,2.8.23h0a1.43,1.43,0,0,1-.19,2.86c-1,0-1.91-.09-2.86-.15a1.47,1.47,0,0,1,.21-2.94Z" transform="translate(-21.21 -14.47)"/><path class="cls-12" d="M275.2,109.8c.94.08,1.87.17,2.81.28h0a1,1,0,0,1,.85,1.08,1,1,0,0,1-.9.85c-1,.06-1.91.11-2.86.14a1.18,1.18,0,0,1-.07-2.35h.15Z" transform="translate(-21.21 -14.47)"/><path class="cls-12" d="M283.67,110.71c.47.05.94.13,1.41.19a.15.15,0,0,1,.13.16.18.18,0,0,1-.12.13c-.47.08-.94.17-1.42.24a.37.37,0,0,1-.41-.31.37.37,0,0,1,.31-.41Z" transform="translate(-21.21 -14.47)"/><path class="cls-12" d="M289.71,55.32l2.81.52a.27.27,0,0,1,.22.32.28.28,0,0,1-.32.22h0l-2.71-.76h0a.15.15,0,0,1-.1-.17A.14.14,0,0,1,289.71,55.32Z" transform="translate(-21.21 -14.47)"/><path class="cls-12" d="M298,57.6l2.61,1.25a.61.61,0,0,1,.28.82.6.6,0,0,1-.81.28l0,0-.06,0-2.4-1.4-.05,0a.5.5,0,0,1,.47-.88Z" transform="translate(-21.21 -14.47)"/><path class="cls-12" d="M305.28,62.37a14.68,14.68,0,0,1,1.86,2.35.9.9,0,1,1-1.51,1l0-.06a12.86,12.86,0,0,0-1.51-2.18.81.81,0,0,1,.09-1.14A.8.8,0,0,1,305.28,62.37Z" transform="translate(-21.21 -14.47)"/><path class="cls-12" d="M309.12,70.46l.05,1.53a12.07,12.07,0,0,1,0,1.48,1.16,1.16,0,1,1-2.31-.07v-.12a12.63,12.63,0,0,0,.1-1.35l0-1.3v-.16a1,1,0,0,1,1.09-1A1.07,1.07,0,0,1,309.12,70.46Z" transform="translate(-21.21 -14.47)"/><path class="cls-12" d="M308.4,79.32c-.27,1-.55,1.92-.86,2.88a1.46,1.46,0,0,1-2.78-.89h0l.05-.18c.29-.84.6-1.67.91-2.51l.06-.15a1.38,1.38,0,0,1,2.61.86Z" transform="translate(-21.21 -14.47)"/><path class="cls-12" d="M304.39,87.42a14.06,14.06,0,0,1-2.3,2.06,1.23,1.23,0,0,1-1.55-1.89h0a15.71,15.71,0,0,0,1.73-1.92,1.38,1.38,0,0,1,2.21,1.64l-.09.11Z" transform="translate(-21.21 -14.47)"/><path class="cls-12" d="M296.53,91.85a12.83,12.83,0,0,1-3,.2.38.38,0,0,1-.36-.4.39.39,0,0,1,.29-.36,18.13,18.13,0,0,0,2.61-.86.75.75,0,1,1,.57,1.38l-.14,0Z" transform="translate(-21.21 -14.47)"/><path class="cls-12" d="M211.13,65a8.07,8.07,0,0,1-.22-2c0-1.58,1.64-1.46,2.73-1.78v.48l-1.09.94Z" transform="translate(-21.21 -14.47)"/><path class="cls-20" d="M322.23,117.13a19.42,19.42,0,0,1,6.14-37.71,69.93,69.93,0,0,0-1.59-9A71.73,71.73,0,0,0,259.56,142c0,.5,0,1,0,1.5h41.48A71.07,71.07,0,0,0,322.23,117.13Z" transform="translate(-21.21 -14.47)"/><path class="cls-19" d="M309.33,98.84a19.43,19.43,0,0,0,12.9,18.29,70.48,70.48,0,0,0,6.14-37.71A19.43,19.43,0,0,0,309.33,98.84Z" transform="translate(-21.21 -14.47)"/><circle class="cls-9" cx="236.74" cy="72.83" r="70.87"/><path class="cls-25" d="M394.55,200.41c-1.85-12,58.52-15,103.74-15.58a70.65,70.65,0,0,0,.53-8.53c0-.21,0-.42,0-.64-44.73.44-108.39,3.41-106.31,16.92,1.22,7.93-12.76,9.56-30.31,10.11a71.64,71.64,0,0,0,3.31,7.1C382.2,209.31,395.7,207.9,394.55,200.41Z" transform="translate(-21.21 -14.47)"/><path class="cls-26" d="M394.55,200.41c1.15,7.49-12.35,8.9-29.06,9.38a70.86,70.86,0,0,0,132.8-25C453.07,185.39,392.7,188.37,394.55,200.41Z" transform="translate(-21.21 -14.47)"/><path class="cls-27" d="M394.55,200.41c1.15,7.49-12.35,8.9-29.06,9.38a70.86,70.86,0,0,0,132.8-25C453.07,185.39,392.7,188.37,394.55,200.41Z" transform="translate(-21.21 -14.47)"/><path class="cls-28" d="M432.25,217.5l.74,4.92-9.29-3.93c-2.84.9-4.67,2.32-4.67,3.93,0,2.73,5.32,5,11.88,5s11.88-2.22,11.88-5C442.79,219.87,438.18,217.78,432.25,217.5Z" transform="translate(-21.21 -14.47)"/><path class="cls-28" d="M390.49,212.53c-6.56,0-11.88,2.22-11.88,4.95s5.32,5,11.88,5a28.83,28.83,0,0,0,3.56-.22l-1.25-4.73,9.22,1.19a2.39,2.39,0,0,0,.36-1.19C402.38,214.75,397.06,212.53,390.49,212.53Z" transform="translate(-21.21 -14.47)"/><path class="cls-28" d="M459,196.11c-7,0-12.66,2.21-12.66,4.95S452,206,459,206h.46l-.46-4.94,7.94,3.85c2.87-.91,4.71-2.3,4.71-3.85C471.61,198.32,466,196.11,459,196.11Z" transform="translate(-21.21 -14.47)"/><path class="cls-29" d="M432.07,193.76H408.21a.35.35,0,0,1-.32-.21.34.34,0,0,1,.08-.37l11.62-11.61a.34.34,0,0,1,.48,0,.34.34,0,0,1,0,.49l-11,11h23a.34.34,0,1,1,0,.68Z" transform="translate(-21.21 -14.47)"/><polygon class="cls-29" points="410.86 178.97 410.86 183.93 406.93 183.93 410.86 178.97"/><path class="cls-29" d="M432.07,198.74h-3.92a.34.34,0,0,1-.31-.19.34.34,0,0,1,0-.36l3.92-4.95a.35.35,0,0,1,.38-.12.35.35,0,0,1,.23.33v5A.34.34,0,0,1,432.07,198.74Zm-3.22-.68h2.88v-3.63Z" transform="translate(-21.21 -14.47)"/><path class="cls-30" d="M416.43,125.78h16.3s.52,6.18,5,6.18h9.6s4.21-14.07-14.46-14.07H417.08s-14.07,0-14.07,12.62c0,7.6,3.95,16.7,19.73,19.07,6.09.91,7.49,4.62,7.49,4.62s3.15,22.19-27.21,22.19v12.49l6.83-7.49c4.6.79,23.8,4.34,30.5-10.52s-2.63-23.66-12-26.55-16-5.79-16-12S416.43,125.78,416.43,125.78Z" transform="translate(-21.21 -14.47)"/><path class="cls-29" d="M437.72,137.87l-4.4,4.41s14,1.77,14-10.32h-9.6Z" transform="translate(-21.21 -14.47)"/><path class="cls-11" d="M445.09,132v-4.27a3.22,3.22,0,0,0-3.22-3.22h0a3.23,3.23,0,0,0-3.23,3.22V132Z" transform="translate(-21.21 -14.47)"/><path class="cls-29" d="M443,128.64a1.15,1.15,0,1,1-2.3,0,1.15,1.15,0,0,1,2.3,0Z" transform="translate(-21.21 -14.47)"/><path class="cls-31" d="M430.23,154.2l-7.41,0c-20.42,0-19.8,17.61-19.8,17.61v4.6C433.38,176.39,430.23,154.2,430.23,154.2Z" transform="translate(-21.21 -14.47)"/><path class="cls-32" d="M420.33,209.9c-6.54,0-18.92-.55-18.92-2.63s12.38-2.63,18.92-2.63,18.93.55,18.93,2.63S426.88,209.9,420.33,209.9Zm0-4.58c-11.29,0-17.95,1.16-18.24,2,.29.78,7,1.94,18.24,1.94s18-1.16,18.25-2C438.29,206.48,431.63,205.32,420.33,205.32Z" transform="translate(-21.21 -14.47)"/><path class="cls-32" d="M420.33,208.63c-3.32,0-11.05-.14-11.05-1.36s7.73-1.35,11.05-1.35,11.06.13,11.06,1.35S423.66,208.63,420.33,208.63Zm-10.07-1.36a76.09,76.09,0,0,0,20.15,0,76.09,76.09,0,0,0-20.15,0Z" transform="translate(-21.21 -14.47)"/><path class="cls-29" d="M420.34,207.69a.35.35,0,0,1-.35-.35v-25a.35.35,0,0,1,.69,0v25A.35.35,0,0,1,420.34,207.69Z" transform="translate(-21.21 -14.47)"/><circle class="cls-9" cx="406.74" cy="161.83" r="70.87"/></g></svg>