<svg xmlns="http://www.w3.org/2000/svg" xmlns:xlink="http://www.w3.org/1999/xlink" viewBox="0 0 189.13 111.18"><defs><style>.cls-1{fill:#efefef;}.cls-2{fill:#848383;}.cls-3{fill:#d0cfd0;}.cls-4{fill:#a9b2bd;opacity:0.3;}.cls-5{fill:#c4cfdb;}.cls-6{fill:#eaeaea;}.cls-12,.cls-7{fill:#36a9e1;}.cls-8{fill:#878787;}.cls-9{fill:#706f6f;}.cls-10{fill:#5b5b5a;}.cls-11,.cls-13{opacity:0.2;}.cls-11{fill:url(#Sfumatura_senza_nome_3);}.cls-12{fill-rule:evenodd;}.cls-13{fill:url(#Sfumatura_senza_nome_3-2);}.cls-14{fill:#2d2e83;}</style><linearGradient id="Sfumatura_senza_nome_3" x1="-681.72" y1="76.2" x2="-681.72" y2="123.51" gradientTransform="matrix(-1, 0, 0, 1, -585.51, 0)" gradientUnits="userSpaceOnUse"><stop offset="0" stop-color="#fff"/><stop offset="1" stop-opacity="0"/></linearGradient><linearGradient id="Sfumatura_senza_nome_3-2" x1="-683.1" y1="76.43" x2="-683.1" y2="120.78" xlink:href="#Sfumatura_senza_nome_3"/></defs><title>G05_12_03</title><g id="Livello_1" data-name="Livello 1"><polygon class="cls-1" points="97.83 106.41 97.83 111.09 0 56.13 0 51.45 97.83 106.41"/><polygon class="cls-2" points="189.13 54.36 189.13 59.05 97.98 111.18 97.83 111.09 97.83 106.41 97.98 106.5 189.13 54.36"/><polygon class="cls-3" points="0 51.45 0 51.19 91.93 0 189.13 54.36 97.98 106.5 0 51.45"/></g><g id="Livello_2" data-name="Livello 2"><g id="_Gruppo_" data-name="&lt;Gruppo&gt;"><path class="cls-4" d="M159,98.76a.74.74,0,0,1-.13-.12l-.2-.19a2.49,2.49,0,0,0-1-.63L116.76,74.08a5.93,5.93,0,0,0-5.65.18L47.16,111.1a2.85,2.85,0,0,0-.52.45,2.63,2.63,0,0,0-.39.47c-1.79,2.93-.58,4.52.43,5.51a3.74,3.74,0,0,0,.93.72l0,0,41.49,24a5.84,5.84,0,0,0,5.55-.17l63.72-36.75S163.26,103,159,98.76Z" transform="translate(-3.62 -53.87)"/><path id="_Tracciato_" data-name="&lt;Tracciato&gt;" class="cls-5" d="M156.92,96.07c-2.13-2.16-2.2-.22-1.78,2.12L116,75.52a5.75,5.75,0,0,0-5.46.16l-57.4,33.07c-2.32-1.07-4.46-1.41-5.42.15-1.73,2.84-.56,4.38.42,5.33a3.41,3.41,0,0,0,.89.7l.05,0,40.17,23.26a5.67,5.67,0,0,0,5.38-.17l61.67-35.57S161,100.21,156.92,96.07Z" transform="translate(-3.62 -53.87)"/><path id="_Tracciato_2" data-name="&lt;Tracciato&gt;" class="cls-6" d="M48.62,108l61.91-35.66a5.72,5.72,0,0,1,5.46-.17l40.17,23.28a2.29,2.29,0,0,1,.13,4L94.62,135.06a5.67,5.67,0,0,1-5.38.17L49.07,112C47.1,110.79,47.21,109,48.62,108Z" transform="translate(-3.62 -53.87)"/><path id="_Tracciato_3" data-name="&lt;Tracciato&gt;" class="cls-7" d="M51.41,108.7,94,133a1,1,0,0,0,1,0l58.62-33.6a.34.34,0,0,0,0-.6L111,74.26a.91.91,0,0,0-.89,0L51.39,108.15A.32.32,0,0,0,51.41,108.7Z" transform="translate(-3.62 -53.87)"/><g id="_Gruppo_2" data-name="&lt;Gruppo&gt;"><path id="_Tracciato_4" data-name="&lt;Tracciato&gt;" class="cls-8" d="M68.35,120.89l0,0c-.14-.08-.12-.22,0-.31h0a.6.6,0,0,1,.55,0l0,0c.14.08.13.22,0,.31h0A.58.58,0,0,1,68.35,120.89Z" transform="translate(-3.62 -53.87)"/><path id="_Tracciato_5" data-name="&lt;Tracciato&gt;" class="cls-8" d="M74,124.12l-4.86-2.78c-.14-.08-.12-.22,0-.32h0a.61.61,0,0,1,.54,0l4.86,2.78c.14.08.12.22,0,.32h0A.61.61,0,0,1,74,124.12Z" transform="translate(-3.62 -53.87)"/></g><path id="_Tracciato_6" data-name="&lt;Tracciato&gt;" class="cls-8" d="M134.7,86.73l-3-1.7c-.59-.34-.51-.94.17-1.33h0a2.58,2.58,0,0,1,2.32-.09l3,1.7c.59.34.51.94-.17,1.33h0A2.58,2.58,0,0,1,134.7,86.73Z" transform="translate(-3.62 -53.87)"/><path id="_Tracciato_7" data-name="&lt;Tracciato&gt;" class="cls-9" d="M131.78,84.19a2.61,2.61,0,0,1,2.32-.08l3,1.7a.7.7,0,0,1,.37.44.62.62,0,0,0-.27-.94l-3-1.7a2.58,2.58,0,0,0-2.32.09h0c-.44.25-.63.59-.55.89A1.49,1.49,0,0,1,131.78,84.19Z" transform="translate(-3.62 -53.87)"/><path id="_Tracciato_8" data-name="&lt;Tracciato&gt;" class="cls-9" d="M106.1,129.48a.34.34,0,0,0-.24,0h0L103.34,131h0a.59.59,0,0,0-.26.36.48.48,0,0,0,.23.62.32.32,0,0,0,.23,0h0l2.47-1.44h0a.6.6,0,0,0,.3-.37A.48.48,0,0,0,106.1,129.48Z" transform="translate(-3.62 -53.87)"/><path id="_Tracciato_9" data-name="&lt;Tracciato&gt;" class="cls-10" d="M106.26,129.58a.36.36,0,0,0-.23,0h0l-2.52,1.47h0a.55.55,0,0,0-.26.36.46.46,0,0,0,.23.61.27.27,0,0,0,.23,0h0l2.47-1.44h0a.58.58,0,0,0,.29-.38A.46.46,0,0,0,106.26,129.58Z" transform="translate(-3.62 -53.87)"/><path id="_Tracciato_10" data-name="&lt;Tracciato&gt;" class="cls-9" d="M110,127.27a.34.34,0,0,0-.24,0h0l-2.52,1.46h0a.67.67,0,0,0-.26.36.48.48,0,0,0,.23.62.31.31,0,0,0,.23,0h0l2.47-1.43h0a.57.57,0,0,0,.3-.37A.49.49,0,0,0,110,127.27Z" transform="translate(-3.62 -53.87)"/><path id="_Tracciato_11" data-name="&lt;Tracciato&gt;" class="cls-10" d="M110.14,127.37a.31.31,0,0,0-.23,0h0l-2.52,1.46h0a.62.62,0,0,0-.26.36.48.48,0,0,0,.23.62.32.32,0,0,0,.23,0h0l2.47-1.44h0a.6.6,0,0,0,.3-.37A.48.48,0,0,0,110.14,127.37Z" transform="translate(-3.62 -53.87)"/><path id="_Tracciato_12" data-name="&lt;Tracciato&gt;" class="cls-9" d="M102.21,131.75a.29.29,0,0,0-.24,0h0l-.61.34h0a.63.63,0,0,0-.27.36.48.48,0,0,0,.23.62.31.31,0,0,0,.23,0h0l.56-.31h0a.59.59,0,0,0,.3-.38A.47.47,0,0,0,102.21,131.75Z" transform="translate(-3.62 -53.87)"/><path id="_Tracciato_13" data-name="&lt;Tracciato&gt;" class="cls-10" d="M102.38,131.84a.34.34,0,0,0-.24,0h0l-.61.34h0a.63.63,0,0,0-.27.36.48.48,0,0,0,.23.62.31.31,0,0,0,.23,0h0l.56-.31h0a.59.59,0,0,0,.3-.38A.49.49,0,0,0,102.38,131.84Z" transform="translate(-3.62 -53.87)"/><path class="cls-11" d="M64,115.87l77.73-23.5L110.58,74.14,50.69,108.32C50.69,108.61,64,115.87,64,115.87Z" transform="translate(-3.62 -53.87)"/><path id="_Tracciato_14" data-name="&lt;Tracciato&gt;" class="cls-8" d="M51.35,108.6l58.76-33.87a.94.94,0,0,1,.89,0l42.55,24.46a.39.39,0,0,1,.1.08.35.35,0,0,0-.1-.54L111,74.24a.94.94,0,0,0-.89,0L51.35,108.14a.32.32,0,0,0-.05.5A.1.1,0,0,1,51.35,108.6Z" transform="translate(-3.62 -53.87)"/></g><path class="cls-12" d="M110.67,74.5,153.25,99h0l-60,33.56h0L51.41,108.7h0l59.26-34.2Z" transform="translate(-3.62 -53.87)"/><path class="cls-13" d="M51.44,108.72l8.4,4.77c28.64,2,55.21-22.35,83.94-20l-33.09-19s0,0,0,0L51.43,108.69S51.41,108.7,51.44,108.72Z" transform="translate(-3.62 -53.87)"/><path class="cls-14" d="M91.88,128.42h0S91.88,128.42,91.88,128.42Z" transform="translate(-3.62 -53.87)"/><polygon class="cls-14" points="89.89 74.11 89.9 74.12 89.91 74.12 89.89 74.11"/><path class="cls-14" d="M92.43,128h0S92.42,128,92.43,128Z" transform="translate(-3.62 -53.87)"/><path class="cls-14" d="M103.89,124.76a2.1,2.1,0,0,0,.3-1.64,2.69,2.69,0,0,0-.92-1.31c-.11-.09-1.32-1.15-1.56-.89-.1.1.63.27.49.34s-1.14-.4-1.3-.26a2.41,2.41,0,0,0,1.25.36c.6-.23.63.49.18.37a8.53,8.53,0,0,1-1.14-.4,7.11,7.11,0,0,0-2.08-.22,10,10,0,0,0-4.76,1c-.33.17-.64.34-.94.52-.12.07-.41.12-.49.19s-.4.56-.79.57-.81.81-.87,1-.47.89-.54.77c-.22-.33.24-.79.39-1.09a3.79,3.79,0,0,1,1.18-1,14.69,14.69,0,0,1,3.91-1.83,14.32,14.32,0,0,1,2.63-.31,15.22,15.22,0,0,0,1.87.18c.26-.1-1.28-.27-1.39-.29a11,11,0,0,0-2.8.14,12,12,0,0,0-4.82,2.22c-.29.2-.56.4-.81.61s0,.2-.12.29-.56,1.1-.33,1.18l.41.15.08.21s.25.94.15.94c-.33,0-.48-.9-.46-1s-.27-.18-.22,0,.16.47.08.6.22.39.36.54.2.53.39.66.21.28.48.38c0,0,0,.09,0,.1s.49.25.37.31-1-.78-1.09-.85a6.51,6.51,0,0,1-.43-.6c-.09-.14-.49-.53-.41-.67s-.19-.39-.08-.56a1.67,1.67,0,0,0,.13-.77,2.22,2.22,0,0,1,.94-1.34c1.92-1.58,10.17-2.74,10.17-2.74s.8.28.71.09-.73-.13-1-.2a3.49,3.49,0,0,0-1.1-.15,4.61,4.61,0,0,0-1.23,0c-.18.06-.65,0-.88.08s-.74,0-1.07.07a10.81,10.81,0,0,0-3.18,1,14.45,14.45,0,0,0-2.13,1.3c-.47.33-.9.44-1.2.85a1.94,1.94,0,0,0-.34,1.52,8.32,8.32,0,0,1,0,.85c-.59-.11,0-.9-.42-.93s.27.9,0,.89-.42-.64-.41-.71a.66.66,0,0,0-.14-.56c-.12-.14,0-.37.07-.5.1-.44.13-1.1.82-1.41a10.89,10.89,0,0,0,1.51-.79,9.85,9.85,0,0,1,4.09-1.77,10,10,0,0,1,1.81-.24l1.64.1a8.49,8.49,0,0,0,1.72.08,14.64,14.64,0,0,0-5.38-.1,5.33,5.33,0,0,0-2.22.8c-.47.33-1.22.49-1.57.85a2.6,2.6,0,0,1-1.09.5c-.4,0-1.2.86-1.35,1a1.56,1.56,0,0,0-.25,1.08c0,.29.2.64.14.9s.22.55.31.78a4.12,4.12,0,0,0,1.17,1.14,12.82,12.82,0,0,1,1.13,1c.06.06,0,.08-.12,0l-.7-.52a16,16,0,0,1-1.41-1.18c-.16-.15-.23-.32-.38-.48s-.16.08-.15.09a2.24,2.24,0,0,0,.58.74c.15.11,1.29.81,1.18.88a10.58,10.58,0,0,1-2.2-1.49c-.17,0,.47.4.34.47s-.28-.16-.41-.19.24.36.42.28a9.73,9.73,0,0,1,1.14.68c.45.31.93.59,1.35.86.11.08.47.27.47.36a3.54,3.54,0,0,0,.8.35,9.55,9.55,0,0,0,1.24.42s.48.36.59.24-.94-.47-.92-.57,1,.4,1,.43.84.58,1.07.42c0,0-.83-.39-1-.41s0-.11-.08-.15a1.87,1.87,0,0,1-.55-.45c-.16-.15-.3-.32-.47-.49s-.1-.26.13-.06.33.33.49.49.42.28.55.43a.79.79,0,0,0,.34.26c.1,0,.45,0,.25,0a3.06,3.06,0,0,1-1-.74,1.64,1.64,0,0,1-.34-.36s-.08-.21,0-.1a9.47,9.47,0,0,0,1,.78c.08-.07-.69-.67-.48-.7s.67.59.75.66a4.74,4.74,0,0,0,.82.58c.08,0,.23.09.25.16s.27.07.26,0-.52-.23-.68-.34a3.84,3.84,0,0,1-1.34-1.6,3.4,3.4,0,0,1-.3-1c0-.14.11-1-.13-1s-.22.84-.22.93a2,2,0,0,0,.19.78s.25.46,0,.37c-.48-.17-.44-1.15-.44-1.45,0-.51.37-1.18.19-1.74-1,.66-.56,2-.29,2.66,0,.09.25.38.15.46s-.33-.29-.35-.32a3.11,3.11,0,0,1-.3-1.17,3.07,3.07,0,0,1,1.07-2.6c.08-.07.44-.5.6-.51s.48-.18.33,0-1.53,1.1-1.2,1.24.67-.84,1-.72-.62.7-.65.77a4.55,4.55,0,0,0-.21.51c0,.06.19.11.26.11.28,0,0-.11.08-.17s.52-1,.74-.9-.45.78-.5.89-.19.92,0,.87.38-1,.58-1-.18.66-.14.76-.18.2-.12.34.18.39.09.44.12.27.26.18.06-.4.06-.52a1.31,1.31,0,0,1,.38-1.15,3,3,0,0,1-.15,1.08c0,.13,0,.35,0,.47s.16.35,0,.53a3,3,0,0,0,.24.74c0,.06.45.73.39.76-.32.17-.9-1.73-.89-1.72-.19,0-.13.79-.07.86.27.33.38.68.61,1s.54.33.59.5a1.18,1.18,0,0,0,.64.51c.09-.14-.33-.42-.48-.51s-.3-.32-.46-.48.24,0,.24,0,.22.24.32.33.29.18.41.27.18.29.33.11-.56-.41-.66-.48c-.31-.22-.4-.7-.61-1.05s-.08-.61-.13-.91a3,3,0,0,1,0-1.31,2.64,2.64,0,0,1,.77-1.43c.2-.16.17-.19.23-.36s.68-.45,1-.56a4.19,4.19,0,0,1,2.15-.18c.66.18.34.9.24,1.26-.13.53-1.65,4.15-.88,3.92.05,0,.11-.48.12-.52a8.62,8.62,0,0,1,.3-.9c.1-.32.34-.66.47-1a5.47,5.47,0,0,1,.37-1.25c.44-.73.16-1.72-1.43-1.66a4.65,4.65,0,0,0-1.92.34c-.09,0-1.28.84-1.48.7s2.31-1.17,2.66-1.23c1-.15,2.25,0,2.53.47s-.06,1.09-.15,1.64a6.68,6.68,0,0,1-.8,2,2.74,2.74,0,0,0-.36,1c0,.2.23,0,.26-.13a2.09,2.09,0,0,1,.25-.71c.17-.3.48-.62.68-1a3.8,3.8,0,0,0,.42-1,6.89,6.89,0,0,0,.26-1.11c.07-.37-.12-.51-.32-.82-.09-.15-.64-.46-.6-.63s-.9-.18-1.12-.21a6.78,6.78,0,0,0-3.38.6c-.1,0-.76.37-.77.36-.53-.1.75-.57.87-.61a8.4,8.4,0,0,1,3.48-.59c1.15.27,1.84.69,2.1,1.31a1.46,1.46,0,0,1,0,1,2.42,2.42,0,0,1-.45,1.07c-.13.13-.06.44-.17.6s-.49.59-.67.87c-.06.1-.53,1-.28.92,0,0,.36-.63.4-.71.25-.47.82-.93,1.06-1.45.5-1.07,1.07-2.25-.26-3.17a6,6,0,0,0-4.37-.31,13.46,13.46,0,0,0-2.7,1c-.15.08-.64.86-1,.79s.49-.62.53-.66A7.42,7.42,0,0,1,96.48,122c2.2-.67,4.7-.47,5.6.56.73.83.27,1.8,0,2.65a11,11,0,0,1-.51,1.26s-.29.57-.13.5a9.72,9.72,0,0,0,.77-1.27,7.34,7.34,0,0,0,.7-1.58c.22-.95-.47-2.18-2.38-2.53a10.23,10.23,0,0,0-6,.89,5.35,5.35,0,0,0-1.79,1.46l-.78.94.13-.43s.59-.51.56-.82.35-.38.52-.57a5,5,0,0,1,.68-.46,10.11,10.11,0,0,1,6.57-1.25,4.6,4.6,0,0,1,2,.73,2,2,0,0,1,.78,1.65,4.51,4.51,0,0,1-.56,1.78c-.07.14-.77,1.05-.63,1.06a6.55,6.55,0,0,0,.73-.86c.14-.2.22-.38.37-.6s.18-.57.4-.71c.44-.27,0-1.23-.08-1.45a2.82,2.82,0,0,0-.49-.69s-.53-.55-.15-.51.66.61.79.8a2.1,2.1,0,0,1,.33,1.57,1.86,1.86,0,0,1-.32.73c-.08.13-.11.39-.34.53s-.81,1-.21.61C103.07,125.71,103.68,125.12,103.89,124.76Zm-13.54,2c-.31,0-1.21-1.07-.58-.82C89.94,126,90.54,126.8,90.35,126.81Zm.12.16c.06-.06.29,0,.22.11S90.41,127,90.47,127Zm1.14,1.28c-.15-.05-.13-.16,0-.09S91.72,128.29,91.61,128.25Zm2.58-.1c-.08,0-.28-.18-.22-.22S94.35,128.13,94.19,128.15Zm1.54-3.35c-.18.11-.22-.11-.14-.18S95.85,124.72,95.73,124.8Zm.25-.45c0,.17-.47.23-.22,0,.09-.09.12-.26.24-.35C96.6,123.55,96,124.29,96,124.35Zm-.42-.4c.21,0-.14.47-.26.58h0a.35.35,0,0,1-.16.09C94.91,124.61,95.42,124,95.56,124Zm-.48-.18c.06-.15.15.07.15.09S94.93,123.89,95.08,123.77Zm2-1.21a13.55,13.55,0,0,1,2.94-.2s-.06,0,0,0,.14,0,.15.1a5.43,5.43,0,0,1-1.21,0,2.94,2.94,0,0,0-.73,0c-.33.05-.65.22-.93.26s-2.12,1-2.12,1A21.36,21.36,0,0,1,97.12,122.56Zm-4.75.83h0s.4-.12.28,0-.28,0-.28,0Zm-.47,5h0s-.15-.08-.07-.1S92.12,128.48,91.9,128.43Zm.54-.42h0c-.08,0-.2-.26,0-.19S92.66,128,92.44,128Zm-.12.71h0c-.43-.13-.12-.22-.11-.18s.4.22.33.25A.47.47,0,0,1,92.32,128.72Zm.41.25c-.12-.05,0-.13.08-.08S92.85,129,92.73,129Zm.47-.09h0c-.12,0-1.12-.58-.89-.65a3.78,3.78,0,0,1,1,.67A.16.16,0,0,1,93.2,128.88Zm.35-1.06c.13,0,.14.22,0,.17h0C93.4,127.92,93.43,127.84,93.55,127.82Zm-.28.7a2.23,2.23,0,0,1,.22.21c.07.07-.08.08-.13,0s-1-.72-.63-.67c0,0,0,0,0,0A1.64,1.64,0,0,1,93.27,128.52Zm-.43-.68.3.08c.2.13-.06.14-.19.09s-.7-.48-.27-.33A1.21,1.21,0,0,1,92.84,127.84Zm.12-3.71h0l.13-.08c.16,0,0,.32,0,.34a3.37,3.37,0,0,0-.54,1.26,2.62,2.62,0,0,0,0,1.08c.08.31.34.53.44.82,0,0-.2,0-.23,0a.82.82,0,0,1-.11-.23,2.53,2.53,0,0,1-.43-1.13,6.28,6.28,0,0,1,.68-2.06S92.9,124.18,93,124.13Zm-1.25.51c-.14.21-.23.45-.33.63s.3.25.41.11,0-.49.26-.39c.06,0-.08,1.24,0,1.38a5.39,5.39,0,0,0,.22.68c0,.08.44.5.36.54-.27.15-.72-.91-.74-1-.07-.27-.13-.55-.19-.83,0-.1-.31-.34-.28-.13s.1.21,0,.3.22.41.18.6.65,1.16.58,1.18c-.25,0-1.11-1.19-1.15-1.18a1.8,1.8,0,0,1,.33.06,3.2,3.2,0,0,0-.07-.41c-.07-.26-.33-.65-.1-.89.4-.42.08-1.19,1-1.54C92.36,124,91.85,124.45,91.71,124.64Z" transform="translate(-3.62 -53.87)"/><polygon class="cls-14" points="88.75 69.52 88.75 69.52 88.75 69.52 88.75 69.52"/><path class="cls-14" d="M92.12,123.76c-.08,0,0,0,0,0Z" transform="translate(-3.62 -53.87)"/><polygon class="cls-14" points="89.34 70.27 89.34 70.27 89.33 70.27 89.34 70.27"/><path class="cls-14" d="M100.07,122.36h0S100.08,122.37,100.07,122.36Z" transform="translate(-3.62 -53.87)"/><path class="cls-14" d="M92.74,128.1h0Z" transform="translate(-3.62 -53.87)"/><path class="cls-14" d="M95.29,124.53h0S95.27,124.55,95.29,124.53Z" transform="translate(-3.62 -53.87)"/><path class="cls-14" d="M106.07,116.66c.16,0,.47.28.71.15s-.52-.29-.59-.31a3,3,0,0,0-.93-.18C104.7,116.42,106,116.64,106.07,116.66Z" transform="translate(-3.62 -53.87)"/><path class="cls-14" d="M90,120.83a.71.71,0,0,0,.68-.26c.1-.32-.66.18-.72.25Z" transform="translate(-3.62 -53.87)"/><path class="cls-14" d="M94.17,129.62l.49.18C94.79,129.71,94.28,129.6,94.17,129.62Z" transform="translate(-3.62 -53.87)"/><path class="cls-14" d="M97.68,124.74c-.23,0-.28.36-.19.37s.27-.17.37-.2c0,.22-.25.44-.28.67a4.91,4.91,0,0,0,0,.54,8.12,8.12,0,0,0,.12,1.15,3.42,3.42,0,0,0,.18.9c.06.15.25.56.49.54.07-.07-.09-.19-.06-.25s-.09-.1-.16-.13-.06-.24-.07-.34c-.06-.48-.08-1.07-.14-1.68a2.61,2.61,0,0,1,.58-1.88c.28-.34,1.48-1.29.19-1.31a2,2,0,0,0-1.44.57,8.78,8.78,0,0,0-1,1.07,3.13,3.13,0,0,0-.34,2.07,2.79,2.79,0,0,0,.25.82c.06.16.16.63.39.68s.06.17.08.22a.66.66,0,0,0,.26.23c.19.09.38.44.68.38,0-.13-.24-.25-.31-.39s0-.6-.19-.89a2.27,2.27,0,0,1-.21-1c0-.32-.46-1.28.22-1.58a4.89,4.89,0,0,0-.06,1.25,4.39,4.39,0,0,1,.13.85,3.59,3.59,0,0,0,.33,1s.27.61.46.45-.2-.21-.21-.26-.12-.4-.14-.63-.15-.7-.19-1.11a7.22,7.22,0,0,0-.13-1.58c-.11-.37.13-.54.52-.88a8.81,8.81,0,0,1,.75-.74c.07,0,.23-.32.15-.34-.27-.08-.65.31-.76.39a4.81,4.81,0,0,0-1.3,1.61,2.92,2.92,0,0,0,0,1.94,5.65,5.65,0,0,0,.23.79c0,.07.33.54.21.61s-.36-.41-.42-.44-.09-.32-.13-.4a3.75,3.75,0,0,1,.21-3.2,4.1,4.1,0,0,1,1.46-1.3c.65-.32.7,0,.66.23s-.44.33-.55.5-.17.27-.24.4S98,124.73,97.68,124.74Z" transform="translate(-3.62 -53.87)"/><path class="cls-14" d="M99.3,124.65a4.57,4.57,0,0,0-.41,1.31c0,.17-.14,2.07-.14,2.07a4.94,4.94,0,0,0,.28-.87c-.06-.09,0-.42.07-.56.12-.31.14-.61.27-.94s0-.42.21-.64a2.38,2.38,0,0,0,.25-.84,1.88,1.88,0,0,0,0-.85c-.06-.42-.7-.11-.35,0h0s0,.59,0,.78c0,0,0,.21-.08.26-.29.13-.08-.24-.19-.27s-.8,1.06-.84,1.17c-.16.44-.06.86-.26,1.27-.07.13.09.24.1.35s0,.43,0,.62a2,2,0,0,0,.12.39c0,.08,0,.29,0,.33s.13-.44.11-.49.38-.62,0-.7c-.17,0,.1-.91.12-1.05a5,5,0,0,1,.4-1.41C99.11,124.34,99.39,124.41,99.3,124.65Z" transform="translate(-3.62 -53.87)"/><path class="cls-14" d="M99.44,123.3Z" transform="translate(-3.62 -53.87)"/><path class="cls-14" d="M91.85,121.81a6.82,6.82,0,0,0-2.25,1.67c-.07.11-.59,1.39-.11,1.42.09,0,.3-1.19.42-1.3a10.59,10.59,0,0,1,2-1.52c.43-.25.89-.5,1.37-.74a4.53,4.53,0,0,1,1.31-.62,3.18,3.18,0,0,1,.32-.16l1-.17a6.63,6.63,0,0,0,1.47-.25h0a7.09,7.09,0,0,0-2.67.3c-.19.25-.84.42-1.18.57C92.93,121.27,92.37,121.54,91.85,121.81Z" transform="translate(-3.62 -53.87)"/><path class="cls-14" d="M97.29,117c.32,0,.66,0,1,0s.9.28,1,.26a9.93,9.93,0,0,1,3.93.62c.44.15.81.31,1.22.45a2.6,2.6,0,0,0,.73.21c.31,0,.24.11.49.18a4.9,4.9,0,0,1,1.48.59c.09.08,1.1.61,1.26.46q0-.1-.24-.12a1.44,1.44,0,0,1-.61-.35c0-.23-.81-.32-1-.54-.42-.47-2.38-.38-2.85-.94a5.09,5.09,0,0,0-2-.49c-.72-.08-1.37-.26-2.09-.37-.35,0-3.81-.3-3.78,0S97.12,117,97.29,117Z" transform="translate(-3.62 -53.87)"/><path class="cls-14" d="M96.81,116.69c.12,0,.4-.08.56-.07.51,0,1,0,1.5.06a16.91,16.91,0,0,1,2.07.29,9.25,9.25,0,0,0,1.19.09c.14,0,.27.17.56.17s.11.14.27.23.48,0,.62,0a6.75,6.75,0,0,1,2,.4c.49.17,1.19.16,1.65.35s.71.55,1.34.55h0c0-.11-.26-.31-.4-.38s-.3,0-.42-.06-.31-.28-.58-.36c-1-.31-2.55-.32-3.61-.73a2,2,0,0,0-.66-.2c-.26,0-.3.12-.58,0a6.15,6.15,0,0,0-1.5-.28c-1.41-.12-2.69-.2-4.14-.25C96.29,116.43,96.8,116.69,96.81,116.69Z" transform="translate(-3.62 -53.87)"/><path class="cls-14" d="M93.15,120.25c.71-.09,1.31-.37,2-.44a24.8,24.8,0,0,1,3.76-.19,15.77,15.77,0,0,1,2.37.26,7.17,7.17,0,0,0,1.71.36c.06-.08-.58-.26-.66-.29a14.61,14.61,0,0,0-4.34-.51,22.64,22.64,0,0,0-4.35.48,15.43,15.43,0,0,0-3.17,1.15c-.14.07-1.92.69-1.6.84.07,0,2.3-1,2.45-1.1A5.32,5.32,0,0,1,93.15,120.25Z" transform="translate(-3.62 -53.87)"/><path class="cls-14" d="M102.38,120c.26.08-.28-.11,0,0Z" transform="translate(-3.62 -53.87)"/><path class="cls-14" d="M93.22,118.75a6.37,6.37,0,0,0,1.32-.17,13.13,13.13,0,0,1,1.55-.13,6.13,6.13,0,0,0,1.82,0,6.28,6.28,0,0,0-1.39-.1c-.4,0,.36-.2.51-.19.69,0,1.39,0,2.07.09a13.64,13.64,0,0,0,1.43,0,8.87,8.87,0,0,1,2.78.37c.89.34,2.41.37,2.94.87.2.19.55,0,.25-.08a8.36,8.36,0,0,0-1.58-.52,5,5,0,0,1-1.29-.41,9.56,9.56,0,0,0-1.62-.2,18.58,18.58,0,0,0-3.21-.2c-.67,0-1.34,0-2,0-1.18,0-.6.32-.6.32l-.48,0s-1,0-1.27.07a10.67,10.67,0,0,0-2.11.51h.06C92.62,118.86,93.1,118.67,93.22,118.75Z" transform="translate(-3.62 -53.87)"/><path class="cls-14" d="M95.75,129.22h0c.44.11-.06-.28-.11-.33a2.75,2.75,0,0,1-.6-.79c-.08-.17-.62-2.16-.63-2.15-.52,0,.07,1.73.16,1.89a4.25,4.25,0,0,0,.65.85c.14.14.32.44.5.52Z" transform="translate(-3.62 -53.87)"/><path class="cls-14" d="M102.48,120.92a7.09,7.09,0,0,1,1.08.62c.15.14.52.44.5.6-.06.38.47.6.53.9a1.46,1.46,0,0,1,.06.51c0,.19.07.43-.06.63s-.88,1.08-.61,1,.83-1.06.88-1.15c.15-.29.26-.57.14-.79s-.33-.32-.36-.56-.32-.44-.43-.7a1.88,1.88,0,0,0-.85-.9,1.91,1.91,0,0,1-.66-.29c-.26-.23-.8-.08-.23.1C102.82,121,102.48,120.92,102.48,120.92Z" transform="translate(-3.62 -53.87)"/><path class="cls-14" d="M102.48,120.92h0Z" transform="translate(-3.62 -53.87)"/><path class="cls-14" d="M91.06,119.8c.54,0,1.06-.34,1.62-.42s1.26-.26,1.94-.34a25,25,0,0,1,3.56-.2,17.39,17.39,0,0,1,3.92.42,16.1,16.1,0,0,1,1.73.54c.72.28.17.06.25,0,.22-.27-2.7-.85-3.16-.87s-1.14-.11-1.73-.14-1,0-1.49-.07a20.37,20.37,0,0,0-3.75.21,3.17,3.17,0,0,0-.57.18,6.13,6.13,0,0,0-.73.11c-.4.13-1.44.3-1.58.6Z" transform="translate(-3.62 -53.87)"/><path class="cls-14" d="M105,117a7.09,7.09,0,0,0,1.6.46,3.43,3.43,0,0,0,.65,0c.1,0,.16.15.26.18.42.08.45-.36-.16-.32s-1.12-.36-1.64-.43a8.58,8.58,0,0,1-1.33-.25,23.06,23.06,0,0,0-3.3-.51,9.85,9.85,0,0,0-3.29-.09c2,.41,4.61.13,6.31.72C104.39,116.94,104.84,117,105,117Z" transform="translate(-3.62 -53.87)"/><path class="cls-14" d="M101.56,119.35l0,0S101.49,119.33,101.56,119.35Z" transform="translate(-3.62 -53.87)"/><path class="cls-14" d="M98.91,119.09c-1,0-2,0-3,0a14.88,14.88,0,0,0-3.16.57c-.18,0-2.13.62-1.93.76,0,0,1.76-.56,2-.61a21.53,21.53,0,0,1,3.13-.51,20.75,20.75,0,0,1,3.15-.13c.32,0,2.81.32,2.8.33s-.17-.14-.27-.17l0,0A10.55,10.55,0,0,0,98.91,119.09Z" transform="translate(-3.62 -53.87)"/><path class="cls-14" d="M93.76,118.18a2.33,2.33,0,0,0,1-.07,10.83,10.83,0,0,1,1.18-.16,14.33,14.33,0,0,1,2.46-.15,22.38,22.38,0,0,1,3.71.21c.19,0,.75.28,1,.14s-.34-.16-.43-.17c-1-.08-1.85-.41-2.92-.42-.71,0-1.37.08-2.09.09-.26,0-.57,0-.82,0a5.68,5.68,0,0,1-1.13.11C95.27,117.66,93.52,118.09,93.76,118.18Z" transform="translate(-3.62 -53.87)"/><path class="cls-14" d="M93.76,118.18c-.09,0,0,0,0,0Z" transform="translate(-3.62 -53.87)"/><path class="cls-14" d="M106.4,122.45c-.14-.09-.1-.35-.16-.5a1.81,1.81,0,0,0-.41-.66,6.84,6.84,0,0,0-3.78-1.69c-.13,0,.16.12.24.17h0l0,0h0a9.46,9.46,0,0,1,3.29,1.5c.24.17.28.44.39.64s.51.72.21,1.12c-.16.21.33.07.25-.05S106.59,122.57,106.4,122.45Z" transform="translate(-3.62 -53.87)"/><path class="cls-14" d="M102.3,119.78l0,0Z" transform="translate(-3.62 -53.87)"/><path class="cls-14" d="M100.93,118.51a7.23,7.23,0,0,0-2.58-.05,8.76,8.76,0,0,0,1.9.12,13.48,13.48,0,0,1,2.33.33,10.45,10.45,0,0,1,1.73.65c.3.13,1.07.71,1.56.61a18.6,18.6,0,0,0-2.53-1.27A12.92,12.92,0,0,0,100.93,118.51Z" transform="translate(-3.62 -53.87)"/><path class="cls-14" d="M105.82,123c.11-.29-.12-.51-.17-.77s-.17-.61-.47-.72.14.48.15.48a2,2,0,0,1,.27.77c0,.16-.51,1.5-.34,1.46C105.6,124.12,105.76,123.12,105.82,123Z" transform="translate(-3.62 -53.87)"/><path class="cls-14" d="M105.18,121.48Z" transform="translate(-3.62 -53.87)"/><path class="cls-14" d="M88.56,122.63s-.07.06,0,0Z" transform="translate(-3.62 -53.87)"/><path class="cls-14" d="M88.44,123.3c.08,0,.5-.67.61-.75a8,8,0,0,1,1.37-.76,19.51,19.51,0,0,0,2.42-1.3,9.27,9.27,0,0,0-1.91.89,9.5,9.5,0,0,0-2.37,1.25C88.49,122.69,88.27,123.31,88.44,123.3Z" transform="translate(-3.62 -53.87)"/><path class="cls-14" d="M104.13,117.75c-.18.14,1.79.5,2,.57s1.88.89,2,.71-.39-.18-.4-.26-1.21-.48-1.21-.48.09,0,0,0C106.25,118.21,104.39,117.54,104.13,117.75Z" transform="translate(-3.62 -53.87)"/><path class="cls-14" d="M106.51,118.28h0S106.44,118.27,106.51,118.28Z" transform="translate(-3.62 -53.87)"/><path class="cls-14" d="M90.18,127.77c-.3-.15-.54-.34-.87-.49-.12-.06-.39-.38-.52-.24h0l0,0,0,0a1.63,1.63,0,0,0,.28.16,3,3,0,0,1,.45.35c.09.08,1.16.79,1.34.71S90.27,127.81,90.18,127.77Z" transform="translate(-3.62 -53.87)"/><path class="cls-14" d="M88.77,127.06Z" transform="translate(-3.62 -53.87)"/><path class="cls-14" d="M103.86,121.13l0,0a3.18,3.18,0,0,1,.83.91c.08.18.14,1,.52,1C105.35,122.74,104.14,121,103.86,121.13Z" transform="translate(-3.62 -53.87)"/><path class="cls-14" d="M101,127c0-.07.54-.94.35-.87a2.7,2.7,0,0,0-.69,1.26C100.9,127.42,100.94,127.11,101,127Z" transform="translate(-3.62 -53.87)"/><path class="cls-14" d="M100.63,127.43Z" transform="translate(-3.62 -53.87)"/><path class="cls-14" d="M88.63,125.43a4.79,4.79,0,0,0-.22-1c0-.13,0-.94,0-1-.41-.17-.22.76-.19.87s.11,1,.42,1.12c0,0,0,0,0,0Z" transform="translate(-3.62 -53.87)"/><path class="cls-14" d="M94.59,117.6a8.12,8.12,0,0,0,1.85-.16,18.59,18.59,0,0,0,2.19-.06,9.35,9.35,0,0,0-2.16-.07C96.31,117.32,94.25,117.48,94.59,117.6Z" transform="translate(-3.62 -53.87)"/><path class="cls-14" d="M94.59,117.6c-.1,0,0,0,0,0Z" transform="translate(-3.62 -53.87)"/><path class="cls-14" d="M106.81,120.21c0-.06-.46-.28-.52-.33a2.45,2.45,0,0,0-.86-.38c-.41-.12-.61-.61-1.35-.5-.36.06.55.23.52.22a4.82,4.82,0,0,1,.91.45c.24.1.92.58,1.27.55h0Z" transform="translate(-3.62 -53.87)"/><path class="cls-14" d="M104.21,116.12a.67.67,0,0,0-.27-.11c-.26-.07-.66,0-1-.09s-1.55-.24-1.64-.07A10.77,10.77,0,0,0,104.21,116.12Z" transform="translate(-3.62 -53.87)"/><path class="cls-14" d="M107.92,120.17s-1.1-.62-1.23-.51.94.58,1.08.61,0,.37.34.27-.1-.34-.19-.37Z" transform="translate(-3.62 -53.87)"/><path class="cls-14" d="M107.92,120.17h0S107.93,120.17,107.92,120.17Z" transform="translate(-3.62 -53.87)"/><path class="cls-14" d="M105.84,120.84c.14,0-.26-.41-.38-.48h0c-.13,0-1-.55-1.13-.37C104.27,120,105.87,120.83,105.84,120.84Z" transform="translate(-3.62 -53.87)"/><path class="cls-14" d="M95.84,129.74h0c-.08,0-.58-.36-.58-.36-.21.13.33.31.38.36S96.08,129.83,95.84,129.74Z" transform="translate(-3.62 -53.87)"/><path class="cls-14" d="M100.83,120.1a5.17,5.17,0,0,0,1.52.35c.22-.06-.35-.24-.38-.25A3.55,3.55,0,0,0,100.83,120.1Z" transform="translate(-3.62 -53.87)"/><path class="cls-14" d="M102,120.2Z" transform="translate(-3.62 -53.87)"/><path class="cls-14" d="M106.29,121.17c-.05.06,0,.09,0,.11h0c.19,0,.11.56.4.48S106.45,121,106.29,121.17Z" transform="translate(-3.62 -53.87)"/><path class="cls-14" d="M106.73,122.07c.08,0,0,0,0,0s.16.45.31.39-.06-.4,0-.45C107,121.69,106.46,122,106.73,122.07Z" transform="translate(-3.62 -53.87)"/><path class="cls-14" d="M106.74,122.07h0Z" transform="translate(-3.62 -53.87)"/><path class="cls-14" d="M98.72,128.13h0c-.12.1,0,.43.1.38S98.92,128,98.72,128.13Z" transform="translate(-3.62 -53.87)"/><path class="cls-14" d="M104.23,120.94a6.1,6.1,0,0,1,.7.42c.2-.07-.23-.41-.33-.45a3.19,3.19,0,0,1-.34-.19S103.86,120.8,104.23,120.94Z" transform="translate(-3.62 -53.87)"/><path class="cls-14" d="M106.73,120.3c.4.18.54.46.89.63C107.69,120.68,107.12,120.28,106.73,120.3Z" transform="translate(-3.62 -53.87)"/><path class="cls-14" d="M103.9,120.62c.06-.14-.54-.43-.75-.34s.25.27.31.29S103.86,120.7,103.9,120.62Z" transform="translate(-3.62 -53.87)"/><path class="cls-14" d="M94.07,125.35c.1-.13-.08-.2-.25-.08s-.08.37.05.39.11-.25.18-.28S94.08,125.34,94.07,125.35Z" transform="translate(-3.62 -53.87)"/><path class="cls-14" d="M102.74,120.51s.43.26.5.27,0,0,0,0,.4.25.53.15S102.87,120.4,102.74,120.51Z" transform="translate(-3.62 -53.87)"/><path class="cls-14" d="M103.26,120.79h0S103.24,120.78,103.26,120.79Z" transform="translate(-3.62 -53.87)"/><path class="cls-14" d="M94.89,129.09c-.07.08.17.28.31.21C95.18,129.29,95,129,94.89,129.09Z" transform="translate(-3.62 -53.87)"/><path class="cls-14" d="M108,119.15l.22.17c.15.1.61-.1.2-.18Z" transform="translate(-3.62 -53.87)"/><path class="cls-14" d="M108.41,119.14c.07,0-.06,0,0,0Z" transform="translate(-3.62 -53.87)"/><path class="cls-14" d="M106.8,120.94c.23,0,0-.39-.28-.28s.17.24.26.27S106.68,120.9,106.8,120.94Z" transform="translate(-3.62 -53.87)"/><path class="cls-14" d="M104.66,116.41c.22.07.49-.11.32-.21S104.23,116.26,104.66,116.41Z" transform="translate(-3.62 -53.87)"/><path class="cls-14" d="M107.42,121.82Z" transform="translate(-3.62 -53.87)"/><path class="cls-14" d="M107.42,121.82a.23.23,0,0,0,.16,0c.06,0-.09-.29-.22-.24S107.36,121.81,107.42,121.82Z" transform="translate(-3.62 -53.87)"/><path class="cls-14" d="M106.14,120.57Z" transform="translate(-3.62 -53.87)"/><path class="cls-14" d="M106.4,120.54c.31-.27-.73-.06-.26,0A.3.3,0,0,0,106.4,120.54Z" transform="translate(-3.62 -53.87)"/><path class="cls-14" d="M100.71,120.7h0c.28,0,.61.27,1,.16A2.81,2.81,0,0,0,100.71,120.7Z" transform="translate(-3.62 -53.87)"/><path class="cls-14" d="M100.21,120.6c0-.07-.64-.08-.41,0h0C99.92,120.66,100.19,120.68,100.21,120.6Z" transform="translate(-3.62 -53.87)"/></g></svg>