<svg xmlns="http://www.w3.org/2000/svg" xmlns:xlink="http://www.w3.org/1999/xlink" viewBox="0 0 579.13 388.85"><defs><style>.cls-1{isolation:isolate;}.cls-2{fill:#efefef;}.cls-3{fill:#848383;}.cls-4{fill:#d0cfd0;}.cls-5{fill:#4d4a81;}.cls-6{fill:#f9b233;}.cls-7{fill:#f6bbc6;}.cls-19,.cls-8{fill:#303b45;}.cls-9{fill:#5b5b5a;}.cls-10{fill:#353430;}.cls-11{fill:#eaeaea;}.cls-12,.cls-13,.cls-14,.cls-20,.cls-21,.cls-40,.cls-86{fill:none;}.cls-12,.cls-20{stroke:#fbc01f;}.cls-12,.cls-13,.cls-14,.cls-20,.cls-21,.cls-40,.cls-47,.cls-52,.cls-86{stroke-miterlimit:10;}.cls-12,.cls-13,.cls-14{stroke-width:1.12px;}.cls-13,.cls-21{stroke:#4294ce;}.cls-14{stroke:#fff;}.cls-15{fill:#ebebeb;}.cls-16{fill:#94c137;}.cls-17{fill:#d9d9d9;mix-blend-mode:multiply;}.cls-18{fill:#4d4471;}.cls-19{opacity:0.5;}.cls-20,.cls-21{stroke-width:1.03px;}.cls-22{fill:#492e16;}.cls-22,.cls-23,.cls-24,.cls-25,.cls-26,.cls-27,.cls-28,.cls-29,.cls-31,.cls-32,.cls-33,.cls-68,.cls-74,.cls-75,.cls-76,.cls-77,.cls-78,.cls-79,.cls-80,.cls-81,.cls-82,.cls-83{fill-rule:evenodd;}.cls-23{fill:#36393b;}.cls-24{fill:#808081;}.cls-25{fill:#946335;}.cls-26{fill:#66411d;}.cls-27{fill:#e30613;}.cls-28,.cls-65{fill:#be1622;}.cls-29,.cls-67{fill:#e6332a;}.cls-30{fill:#323232;}.cls-31{fill:#9ea6b0;}.cls-32,.cls-87{fill:#a9b2bd;}.cls-33{fill:#22253a;}.cls-34{fill:#a6daf2;}.cls-35{fill:#1e1f42;}.cls-36{fill:#dfe5ee;}.cls-37{fill:#d7dbe6;}.cls-38{fill:#575489;}.cls-39{fill:#4c4691;}.cls-40{stroke:#3b2d7c;}.cls-41{fill:#2a2f59;}.cls-42{fill:#464545;}.cls-43{fill:#251f12;}.cls-44{fill:#c7c9cd;}.cls-45{fill:#5d5d5d;}.cls-46{fill:#3c3c3b;}.cls-47,.cls-52,.cls-61{fill:#6786a0;}.cls-47,.cls-52{stroke:#473763;}.cls-47{stroke-width:1.12px;}.cls-47,.cls-52,.cls-60{opacity:0.9;}.cls-48{fill:#d9d0d8;}.cls-49,.cls-74{fill:#010101;}.cls-50{fill:#fcbd0b;}.cls-51{fill:#262529;}.cls-52{stroke-width:0.74px;}.cls-53{fill:url(#linear-gradient);}.cls-54{fill:#da2715;}.cls-55{fill:url(#linear-gradient-2);}.cls-56{fill:#b8b8b8;}.cls-57{fill:#878787;}.cls-58{fill:#fff;}.cls-59{fill:#e7e6e6;}.cls-62{fill:#473763;}.cls-63{fill:#202121;}.cls-64{fill:#1d71b8;}.cls-66{fill:#36a9e1;}.cls-68{fill:#f2f2f2;}.cls-69,.cls-80{fill:#a8dae8;}.cls-70,.cls-79{fill:#f59a22;}.cls-71,.cls-81{fill:#1db1bf;}.cls-72,.cls-82{fill:#4d8eb5;}.cls-73,.cls-83{fill:#cdcccc;}.cls-74{opacity:0.1;}.cls-75{fill:#fe0;}.cls-76{fill:#ffde09;}.cls-77{fill:#ffcd16;}.cls-78{fill:#fbbb1c;}.cls-84{fill:#fcc013;}.cls-85{fill:#3b2d7c;}.cls-86{stroke:#353430;}.cls-88{fill:#7eba28;}.cls-89{fill:#8c5f3d;}.cls-90{fill:#754d29;}.cls-91{fill:#86ba2b;}.cls-92{fill:#75a12d;}</style><linearGradient id="linear-gradient" x1="4.93" y1="251.61" x2="27.22" y2="272.1" gradientTransform="translate(442)" gradientUnits="userSpaceOnUse"><stop offset="0" stop-color="#d9d9d9"/><stop offset="0.08" stop-color="#bfbebf"/><stop offset="0.83" stop-color="#a3a5a5"/><stop offset="1" stop-color="#6f7171"/></linearGradient><linearGradient id="linear-gradient-2" x1="-6.94" y1="274.89" x2="21.53" y2="274.89" xlink:href="#linear-gradient"/></defs><title>G05_03</title><g class="cls-1"><g id="Livello_1" data-name="Livello 1"><polygon class="cls-2" points="487.82 303.08 487.82 307.76 390 252.8 390 248.12 487.82 303.08"/><polygon class="cls-3" points="579.13 251.03 579.13 255.72 487.98 307.85 487.82 307.76 487.82 303.08 487.98 303.17 579.13 251.03"/><polygon class="cls-4" points="487.82 303.08 390 248.12 390 247.86 481.93 196.67 579.13 251.03 487.98 303.17 487.82 303.08"/><path class="cls-5" d="M463.23,200.42c-1.3-.88-1-1.49-1.2-2.91a4.74,4.74,0,0,0-.93-2.38c-1.54-1.82-4.47-.77-5.19,0a5.66,5.66,0,0,0-1.28,2.22c-.38,1.37-.2,2-1.61,2.7-.5.23-1,.62-1,1.17s.34.79.33,1.22c0,.79-1,1.13-1.36,1.85-.24.56,0,1.2-.06,1.8a5.51,5.51,0,0,1-.59,1.5,1.73,1.73,0,0,0-.07,1.56,1.81,1.81,0,0,0,1.86.57,3.62,3.62,0,0,1,2,0c.5.24.82.76,1.32,1a2,2,0,0,0,2-.34l.14-.12a1.86,1.86,0,0,0,1.58.34c.53-.17.93-.63,1.46-.8s.76-1.11,1.42-.91,1.35-5.26,1.46-6c.06-.42.45-.74.51-1.16S463.68,200.73,463.23,200.42Z" transform="translate(-7.07 -6.68)"/><circle class="cls-6" cx="452.59" cy="191.69" r="2.91"/><path class="cls-7" d="M448.92,227.59s.41-7.34.23-7.69,2.4-8,2.89-9.7a4.78,4.78,0,0,1,.25-.69l.53.2a4,4,0,0,1,1.1.48,3,3,0,0,1,1.08,1.59,5.38,5.38,0,0,1,.23,1.26c-1,1.5-2.66,3.87-2.88,5.07a83.42,83.42,0,0,1-2.2,9.81C449.84,228.73,448.92,227.59,448.92,227.59Z" transform="translate(-7.07 -6.68)"/><path class="cls-7" d="M475.92,212.24c.26,0-1.34.79-4.19,2.24-2.34,1.18-4,1.59-5.24,1.09s-5.23-9.31-5.23-9.31l.08-2.37a3.17,3.17,0,0,1,2.86,1.31c1.15,1.55,3.53,8.07,3.53,8.07l6.88-1.44Z" transform="translate(-7.07 -6.68)"/><path class="cls-8" d="M457.66,247.44a7,7,0,0,0-.53,2.09c0,.77.31,1,.31,1a16.51,16.51,0,0,0,2,.48c.44,0,1.16.72,2.19.79s2.36.38,2.51-.44c.09-.49-1.19-1-2.69-2a8.23,8.23,0,0,1-1.72-1.64Z" transform="translate(-7.07 -6.68)"/><path class="cls-8" d="M451.3,249.59s.08.74.73.7a2.1,2.1,0,0,0,1.23-.74l-.17,2.62s-.36,3.92-1.51,4.33c-.82.29-1.17-.74-1.31-1.34a1.63,1.63,0,0,1,0-.76Z" transform="translate(-7.07 -6.68)"/><path class="cls-8" d="M453.47,236s.65-10.05.44-10.8-.44-4.86-.44-4.86l9.08-3.35,1.14,1.12s-.06,8.92.15,10.33-4.13,19.27-4.13,19.27a1.2,1.2,0,0,1-1.19.75c-.9,0-.85-.72-.85-.72s1.42-12.93,1.42-13.57-.11-8.54-.11-8.54-1.29,6.48-1.73,9.29-4,14.61-4,14.61-.25,1.11-1.06,1.23-1-.78-1-.78Z" transform="translate(-7.07 -6.68)"/><path class="cls-9" d="M463.92,230.36,461,244l-3.24,0,.88-8.13.31-9.57-1.73,9.95-3.11,11.15-2.8-.52,1.83-11.58s.46-15.54.46-16.19.57.1.57.1l8.94-1.63,1.11,2.46Z" transform="translate(-7.07 -6.68)"/><path class="cls-8" d="M458,247.48l1.75.25a8.23,8.23,0,0,0,1.72,1.64c.35.24.69.45,1,.64a.27.27,0,0,1,0,.09c0,.23-.3.31-.53.33a8.08,8.08,0,0,1-3.26-.71,1.71,1.71,0,0,1-.73-.42,1.25,1.25,0,0,1-.25-.75A1.48,1.48,0,0,1,458,247.48Z" transform="translate(-7.07 -6.68)"/><path class="cls-8" d="M452.76,251.46a13.83,13.83,0,0,1-.5,1.54.66.66,0,0,1-.39.45.48.48,0,0,1-.46-.2,1.45,1.45,0,0,1-.29-.82,8.18,8.18,0,0,1,.1-2.61c.08-.39.24-.84.62-1a1.24,1.24,0,0,1,1,.25.93.93,0,0,1,.4.33c.09.19,0,.37-.06.56C453,250.48,452.89,251,452.76,251.46Z" transform="translate(-7.07 -6.68)"/><path class="cls-9" d="M457.59,204.42s3-.74,4.51-.37a2.65,2.65,0,0,1,2.08,1.84,28.35,28.35,0,0,1,.51,3.15c.06,2-1.94,4.42-1.94,4.42l1.7,6.37s-7.45,2.86-9.28,1.95-2.11-2.08-2-2.62c0-.32,1.28-4.16,1.27-4.48l-1-5.53a3.55,3.55,0,0,1,1.46-2.76Z" transform="translate(-7.07 -6.68)"/><path class="cls-7" d="M476.77,212a1.32,1.32,0,1,1-1.32-1.32A1.32,1.32,0,0,1,476.77,212Z" transform="translate(-7.07 -6.68)"/><path class="cls-7" d="M451.14,228.32a1.32,1.32,0,1,1-1.32-1.32A1.32,1.32,0,0,1,451.14,228.32Z" transform="translate(-7.07 -6.68)"/><path class="cls-9" d="M452.15,209.86c0,.11-.08.23-.11.34C452.07,210.09,452.11,210,452.15,209.86Z" transform="translate(-7.07 -6.68)"/><path class="cls-9" d="M454.25,214.48a2.47,2.47,0,0,0-1.13-1.32,4,4,0,0,0-1.08-.39c-.18-.06-.65,0-.83-.06,0,.12,1.12-3.31,1.08-3.2a6.35,6.35,0,0,1,3.32-3.53c1.38-.54,4.7,1.26,4.7,1.26.36.86-4.17,4.54-4.17,4.54s-.39.52-.91,1.26C455.2,212.61,454.25,214.48,454.25,214.48Z" transform="translate(-7.07 -6.68)"/><path class="cls-9" d="M449,227.69l-.09-.1Z" transform="translate(-7.07 -6.68)"/><path class="cls-9" d="M461.34,203.89a3.17,3.17,0,0,1,2.86,1.31,5.92,5.92,0,0,1,.64,1.11c.71,1.6,1.74,4.38,1.74,4.38L464.05,212l-.12-.23c-1.35-2.56-2.67-5.46-2.67-5.46Z" transform="translate(-7.07 -6.68)"/><path class="cls-7" d="M458.64,204.42s-1.31.36-1.43.67.85-.29,1.89.47a9.3,9.3,0,0,1,1.93,2.17s1-.63.94-2.61S458.64,204.42,458.64,204.42Z" transform="translate(-7.07 -6.68)"/><path class="cls-7" d="M462.16,201.55,461,205.22h0a2.29,2.29,0,0,1-2.57.27h0a.58.58,0,0,1-.28-.64l.91-3.56Z" transform="translate(-7.07 -6.68)"/><polygon class="cls-9" points="453.26 198.61 452.69 199.99 450.82 200.25 449.82 198.36 451.07 196.99 451.35 196.91 451.28 197.28 453.26 198.61"/><polygon class="cls-10" points="453.5 200.44 452.59 200.17 453.26 198.61 453.5 200.44"/><polygon class="cls-9" points="453.91 201.62 455.83 199.02 454.47 196.73 454.26 197.37 453.91 201.62"/><circle class="cls-11" cx="452.21" cy="199.01" r="0.52"/><line class="cls-12" x1="454.9" y1="202.42" x2="456.65" y2="202.09"/><line class="cls-13" x1="454.9" y1="202.42" x2="455.48" y2="202.31"/><line class="cls-14" x1="456.08" y1="202.2" x2="456.65" y2="202.09"/><path class="cls-15" d="M464,218.18l.44,1.65s-5.68,3-9.28,1.95c-2.09-.62-2.11-2.08-2-2.62a3.36,3.36,0,0,1,.19-.71s.67,1,3,1.27C458.91,220.09,464,218.18,464,218.18Z" transform="translate(-7.07 -6.68)"/><path class="cls-15" d="M462.42,219.25l.62-.18s-2.92-9-6.31-12.06c-.4-.35-2-.93-2.41-.58a3.3,3.3,0,0,0-.5.54,5.57,5.57,0,0,1,3.33,1.82C459.28,211.05,462.42,219.25,462.42,219.25Z" transform="translate(-7.07 -6.68)"/><path class="cls-7" d="M464.22,199.84a3.58,3.58,0,1,1-3.57-3.58A3.57,3.57,0,0,1,464.22,199.84Z" transform="translate(-7.07 -6.68)"/><path class="cls-5" d="M463.53,199.21a.73.73,0,0,0,.49-.54,3.57,3.57,0,0,0-6.95,1.17,3.42,3.42,0,0,0,0,.46,1.11,1.11,0,0,0,.48,0c.35-.09,1.17-.38.9-.82.13.22.14.52,0,1.34C459.8,198.81,462.17,199.72,463.53,199.21Z" transform="translate(-7.07 -6.68)"/><path class="cls-7" d="M458.6,200a1.09,1.09,0,1,1-1.08-1.09A1.08,1.08,0,0,1,458.6,200Z" transform="translate(-7.07 -6.68)"/><polygon class="cls-2" points="277.82 243.08 277.82 247.76 180 192.8 180 188.12 277.82 243.08"/><polygon class="cls-3" points="369.13 191.03 369.13 195.72 277.98 247.85 277.82 247.76 277.82 243.08 277.98 243.17 369.13 191.03"/><polygon class="cls-4" points="277.82 243.08 180 188.12 180 187.86 271.93 136.67 369.13 191.03 277.98 243.17 277.82 243.08"/><polygon class="cls-2" points="97.83 303.08 97.83 307.76 0 252.8 0 248.12 97.83 303.08"/><polygon class="cls-3" points="189.13 251.03 189.13 255.72 97.98 307.85 97.83 307.76 97.83 303.08 97.98 303.17 189.13 251.03"/><polygon class="cls-4" points="97.83 303.08 0 248.12 0 247.86 91.93 196.67 189.13 251.03 97.98 303.17 97.83 303.08"/><polygon class="cls-2" points="280.82 384.08 280.82 388.76 183 333.8 183 329.12 280.82 384.08"/><polygon class="cls-3" points="372.13 332.04 372.13 336.72 280.98 388.85 280.82 388.76 280.82 384.08 280.98 384.17 372.13 332.04"/><polygon class="cls-4" points="280.82 384.08 183 329.12 183 328.86 274.93 277.67 372.13 332.04 280.98 384.17 280.82 384.08"/><polygon class="cls-16" points="280.45 377.93 193.94 329.33 193.94 329.1 275.23 283.83 361.19 331.9 280.58 378.01 280.45 377.93"/><ellipse class="cls-17" cx="91.9" cy="248.48" rx="65.41" ry="34.02"/><path class="cls-9" d="M115.85,160.42s-5.06,1.5-6.21,9.56a91.36,91.36,0,0,1-1.57,9.39L95.63,188s1.35,3.26,3.84,2.3,11.91-5.62,12.47-6.33c1.6-2,4.22-8,4.22-8Z" transform="translate(-7.07 -6.68)"/><path class="cls-7" d="M93.13,190.31A2.31,2.31,0,1,0,95.44,188,2.31,2.31,0,0,0,93.13,190.31Z" transform="translate(-7.07 -6.68)"/><path class="cls-8" d="M125.78,239.33l-.34-4.53L121,232.22l1.15,7.63s-9.49,5.88-9.23,7.36,2.65.92,4.53.79,4.44-2.18,5.23-2.23a31,31,0,0,0,3.4-.74,2.5,2.5,0,0,0,.74-1.92,12.6,12.6,0,0,0-1-3.79Z" transform="translate(-7.07 -6.68)"/><path class="cls-8" d="M137.36,243.22v0l-.81-5h-3.62l.89,4.88.3,4.73s.66,7.09,2.73,7.83,2.41-2.17,2.51-3.18C139.75,248.73,137.36,243.22,137.36,243.22Z" transform="translate(-7.07 -6.68)"/><path class="cls-9" d="M133.42,190.34s-.39,7.43-.78,8.79.78,19.54.78,19.54,4.15,18.43,4,19.6-4.21,1.49-5,.31-5-16.78-5.8-21.86-3.13-16.8-3.13-16.8-.19,14.26-.19,15.43,2.81,19.23,2.81,19.23a5.86,5.86,0,0,1-2.71.92,2.41,2.41,0,0,1-2.24-.89,6.55,6.55,0,0,1-1.18-2.84s-5.67-24.23-5.28-26.77-.78-19.54-.78-19.54l3.13-1.18Z" transform="translate(-7.07 -6.68)"/><path class="cls-9" d="M126,161.52s-6.49-2.09-9.15-1.43a4.81,4.81,0,0,0-3.77,3.33c-.22.88.88,22.39.88,22.39s11.53,9.54,16.41,7.1c3.53-1.76,3.81-3.76,3.7-4.73a11.69,11.69,0,0,1-.11-1.77l.63-19Z" transform="translate(-7.07 -6.68)"/><path class="cls-9" d="M124.07,161.51s2.38.66,2.6,1.21-1.55,3.1-3.43,4.48a12.13,12.13,0,0,1-3.09,1.77,10.38,10.38,0,0,1-2.1-6.19C118.11,159.19,124.07,161.51,124.07,161.51Z" transform="translate(-7.07 -6.68)"/><path class="cls-7" d="M112.65,155.15a6.47,6.47,0,1,0,5.74-7.12A6.47,6.47,0,0,0,112.65,155.15Z" transform="translate(-7.07 -6.68)"/><path class="cls-7" d="M117.7,156.32l2.2,6.65h0a4.14,4.14,0,0,0,4.64.48h0a1,1,0,0,0,.51-1.15l-1.65-6.45Z" transform="translate(-7.07 -6.68)"/><path class="cls-18" d="M113.69,153.51a1.6,1.6,0,0,1-.88-.46.08.08,0,0,1,0,0,6.46,6.46,0,0,1,12.72.75,6.09,6.09,0,0,1,0,.85,2.16,2.16,0,0,1-.87.07c-.65-.09-2.29-1.12-1.58-1.7-.47.38.49,2.83-.7,3.31-.43-.29-1.17-3.47-1.15-4A9.56,9.56,0,0,1,113.69,153.51Z" transform="translate(-7.07 -6.68)"/><path class="cls-7" d="M122.78,154.26a2,2,0,1,0,1.75-2.16A2,2,0,0,0,122.78,154.26Z" transform="translate(-7.07 -6.68)"/><path class="cls-15" d="M114,186.75l.2,3.14s9.71,4.59,15.94,2.75c3.61-1.07,3.64-3.59,3.53-4.52a6.06,6.06,0,0,0-.34-1.24s-1.15,1.66-5.11,2.21C123.64,189.73,114,186.75,114,186.75Z" transform="translate(-7.07 -6.68)"/><path class="cls-15" d="M117.56,188.27l-1.06-.3s5-15.64,10.91-20.86c.7-.62,2.73-2.83,3.45-2.24.44.36.84.47,1.06.73a33.63,33.63,0,0,0-5.24,4.57C123,174.08,117.56,188.27,117.56,188.27Z" transform="translate(-7.07 -6.68)"/><path class="cls-19" d="M115.07,177.67l13.46,2.69,2.31-11.72,1-.5,1.84.83.27,17.44a11.69,11.69,0,0,0,.11,1.77c.09.81-.1,2.34-2.22,3.85-4.47-2.3-13.46-7.26-17.07-10.94C112.7,179,115.07,177.67,115.07,177.67Z" transform="translate(-7.07 -6.68)"/><path class="cls-9" d="M128.14,173.84s-.94-3.19.61-3.86c0,0,4.92-4.07,5.82-2.57a26.49,26.49,0,0,1,3.41,7.93s2.33,8.09,2,10.2-2.55,3.21-7.76,1.1-18.18-7.2-18.18-7.2l.11-2.33,15.3,1.66Z" transform="translate(-7.07 -6.68)"/><path class="cls-7" d="M110.09,177.94a2.39,2.39,0,1,0,2.39-2.38A2.39,2.39,0,0,0,110.09,177.94Z" transform="translate(-7.07 -6.68)"/><path class="cls-7" d="M108.64,180.08l1.72-2.63a.67.67,0,0,1,1.12.73l-1.72,2.64a.67.67,0,0,1-.93.19A.66.66,0,0,1,108.64,180.08Z" transform="translate(-7.07 -6.68)"/><polygon class="cls-9" points="114.1 155.89 115.09 158.28 118.32 158.72 120.2 155.73 117.89 153.09 117.32 152.94 117.4 153.67 114.1 155.89"/><polygon class="cls-10" points="113.69 159.07 115.25 158.6 114.1 155.89 113.69 159.07"/><circle class="cls-11" cx="115.92" cy="156.59" r="0.89"/><line class="cls-20" x1="108.6" y1="160.93" x2="111.51" y2="161.98"/><line class="cls-21" x1="108.6" y1="160.93" x2="109.56" y2="161.28"/><polygon class="cls-22" points="80.83 173.83 80.83 176.79 158.65 221.72 158.65 218.76 80.83 173.83"/><polygon class="cls-23" points="127.73 211.34 127.73 246.3 130.9 248.13 130.9 213.17 127.73 211.34"/><polygon class="cls-24" points="134.06 211.34 134.06 246.3 130.9 248.13 130.9 213.17 134.06 211.34"/><polygon class="cls-23" points="74.16 180.5 74.16 215.46 77.33 217.29 77.33 182.33 74.16 180.5"/><polygon class="cls-24" points="80.5 180.5 80.5 215.46 77.33 217.29 77.33 182.33 80.5 180.5"/><polygon class="cls-23" points="98.28 232 98.28 266.96 101.45 268.79 101.45 233.83 98.28 232"/><polygon class="cls-24" points="104.62 232 104.62 266.96 101.45 268.79 101.45 233.83 104.62 232"/><polygon class="cls-23" points="44.71 201.16 44.71 236.12 47.88 237.94 47.88 202.99 44.71 201.16"/><polygon class="cls-24" points="51.05 201.16 51.05 236.12 47.88 237.94 47.88 202.99 51.05 201.16"/><path class="cls-25" d="M87.9,180.53,38.17,209.38,116,254.31l49.74-28.85Z" transform="translate(-7.07 -6.68)"/><polygon class="cls-22" points="31.09 202.65 31.09 205.6 108.92 250.53 108.92 247.58 31.09 202.65"/><polygon class="cls-26" points="158.65 218.76 108.92 247.63 108.92 250.59 158.65 221.72 158.65 218.76"/><path class="cls-27" d="M100,196.53l-16.79,9.74,26.27,15.17,16.79-9.74S100.48,196.82,100,196.53Z" transform="translate(-7.07 -6.68)"/><polygon class="cls-28" points="92.82 181.58 92.82 189.9 119.09 205.07 119.09 196.75 92.82 181.58"/><polygon class="cls-29" points="119.16 196.67 102.37 206.42 102.37 214.75 119.16 205.01 119.16 196.67"/><polygon class="cls-29" points="92.89 181.48 76.09 191.22 76.09 199.56 92.89 189.81 92.89 181.48"/><polygon class="cls-28" points="76.09 191.25 76.09 199.57 102.37 214.74 102.37 206.42 76.09 191.25"/><path class="cls-27" d="M100,188.27,83.17,198l26.27,15.17,16.79-9.74Z" transform="translate(-7.07 -6.68)"/><polygon class="cls-30" points="102.37 209.47 76.09 194.31 76.09 193.87 102.37 209.04 119.16 199.29 119.16 199.74 102.37 209.47"/><polygon class="cls-31" points="80.11 199.17 79.84 199.17 79.13 198.63 78.82 194.55 79.09 194.55 80.07 195.1 80.11 199.17"/><polygon class="cls-31" points="99.37 210.34 99.1 210.34 98.39 209.79 98.08 205.71 98.36 205.71 99.33 206.26 99.37 210.34"/><polygon class="cls-32" points="79.84 199.17 78.86 198.63 78.82 194.55 79.8 195.1 79.84 199.17"/><polygon class="cls-32" points="99.1 210.34 98.12 209.79 98.08 205.71 99.06 206.26 99.1 210.34"/><polygon class="cls-33" points="83.44 200.38 83.44 202.31 89.52 205.82 89.52 203.89 83.44 200.38"/><polygon class="cls-31" points="89.52 205.82 93.26 206.77 93.26 204.62 91.39 203.54 89.52 203.89 89.52 205.82"/><polygon class="cls-31" points="83.33 201.04 83.44 202.31 83.44 200.38 84.95 199.83 83.33 198.89 83.33 201.04"/><path class="cls-34" d="M56.13,225.59c.47,0-8.39,6.41-8.39,6.41l-.61,8.87,4.24,2.21,9.87-7.25.8-9.07Z" transform="translate(-7.07 -6.68)"/><path class="cls-7" d="M55.84,266.86l-2.67,4.75s.8,2.54,1.13,2.61a29.21,29.21,0,0,0,4.82-.07c0-.2-.74-1.74-.87-2.08s-.87-3.74-.87-3.74l.8-2.34Z" transform="translate(-7.07 -6.68)"/><path class="cls-7" d="M69.15,269.73s-.73,6.22-.67,6.42.81,3,.81,3l5.08-.73a1.25,1.25,0,0,0,.27-1.54,43.44,43.44,0,0,1-2.81-4.35c0-.33-.07-3.14-.07-3.14Z" transform="translate(-7.07 -6.68)"/><circle class="cls-7" cx="60.83" cy="183.32" r="6.27"/><path class="cls-35" d="M58.71,220a64.89,64.89,0,0,0-1.46,7.2c0,1.37,3.12,15.18,4.38,19.15s-6.89,20.29-6.89,21.33,1,2.51,2.3,2.31S67.91,251.78,69,248.22s2.09-20.07,2.09-20.07l3.13-7.33Z" transform="translate(-7.07 -6.68)"/><path class="cls-18" d="M57.53,225.2l6.93,5.66s4.08,14,4.5,17.36-1,22.59,0,24.68,2.72,1.68,3.34,1.26S75.65,251,75.65,245s-1.53-24.59-1.53-24.59L58.71,220Z" transform="translate(-7.07 -6.68)"/><path class="cls-36" d="M63.1,196.27s-5-2.38-6.9,0-7.32,13.47-8,16.82.63,11.08,1.26,13.17,2.28-.08,2.28-.08.74-10.17,1-11c.13-.55,2.53-4.59,4.06-7.63a12.3,12.3,0,0,1,1.51-2.38,52.32,52.32,0,0,0,1.86,6c.84,1.89-1,7.32-1.46,8.79s3.35,2.93,6.48,3.14,9-2.31,9-2.31,2.1-17.15-1.67-19S63.1,196.27,63.1,196.27Z" transform="translate(-7.07 -6.68)"/><path class="cls-7" d="M51.35,205.17a44.4,44.4,0,0,0-3.1,7.92c-.62,3.34.63,11.08,1.26,13.17s2.41-.25,2.41-.25.61-10,.82-10.83c.13-.52,2.88-4.62,4.06-7.63A6.71,6.71,0,0,1,51.35,205.17Z" transform="translate(-7.07 -6.68)"/><path class="cls-37" d="M72.51,201.79c-1-.5-2.14-1.13-3.28-1.78-.93.37-1.68.7-1.68.7l-.63,6.3s.35,10,1,15.84a39.43,39.43,0,0,0,6.22-2S76.28,203.67,72.51,201.79Z" transform="translate(-7.07 -6.68)"/><path class="cls-7" d="M90.84,204.17a2.47,2.47,0,1,1-2.47-2.47A2.48,2.48,0,0,1,90.84,204.17Z" transform="translate(-7.07 -6.68)"/><path class="cls-36" d="M65.84,198.12l6.67,3.67s1.89.67,3.77,5.25,7.27,10.44,7.27,10.44S87.17,207,88,206.38s2.28-2,2.07.66-1.88,14.83-4.6,15.88S64.9,209.83,64.69,206.06A25.49,25.49,0,0,1,65.84,198.12Z" transform="translate(-7.07 -6.68)"/><path class="cls-7" d="M87.91,205.86c-.84.62-4.32,10.91-4.52,10.79s-4.91-5.49-5.3-6.23l-.07.36a23.05,23.05,0,0,1-4.49,5c5,4.09,10.53,7.67,12,7.13,2.72-1,4.39-13.18,4.6-15.88S88.74,205.23,87.91,205.86Z" transform="translate(-7.07 -6.68)"/><path class="cls-38" d="M57.82,270.13a13.81,13.81,0,0,0,2.34,1.58,11.7,11.7,0,0,0,3.05.32c1.9,0-.2,3.06-4.35,3.19-1.28,0-2.89-1.07-4.6-.59-.62.17-.24,2.48-.6,2.56a2.16,2.16,0,0,1-.49.08c-.21,0,.37-3.17-.37-4.07-.6-.74.05-2.75.84-2.44s1.52,1.84,2.32,1.73S58.24,271.58,57.82,270.13Z" transform="translate(-7.07 -6.68)"/><path class="cls-7" d="M63.89,191.59,63,198.32h0a4,4,0,0,0,3.83,2.41l.77,0,1.51-7.08Z" transform="translate(-7.07 -6.68)"/><path class="cls-39" d="M72,191.83a1.3,1.3,0,0,0-2-1,1.67,1.67,0,0,0-.45,1.81,4.88,4.88,0,0,0,1,1.67,29.5,29.5,0,0,1-6.39,3.23l-2.8-4.07a6.42,6.42,0,0,1-1.05-2,7.86,7.86,0,0,1,1.3-5.82,8.3,8.3,0,0,1,6-2.82A7,7,0,0,1,73,185.4C74.52,187.29,72.77,189.8,72,191.83Z" transform="translate(-7.07 -6.68)"/><path class="cls-7" d="M54.36,227.65a2.47,2.47,0,1,1-2.47-2.47A2.46,2.46,0,0,1,54.36,227.65Z" transform="translate(-7.07 -6.68)"/><path class="cls-38" d="M73,274.77a13.83,13.83,0,0,0,2.34,1.57,11.2,11.2,0,0,0,3.05.32c1.9,0-.2,3.07-4.36,3.19-1.27,0-2.88-1.07-4.59-.59-.62.17-.25,2.48-.61,2.56a2,2,0,0,1-.49.08c-.2,0,.38-3.16-.36-4.07-.6-.74,0-2.75.84-2.44s1.52,1.85,2.32,1.73S73.46,276.21,73,274.77Z" transform="translate(-7.07 -6.68)"/><path class="cls-40" d="M59.22,194.94s-3.42,1-4.83,16.31-1.61,19.95-1.61,19.95" transform="translate(-7.07 -6.68)"/><path class="cls-41" d="M53.32,231A.68.68,0,0,1,52,231a.68.68,0,0,1,1.36,0Z" transform="translate(-7.07 -6.68)"/><path class="cls-39" d="M57.64,201c.41,1.48,1.65,2.7,1.68,4.23a11.53,11.53,0,0,1-.34,2.09,5.12,5.12,0,1,0,10.18.91,4.27,4.27,0,0,1,.19-1.68c.26-.54.81-.87,1.19-1.33,1.46-1.75,0-4.41.39-6.65.16-.86,1-2.13.92-3-.19-1.45-2.09-1.56-2.7-2.74-1-1.88.11-3.41-.11-5.34a3.84,3.84,0,0,0-5.15-3.43,8,8,0,0,0-5,5.51c-.47,1.77-.14,3.65-.44,5.45C58.12,197,57.09,199,57.64,201Z" transform="translate(-7.07 -6.68)"/><path class="cls-9" d="M105.61,181.08l-10,6.93s1.35,3.26,3.84,2.3,7.45-3.67,7.45-3.67Z" transform="translate(-7.07 -6.68)"/><path class="cls-7" d="M93.13,190.31A2.31,2.31,0,1,0,95.44,188,2.31,2.31,0,0,0,93.13,190.31Z" transform="translate(-7.07 -6.68)"/><path class="cls-17" d="M482.57,286.2c16.68-4.49,54-31.69,66.94-41.35,2.49-1.86,2.29-4.62-.43-6.13l-15-8.34L526,243.44l-62.6,42.12S477.94,287.45,482.57,286.2Z" transform="translate(-7.07 -6.68)"/><path class="cls-30" d="M540.3,234.53s-1.94-2,0-3.12v-.49l-.38-1.9a.82.82,0,0,0-1.18-.63l-7.85,3.37a25.48,25.48,0,0,0-15.82.66c-.53.21-1.06.45-1.58.71-1.55.77-3.08,1.6-4.57,2.46a84.79,84.79,0,0,0-9.37,6.26c-1.72,1.33-2.8,1.54-4.23,2.88-1.65,2-5.33,5.43-7.28,7.85-2.87,3.58-5.46,6.56-7.58,8.91a.53.53,0,0,1-.1.06l-.16.08c-3.74,2.82-11.89,8.68-15.85,15.08a8.13,8.13,0,0,0-1,3.38s-.18,4.58,0,4.64l5.2-2.83.69.85,3.49-2,.52-2.29a14.63,14.63,0,0,1,6-7.86c3.65-2.11,6.64-.41,6.65,3.79,10.82-6.25,25.09-14.49,34.43-20l-1,.55a9.77,9.77,0,0,1,.08-1.19l.54-2.4a14.67,14.67,0,0,1,6-7.87c3.61-2.09,6.57-.46,6.66,3.63l.47-.33,2-4.91,5.22-3.33v-4ZM485,259.7c.42-.73.87-1.43,1.32-2.12.06-.23,1.85-2.48,1.85-2.46a59.31,59.31,0,0,1,10.55-10.67l1.38-1a81.35,81.35,0,0,1,7.64-5.07c13.77-7.94,18-3.66,18.2-3.44L485,259.7Zm-4.62,1.77h0c.55-.42,1-.77,1.3-1C481.41,260.7,481,261.05,480.41,261.47Z" transform="translate(-7.07 -6.68)"/><polygon class="cls-42" points="467.95 278.33 463.1 275.53 467.95 273.03 467.95 278.33"/><polygon class="cls-43" points="533.23 231.82 533.24 235.04 526.05 240.06 528.02 235.15 533.23 231.82"/><path class="cls-44" d="M526,247.25c1.83-1.05,3.32-.21,3.33,1.9a7.3,7.3,0,0,1-3.31,5.73c-1.82,1.05-3.32.2-3.33-1.9A7.29,7.29,0,0,1,526,247.25Z" transform="translate(-7.07 -6.68)"/><path class="cls-42" d="M520.32,254.5v-.15a9.08,9.08,0,0,1,.18-1.69,4.2,4.2,0,0,1-.51.05,3.75,3.75,0,0,1-2-.54,8.36,8.36,0,0,1-1.27,2.78L522,258A3.93,3.93,0,0,1,520.32,254.5Z" transform="translate(-7.07 -6.68)"/><path class="cls-45" d="M526,244.53c3.14-1.82,5.7-.36,5.71,3.25A12.49,12.49,0,0,1,526,257.6c-3.1,1.79-5.63.4-5.71-3.1v-.15A12.49,12.49,0,0,1,526,244.53Zm0,10.35a7.3,7.3,0,0,0,3.31-5.73c0-2.11-1.5-3-3.33-1.9a7.29,7.29,0,0,0-3.31,5.73c0,2.1,1.51,3,3.33,1.9Z" transform="translate(-7.07 -6.68)"/><path class="cls-46" d="M509.51,212.67a4.76,4.76,0,0,1,3.79.23l25.49,14.54c.28.16,1,1.08,1,1.27s-.82-.42-1.06-.32l-7.85,3.37-28.24-16.14Z" transform="translate(-7.07 -6.68)"/><path class="cls-47" d="M498.88,245.43c1.41-1.07,2.76-2.06,4.08-3v5.31l-14.58,8.83-1.51.78A72,72,0,0,1,498.88,245.43Z" transform="translate(-7.07 -6.68)"/><path class="cls-48" d="M530.88,231.76a25.48,25.48,0,0,0-15.82.66c-.53.21-1.06.45-1.58.71-1.55.77-3.08,1.6-4.57,2.46a84.79,84.79,0,0,0-9.37,6.26c-1.72,1.33-2.8,1.54-4.23,2.88-1.65,2-5.33,5.43-7.28,7.85-2.87,3.58-5.46,6.56-7.58,8.91,0,0,5.44-1,5.44,3.24v9.65c10.82-6.25,25.09-14.49,34.43-20l-1,.55a9.77,9.77,0,0,1,.08-1.19l.54-2.4a14.67,14.67,0,0,1,6-7.87c3.61-2.09,6.57-.46,6.66,3.63ZM485,259.7c.42-.73.87-1.43,1.32-2.12.06-.23,1.85-2.48,1.85-2.46a59.31,59.31,0,0,1,10.55-10.67l1.38-1a81.35,81.35,0,0,1,7.64-5.07c13.77-7.94,18-3.66,18.2-3.44L485,259.7Zm-4.62,1.77h0c.55-.42,1-.77,1.3-1C481.41,260.7,481,261.05,480.41,261.47Z" transform="translate(-7.07 -6.68)"/><path class="cls-49" d="M532.65,247.07c-.09-4.09-3-5.72-6.66-3.63a14.67,14.67,0,0,0-6,7.87l-.54,2.4a9.77,9.77,0,0,0-.08,1.19l1-.55a12.49,12.49,0,0,1,5.67-9.82c3.14-1.82,5.7-.36,5.71,3.25l.95-.55Z" transform="translate(-7.07 -6.68)"/><path class="cls-47" d="M520.29,234.6a7.39,7.39,0,0,1,3.94.37l-3.88,2.34C520.33,236.67,520.29,235.63,520.29,234.6Z" transform="translate(-7.07 -6.68)"/><path class="cls-50" d="M435,265.26a.78.78,0,0,1,0,.16h0A.88.88,0,0,0,435,265.26Z" transform="translate(-7.07 -6.68)"/><path class="cls-51" d="M435.05,264V264h0Z" transform="translate(-7.07 -6.68)"/><path class="cls-52" d="M504.7,241.12c1.61-1,9.68-6.06,13.93-6.69v4.24L504.7,247C504.59,246.21,504.72,242.93,504.7,241.12Z" transform="translate(-7.07 -6.68)"/><path class="cls-11" d="M502.64,215.62a25.51,25.51,0,0,0-15.83.66h0c-.52.21-1.05.45-1.57.71-1.55.77-3.08,1.59-4.57,2.45a83.9,83.9,0,0,0-9.37,6.27c-1.73,1.33-3.67,3-5.1,4.35a277.4,277.4,0,0,0,27.95,16c1.42-1.34,3.67-2.85,5.39-4.18a84.79,84.79,0,0,1,9.37-6.26c1.49-.86,3-1.69,4.57-2.46.3-.15,1.58-.71,1.58-.71a25.48,25.48,0,0,1,15.82-.66Z" transform="translate(-7.07 -6.68)"/><path class="cls-44" d="M479.25,274.4c1.83-1,3.32-.21,3.32,1.9a7.29,7.29,0,0,1-3.3,5.73c-1.83,1.06-3.33.2-3.33-1.9A7.29,7.29,0,0,1,479.25,274.4Z" transform="translate(-7.07 -6.68)"/><path class="cls-50" d="M492.6,248.06c.63-.67,1.31-1.35,2-2C493.91,246.71,493.23,247.39,492.6,248.06Z" transform="translate(-7.07 -6.68)"/><path class="cls-45" d="M479.24,271.68c3.14-1.81,5.7-.36,5.71,3.25a12.52,12.52,0,0,1-5.67,9.82c-3.15,1.81-5.7.36-5.72-3.25A12.5,12.5,0,0,1,479.24,271.68Zm0,10.35a7.29,7.29,0,0,0,3.3-5.73c0-2.11-1.49-2.95-3.32-1.9a7.29,7.29,0,0,0-3.31,5.73c0,2.1,1.5,3,3.33,1.9Z" transform="translate(-7.07 -6.68)"/><path class="cls-49" d="M479.24,270.59c3.65-2.11,6.64-.41,6.65,3.79l-.94.55c0-3.61-2.57-5.06-5.71-3.25a12.5,12.5,0,0,0-5.68,9.82l-.94.55a9.45,9.45,0,0,1,.07-1.18l0-.13.52-2.29A14.63,14.63,0,0,1,479.24,270.59Z" transform="translate(-7.07 -6.68)"/><path class="cls-50" d="M464.91,284.71c.13.82.33,1.4,4.4-.79C465.24,286.11,465,285.53,464.91,284.71Z" transform="translate(-7.07 -6.68)"/><path class="cls-43" d="M463.34,284.73l5.2-2.83.69.85,3.49-2,0,.13a9.41,9.41,0,0,0-.07,1.17l-1.45.84-.19.1,0,0-.13.08-.07,0-.12.08-.05,0-.12.07-.07,0-.09.05-.09.05-.07,0-.09,0-.08,0-.08.05-.57.31c-4.07,2.19-5.8,2.47-5.92,1.64a2.13,2.13,0,0,0-.19-.74Z" transform="translate(-7.07 -6.68)"/><path class="cls-51" d="M464.72,284h0a1.93,1.93,0,0,1,.19.75A1.93,1.93,0,0,0,464.72,284Z" transform="translate(-7.07 -6.68)"/><path class="cls-53" d="M453.46,244.3c-1.16,1-4.47,3.28-8,6.27-3.41,2.84-7.05,6.33-9.32,10a8.29,8.29,0,0,0-1.05,3.38l28.25,16.14a8.13,8.13,0,0,1,1-3.38c2.27-3.67,5.92-7.16,9.32-10,3.57-3,7.13-5.14,8.3-6.15Z" transform="translate(-7.07 -6.68)"/><path class="cls-46" d="M453.46,244.3c-1.16,1-4.47,3.28-8,6.27-3.41,2.84-7.05,6.33-9.32,10a8.29,8.29,0,0,0-1.05,3.38l28.25,16.14a8.13,8.13,0,0,1,1-3.38c2.27-3.67,5.92-7.16,9.32-10,3.57-3,7.13-5.14,8.3-6.15Z" transform="translate(-7.07 -6.68)"/><path class="cls-54" d="M540.21,231.45l.08,0-.08,4.28-2.42,1.06-1.45-2.25A23.57,23.57,0,0,1,540.21,231.45Z" transform="translate(-7.07 -6.68)"/><path class="cls-55" d="M435.05,266.59a5.16,5.16,0,0,0,2.31,4l26.17,15.24-.23-5.74L435.05,264Z" transform="translate(-7.07 -6.68)"/><polygon class="cls-56" points="438.01 265.4 445.76 270.35 446.25 266.37 437.48 262.03 438.01 265.4"/><path class="cls-43" d="M452.28,274.46c.69.4,1.05,1.94,1.05,2.64s-.57,1-1.26.57l-8.94-5.16a2.62,2.62,0,0,1-1.25-2c0-.71.76-1.59,1.46-1.19Z" transform="translate(-7.07 -6.68)"/><path class="cls-57" d="M442.46,269.4a1.29,1.29,0,0,0-.17.16l10.81,6.24a3,3,0,0,0-.11-.32Z" transform="translate(-7.07 -6.68)"/><path class="cls-57" d="M442,271.08a2.21,2.21,0,0,0,.16.35l10.92,6.3a.57.57,0,0,0,.15-.16Z" transform="translate(-7.07 -6.68)"/><path class="cls-57" d="M442,270.09a.9.9,0,0,0-.06.22l11.42,6.59q0-.12,0-.27Z" transform="translate(-7.07 -6.68)"/><path class="cls-58" d="M445.43,270l-10.38-6v2.62a4.08,4.08,0,0,0,.26,1.34l10.11,5.83Z" transform="translate(-7.07 -6.68)"/><path class="cls-59" d="M442.9,269a6.33,6.33,0,0,1-2.36-1.07c-1.22-.72-2.16-1.41-2.08-1.53a6.4,6.4,0,0,1,2.35,1.07C442,268.2,443,268.88,442.9,269Z" transform="translate(-7.07 -6.68)"/><polygon class="cls-58" points="456.12 273.64 456.46 277.65 444.35 270.66 444.37 266.85 456.12 273.64"/><path class="cls-59" d="M460.67,279.37a6.33,6.33,0,0,1-2.36-1.07,6.65,6.65,0,0,1-2.09-1.53,6.33,6.33,0,0,1,2.36,1.07A6.65,6.65,0,0,1,460.67,279.37Z" transform="translate(-7.07 -6.68)"/><path class="cls-49" d="M504.27,251.76c.22-.13.41,0,.41.24a.93.93,0,0,1-.41.72L501,254.59c-.24.14-.42,0-.43-.23a.91.91,0,0,1,.42-.72Z" transform="translate(-7.07 -6.68)"/><path class="cls-49" d="M519.25,242.83c.23-.12.42,0,.42.25a.92.92,0,0,1-.41.71L516,245.67c-.23.13-.41,0-.41-.24a.93.93,0,0,1,.41-.72Z" transform="translate(-7.07 -6.68)"/><g class="cls-60"><path class="cls-61" d="M453,245.42c.35-.27.65-.5.87-.69a87.84,87.84,0,0,0,6.41-7.19c1.72-2,3.35-4,4.52-5.24l.83-.85.82-.81,27.23,15.57-.94.94-.51.53c-1.19,1.27-2.83,3.22-4.56,5.28a87.13,87.13,0,0,1-6.29,7.06c-.28.24-.69.56-1.19.94Z" transform="translate(-7.07 -6.68)"/><path class="cls-62" d="M466.49,231.34l26.23,15,0,0-.05,0,0,0,.81.77-.86-.72-.08.09-.1.1-.08.08-.22.23,0,0h0l-.12.12-.14.15c-1.2,1.28-2.84,3.23-4.58,5.3a89.34,89.34,0,0,1-6.23,7c-.21.19-.52.43-.86.7l-26.16-15,.25-.2a89,89,0,0,0,6.47-7.25c1.72-2.05,3.34-4,4.5-5.22l.24-.24,0,0h0l0,0h0l.2-.21,0,0h0l0,0,.13-.13,0,0,0,0,0,0,.11-.11.06-.06,0,0h0l.06-.06.08-.08.07-.07,0,0v0h0m-.17-1.39-.12.11-.17.17-.1.09-.18.18-.09.09-.19.18-.08.09c-.06.06-.13.12-.19.19l-.08.08-.19.19-.07.07-.2.21-.05.06-.26.26c-2.87,3.07-8.61,10.41-10.89,12.38-.33.29-.85.7-1.51,1.19l28.24,16.14c.66-.49,1.18-.9,1.52-1.19,2.27-2,8-9.31,10.89-12.38l.25-.26.06-.06.19-.21.07-.07.2-.19.07-.08.19-.19.09-.09.18-.18.09-.09.18-.17.1-.1.18-.17.11-.11L466.32,230Z" transform="translate(-7.07 -6.68)"/></g><polygon class="cls-63" points="461.76 246.5 461.25 245.64 455.32 242.09 454.84 242.54 461.76 246.5"/><path class="cls-63" d="M468.33,252.58a.28.28,0,0,1-.18-.06c-.07-.06-6.49-5.81-12.28-7a.26.26,0,0,1-.21-.31A.27.27,0,0,1,456,245c5.93,1.18,12.27,6.84,12.53,7.08a.27.27,0,0,1,0,.38A.27.27,0,0,1,468.33,252.58Z" transform="translate(-7.07 -6.68)"/><polygon class="cls-63" points="471.88 252.17 471.38 251.31 465.44 247.76 464.96 248.21 471.88 252.17"/><path class="cls-63" d="M478.45,258.26a.31.31,0,0,1-.18-.07c-.06-.06-6.49-5.81-12.28-7a.26.26,0,0,1-.21-.31.27.27,0,0,1,.31-.21c5.94,1.18,12.27,6.84,12.54,7.09a.26.26,0,0,1,0,.37A.28.28,0,0,1,478.45,258.26Z" transform="translate(-7.07 -6.68)"/><polygon class="cls-48" points="498.12 231.28 470.05 214.97 475.06 211.93 503.3 228.12 498.12 231.28"/><polygon class="cls-11" points="495.83 226.66 471.83 212.61 476.84 209.58 501.01 223.5 495.83 226.66"/><polygon class="cls-64" points="470.05 214.97 471.83 212.61 476.84 209.58 485.67 214.66 480.6 217.75 480.7 221.16 470.05 214.97"/><polygon class="cls-65" points="486.86 224.73 486.86 221.41 492.11 218.37 501.01 223.5 503.3 228.12 498.12 231.28 486.86 224.73"/><polygon class="cls-66" points="480.6 217.75 471.83 212.61 476.84 209.58 485.67 214.66 480.6 217.75"/><polygon class="cls-67" points="495.83 226.66 486.86 221.41 492.11 218.37 501.01 223.5 495.83 226.66"/><path class="cls-9" d="M510.53,246.73s-2.2,9.19-3.12,14.11c-.6,3.2-.1,14.3-.1,14.3l.68.08-.06,3.3a1.83,1.83,0,0,0,1.54.77c.35,0,.82-3.76.82-3.76h.58l.84-11.47s2.24-10.95,3-10.8a2.87,2.87,0,0,0,1.4.2c2.18-.41,5.29-2.32,5.18-4.59-.16-2.92-2.46-3.07-2.46-3.07a39.7,39.7,0,0,0-4.46-.16C513.92,245.81,510.53,246.73,510.53,246.73Z" transform="translate(-7.07 -6.68)"/><path class="cls-9" d="M515.65,250s-.74,10.06.34,12.06c.72,1.34,5.47,6.85,5.47,6.85l.36-.06,1.25,1.28s1.76.24,1.3-1c-.12-.32-.89-1.83-.89-1.83l.21-.31-3.94-6.49,1.55-11.67-3.39-4.15Z" transform="translate(-7.07 -6.68)"/><path class="cls-9" d="M508.05,232s.92-1.69,2.31-1.69,10.43,2,11,2.63,5,8.87,5,11.64-.92,12.3-.92,12.3-1.69.3-2.16-.46-.92-10.3-.92-10.3-2.46-8.92-2.46-8.46S508.05,232,508.05,232Z" transform="translate(-7.07 -6.68)"/><path class="cls-9" d="M510.69,232l9,2.5,1.28,2.27s.77,10.76.31,12.14-5.54,2-7.38,1.69-3.39-3.84-3.39-3.84l-.94-15.34Z" transform="translate(-7.07 -6.68)"/><path class="cls-9" d="M508.05,232s-2.55,4.63-2.71,7.86a100,100,0,0,0,.58,10.25,2,2,0,0,0,1.85.16c.92-.46.61-9.07,1.07-10.15s3.39-7.84,3.39-7.84S511.13,230.16,508.05,232Z" transform="translate(-7.07 -6.68)"/><circle class="cls-7" cx="513.04" cy="227.39" r="3.61" transform="translate(-17.6 422.69) rotate(-45)"/><path class="cls-7" d="M511.84,228.5l1.23,3.71h0a2.32,2.32,0,0,0,2.59.27l.39-.21-1-4Z" transform="translate(-7.07 -6.68)"/><path class="cls-8" d="M522.94,270a8.58,8.58,0,0,1,.32,2.25c-.15.36-.69,2.1.24,2.28s1.52-.7,1.61-1.61a16.18,16.18,0,0,0-.41-3.54c0-.08-.31-.17-.31-.17Z" transform="translate(-7.07 -6.68)"/><path class="cls-8" d="M509.14,275.46c-.47-.07-.62-.14-1.15-.24-.06,1.88-.06,3.3-.06,3.3.13,1.26.52,1.15,1.57.82.33-.1.47-1.65.79-3.81A7.61,7.61,0,0,1,509.14,275.46Z" transform="translate(-7.07 -6.68)"/><path class="cls-8" d="M524.37,269.18c-.11-.31-.45-1-.89-1.83a8,8,0,0,1-.92,1.15,2.3,2.3,0,0,1-.74.39c.74.77,1.25,1.28,1.25,1.28S524.83,270.41,524.37,269.18Z" transform="translate(-7.07 -6.68)"/><path class="cls-8" d="M510.25,281c.06-.66-.45-1.32-.4-2a.61.61,0,0,0,0-.3.72.72,0,0,1-.5.17,5.56,5.56,0,0,1-1.41-.11c0,.71-1.1,1.83-1.58,2.36a6.93,6.93,0,0,0-1.35,1.66.48.48,0,0,0,0,.37c.07.14.26.17.42.18a4.25,4.25,0,0,0,2-.55A28.22,28.22,0,0,0,510.25,281Z" transform="translate(-7.07 -6.68)"/><path class="cls-7" d="M517.07,227.54c0,.77-.33,1.4-.74,1.4s-.73-.63-.73-1.4.33-1.4.73-1.4S517.07,226.77,517.07,227.54Z" transform="translate(-7.07 -6.68)"/><path class="cls-18" d="M513,223.79a3.61,3.61,0,0,0-3.36,2.29,5.34,5.34,0,0,0,2.31.51c.28,0,2.86-.35,2.75-.81a6.5,6.5,0,0,0,.63,1.6,1.24,1.24,0,0,1,1-1.16l.1,0A3.62,3.62,0,0,0,513,223.79Z" transform="translate(-7.07 -6.68)"/><circle class="cls-7" cx="517.05" cy="250.27" r="1.31"/><circle class="cls-7" cx="499.9" cy="244.34" r="1.31"/><polygon class="cls-9" points="506.78 225.42 507.31 226.72 509.06 226.95 510 225.19 508.83 223.91 508.56 223.84 508.63 224.19 506.78 225.42"/><polygon class="cls-10" points="506.56 227.14 507.4 226.88 506.78 225.42 506.56 227.14"/><polygon class="cls-9" points="506.69 226.14 504.94 225.93 504.94 224.17 505.61 224.41 506.69 226.14"/><circle class="cls-11" cx="507.76" cy="225.8" r="0.48"/><line class="cls-12" x1="505.47" y1="229.49" x2="503.83" y2="229.19"/><line class="cls-13" x1="505.47" y1="229.49" x2="504.93" y2="229.39"/><line class="cls-14" x1="504.37" y1="229.29" x2="503.83" y2="229.19"/><path class="cls-15" d="M510.43,245.08l.14,1.65s5.3,2.82,8.66,1.82c1.95-.57,2.21-1.3,2.21-1.44,0-.35.06-1.69,0-1.87a6,6,0,0,1-3.24,1.4C515.74,247,510.43,245.08,510.43,245.08Z" transform="translate(-7.07 -6.68)"/><path class="cls-15" d="M512.46,246.19l-.58-.16s1.29-10.16,4.45-13c.38-.33,1.81-1.19,2.3-1.06a5.46,5.46,0,0,1,1.24.37,5.22,5.22,0,0,0-3.11,1.69C514.77,236.16,512.46,246.19,512.46,246.19Z" transform="translate(-7.07 -6.68)"/></g><g id="Criminal"><path class="cls-68" d="M290.47,6.68l59.58,35.58-.06,116-59.58-35.57Z" transform="translate(-7.07 -6.68)"/><path class="cls-69" d="M327,89.52a5.38,5.38,0,0,1-1.53,2.7l5.21,13.13c2.64-1.56,4.53-4.7,5.25-9.15Z" transform="translate(-7.07 -6.68)"/><path class="cls-70" d="M321.69,73.64a18.85,18.85,0,0,1,5.63,12.08l8.91,6.67c0-.14,0-.26,0-.41,0-11.5-6.4-24.75-14.56-30.64Z" transform="translate(-7.07 -6.68)"/><path class="cls-71" d="M315,72.68a3.7,3.7,0,0,1,3.82-.77V59.61c-4.76-2.25-8.89-1.26-11.54,2.21Z" transform="translate(-7.07 -6.68)"/><path class="cls-72" d="M323.12,93.16a5.38,5.38,0,0,1-2.89-.87c-4-2.35-7.16-8.68-7.16-14.13a10.16,10.16,0,0,1,.41-2.91l-7.72-10.86a21.5,21.5,0,0,0-1.55,8.49c0,12.19,7.17,26.33,16,31.61,2.95,1.76,5.71,2.29,8.08,1.78Z" transform="translate(-7.07 -6.68)"/><polygon class="cls-70" points="297.01 18.93 289.55 14.48 289.55 11.49 297.01 15.94 297.01 18.93"/><polygon class="cls-71" points="297 25.74 289.55 21.29 289.55 18.3 297.01 22.75 297 25.74"/><polygon class="cls-69" points="297 32.55 289.55 28.1 289.55 25.11 297 29.56 297 32.55"/><polygon class="cls-72" points="297 39.36 289.55 34.91 289.55 31.93 297 36.37 297 39.36"/><polygon class="cls-73" points="302.05 22.46 336.77 43.16 336.77 39.8 302.06 19.1 302.05 22.46"/><polygon class="cls-73" points="302.05 32.51 336.76 53.21 336.76 49.85 302.05 29.15 302.05 32.51"/><polygon class="cls-73" points="302.05 42.55 336.76 63.25 336.76 59.9 302.05 39.2 302.05 42.55"/><polygon class="cls-73" points="302.05 37.53 336.76 58.23 336.76 54.87 302.05 34.17 302.05 37.53"/><polygon class="cls-73" points="302.05 27.48 336.76 48.18 336.77 44.83 302.05 24.13 302.05 27.48"/><polygon class="cls-73" points="291.12 115.76 289.54 114.82 289.54 86.8 291.12 87.74 291.12 115.76"/><polygon class="cls-73" points="287.46 110.82 287.46 108.65 336.76 138.04 336.76 140.21 287.46 110.82"/><polygon class="cls-70" points="299.49 105.55 295.26 103.03 295.26 113.3 299.49 115.82 299.49 105.55"/><polygon class="cls-69" points="299.49 100.42 295.26 97.9 295.26 103.03 299.49 105.55 299.49 100.42"/><polygon class="cls-70" points="307.37 105.81 303.14 103.28 303.14 118 307.37 120.52 307.37 105.81"/><polygon class="cls-69" points="307.37 102.86 303.14 100.34 303.14 103.28 307.37 105.81 307.37 102.86"/><polygon class="cls-70" points="315.25 117.75 311.03 115.23 311.03 122.7 315.25 125.22 315.25 117.75"/><polygon class="cls-69" points="315.25 112.38 311.03 109.86 311.03 115.23 315.25 117.75 315.25 112.38"/><polygon class="cls-70" points="323.14 125.64 318.91 123.12 318.91 127.4 323.13 129.92 323.14 125.64"/><polygon class="cls-69" points="323.14 121.36 318.91 118.84 318.91 123.12 323.14 125.64 323.14 121.36"/><polygon class="cls-74" points="325.76 126.44 342.92 136.69 342.97 35.57 325.81 25.32 325.76 126.44"/><path class="cls-68" d="M335.76,16l59,35.24-.06,115-59-35.25Z" transform="translate(-7.07 -6.68)"/><polygon class="cls-75" points="336.09 73.17 341.19 76.21 341.18 82.59 336.08 79.55 336.09 73.17"/><polygon class="cls-76" points="341.98 73.93 347.08 76.97 347.07 86.11 341.98 83.07 341.98 73.93"/><polygon class="cls-77" points="347.88 71.04 352.97 74.08 352.97 89.63 347.87 86.59 347.88 71.04"/><polygon class="cls-78" points="353.77 76.72 358.87 79.76 358.86 93.15 353.76 90.11 353.77 76.72"/><polygon class="cls-79" points="359.66 86.92 364.76 89.97 364.76 96.67 359.66 93.63 359.66 86.92"/><polygon class="cls-80" points="365.41 87.81 370.5 90.86 370.5 100.08 365.4 97.04 365.41 87.81"/><polygon class="cls-81" points="371.3 87.17 376.4 90.22 376.39 103.6 371.3 100.56 371.3 87.17"/><polygon class="cls-82" points="377.2 81.84 382.3 84.89 382.29 107.12 377.19 104.08 377.2 81.84"/><polygon class="cls-83" points="334.07 87.81 356.18 101.01 356.18 103.04 334.07 89.83 334.07 87.81"/><polygon class="cls-83" points="334.06 91.35 356.18 104.55 356.18 106.58 334.06 93.37 334.06 91.35"/><polygon class="cls-83" points="334.06 94.89 356.18 108.09 356.18 110.12 334.06 96.91 334.06 94.89"/><polygon class="cls-83" points="334.06 98.43 356.18 111.64 356.18 113.66 334.06 100.45 334.06 98.43"/><polygon class="cls-83" points="334.06 101.97 356.18 115.18 356.18 117.2 334.06 103.99 334.06 101.97"/><polygon class="cls-83" points="334.06 105.51 356.18 118.72 356.17 120.74 334.06 107.53 334.06 105.51"/><polygon class="cls-83" points="334.06 109.05 356.17 122.26 356.17 124.28 334.06 111.08 334.06 109.05"/><polygon class="cls-83" points="334.05 112.59 345.11 119.2 345.11 121.22 334.05 114.62 334.05 112.59"/><polygon class="cls-83" points="360.14 103.38 382.26 116.58 382.26 118.61 360.14 105.4 360.14 103.38"/><polygon class="cls-83" points="360.14 106.92 382.26 120.12 382.26 122.14 360.14 108.94 360.14 106.92"/><polygon class="cls-83" points="360.14 110.46 382.25 123.66 382.25 125.69 360.14 112.48 360.14 110.46"/><polygon class="cls-83" points="360.14 114 382.25 127.2 382.25 129.23 360.13 116.02 360.14 114"/><polygon class="cls-83" points="360.13 117.54 382.25 130.75 382.25 132.77 360.13 119.56 360.13 117.54"/><polygon class="cls-83" points="360.13 121.08 382.25 134.29 382.25 136.31 360.13 123.1 360.13 121.08"/><polygon class="cls-83" points="360.13 124.62 382.25 137.83 382.25 139.85 360.13 126.64 360.13 124.62"/><polygon class="cls-83" points="360.13 128.16 375.7 137.46 375.7 139.48 360.13 130.19 360.13 128.16"/><polygon class="cls-84" points="337.25 52.77 335.89 49.43 352.73 42.37 363.67 59.19 381.14 53.14 382.43 56.5 363.67 63.01 352.78 46.26 337.25 52.77"/><polygon class="cls-84" points="382.59 62.1 380.76 61.02 380.76 55.47 376.73 53.06 376.73 50.55 382.59 54.04 382.59 62.1"/><path class="cls-71" d="M373.11,68.6a6.3,6.3,0,0,0-2.51-5c-1.39-.82-2.52.06-2.52,2a6.25,6.25,0,0,0,2.52,5C372,71.39,373.11,70.51,373.11,68.6Z" transform="translate(-7.07 -6.68)"/><path class="cls-71" d="M362.38,52.52a6.3,6.3,0,0,0-2.51-5c-1.39-.83-2.52,0-2.52,2a6.3,6.3,0,0,0,2.51,5C361.25,55.31,362.38,54.43,362.38,52.52Z" transform="translate(-7.07 -6.68)"/><ellipse class="cls-17" cx="275.4" cy="190.08" rx="57.77" ry="30.04"/><path class="cls-7" d="M259.29,132.34a2.77,2.77,0,0,0-.3,0,3.07,3.07,0,0,1-.5-1.36c-.45-2-1.77-.81-1.77-.81l-2.57.81s1.26,4.28,3.48,5.9a2.56,2.56,0,0,0,1.66.62,2.6,2.6,0,0,0,0-5.19Z" transform="translate(-7.07 -6.68)"/><path class="cls-9" d="M271.77,92.15s-6.5-3.08-8.94,0-9.49,17.45-10.3,21.79.81,14.36,1.62,17.07,4.34,0,4.34,0,1.08-13.28,1.36-14.36,5.42-14.1,5.42-14.1a82.87,82.87,0,0,0,2.71,9c1.08,2.44-1.36,9.48-1.9,11.38s4.34,3.79,8.4,4.07,11.64-3,11.64-3,2.72-22.22-2.15-24.66S271.77,92.15,271.77,92.15Z" transform="translate(-7.07 -6.68)"/><path class="cls-8" d="M292.75,195.44c-2.06-1.36-4.21-.34-4.77-.43s-4.22-.17-4.9-4c-.08-.43-.09-4.07-.09-4.07l-3.38.43s-1.74,11.34-1.83,12.85.38,1.75,2.21,2.48,6.61-2.34,9.23-2.8S294.8,196.8,292.75,195.44Z" transform="translate(-7.07 -6.68)"/><path class="cls-8" d="M272.72,190.33c-2.05-1.37-4.21-.35-4.76-.43s-2.39,0-3.12-.51c-.27-1.17,2-6.7,2-6.7l-1.47-.2-3,1.12s-4.52,10-4.6,11.47.38,1.75,2.2,2.48,6.61-2.34,9.24-2.81S274.78,191.69,272.72,190.33Z" transform="translate(-7.07 -6.68)"/><path class="cls-7" d="M287.53,87a8.13,8.13,0,1,1-6-9.82A8.13,8.13,0,0,1,287.53,87Z" transform="translate(-7.07 -6.68)"/><path class="cls-10" d="M266.08,122.88s-1.9,7.56-1.9,9.33,4.05,19.67,5.68,24.82-8.93,26.29-8.93,27.64,1.35,3.25,3,3,14.09-23.58,15.45-28.18,2.71-26,2.71-26l4.05-9.49Z" transform="translate(-7.07 -6.68)"/><path class="cls-9" d="M264.55,129.64l9,7.33s5.29,18.16,5.83,22.5-1.62,25.5-.26,28.21,3.52,2.17,4.33,1.62,4.6-26.28,4.6-34-2-31.86-2-31.86l-20-.54Z" transform="translate(-7.07 -6.68)"/><path class="cls-7" d="M272.79,86.08l-1.22,8.73h0a5.21,5.21,0,0,0,5,3.12l1,0,2-9.17Z" transform="translate(-7.07 -6.68)"/><path class="cls-85" d="M284.27,88.68a1.7,1.7,0,0,0-2.19-1.9A2.2,2.2,0,0,0,281,88.93a6.64,6.64,0,0,0,.8,2.42,37.7,37.7,0,0,1-9,2.11l-2.29-6a8.27,8.27,0,0,1-.72-2.79,10.18,10.18,0,0,1,3.42-6.93A10.77,10.77,0,0,1,281.55,76c2.36.38,4.77,2.66,5.83,4.82C288.78,83.72,285.81,86.34,284.27,88.68Z" transform="translate(-7.07 -6.68)"/><path class="cls-85" d="M277.56,71.86A11.34,11.34,0,0,0,272,69.55c-2.63-.49-5.57-.68-7.74.87s-2.9,4.28-3.19,6.87a9.85,9.85,0,0,0,.46,5c1.12,2.62,4,4.11,6.87,4.42a10.52,10.52,0,0,0,7.46-1.86C279.18,82.29,281.06,75,277.56,71.86Z" transform="translate(-7.07 -6.68)"/><path class="cls-34" d="M279.48,77.51c-.14,3.91-2.88,8.47-6.74,9.15.11.32.14.44.19.54a8.64,8.64,0,0,0,7.45-6.83C280.65,79.08,280.19,78.61,279.48,77.51Z" transform="translate(-7.07 -6.68)"/><path class="cls-86" d="M280.25,128.09a38.38,38.38,0,0,1,4.66,6.72" transform="translate(-7.07 -6.68)"/><path class="cls-7" d="M309,103.25a3.49,3.49,0,1,1-3.49-3.49A3.48,3.48,0,0,1,309,103.25Z" transform="translate(-7.07 -6.68)"/><path class="cls-10" d="M284,99.3c-1.93-1-4.23-2.27-6.31-3.51,2.66,9.85,5,20.89,1.39,30.57a52.94,52.94,0,0,0,7.07-2.4S288.84,101.74,284,99.3Z" transform="translate(-7.07 -6.68)"/><path class="cls-9" d="M275.32,94.54,284,99.3s2.43.87,4.87,6.8,7.44,10.43,9.07,11c0,0,5-11,6.14-11.83s2.71,0,2.68.86c-.1,3.51-2.44,19.22-6,20.57s-26.67-17-26.94-21.83A33.15,33.15,0,0,1,275.32,94.54Z" transform="translate(-7.07 -6.68)"/><path class="cls-15" d="M268.08,121.14c-.46-.11-.92-.2-1.37-.34-.27.89-.5,1.63-.63,2.08-.54,1.9,4.34,3.79,8.4,4.07s11.64-3,11.64-3,.16-1.26.32-3.2C280,123.35,272.86,125,268.08,121.14Z" transform="translate(-7.07 -6.68)"/><path class="cls-87" d="M280.08,122.82a26.43,26.43,0,0,1-1,3.54,52.94,52.94,0,0,0,7.07-2.4s.16-1.26.32-3.2A42.45,42.45,0,0,1,280.08,122.82Z" transform="translate(-7.07 -6.68)"/><path class="cls-88" d="M221.18,332.58a27.24,27.24,0,0,1,11.36-2c.53-1.24,1.85-2.43,4-3.39,4.17-1.89,10.26-2.37,15.4-1.46h0c4-1.81,10.23-1.93,14.52-.39,5.94-2.28,14.81-2.16,20.38.38,5.87,2.68,5.83,7-.07,9.7a22.11,22.11,0,0,1-4.78,1.46c4.4,4.3,2.68,9.58-5.16,13.14-10,4.53-26.16,4.53-36.1,0-3.62-1.66-5.91-3.69-6.88-5.82a27.82,27.82,0,0,1-12.72-1.93C215.25,339.59,215.28,335.25,221.18,332.58Z" transform="translate(-7.07 -6.68)"/><path class="cls-89" d="M259.62,252.49l2.25-2.61a11.67,11.67,0,0,1,3.28-2.61l1.67-.91c.45-.24.2-.84-.31-.75h0a12.39,12.39,0,0,0-5.75,2.66l-1.26,1Z" transform="translate(-7.07 -6.68)"/><path class="cls-90" d="M259.59,250.15v.17h0s0-.18-.07-.27l0-.72,1.26-1a12.39,12.39,0,0,1,5.75-2.66c.51-.09.76.51.31.75l-.15.08h-.07a12.28,12.28,0,0,0-5.75,2.65Z" transform="translate(-7.07 -6.68)"/><path class="cls-89" d="M258,267.49l-2.25-2.61a11.36,11.36,0,0,0-3.28-2.61l-1.67-.91a.41.41,0,0,1,.31-.75h0a12.39,12.39,0,0,1,5.75,2.66l1.26,1Z" transform="translate(-7.07 -6.68)"/><path class="cls-90" d="M258,265.15v.16h0s0-.17.06-.26l0-.73-1.26-1a12.39,12.39,0,0,0-5.75-2.66.41.41,0,0,0-.31.75l.15.08H251a12.39,12.39,0,0,1,5.75,2.66Z" transform="translate(-7.07 -6.68)"/><path class="cls-89" d="M257.33,298.31,245.77,285l-10.19-3.55a.28.28,0,0,1,.13-.54l9.44,1.6-1.12-9.9a.1.1,0,0,1,.2,0L247,283.46l10.65,11.59Z" transform="translate(-7.07 -6.68)"/><path class="cls-90" d="M235.71,280.89l3.57.6,6.6,2.3,11.56,13.34-.11,1.18L245.77,285l-10.19-3.55A.28.28,0,0,1,235.71,280.89Z" transform="translate(-7.07 -6.68)"/><path class="cls-89" d="M260.57,290.23l11.55-13.33,10.2-3.55a.28.28,0,0,0-.14-.54l-9.43,1.6,1.12-9.9a.1.1,0,0,0-.2,0l-2.75,10.91L260.27,287Z" transform="translate(-7.07 -6.68)"/><path class="cls-90" d="M282.18,272.81l-3.56.6-6.61,2.3-11.55,13.34.11,1.18,11.55-13.33,10.2-3.55A.28.28,0,0,0,282.18,272.81Z" transform="translate(-7.07 -6.68)"/><path class="cls-89" d="M260.66,313.2l2.22-4.63a16.28,16.28,0,0,1,3.63-4.89l2-1.83a.65.65,0,0,0-.68-1.08h0a15.93,15.93,0,0,0-7,5.6l-1.38,1.95Z" transform="translate(-7.07 -6.68)"/><path class="cls-90" d="M259.82,309.58l.07.26v0s-.12-.26-.18-.39l-.29-1.11,1.38-1.95a15.93,15.93,0,0,1,7-5.6.65.65,0,0,1,.68,1.08l-.17.16-.1,0a16.08,16.08,0,0,0-7.05,5.6Z" transform="translate(-7.07 -6.68)"/><g class="cls-1"><path class="cls-89" d="M258.88,228.69a1.21,1.21,0,0,0-1.21,1.19l-2.06,110.18a2.12,2.12,0,0,0,.88,1.79,4.16,4.16,0,0,0,4.89,0,2.1,2.1,0,0,0,.89-1.81L260.1,229.88a1.21,1.21,0,0,0-1.22-1.19Z" transform="translate(-7.07 -6.68)"/></g><path class="cls-90" d="M255.61,340.06l2.06-110.18a1.21,1.21,0,0,1,1.21-1.19h0v114a4,4,0,0,1-2.42-.8A2.12,2.12,0,0,1,255.61,340.06Z" transform="translate(-7.07 -6.68)"/><path class="cls-91" d="M259.28,243.82a3.65,3.65,0,1,0,3.65-3.66A3.66,3.66,0,0,0,259.28,243.82Z" transform="translate(-7.07 -6.68)"/><path class="cls-91" d="M261,242.27a3.33,3.33,0,0,1-.09-.78,3.61,3.61,0,0,1,3.61-3.6,3.56,3.56,0,0,1,1.63.39,4.49,4.49,0,0,1,7.19-.27,3.61,3.61,0,0,1,4.52,3.16,4,4,0,0,1-2.32,7.16,3.91,3.91,0,0,1-2.49-.89,3.94,3.94,0,0,1-7,.16,3.94,3.94,0,0,1-5.45-3.66A3.89,3.89,0,0,1,261,242.27Z" transform="translate(-7.07 -6.68)"/><path class="cls-92" d="M260.68,245.53a2,2,0,0,1,1.13.35,3.66,3.66,0,0,1,2.66-1.13,3.72,3.72,0,0,1,3.45,2.37,3.74,3.74,0,0,1,1.38.29,3.72,3.72,0,0,1,5.11-.5,2.57,2.57,0,1,1,2.27,3.77,2.6,2.6,0,0,1-.92-.18,3.71,3.71,0,0,1-3.65,3,3.6,3.6,0,0,1-1.46-.3,3.7,3.7,0,0,1-6.27-1.06,3.71,3.71,0,0,1-3.46-2.61,1.75,1.75,0,0,1-.24,0,2,2,0,0,1,0-4.06Z" transform="translate(-7.07 -6.68)"/><path class="cls-16" d="M263,238.81l.24,0a2.28,2.28,0,0,1,3.21-.76,3.11,3.11,0,0,1-.07-.69,3.28,3.28,0,0,1,6.55-.32,2.3,2.3,0,1,1,.87,4.44h-.13a2.4,2.4,0,0,1,.05.46,2.3,2.3,0,0,1-4.6.2,2.23,2.23,0,0,1-.83.16,2.29,2.29,0,0,1-1.53-.59,2.34,2.34,0,0,1-1.55.59,2.26,2.26,0,0,1-1.41-.49,1.58,1.58,0,0,1-.8.22,1.62,1.62,0,1,1,0-3.23Z" transform="translate(-7.07 -6.68)"/><circle class="cls-91" cx="234.95" cy="246.62" r="3.12"/><path class="cls-91" d="M240.35,252a3.51,3.51,0,0,1-.07-.66,3.08,3.08,0,0,1,3.08-3.08,3,3,0,0,1,1.4.34,3.82,3.82,0,0,1,6.13-.23,3,3,0,0,1,.79-.11,3.08,3.08,0,0,1,3.07,2.8,3.38,3.38,0,1,1-4.11,5.36,3.37,3.37,0,0,1-5.95.13,3.38,3.38,0,0,1-4.65-3.12A3.4,3.4,0,0,1,240.35,252Z" transform="translate(-7.07 -6.68)"/><path class="cls-92" d="M240.1,254.77a1.73,1.73,0,0,1,1,.29,3.16,3.16,0,0,1,5.22,1.06,3.32,3.32,0,0,1,1.18.25,3.16,3.16,0,0,1,4.36-.43,2.2,2.2,0,0,1,4.14,1,2.2,2.2,0,0,1-2.2,2.2A2.31,2.31,0,0,1,253,259a3.17,3.17,0,0,1-3.11,2.59,3.29,3.29,0,0,1-1.25-.26,3.16,3.16,0,0,1-5.35-.91,3.16,3.16,0,0,1-2.95-2.22l-.21,0a1.73,1.73,0,1,1,0-3.46Z" transform="translate(-7.07 -6.68)"/><path class="cls-16" d="M242,249l.21,0a2,2,0,0,1,2.74-.65,2.8,2.8,0,1,1,5.53-.86,2,2,0,0,1,.74-.14,2,2,0,1,1,0,3.93h-.1a2.45,2.45,0,0,1,0,.39,2,2,0,0,1-3.93.17,2.08,2.08,0,0,1-.71.13,2,2,0,0,1-1.31-.5,2,2,0,0,1-1.31.51,2,2,0,0,1-1.21-.42,1.48,1.48,0,0,1-.69.18,1.38,1.38,0,0,1,0-2.76Z" transform="translate(-7.07 -6.68)"/><path class="cls-91" d="M263.17,290.55a5,5,0,0,1-.1-1,4.48,4.48,0,0,1,4.47-4.48,4.36,4.36,0,0,1,2,.5,5.56,5.56,0,0,1,8.91-.34,4.37,4.37,0,0,1,1.15-.16,4.48,4.48,0,0,1,4.2,2.94,3.39,3.39,0,0,1,4.75.49,3.47,3.47,0,0,1,1.33-.27,3.4,3.4,0,0,1,1.26,6.55v.08a3.4,3.4,0,0,1-6.39,1.6,4.89,4.89,0,0,1-6.66.47,4.9,4.9,0,0,1-8.65.19,4.77,4.77,0,0,1-1.85.37,4.91,4.91,0,0,1-4.45-7Z" transform="translate(-7.07 -6.68)"/><path class="cls-91" d="M261.07,292.47a4.53,4.53,0,1,0,4.53-4.53A4.52,4.52,0,0,0,261.07,292.47Z" transform="translate(-7.07 -6.68)"/><path class="cls-92" d="M262.81,294.6a2.48,2.48,0,0,1,1.4.42,4.59,4.59,0,0,1,7.57,1.54,4.44,4.44,0,0,1,1.71.37,4.58,4.58,0,0,1,6.33-.62,3.19,3.19,0,1,1,2.82,4.66,3.08,3.08,0,0,1-1.14-.21,4.6,4.6,0,0,1-4.52,3.75,4.54,4.54,0,0,1-1.81-.37,4.59,4.59,0,0,1-7.77-1.32,4.62,4.62,0,0,1-4.3-3.23,2.58,2.58,0,0,1-.29,0,2.51,2.51,0,0,1,0-5Z" transform="translate(-7.07 -6.68)"/><path class="cls-16" d="M265.63,286.25l.3,0a2.84,2.84,0,0,1,2.45-1.39,2.77,2.77,0,0,1,1.53.45,4,4,0,0,1-.09-.85,4.07,4.07,0,0,1,3.14-4,3.18,3.18,0,0,1,6.15.08,3.31,3.31,0,0,1,.83-.1,3.44,3.44,0,0,1,3.45,3.45.66.66,0,0,1,0,.14,3.19,3.19,0,1,1-2.78,5,2.86,2.86,0,0,1-1.58.48h-.15a3.68,3.68,0,0,1,.05.58,2.86,2.86,0,0,1-5.7.24,2.9,2.9,0,0,1-1,.19,2.79,2.79,0,0,1-1.9-.73,2.84,2.84,0,0,1-3.67.13,2,2,0,0,1-3-1.73A2,2,0,0,1,265.63,286.25Z" transform="translate(-7.07 -6.68)"/><path class="cls-91" d="M267,260.28a4.53,4.53,0,0,1,.05-1.1,5.09,5.09,0,0,1,5.83-4.22,5,5,0,0,1,2.2.92,6.33,6.33,0,0,1,10.08,1.23,5.41,5.41,0,0,1,1.33,0,5.11,5.11,0,0,1,4.27,5.39,5.59,5.59,0,1,1-8.12,7.67,5.58,5.58,0,0,1-9.76-1.34,5.72,5.72,0,0,1-2.15.08,5.59,5.59,0,0,1-4.63-6.41A5.5,5.5,0,0,1,267,260.28Z" transform="translate(-7.07 -6.68)"/><path class="cls-92" d="M269.87,263.47a4.64,4.64,0,0,1,3.54,2.77,3,3,0,0,1,1.5-.16,3,3,0,0,1,2.2,1.66,3.51,3.51,0,0,1,1.74-.16,3.46,3.46,0,0,1,2.18,1.27,5.53,5.53,0,0,1,4.12-1,5.34,5.34,0,0,1,1.9.69,3.5,3.5,0,1,1,2.75,5.08c0,.19,0,.39-.06.59a5.54,5.54,0,0,1-10.89.27,3.44,3.44,0,0,1-1.11,0,3.51,3.51,0,0,1-2.84-2.59,2.64,2.64,0,0,1-.93,0,3,3,0,0,1-1.46-.68,4.65,4.65,0,1,1-2.64-7.78Z" transform="translate(-7.07 -6.68)"/><path class="cls-16" d="M272.58,253.61a3.83,3.83,0,0,1,1.6.68,3.88,3.88,0,0,1,6.06-.66,3.87,3.87,0,0,1,5.9,3.06,3.67,3.67,0,0,1,2.23-.33,3.74,3.74,0,1,1-3.48,6.06,2.6,2.6,0,0,1-1.86.41,2.54,2.54,0,0,1-1.29-.61,4.44,4.44,0,0,1-8.38-1.44,3.74,3.74,0,1,1-.78-7.17Z" transform="translate(-7.07 -6.68)"/><path class="cls-91" d="M226,269.87a5.1,5.1,0,0,1,6.38-4.47,6.35,6.35,0,0,1,10.16.38,5.09,5.09,0,0,1,6.84,2.23,5.13,5.13,0,0,1,7,4.75,5.13,5.13,0,0,1-5.13,5.13,5,5,0,0,1-2.25-.53,5.56,5.56,0,0,1-6.4,1.59,5.58,5.58,0,0,1-9.84-.22,5.6,5.6,0,0,1-9.11-4.35A5.54,5.54,0,0,1,226,269.87Z" transform="translate(-7.07 -6.68)"/><path class="cls-16" d="M245.28,263.93a3.6,3.6,0,0,0-1.7.43,3.88,3.88,0,0,0-5.87-1.62,3.87,3.87,0,0,0-6.31,2.09,3.74,3.74,0,1,0,.33,5.85,2.59,2.59,0,0,0,1.76.71,2.53,2.53,0,0,0,1.37-.4,4.44,4.44,0,0,0,8.5-.1,3.74,3.74,0,1,0,1.92-7Z" transform="translate(-7.07 -6.68)"/><path class="cls-92" d="M221.77,277.48a3.51,3.51,0,0,1,6.85-1.08,5.4,5.4,0,0,1,2-.37,5.5,5.5,0,0,1,3.91,1.61,3.5,3.5,0,0,1,4.05-.47,2.94,2.94,0,0,1,2.44-1.29,2.87,2.87,0,0,1,1.45.4,4.64,4.64,0,0,1,8.23.7,3.82,3.82,0,0,1,1.69-.39,3.91,3.91,0,1,1-3.32,6,4.65,4.65,0,0,1-6.51-1.19,2.89,2.89,0,0,1-1.54.45,3.06,3.06,0,0,1-.92-.16,3.49,3.49,0,0,1-4.31,1.92,5.54,5.54,0,0,1-10.71-2,5.68,5.68,0,0,1,0-.59A3.5,3.5,0,0,1,221.77,277.48Z" transform="translate(-7.07 -6.68)"/><ellipse class="cls-88" cx="326.52" cy="340.68" rx="12.85" ry="22.19" transform="translate(-22.16 659.55) rotate(-89.84)"/><ellipse class="cls-88" cx="314.74" cy="334.31" rx="8.01" ry="13.83" transform="matrix(0, -1, 1, 0, -27.53, 641.41)"/><ellipse class="cls-88" cx="341.8" cy="335.72" rx="5.67" ry="9.79" transform="translate(-1.96 669.88) rotate(-89.84)"/><path class="cls-88" d="M325.86,334.83c8.89,5.13,8.93,13.45.1,18.58s-23.18,5.13-32.07,0-8.93-13.45-.1-18.58S317,329.7,325.86,334.83Z" transform="translate(-7.07 -6.68)"/><ellipse class="cls-88" cx="317.62" cy="348.74" rx="5.67" ry="9.79" transform="translate(-39.09 658.69) rotate(-89.84)"/><path class="cls-90" d="M325,293.32a55.85,55.85,0,0,0-4.73-3.48,10.41,10.41,0,0,1-2-1.12,10.17,10.17,0,0,1-1.73-1.62,13.84,13.84,0,0,1-2.41-4.3,18.69,18.69,0,0,1-1.07-5v0a.3.3,0,0,0-.32-.28.3.3,0,0,0-.28.29,20,20,0,0,0,.49,5.33,15.24,15.24,0,0,0,2.08,5,34.85,34.85,0,0,0-6.73-1.39l-1.21-.14c-.39-.07-.78-.13-1.15-.23a11.1,11.1,0,0,1-2.18-.78,10.71,10.71,0,0,1-1.93-1.3,10.29,10.29,0,0,1-1.59-1.76,13.44,13.44,0,0,1-2-4.48,18.66,18.66,0,0,1-.65-5h0a.31.31,0,0,0-.61,0,20.39,20.39,0,0,0,0,5.35,15.53,15.53,0,0,0,1.67,5.23,12,12,0,0,0,3.84,4.21,13.74,13.74,0,0,0,2.59,1.32c.46.17.92.31,1.38.45l1.36.33a29.76,29.76,0,0,1,13,6.56c.6.53,1.18,1.08,1.73,1.65.27.29.55.57.79.86l.37.44a1.46,1.46,0,0,1,.16.21,1.1,1.1,0,0,1,.13.17,2.85,2.85,0,0,0,1.28,1.33v-7.36A4,4,0,0,1,325,293.32Z" transform="translate(-7.07 -6.68)"/><path class="cls-89" d="M324.65,297.86l-.16-.21c-.12-.14-.24-.29-.37-.43-.24-.29-.52-.58-.79-.87-.55-.56-1.13-1.11-1.73-1.64a27.68,27.68,0,0,0-3.91-2.87,29.68,29.68,0,0,0-9.07-3.7l-1.36-.32c-.46-.14-.92-.28-1.37-.45a13.53,13.53,0,0,1-2.6-1.32,12.77,12.77,0,0,1-2.19-1.89,12.28,12.28,0,0,1-1.64-2.33,15.34,15.34,0,0,1-1.68-5.22c-.08-.58-.12-1.16-.16-1.74s-.09-1.22-.08-1.83h0a.31.31,0,0,0-.61,0,20.39,20.39,0,0,0,0,5.35,15.53,15.53,0,0,0,1.67,5.23,12,12,0,0,0,3.84,4.21,13.74,13.74,0,0,0,2.59,1.32c.46.17.92.31,1.38.45l1.36.33a29.76,29.76,0,0,1,13,6.56c.6.53,1.18,1.08,1.73,1.65.27.29.55.57.79.86l.37.44a1.46,1.46,0,0,1,.16.21,1.1,1.1,0,0,1,.13.17,2.85,2.85,0,0,0,1.28,1.33v-2.36a2.46,2.46,0,0,1-.47-.7Z" transform="translate(-7.07 -6.68)"/><path class="cls-90" d="M355,289.21a.31.31,0,0,0-.31-.27.31.31,0,0,0-.3.31v0a18.59,18.59,0,0,1-.65,5,13.49,13.49,0,0,1-2,4.49,10.29,10.29,0,0,1-1.59,1.76,10.15,10.15,0,0,1-1.93,1.29,10.52,10.52,0,0,1-2.18.79c-.37.09-.76.16-1.15.23l-1,.12c.09-.13.18-.25.26-.38a11.86,11.86,0,0,0,1.72-5.44,15.22,15.22,0,0,0-.68-5.44,20,20,0,0,0-2.21-4.87.3.3,0,0,0-.53.29v0a19.28,19.28,0,0,1,1.53,4.85,13.79,13.79,0,0,1,0,4.92,10.15,10.15,0,0,1-.7,2.27,10.49,10.49,0,0,1-1.21,2,11,11,0,0,1-1.64,1.63c-.31.25-.63.47-.95.69l-.54.33a32,32,0,0,0-5.92,2.08,32.66,32.66,0,0,0-4.88,2.76c-.42.27-.82.56-1.22.86a3.17,3.17,0,0,1-.21.41v7.36a2.8,2.8,0,0,0,1.28-1.33l.13-.17.16-.21c.12-.14.24-.29.37-.43.25-.29.52-.58.79-.86.55-.57,1.13-1.12,1.73-1.65a28.48,28.48,0,0,1,3.91-2.87,29.79,29.79,0,0,1,9.07-3.7l1.36-.32c.46-.14.92-.28,1.38-.45a13.74,13.74,0,0,0,2.59-1.32,12.77,12.77,0,0,0,2.19-1.89,12.15,12.15,0,0,0,1.65-2.33,15.54,15.54,0,0,0,1.67-5.22A20.39,20.39,0,0,0,355,289.21Z" transform="translate(-7.07 -6.68)"/><path class="cls-89" d="M327,315.13l.17-.22.37-.43c.24-.29.52-.57.78-.86q.84-.86,1.74-1.65A28.48,28.48,0,0,1,334,309.1a29.42,29.42,0,0,1,9.07-3.69l1.36-.33c.46-.14.92-.28,1.37-.45a13.16,13.16,0,0,0,2.59-1.32,12.47,12.47,0,0,0,2.2-1.89,11.68,11.68,0,0,0,1.64-2.33,15.11,15.11,0,0,0,1.67-5.22c0-.21.05-.41.07-.62-.07.36-.15.71-.25,1.06a13.49,13.49,0,0,1-2,4.49,10.29,10.29,0,0,1-1.59,1.76,10.15,10.15,0,0,1-1.93,1.29,10.52,10.52,0,0,1-2.18.79c-.37.09-.76.16-1.15.23l-1,.12-1.15-.11a23,23,0,0,0,1.58-3.6,11.7,11.7,0,0,0,.51-2.8,15.22,15.22,0,0,0-.67-5.44,20.75,20.75,0,0,0-1.73-4.05.23.23,0,0,0,0,.16v0a19.28,19.28,0,0,1,1.53,4.85,13.79,13.79,0,0,1,0,4.92,10.15,10.15,0,0,1-.7,2.27,10.49,10.49,0,0,1-1.21,2,11,11,0,0,1-1.64,1.63c-.31.25-.63.47-.95.69l-.54.33a32,32,0,0,0-5.92,2.08,32.66,32.66,0,0,0-4.88,2.76c-.42.27-.82.56-1.22.86a3.17,3.17,0,0,1-.21.41v5.78a3.14,3.14,0,0,0,.25-.44Z" transform="translate(-7.07 -6.68)"/><g class="cls-1"><path class="cls-89" d="M327.22,252.55l1.34,89.22a1.33,1.33,0,0,1-.82,1.21,5.13,5.13,0,0,1-4.58,0,1.33,1.33,0,0,1-.84-1.22l1.45-89.22Z" transform="translate(-7.07 -6.68)"/></g><path class="cls-90" d="M328.56,341.77l-1.34-89.22h-1.75v91a4.62,4.62,0,0,0,2.27-.54A1.33,1.33,0,0,0,328.56,341.77Z" transform="translate(-7.07 -6.68)"/><path class="cls-16" d="M325.81,271c0-1.85-2.14-3.35-4.79-3.35a5.59,5.59,0,0,0-3.89,1.4c-2.08-2.46-9.52-4.28-18.37-4.28a46.63,46.63,0,0,0-14.13,1.9,6.17,6.17,0,0,0-3.06-.77c-2.65,0-4.79,1.5-4.79,3.35a2.53,2.53,0,0,0,.46,1.42c-2,.8-3.28,2.18-3.28,3.74s1.17,2.8,3,3.62a2.7,2.7,0,0,0-.84,1.9c0,1.85,2.15,3.35,4.79,3.35a6,6,0,0,0,3.35-1,9.28,9.28,0,0,0,4,1.33,2.39,2.39,0,0,0,0,1c.47,1.79,2.93,2.7,5.49,2,2.15-.57,3.68-2.07,3.84-3.6a11,11,0,0,0,2.83-.4,6.2,6.2,0,0,0,10.79-2.25A6.19,6.19,0,0,0,322,276.3a6.08,6.08,0,0,0-.22-1.61,2.25,2.25,0,0,0,.09-.35C324.1,274.07,325.81,272.69,325.81,271Z" transform="translate(-7.07 -6.68)"/><path class="cls-91" d="M319.29,274.16a6.17,6.17,0,0,1-4.56-2,6.2,6.2,0,0,1-10.79,2.25,11.44,11.44,0,0,1-2.83.4c-.15,1.53-1.69,3-3.84,3.6-2.56.67-5-.24-5.49-2a2.39,2.39,0,0,1,0-1,9.28,9.28,0,0,1-4-1.33,6,6,0,0,1-3.35,1c-2.64,0-4.79-1.5-4.79-3.35a2.67,2.67,0,0,1,.85-1.9,5.2,5.2,0,0,1-2.72-2.44,2.77,2.77,0,0,0-1,2,2.53,2.53,0,0,0,.46,1.42c-2,.8-3.28,2.18-3.28,3.74s1.17,2.8,3,3.62a2.7,2.7,0,0,0-.84,1.9c0,1.85,2.15,3.35,4.79,3.35a6,6,0,0,0,3.35-1,9.28,9.28,0,0,0,4,1.33,2.39,2.39,0,0,0,0,1c.47,1.79,2.93,2.7,5.49,2,2.15-.57,3.68-2.07,3.84-3.6a11,11,0,0,0,2.83-.4,6.2,6.2,0,0,0,10.79-2.25A6.19,6.19,0,0,0,322,276.3a6.08,6.08,0,0,0-.22-1.61,2.25,2.25,0,0,0,.09-.35c2.26-.27,4-1.65,4-3.3a2.56,2.56,0,0,0-.53-1.53A6.17,6.17,0,0,1,319.29,274.16Z" transform="translate(-7.07 -6.68)"/><path class="cls-16" d="M376.25,285.25a4.49,4.49,0,0,0-4.48-4.48,4.4,4.4,0,0,0-2.83,1c-1.53-1.58-5.51-2.76-10.39-3a46.76,46.76,0,0,0-6.76-.48c-11.1,0-20.1,3.65-20.1,8.14a3.48,3.48,0,0,0,.29,1.37,4.46,4.46,0,0,0,4.19,6l.26,0a6.26,6.26,0,0,0,10.19,2.89,4.48,4.48,0,0,0,8.07-1.38,6,6,0,0,0,8.22-1.44,5.31,5.31,0,0,0,9.57-3.15,5.39,5.39,0,0,0-.11-1.07A4.47,4.47,0,0,0,376.25,285.25Z" transform="translate(-7.07 -6.68)"/><path class="cls-91" d="M374.63,281.81a4.55,4.55,0,0,1-2.26,1,5.3,5.3,0,0,1-9.46,4.21,5.94,5.94,0,0,1-4.84,2.5,5.87,5.87,0,0,1-3.38-1.06,4.48,4.48,0,0,1-8.07,1.38,6.22,6.22,0,0,1-4.18,1.61,6.28,6.28,0,0,1-6-4.49h-.26a4.48,4.48,0,0,1-3.95-2.37,3.74,3.74,0,0,0-.53,1.85,3.48,3.48,0,0,0,.29,1.37,4.46,4.46,0,0,0,4.19,6l.26,0a6.26,6.26,0,0,0,10.19,2.89,4.48,4.48,0,0,0,8.07-1.38,6,6,0,0,0,8.22-1.44,5.31,5.31,0,0,0,9.57-3.15,5.39,5.39,0,0,0-.11-1.07,4.47,4.47,0,0,0,2.26-7.87Z" transform="translate(-7.07 -6.68)"/><path class="cls-91" d="M359.9,259.81a5,5,0,0,0-1.93-3.92,5,5,0,0,0-7.57-6.25,9.24,9.24,0,0,0-9.13-7.93,9.36,9.36,0,0,0-2.38.32,11.5,11.5,0,0,0-18.42.69,9.21,9.21,0,0,0-12.41,4,9.29,9.29,0,0,0-3.47-.68h-.2a5,5,0,0,0-8.44,3.58,5,5,0,0,0,.29,1.65l-.15.31a5,5,0,0,0,1.3,9.78h.12a9.27,9.27,0,0,0,7.08,3.28l.4,0a5,5,0,0,0,8.71,2.3,9.87,9.87,0,0,0,6.58-.36A10.11,10.11,0,0,0,334.75,270a5,5,0,0,0,6.71-2,10.31,10.31,0,0,0,3.06.48,10.47,10.47,0,0,0,2.92-.43,5,5,0,0,0,7.7-3.25A5,5,0,0,0,359.9,259.81Z" transform="translate(-7.07 -6.68)"/><path class="cls-16" d="M354.39,245.32a5.32,5.32,0,0,0,.11-1.07,5,5,0,0,0-7.77-4.12,6.68,6.68,0,0,0-6.14.86,7,7,0,0,0-11.45-3.78,7,7,0,0,0-8.36,0,4.91,4.91,0,0,0-2.8-.86,5,5,0,0,0-4.26,2.41,5,5,0,0,0-7.88.29,5,5,0,1,0,.65,9,5,5,0,0,0,3.2,1.74,6.73,6.73,0,0,0,9.2,2.17,8.05,8.05,0,0,0,15.41.18,4.65,4.65,0,0,0,5.69-.56,6.74,6.74,0,0,0,4.5,1.73,6.81,6.81,0,0,0,3.32-.86,5,5,0,1,0,6.58-7.15Z" transform="translate(-7.07 -6.68)"/><path class="cls-5" d="M308.4,300.45c-1.14-.78-.9-1.31-1-2.55a4.12,4.12,0,0,0-.81-2.09c-1.36-1.59-3.92-.68-4.55,0a4.92,4.92,0,0,0-1.12,1.95c-.34,1.2-.18,1.76-1.42,2.36-.43.21-.89.55-.89,1s.3.7.29,1.08c0,.68-.91,1-1.19,1.62-.21.48,0,1-.06,1.57a4.63,4.63,0,0,1-.51,1.32,1.51,1.51,0,0,0-.07,1.37,1.62,1.62,0,0,0,1.64.5,3.16,3.16,0,0,1,1.78,0c.44.21.73.67,1.17.88a1.76,1.76,0,0,0,1.75-.3.63.63,0,0,0,.12-.11,1.6,1.6,0,0,0,1.39.3c.47-.14.82-.55,1.28-.7s.66-1,1.24-.8,1.19-4.61,1.29-5.29c.05-.37.39-.65.44-1S308.79,300.72,308.4,300.45Z" transform="translate(-7.07 -6.68)"/><circle class="cls-6" cx="298.2" cy="291.97" r="2.55"/><path class="cls-7" d="M295.86,324.26s.36-6.44.2-6.74,2.1-7,2.53-8.5a4.92,4.92,0,0,1,.23-.6l.46.17a3.73,3.73,0,0,1,1,.42,2.61,2.61,0,0,1,.95,1.39,4.18,4.18,0,0,1,.2,1.11c-.91,1.31-2.33,3.39-2.52,4.44a72.84,72.84,0,0,1-1.93,8.59C296.67,325.25,295.86,324.26,295.86,324.26Z" transform="translate(-7.07 -6.68)"/><path class="cls-7" d="M319.53,310.81c.22,0-1.18.69-3.68,2-2.05,1-3.51,1.39-4.59,1s-4.58-8.17-4.58-8.17l.07-2.07a2.79,2.79,0,0,1,2.51,1.14c1,1.36,3.08,7.08,3.08,7.08l6-1.26Z" transform="translate(-7.07 -6.68)"/><path class="cls-8" d="M303.53,341.65a6,6,0,0,0-.47,1.84c0,.68.27.86.27.86a14.57,14.57,0,0,0,1.74.43c.38,0,1,.62,1.92.69s2.07.33,2.19-.38c.08-.44-1-.85-2.36-1.74a7.35,7.35,0,0,1-1.5-1.44Z" transform="translate(-7.07 -6.68)"/><path class="cls-8" d="M297.94,343.54s.08.65.65.61a1.88,1.88,0,0,0,1.07-.64l-.14,2.29s-.32,3.44-1.32,3.79c-.72.26-1-.64-1.16-1.17a1.47,1.47,0,0,1,0-.66Z" transform="translate(-7.07 -6.68)"/><path class="cls-8" d="M299.85,331.65s.57-8.81.38-9.47-.38-4.26-.38-4.26l8-2.94,1,1s-.05,7.82.14,9-3.62,16.89-3.62,16.89a1,1,0,0,1-1,.65c-.8,0-.75-.62-.75-.62s1.25-11.33,1.25-11.9-.1-7.48-.1-7.48-1.13,5.68-1.51,8.14-3.51,12.81-3.51,12.81-.21,1-.93,1.07-.86-.68-.86-.68Z" transform="translate(-7.07 -6.68)"/><path class="cls-9" d="M309,326.69l-2.58,12-2.84,0,.77-7.13.28-8.38-1.53,8.72-2.72,9.76-2.45-.45,1.6-10.15s.4-13.62.4-14.19.51.09.51.09l7.83-1.43,1,2.16Z" transform="translate(-7.07 -6.68)"/><path class="cls-8" d="M303.78,341.69l1.54.22a7.35,7.35,0,0,0,1.5,1.44c.32.21.61.39.89.55a.27.27,0,0,1,0,.09c0,.2-.27.27-.47.29a7.11,7.11,0,0,1-2.85-.63,1.37,1.37,0,0,1-.64-.37,1.08,1.08,0,0,1-.22-.65A1.28,1.28,0,0,1,303.78,341.69Z" transform="translate(-7.07 -6.68)"/><path class="cls-8" d="M299.22,345.18a11.13,11.13,0,0,1-.43,1.35c-.07.16-.16.35-.34.39a.42.42,0,0,1-.41-.17,1.28,1.28,0,0,1-.25-.72,7.33,7.33,0,0,1,.09-2.29,1.06,1.06,0,0,1,.54-.85,1.14,1.14,0,0,1,.86.22.77.77,0,0,1,.35.29c.08.16,0,.32-.05.49Z" transform="translate(-7.07 -6.68)"/><path class="cls-9" d="M303.46,304a11.76,11.76,0,0,1,4-.32,2.34,2.34,0,0,1,1.83,1.61,27.29,27.29,0,0,1,.45,2.76c0,1.77-1.71,3.87-1.71,3.87l1.49,5.59s-6.53,2.5-8.13,1.7-1.85-1.82-1.79-2.29c0-.28,1.12-3.64,1.11-3.93l-.87-4.84a3.11,3.11,0,0,1,1.28-2.42Z" transform="translate(-7.07 -6.68)"/><path class="cls-7" d="M320.27,310.55a1.16,1.16,0,1,1-1.16-1.16A1.16,1.16,0,0,1,320.27,310.55Z" transform="translate(-7.07 -6.68)"/><path class="cls-7" d="M297.81,324.9a1.16,1.16,0,1,1-1.16-1.16A1.16,1.16,0,0,1,297.81,324.9Z" transform="translate(-7.07 -6.68)"/><path class="cls-9" d="M298.69,308.72c0,.1-.07.2-.1.3C298.62,308.92,298.66,308.82,298.69,308.72Z" transform="translate(-7.07 -6.68)"/><path class="cls-9" d="M300.54,312.77a2.18,2.18,0,0,0-1-1.16,3.36,3.36,0,0,0-1-.34c-.15,0-.56,0-.72,0,0,.1,1-2.9.95-2.8a5.58,5.58,0,0,1,2.9-3.1c1.21-.48,4.13,1.11,4.13,1.11.31.75-3.66,4-3.66,4s-.34.45-.8,1.11C301.37,311.13,300.54,312.77,300.54,312.77Z" transform="translate(-7.07 -6.68)"/><path class="cls-9" d="M295.94,324.35l-.08-.09Z" transform="translate(-7.07 -6.68)"/><path class="cls-9" d="M306.75,303.49a2.79,2.79,0,0,1,2.51,1.14,5.52,5.52,0,0,1,.55,1c.63,1.4,1.53,3.84,1.53,3.84l-2.22,1.1-.1-.2c-1.19-2.25-2.34-4.79-2.34-4.79Z" transform="translate(-7.07 -6.68)"/><path class="cls-7" d="M304.38,304s-1.15.32-1.26.59.75-.26,1.66.41a8.42,8.42,0,0,1,1.7,1.9,2.58,2.58,0,0,0,.82-2.28C307.27,302.83,304.38,304,304.38,304Z" transform="translate(-7.07 -6.68)"/><path class="cls-7" d="M307.47,301.44l-1.07,3.22h0a2,2,0,0,1-2.24.23h0a.5.5,0,0,1-.25-.56l.8-3.12Z" transform="translate(-7.07 -6.68)"/><polygon class="cls-9" points="298.79 298.03 298.29 299.25 296.65 299.47 295.77 297.81 296.87 296.62 297.12 296.55 297.06 296.87 298.79 298.03"/><polygon class="cls-10" points="299 299.64 298.21 299.4 298.79 298.03 299 299.64"/><polygon class="cls-9" points="299.36 300.67 301.04 298.4 299.85 296.39 299.67 296.94 299.36 300.67"/><circle class="cls-11" cx="297.87" cy="298.39" r="0.45"/><line class="cls-12" x1="300.23" y1="301.37" x2="301.77" y2="301.08"/><line class="cls-13" x1="300.23" y1="301.37" x2="300.73" y2="301.28"/><line class="cls-14" x1="301.26" y1="301.18" x2="301.77" y2="301.08"/><path class="cls-15" d="M309.09,316l.38,1.45s-5,2.63-8.13,1.7c-1.83-.54-1.85-1.82-1.79-2.29a2.67,2.67,0,0,1,.17-.62,3.76,3.76,0,0,0,2.59,1.12C304.61,317.69,309.09,316,309.09,316Z" transform="translate(-7.07 -6.68)"/><path class="cls-15" d="M307.7,317l.53-.16s-2.55-7.92-5.53-10.56c-.35-.32-1.73-.82-2.1-.52a2.55,2.55,0,0,0-.44.48,4.88,4.88,0,0,1,2.92,1.59C304.94,309.76,307.7,317,307.7,317Z" transform="translate(-7.07 -6.68)"/><path class="cls-7" d="M309.27,299.94a3.13,3.13,0,1,1-3.13-3.14A3.13,3.13,0,0,1,309.27,299.94Z" transform="translate(-7.07 -6.68)"/><path class="cls-5" d="M308.66,299.38a.61.61,0,0,0,.44-.47,3.13,3.13,0,0,0-6.09,1,2.83,2.83,0,0,0,0,.41,1,1,0,0,0,.42,0c.31-.07,1-.33.79-.71.11.18.12.45,0,1.17C305.39,299,307.48,299.84,308.66,299.38Z" transform="translate(-7.07 -6.68)"/><path class="cls-7" d="M304.35,300a1,1,0,1,1-1-1A1,1,0,0,1,304.35,300Z" transform="translate(-7.07 -6.68)"/><path class="cls-9" d="M238.43,309.85s2.08,8.62,2.94,13.24c.56,3,.09,13.42.09,13.42l-.63.07,0,3.1a1.72,1.72,0,0,1-1.45.72c-.32,0-.77-3.53-.77-3.53h-.54l-.79-10.76s-2.1-10.28-2.82-10.13a2.76,2.76,0,0,1-1.32.18c-2-.39-5-2.18-4.85-4.3.14-2.75,2.3-2.89,2.3-2.89a35.49,35.49,0,0,1,4.19-.14C235.26,309,238.43,309.85,238.43,309.85Z" transform="translate(-7.07 -6.68)"/><path class="cls-9" d="M233.63,313s.7,9.44-.31,11.32c-.68,1.25-5.14,6.43-5.14,6.43l-.34-.06-1.17,1.21s-1.65.21-1.22-.94c.11-.3.84-1.71.84-1.71l-.2-.29,3.7-6.1-1.45-10.94,3.17-3.9Z" transform="translate(-7.07 -6.68)"/><path class="cls-9" d="M240.76,296s-.86-1.58-2.16-1.58-9.79,1.88-10.36,2.46-4.66,8.33-4.66,10.93.86,11.54.86,11.54,1.59.29,2-.44.87-9.66.87-9.66,2.3-8.37,2.3-7.94S240.76,296,240.76,296Z" transform="translate(-7.07 -6.68)"/><path class="cls-9" d="M238.29,296l-8.47,2.34-1.2,2.13s-.72,10.1-.28,11.4,5.19,1.87,6.92,1.58,3.17-3.6,3.17-3.6l.89-14.4Z" transform="translate(-7.07 -6.68)"/><path class="cls-9" d="M240.76,296s2.4,4.35,2.55,7.38a93.57,93.57,0,0,1-.55,9.62,1.84,1.84,0,0,1-1.73.14c-.86-.43-.58-8.51-1-9.52s-3.17-7.36-3.17-7.36S237.88,294.29,240.76,296Z" transform="translate(-7.07 -6.68)"/><circle class="cls-7" cx="236.09" cy="291.7" r="3.38" transform="translate(-144.19 245.69) rotate(-45)"/><path class="cls-7" d="M237.21,292.74l-1.16,3.48h0a2.17,2.17,0,0,1-2.42.25l-.37-.2,1-3.78Z" transform="translate(-7.07 -6.68)"/><path class="cls-8" d="M226.79,331.67a8.14,8.14,0,0,0-.3,2.12c.15.34.65,2-.22,2.13s-1.43-.65-1.52-1.51a16,16,0,0,1,.39-3.32c0-.08.29-.16.29-.16Z" transform="translate(-7.07 -6.68)"/><path class="cls-8" d="M239.75,336.81c.44-.07.58-.13,1.08-.23,0,1.77,0,3.1,0,3.1-.12,1.18-.49,1.08-1.47.77-.31-.1-.45-1.55-.75-3.58A6,6,0,0,0,239.75,336.81Z" transform="translate(-7.07 -6.68)"/><path class="cls-8" d="M225.45,330.91c.11-.29.42-.92.84-1.71a7.11,7.11,0,0,0,.86,1.07,2.33,2.33,0,0,0,.69.37c-.69.73-1.17,1.21-1.17,1.21S225,332.06,225.45,330.91Z" transform="translate(-7.07 -6.68)"/><path class="cls-8" d="M238.7,342c0-.62.43-1.24.38-1.86a.54.54,0,0,1,0-.28.72.72,0,0,0,.47.16,5.4,5.4,0,0,0,1.33-.11c0,.67,1,1.73,1.49,2.22a6.4,6.4,0,0,1,1.25,1.55.4.4,0,0,1,0,.35c-.06.13-.24.17-.39.17a3.94,3.94,0,0,1-1.89-.51A26.61,26.61,0,0,1,238.7,342Z" transform="translate(-7.07 -6.68)"/><path class="cls-7" d="M232.3,291.83c0,.73.31,1.32.69,1.32s.69-.59.69-1.32-.31-1.31-.69-1.31S232.3,291.11,232.3,291.83Z" transform="translate(-7.07 -6.68)"/><path class="cls-18" d="M236.09,288.31a3.38,3.38,0,0,1,3.14,2.15,4.68,4.68,0,0,1-2.16.48c-.27,0-2.68-.33-2.58-.75a5.88,5.88,0,0,1-.6,1.5,1.14,1.14,0,0,0-.91-1.09l-.08,0A3.38,3.38,0,0,1,236.09,288.31Z" transform="translate(-7.07 -6.68)"/><circle class="cls-7" cx="218.61" cy="312.76" r="1.23"/><circle class="cls-7" cx="234.7" cy="307.19" r="1.23"/><polygon class="cls-9" points="228.24 289.44 227.74 290.65 226.1 290.88 225.23 289.22 226.32 288.02 226.57 287.95 226.51 288.28 228.24 289.44"/><polygon class="cls-10" points="228.45 291.05 227.66 290.81 228.24 289.44 228.45 291.05"/><polygon class="cls-9" points="228.33 290.11 229.97 289.92 229.97 288.26 229.34 288.49 228.33 290.11"/><circle class="cls-11" cx="227.32" cy="289.79" r="0.45"/><line class="cls-12" x1="229.47" y1="293.26" x2="231.01" y2="292.97"/><line class="cls-13" x1="229.47" y1="293.26" x2="229.98" y2="293.16"/><line class="cls-14" x1="230.5" y1="293.06" x2="231.01" y2="292.97"/><path class="cls-15" d="M238.53,308.3l-.12,1.55s-5,2.64-8.14,1.71c-1.83-.55-2.07-1.23-2.07-1.36,0-.33,0-1.59,0-1.76a5.62,5.62,0,0,0,3,1.32C233.55,310.08,238.53,308.3,238.53,308.3Z" transform="translate(-7.07 -6.68)"/><path class="cls-15" d="M236.63,309.34l.54-.15S236,299.65,233,297c-.35-.31-1.7-1.12-2.15-1a4.8,4.8,0,0,0-1.16.34A4.88,4.88,0,0,1,232.6,298C234.46,299.93,236.63,309.34,236.63,309.34Z" transform="translate(-7.07 -6.68)"/></g></g></svg>