<svg xmlns="http://www.w3.org/2000/svg" xmlns:xlink="http://www.w3.org/1999/xlink" viewBox="0 0 500.14 367.83"><defs><style>.cls-1,.cls-23{fill:none;}.cls-2{isolation:isolate;}.cls-3{fill:#efefef;}.cls-4{fill:#848383;}.cls-22,.cls-5{fill:#d0cfd0;}.cls-6{fill:#d9d9d9;mix-blend-mode:multiply;}.cls-7{fill:#303b45;}.cls-8{fill:#353430;}.cls-9{fill:#5b5b5a;}.cls-10{fill:#f6bbc6;}.cls-11{fill:#ebebeb;}.cls-12{fill:#a9a9a9;}.cls-13{fill:#dfe5ee;}.cls-14{fill:#9ea6b0;}.cls-15,.cls-72{fill:#36a9e1;}.cls-16{fill:#fbc01f;}.cls-17{fill:#4294ce;}.cls-18{fill:#fff;}.cls-19{fill:#8d8d8e;}.cls-20{fill:#ef7967;}.cls-21,.cls-69,.cls-73{fill:#eaeaea;}.cls-22{stroke:#eaeaea;}.cls-22,.cls-23,.cls-73{stroke-miterlimit:10;}.cls-22,.cls-73{stroke-width:4px;}.cls-23{stroke:#5b5b5a;stroke-width:3px;}.cls-24{clip-path:url(#clip-path);}.cls-25{fill:#464545;}.cls-26{fill:#444443;}.cls-27{fill:#414142;}.cls-28{fill:#40403f;}.cls-29{fill:#3e3e3d;}.cls-30{fill:#3d3d3b;}.cls-31{fill:#3b3a3a;}.cls-32{fill:#393938;}.cls-33{fill:#383736;}.cls-34{fill:#353535;}.cls-35{fill:#343433;}.cls-36{fill:#333332;}.cls-37{fill:#313131;}.cls-38{fill:#2e2f2f;}.cls-39{fill:#2d2e2d;}.cls-40{fill:#2f2f2e;}.cls-41{clip-path:url(#clip-path-2);}.cls-42{clip-path:url(#clip-path-3);}.cls-43{fill:#a2bfbf;}.cls-44{fill:#9ebab9;}.cls-45{fill:#9bb6b4;}.cls-46{fill:#95b1af;}.cls-47{fill:#91acab;}.cls-48{fill:#8da7a7;}.cls-49{fill:#89a3a1;}.cls-50{fill:#879f9d;}.cls-51{fill:#819998;}.cls-52{fill:#7d9494;}.cls-53{fill:#4b4b4a;}.cls-54{clip-path:url(#clip-path-4);}.cls-55{clip-path:url(#clip-path-5);}.cls-56{fill:#6a7d7b;}.cls-57{fill:#6d8180;}.cls-58{fill:#b0cecc;}.cls-59,.cls-70{fill:#009fe3;}.cls-60{clip-path:url(#clip-path-6);}.cls-61{fill:#6d8280;}.cls-62{fill:#728686;}.cls-63{fill:#758b89;}.cls-64{fill:#7a8f8f;}.cls-65{fill:#b3b7b7;}.cls-66,.cls-71{fill:#261c35;}.cls-67{fill:#434342;}.cls-68{fill:#dce0e0;}.cls-69,.cls-70,.cls-71,.cls-72{fill-rule:evenodd;}.cls-73{stroke:#d0cfd0;}</style><clipPath id="clip-path" transform="translate(-3.55 -11.7)"><path class="cls-1" d="M320.41,160.74l2-1.19a.59.59,0,0,1-.26-.45l-2.05,1.19A.59.59,0,0,0,320.41,160.74Z"/></clipPath><clipPath id="clip-path-2" transform="translate(-3.55 -11.7)"><path class="cls-1" d="M322.39,120.13l-2.05,1.2s-.08.08-.08.17l2.05-1.2A.19.19,0,0,1,322.39,120.13Z"/></clipPath><clipPath id="clip-path-3" transform="translate(-3.55 -11.7)"><path class="cls-1" d="M322.39,120.13l-2.05,1.2a.17.17,0,0,1,.18,0l2.05-1.19A.2.2,0,0,0,322.39,120.13Z"/></clipPath><clipPath id="clip-path-4" transform="translate(-3.55 -11.7)"><path class="cls-1" d="M376.81,193.21l2.05-1.19a.19.19,0,0,1-.19,0l-2.05,1.19A.19.19,0,0,0,376.81,193.21Z"/></clipPath><clipPath id="clip-path-5" transform="translate(-3.55 -11.7)"><path class="cls-1" d="M376.81,193.21l2.05-1.19a.21.21,0,0,0,.07-.17L376.88,193A.2.2,0,0,1,376.81,193.21Z"/></clipPath><clipPath id="clip-path-6" transform="translate(-3.55 -11.7)"><path class="cls-1" d="M377,154.25l2.05-1.19a.58.58,0,0,0-.26-.46l-2,1.2A.55.55,0,0,1,377,154.25Z"/></clipPath></defs><title>G05_06</title><g class="cls-2"><g id="Livello_1" data-name="Livello 1"><polygon class="cls-3" points="202.85 363.06 202.85 367.74 105.02 312.79 105.02 308.1 202.85 363.06"/><polygon class="cls-4" points="294.15 311.01 294.15 315.7 203 367.83 202.85 367.74 202.85 363.06 203 363.15 294.15 311.01"/><polygon class="cls-5" points="202.85 363.06 105.02 308.1 105.02 307.84 196.95 256.65 294.15 311.01 203 363.15 202.85 363.06"/><ellipse class="cls-6" cx="201.22" cy="309.36" rx="59.55" ry="30.97"/><path class="cls-7" d="M207.72,309a14.8,14.8,0,0,0-1.14,4.5,2.93,2.93,0,0,0,.88,2.27,36.9,36.9,0,0,0,4,.88c.93.05,4,2.48,6.2,2.63s5.06.83,5.37-.93-10.95-8.73-10.95-8.73Z" transform="translate(-3.55 -11.7)"/><path class="cls-8" d="M220.54,216.07l2.35,2.64s6.15,22.27,6,24.16-2.64,2.26-4.15,1.69S219,230.22,219,230.22Z" transform="translate(-3.55 -11.7)"/><path class="cls-7" d="M208.2,303.68l-.46,6.06s-.13,1.43,1.82,1.53a2.56,2.56,0,0,0,2.55-1.61l1.37-9Z" transform="translate(-3.55 -11.7)"/><path class="cls-7" d="M195,309.11l-1.14,5.43s.36,1.93,2.11,1.66,2.28-2.63,2.28-2.63l1-5.78Z" transform="translate(-3.55 -11.7)"/><path class="cls-7" d="M194.06,313.66s.18,1.58,1.58,1.49a4.57,4.57,0,0,0,2.63-1.58l-.35,5.61s-.79,8.42-3.25,9.29-2.92-2.57-3-3.77A24.69,24.69,0,0,1,194.06,313.66Z" transform="translate(-3.55 -11.7)"/><path class="cls-9" d="M198.73,251s.46,8.81.93,10.43-.93,23.17-.93,23.17-4.39,23.48-4.15,24.87,4.17.7,5.09-.69,6.24-20.48,7.17-26.5,3.71-19.93,3.71-19.93.23,16.92.23,18.31-2.89,25.61-2.89,25.61.11.74,2.45,1.09a2.86,2.86,0,0,0,2.66-1.06c1.38-2.26,1.72-6.18,1.72-6.18L221,268.34l.87-23.19-3.65-1.37Z" transform="translate(-3.55 -11.7)"/><path class="cls-9" d="M207.55,216.79s7.7-2.48,10.85-1.7a5.7,5.7,0,0,1,4.47,3.95c.27,1.05-1.05,26.55-1.05,26.55S208.15,256.9,202.37,254c-4.18-2.09-4.52-4.45-4.38-5.6a13.45,13.45,0,0,0,.12-2.1L201,219.46Z" transform="translate(-3.55 -11.7)"/><path class="cls-8" d="M220.48,235.94l-15.95,3.19-3.33-16.87-.36-.87-3.47,2.38.74,22.53a13.45,13.45,0,0,1-.12,2.1c-.12,1,.11,2.77,2.62,4.56,5.3-2.73,16-8.6,20.24-13C223.3,237.49,220.48,235.94,220.48,235.94Z" transform="translate(-3.55 -11.7)"/><path class="cls-8" d="M222.75,243.71s-1.53-3.41-.15-5h0c1.37-1.58,2.89-2.72,5.15-.75,0,0,4.44,6.32,3.06,7.9h0C229.44,247.44,225,245.67,222.75,243.71Z" transform="translate(-3.55 -11.7)"/><path class="cls-10" d="M231.94,244a2.84,2.84,0,1,1-2.84-2.83A2.84,2.84,0,0,1,231.94,244Z" transform="translate(-3.55 -11.7)"/><path class="cls-11" d="M221.71,248.2l-.12,3.76s-14.69,6.28-20.42,4.59c-3.32-1-3.35-3.31-3.25-4.16.06-.52,0-3.24.05-3.55,0,0,1.32,3.94,5,4.44C207.13,253.86,221.71,248.2,221.71,248.2Z" transform="translate(-3.55 -11.7)"/><path class="cls-11" d="M203.63,253.77l1-.19s21.6-29.17,15.08-36.19c-.81-.87-2.32-2.23-2.62-2.11a10,10,0,0,0-2.14.87s.89-.29,3.33,2.33C223,223.52,203.63,253.77,203.63,253.77Z" transform="translate(-3.55 -11.7)"/><path class="cls-9" d="M203,229.39s-.14-9.14-2-9.93c0,0-4.17.89-5.49,3.78s-1,5.47-2.21,9.93c-.82,3-2.76,9.6-2.37,12.09s3,3.82,9.2,1.32S221.71,238,221.71,238l-.13-2.76-20.14,3Z" transform="translate(-3.55 -11.7)"/><path class="cls-10" d="M226.4,236.26a2.84,2.84,0,1,1-2.84-2.83A2.83,2.83,0,0,1,226.4,236.26Z" transform="translate(-3.55 -11.7)"/><path class="cls-10" d="M228.12,238.8l-2-3.12a.8.8,0,0,0-1.34.87l2,3.12a.81.81,0,0,0,1.11.23A.8.8,0,0,0,228.12,238.8Z" transform="translate(-3.55 -11.7)"/><path class="cls-12" d="M198.29,254.48a3.62,3.62,0,0,1-.37-2.09c.06-.52,0-3.24.05-3.55a7.53,7.53,0,0,0,3.16,3.84Z" transform="translate(-3.55 -11.7)"/><polygon class="cls-12" points="202.33 238.44 206.75 230.83 209.28 229.84 204.37 237.36 202.33 238.44"/><polygon class="cls-13" points="237.28 221.2 223.17 230.29 218.48 235.03 233.19 226.47 237.28 221.2"/><polygon class="cls-14" points="237.28 221.2 237.52 221.51 233.48 226.88 218.74 235.37 218.48 235.03 233.19 226.47 237.28 221.2"/><polygon class="cls-15" points="236.29 222.04 223.77 229.97 219.41 234.33 232.96 226.39 236.29 222.04"/><rect class="cls-16" x="204.82" y="228.57" width="4.55" height="2.14" transform="translate(-42.23 30.28) rotate(-10.59)"/><rect class="cls-17" x="204.85" y="228.85" width="1.5" height="2.14" transform="translate(-42.33 30.03) rotate(-10.6)"/><rect class="cls-18" x="207.85" y="228.29" width="1.5" height="2.14" transform="translate(-42.17 30.58) rotate(-10.6)"/><path class="cls-19" d="M209.81,216.77s-1.66.61-1.92,1.26.91,1.34,3.32,2.71a13.24,13.24,0,0,0,2.34,1,7.2,7.2,0,0,0,1.44-3.29C215.15,214.22,209.81,216.77,209.81,216.77Z" transform="translate(-3.55 -11.7)"/><path class="cls-10" d="M222.94,211.06a7.66,7.66,0,1,1-4.74-9.75A7.66,7.66,0,0,1,222.94,211.06Z" transform="translate(-3.55 -11.7)"/><path class="cls-10" d="M217.37,210.62l-2.61,7.89h0a4.93,4.93,0,0,1-5.5.57h0a1.22,1.22,0,0,1-.6-1.37l1.94-7.65Z" transform="translate(-3.55 -11.7)"/><path class="cls-20" d="M222.17,208.9a2,2,0,0,0,1.15-.31l0,0a7.66,7.66,0,0,0-14.91-2.49,8.32,8.32,0,0,0-.26,1,2.76,2.76,0,0,0,1,.3c.78.07,3.36-1,3.12-2,.12.52.23,1,.35,1.56a1.85,1.85,0,0,0,1.12-1.36A11.37,11.37,0,0,0,222.17,208.9Z" transform="translate(-3.55 -11.7)"/><path class="cls-10" d="M211.47,207.37a2.33,2.33,0,1,1-1.45-3A2.34,2.34,0,0,1,211.47,207.37Z" transform="translate(-3.55 -11.7)"/><polygon class="cls-9" points="208.51 206.66 207.37 209.41 204.3 209.69 202.66 206.66 205.02 204.09 205.64 203.92 205.47 204.62 208.51 206.66"/><polygon class="cls-8" points="209.97 210.16 207.45 209.16 208.51 206.66 209.97 210.16"/><circle class="cls-21" cx="206.83" cy="207.3" r="0.82"/><polygon class="cls-8" points="211.4 206.23 209.97 210.16 212.03 208.02 211.4 206.23"/><circle class="cls-22" cx="72.87" cy="161.74" r="70.87"/><rect class="cls-18" x="20.9" y="137.87" width="68.25" height="41" rx="10.04" ry="10.04"/><polygon class="cls-18" points="32.98 189.12 39.98 175.12 55.03 175.12 32.98 189.12"/><line class="cls-23" x1="70.15" y1="147.95" x2="79.98" y2="147.95"/><line class="cls-23" x1="43.98" y1="147.95" x2="66.82" y2="147.95"/><line class="cls-23" x1="29.98" y1="147.95" x2="39.98" y2="147.95"/><line class="cls-23" x1="74.32" y1="154.95" x2="79.98" y2="154.95"/><line class="cls-23" x1="49.98" y1="154.95" x2="70.15" y2="154.95"/><line class="cls-23" x1="29.98" y1="154.95" x2="46.15" y2="154.95"/><line class="cls-23" x1="70.82" y1="160.95" x2="79.98" y2="160.95"/><line class="cls-23" x1="49.98" y1="160.95" x2="66.82" y2="160.95"/><line class="cls-23" x1="29.98" y1="160.95" x2="45.65" y2="160.95"/><line class="cls-23" x1="29.98" y1="166.95" x2="49.98" y2="166.95"/><path class="cls-21" d="M102.9,210.57H73.5a12.06,12.06,0,0,1-12-12V177.61a12.06,12.06,0,0,1,12-12h48.16a12.05,12.05,0,0,1,12,12v20.92a12.05,12.05,0,0,1-12,12h-3.93l2.44,9.2Z" transform="translate(-3.55 -11.7)"/><path class="cls-5" d="M121.66,167.57a10,10,0,0,1,10,10v20.92a10,10,0,0,1-10,10H114.5l5.12,10.25-16.14-10.25h-30a10,10,0,0,1-10-10V177.61a10,10,0,0,1,10-10h48.17m0-4H73.49a14.06,14.06,0,0,0-14,14v20.92a14.06,14.06,0,0,0,14,14h28.83l15.16,9.63L123.2,217,121,212.57h.69a14.06,14.06,0,0,0,14-14V177.61a14.06,14.06,0,0,0-14-14Z" transform="translate(-3.55 -11.7)"/><line class="cls-23" x1="78.82" y1="164.95" x2="68.98" y2="164.95"/><line class="cls-23" x1="108.98" y1="164.95" x2="83.15" y2="164.95"/><line class="cls-23" x1="118.98" y1="164.95" x2="111.98" y2="164.95"/><line class="cls-23" x1="74.65" y1="171.95" x2="68.98" y2="171.95"/><line class="cls-23" x1="95.98" y1="171.95" x2="78.82" y2="171.95"/><line class="cls-23" x1="118.98" y1="171.95" x2="99.82" y2="171.95"/><line class="cls-23" x1="78.15" y1="177.95" x2="68.98" y2="177.95"/><line class="cls-23" x1="101.98" y1="177.95" x2="82.15" y2="177.95"/><line class="cls-23" x1="118.98" y1="177.95" x2="106.32" y2="177.95"/><line class="cls-23" x1="88.98" y1="183.95" x2="68.98" y2="183.95"/><g id="paper"><circle class="cls-22" cx="324.47" cy="161.74" r="70.87"/><g class="cls-2"><g class="cls-24"><g class="cls-2"><path class="cls-25" d="M320.41,160.74l2-1.19a.27.27,0,0,1-.08-.07l-2.05,1.19a.27.27,0,0,0,.08.07" transform="translate(-3.55 -11.7)"/><path class="cls-26" d="M320.33,160.67l2.05-1.19,0,0-2.05,1.19,0,0" transform="translate(-3.55 -11.7)"/><path class="cls-27" d="M320.3,160.64l2.05-1.19,0,0-2.05,1.19,0,0" transform="translate(-3.55 -11.7)"/><path class="cls-28" d="M320.28,160.62l2.05-1.19,0,0-2.05,1.19,0,0" transform="translate(-3.55 -11.7)"/><path class="cls-29" d="M320.26,160.59l2.05-1.19,0,0-2.05,1.19,0,0" transform="translate(-3.55 -11.7)"/><path class="cls-30" d="M320.24,160.57l2.05-1.19v0l-2,1.19v0" transform="translate(-3.55 -11.7)"/><path class="cls-31" d="M320.23,160.55l2-1.19v0l-2,1.2v0" transform="translate(-3.55 -11.7)"/><path class="cls-32" d="M320.22,160.53l2-1.2v0l-2.05,1.19v0" transform="translate(-3.55 -11.7)"/><path class="cls-33" d="M320.21,160.5l2.05-1.19v0l-2.06,1.19,0,0" transform="translate(-3.55 -11.7)"/><path class="cls-34" d="M320.19,160.48l2.06-1.19v0l-2.05,1.19v0" transform="translate(-3.55 -11.7)"/><path class="cls-35" d="M320.19,160.46l2.05-1.19v0l-2.05,1.19v0" transform="translate(-3.55 -11.7)"/><path class="cls-36" d="M320.18,160.43l2.05-1.19v0l-2.05,1.2v0" transform="translate(-3.55 -11.7)"/><path class="cls-37" d="M320.17,160.41l2.05-1.2v0l-2,1.2v0" transform="translate(-3.55 -11.7)"/><path class="cls-38" d="M320.16,160.38l2-1.2v0l-2.06,1.19v0" transform="translate(-3.55 -11.7)"/><path class="cls-39" d="M320.15,160.34l2.06-1.19a.09.09,0,0,1,0-.05l-2.05,1.19v.05" transform="translate(-3.55 -11.7)"/></g></g></g><polygon class="cls-40" points="316.6 148.59 318.65 147.4 318.76 108.6 316.71 109.8 316.6 148.59"/><g class="cls-2"><g class="cls-41"><g class="cls-2"><path class="cls-39" d="M320.26,121.5l2.05-1.2a.19.19,0,0,1,.08-.17l-2.05,1.2s-.08.08-.08.17" transform="translate(-3.55 -11.7)"/></g></g></g><g class="cls-2"><g class="cls-42"><g class="cls-2"><path class="cls-43" d="M320.52,121.34l2.05-1.19,0,0-2.05,1.2h0" transform="translate(-3.55 -11.7)"/><path class="cls-44" d="M320.49,121.33l2.05-1.2h0l-2.05,1.2h0" transform="translate(-3.55 -11.7)"/><path class="cls-45" d="M320.46,121.32l2.05-1.2h0l-2.05,1.19h0" transform="translate(-3.55 -11.7)"/><path class="cls-46" d="M320.43,121.31l2.05-1.19h0l-2.06,1.19h0" transform="translate(-3.55 -11.7)"/><path class="cls-47" d="M320.41,121.31l2.06-1.19h0l-2.05,1.19h0" transform="translate(-3.55 -11.7)"/><path class="cls-48" d="M320.4,121.31l2.05-1.19h0l-2.05,1.19h0" transform="translate(-3.55 -11.7)"/><path class="cls-49" d="M320.38,121.31l2.05-1.19h0l-2.05,1.19h0" transform="translate(-3.55 -11.7)"/><path class="cls-50" d="M320.37,121.31l2.05-1.19h0l-2,1.19h0" transform="translate(-3.55 -11.7)"/><path class="cls-51" d="M320.35,121.32l2-1.19h0l-2.05,1.2h0" transform="translate(-3.55 -11.7)"/><polyline class="cls-52" points="316.79 109.62 318.84 108.43 318.84 108.43 316.79 109.63 316.79 109.63"/></g></g></g><polygon class="cls-53" points="373.07 181.49 375.12 180.3 318.91 147.85 316.86 149.04 373.07 181.49"/><g class="cls-2"><g class="cls-54"><g class="cls-2"><polyline class="cls-34" points="373.25 181.51 375.31 180.32 375.3 180.32 373.25 181.51 373.25 181.51"/><path class="cls-33" d="M376.8,193.21l2.06-1.19h0l-2,1.19h0" transform="translate(-3.55 -11.7)"/><path class="cls-32" d="M376.79,193.22l2-1.19h0l-2.05,1.19h0" transform="translate(-3.55 -11.7)"/><path class="cls-31" d="M376.78,193.22l2.05-1.19h0l-2.05,1.2h0" transform="translate(-3.55 -11.7)"/><path class="cls-30" d="M376.76,193.23l2.05-1.2h0l-2.05,1.19h0" transform="translate(-3.55 -11.7)"/><path class="cls-29" d="M376.75,193.23,378.8,192h0l-2,1.19h0" transform="translate(-3.55 -11.7)"/><path class="cls-28" d="M376.73,193.23l2-1.19h0l-2.05,1.2h0" transform="translate(-3.55 -11.7)"/><path class="cls-27" d="M376.71,193.23l2.05-1.2h0l-2.05,1.19h0" transform="translate(-3.55 -11.7)"/><path class="cls-26" d="M376.69,193.22l2.05-1.19h0l-2,1.19h0" transform="translate(-3.55 -11.7)"/><path class="cls-25" d="M376.66,193.21l2-1.19,0,0-2.05,1.19,0,0" transform="translate(-3.55 -11.7)"/></g></g></g><g class="cls-2"><g class="cls-55"><g class="cls-2"><path class="cls-56" d="M376.81,193.21l2.05-1.19a.21.21,0,0,0,.07-.17L376.88,193a.2.2,0,0,1-.07.17" transform="translate(-3.55 -11.7)"/></g></g></g><polygon class="cls-57" points="373.33 181.34 375.38 180.15 375.49 141.36 373.44 142.55 373.33 181.34"/><polygon class="cls-58" points="373.18 142.09 375.23 140.9 319.02 108.45 316.97 109.64 373.18 142.09"/><path class="cls-59" d="M320.52,121.34c-.14-.08-.26,0-.26.16l-.11,38.79a.59.59,0,0,0,.26.45l56.21,32.45c.14.09.26,0,.26-.15l.11-38.79a.55.55,0,0,0-.26-.45Z" transform="translate(-3.55 -11.7)"/><g class="cls-2"><g class="cls-60"><g class="cls-2"><path class="cls-56" d="M377,154.25l2.05-1.19V153L377,154.2v.05" transform="translate(-3.55 -11.7)"/><path class="cls-61" d="M377,154.2,379,153v0l-2,1.19v0" transform="translate(-3.55 -11.7)"/><path class="cls-62" d="M377,154.16l2-1.19v0l-2,1.19v0" transform="translate(-3.55 -11.7)"/><path class="cls-63" d="M377,154.13l2-1.19v0l-2,1.19v0" transform="translate(-3.55 -11.7)"/><path class="cls-64" d="M377,154.1l2-1.19v0L377,154.08v0" transform="translate(-3.55 -11.7)"/><path class="cls-52" d="M377,154.08l2.05-1.19v0l-2.05,1.2v0" transform="translate(-3.55 -11.7)"/><path class="cls-51" d="M377,154.06l2.05-1.2v0L376.94,154v0" transform="translate(-3.55 -11.7)"/><path class="cls-50" d="M376.94,154l2.05-1.19v0L376.93,154v0" transform="translate(-3.55 -11.7)"/><path class="cls-49" d="M376.93,154l2.05-1.19,0,0-2,1.19,0,0" transform="translate(-3.55 -11.7)"/><path class="cls-48" d="M376.91,154l2-1.19v0L376.9,154v0" transform="translate(-3.55 -11.7)"/><path class="cls-47" d="M376.9,154l2.05-1.2v0l-2.05,1.19v0" transform="translate(-3.55 -11.7)"/><path class="cls-46" d="M376.89,153.94l2.05-1.19,0,0-2.05,1.19,0,0" transform="translate(-3.55 -11.7)"/><path class="cls-45" d="M376.87,153.92l2.05-1.19,0,0-2,1.19,0,0" transform="translate(-3.55 -11.7)"/><path class="cls-44" d="M376.85,153.89l2-1.19,0,0-2.05,1.19,0,0" transform="translate(-3.55 -11.7)"/><path class="cls-43" d="M376.82,153.86l2.05-1.19-.09-.07-2,1.2.09.06" transform="translate(-3.55 -11.7)"/></g></g></g><path class="cls-65" d="M382.1,154.26v-.07s0-.05,0-.08,0-.17,0-.26a.69.69,0,0,1,0-.13l0-.06s0-.11,0-.17a.83.83,0,0,0,0-.15l0-.09a1,1,0,0,0,0-.14l0-.11-.06-.16a.76.76,0,0,0,0-.11s0,0,0,0l-.12-.3v-.06a2.56,2.56,0,0,1-.11-.24.56.56,0,0,1-.05-.08l0-.1-.05-.1-.11-.21a.1.1,0,0,0,0-.05v0c-.05-.1-.11-.19-.17-.29l0,0-.06-.1a1.3,1.3,0,0,1-.1-.15l-.07-.09-.09-.12-.07-.09a.76.76,0,0,1-.08-.11,1,1,0,0,1-.13-.16l-.06-.06-.07-.08L380,150l-.07-.08,0,0a4.45,4.45,0,0,0-.47-.41l-.09-.07a4.3,4.3,0,0,0-.52-.35l-56.21-32.46a4.11,4.11,0,0,0-.42-.21l-.05,0-.08,0-.24-.08-.07,0h-.08l-.13,0-.09,0h-.25a.85.85,0,0,0-.16,0H321l-.2,0h-.09l-.1,0a.32.32,0,0,0-.09,0l-.05,0h0l-.17.08h0l-2.05,1.19h0l.22-.1.05,0,.19-.06h.06a2,2,0,0,1,.24,0h.37l.18,0,.13,0,.15,0,.24.08.13.06a2.74,2.74,0,0,1,.42.21l56.21,32.45a4.3,4.3,0,0,1,.52.35l.09.07a4.45,4.45,0,0,1,.47.41l.11.11.23.24.13.15.13.16.15.19.09.13a2.49,2.49,0,0,1,.17.24l.06.09a3.24,3.24,0,0,1,.21.35l0,.05.16.31.05.1c0,.11.11.21.15.32l0,.05a2.39,2.39,0,0,1,.15.37.36.36,0,0,1,0,.11l.09.26a1,1,0,0,1,0,.14,2.17,2.17,0,0,1,.07.24c0,.06,0,.12,0,.17a1.06,1.06,0,0,0,0,.19c0,.09,0,.18,0,.27s0,.09,0,.14a5.85,5.85,0,0,1,0,.59L380,194.83a2.34,2.34,0,0,1-1,2.15l2.05-1.19a2.34,2.34,0,0,0,1-2.15l.11-38.79A5.85,5.85,0,0,0,382.1,154.26Z" transform="translate(-3.55 -11.7)"/><path class="cls-66" d="M376.74,150.24a7.41,7.41,0,0,1,3.35,5.8L380,194.83c0,2.13-1.52,3-3.37,1.92L320.4,164.3a7.38,7.38,0,0,1-3.34-5.8l.11-38.79c0-2.13,1.51-3,3.36-1.92Zm-56.59,10a.59.59,0,0,0,.26.45l56.21,32.45c.14.09.26,0,.26-.15l.11-38.79a.55.55,0,0,0-.26-.45l-56.21-32.46c-.14-.08-.26,0-.26.16l-.11,38.79" transform="translate(-3.55 -11.7)"/><polygon class="cls-38" points="367.25 183.33 367.24 185.7 317.59 157.03 317.6 154.66 367.25 183.33"/><polygon class="cls-67" points="368.69 182.49 368.68 184.86 367.24 185.7 367.25 183.33 368.69 182.49"/><polygon class="cls-53" points="368.69 182.49 367.25 183.33 317.6 154.66 319.04 153.82 368.69 182.49"/><path class="cls-68" d="M374.89,195.72l-2.65-1.53-1.44.84-49.65-28.67,1.44-.83-3.8-2.2a7.5,7.5,0,0,0-6.81,0l-33.43,19.43c-1.87,1.09-1.85,2.85,0,3.94l56.09,32.39a7.5,7.5,0,0,0,6.81,0l33.43-19.43C376.78,198.57,376.77,196.81,374.89,195.72Z" transform="translate(-3.55 -11.7)"/><path class="cls-65" d="M297.35,176.73l18.57-10.8a2.42,2.42,0,0,1,.92-.28l.34,0a3.08,3.08,0,0,1,.68.08l.16,0,.3.11.14.07L370,195.69c.61.36.69.91.24,1.31a1.34,1.34,0,0,1-.23.16L351.44,208a2.53,2.53,0,0,1-.93.28h-.17a2.67,2.67,0,0,1-.85-.07l-.16,0a2.08,2.08,0,0,1-.43-.19L297.35,178.2a.9.9,0,0,1-.52-.74.66.66,0,0,1,.12-.39L297,177A1.19,1.19,0,0,1,297.35,176.73Z" transform="translate(-3.55 -11.7)"/><path class="cls-53" d="M306.25,182l.07,0,3-1.74a.18.18,0,0,0,0-.33l-2.81-1.62a.65.65,0,0,0-.56,0l-3,1.74a.18.18,0,0,0,0,.33l2.8,1.61a.35.35,0,0,0,.13,0l.15,0a.72.72,0,0,0,.22,0" transform="translate(-3.55 -11.7)"/><path class="cls-53" d="M310.6,184.59l.14-.05,3-1.74a.3.3,0,0,0,.11-.12.14.14,0,0,0,0-.09l0,0a.3.3,0,0,0-.08-.08l-2.81-1.62a.65.65,0,0,0-.56,0l-3,1.74c-.14.08-.16.2-.06.29l.05,0,2.8,1.62.13,0a.59.59,0,0,0,.23,0h.07" transform="translate(-3.55 -11.7)"/><path class="cls-53" d="M314.59,187.1a.65.65,0,0,0,.56,0l3-1.74c.16-.09.17-.24,0-.33l-2.81-1.61a.61.61,0,0,0-.56,0l-3,1.74c-.16.09-.17.24,0,.33l2.8,1.62" transform="translate(-3.55 -11.7)"/><path class="cls-53" d="M357,193.46c.16-.09.16-.24,0-.32l-2.8-1.62a.59.59,0,0,0-.56,0l-2.42,1.4c-.16.1-.17.24,0,.33l2.8,1.62a.65.65,0,0,0,.56,0l2.42-1.41" transform="translate(-3.55 -11.7)"/><path class="cls-53" d="M358.09,194.08l-2.42,1.4c-.16.1-.16.24,0,.33l2.81,1.62a.62.62,0,0,0,.56,0l2.42-1.41c.15-.09.16-.23,0-.32l-2.8-1.62a.61.61,0,0,0-.57,0" transform="translate(-3.55 -11.7)"/><path class="cls-53" d="M339.63,188.22a.18.18,0,0,0,0-.33l-2.8-1.62a.62.62,0,0,0-.56,0l-2.42,1.41c-.16.09-.17.24,0,.32l2.8,1.62a.61.61,0,0,0,.56,0l2.42-1.41" transform="translate(-3.55 -11.7)"/><path class="cls-53" d="M340.7,188.83l-2.43,1.41c-.15.09-.16.24,0,.33l2.81,1.61a.61.61,0,0,0,.56,0l2.42-1.41a.18.18,0,0,0,0-.33l-2.8-1.62a.65.65,0,0,0-.56,0" transform="translate(-3.55 -11.7)"/><path class="cls-53" d="M335.21,185.67c.16-.1.17-.24,0-.33l-2.81-1.62a.62.62,0,0,0-.56,0l-2.43,1.41c-.15.09-.16.23,0,.32l2.8,1.62a.59.59,0,0,0,.56,0l2.42-1.4" transform="translate(-3.55 -11.7)"/><path class="cls-53" d="M330.8,183.12c.15-.1.16-.24,0-.33l-2.8-1.62a.64.64,0,0,0-.57,0L325,182.59c-.16.09-.17.23,0,.32l2.8,1.62a.59.59,0,0,0,.56,0l2.43-1.4" transform="translate(-3.55 -11.7)"/><path class="cls-53" d="M326.38,180.56c.16-.09.16-.23,0-.32l-2.81-1.62a.62.62,0,0,0-.56,0L320.6,180c-.16.09-.16.23,0,.32l2.8,1.62a.61.61,0,0,0,.56,0l2.43-1.41" transform="translate(-3.55 -11.7)"/><path class="cls-53" d="M321.1,182.28l-2.42,1.4c-.16.1-.17.24,0,.33l2.8,1.62a.64.64,0,0,0,.57,0l2.42-1.41c.16-.09.16-.23,0-.32l-2.8-1.62a.59.59,0,0,0-.56,0" transform="translate(-3.55 -11.7)"/><path class="cls-53" d="M323.09,186.23c-.16.1-.16.24,0,.33l2.8,1.62a.64.64,0,0,0,.57,0l2.42-1.41c.16-.09.16-.23,0-.32l-2.8-1.62a.61.61,0,0,0-.57,0l-2.42,1.4" transform="translate(-3.55 -11.7)"/><path class="cls-53" d="M327.51,188.78c-.16.1-.16.24,0,.33l2.8,1.62a.64.64,0,0,0,.57,0l2.42-1.41c.15-.09.16-.23,0-.32l-2.81-1.62a.62.62,0,0,0-.43-.05.75.75,0,0,0-.13.06l-2.42,1.4" transform="translate(-3.55 -11.7)"/><path class="cls-53" d="M331.93,191.33c-.16.1-.17.24,0,.33l2.8,1.62a.64.64,0,0,0,.57,0l2.42-1.4c.15-.1.16-.24,0-.33l-2.81-1.62a.62.62,0,0,0-.56,0l-2.42,1.4" transform="translate(-3.55 -11.7)"/><path class="cls-53" d="M336.35,193.88c-.16.1-.17.24,0,.33l2.81,1.62a.59.59,0,0,0,.56,0l2.42-1.4c.16-.1.17-.24,0-.33l-2.8-1.62a.61.61,0,0,0-.56,0l-2.42,1.4" transform="translate(-3.55 -11.7)"/><path class="cls-53" d="M340.69,196.52c-.07.09,0,.18.07.25l2.81,1.62.06,0a.73.73,0,0,0,.22,0,.57.57,0,0,0,.22,0l.06,0,2.42-1.41c.16-.09.17-.23,0-.32l-2.8-1.62a.59.59,0,0,0-.56,0l-2.42,1.4a.36.36,0,0,0-.09.08" transform="translate(-3.55 -11.7)"/><path class="cls-53" d="M346,194.73l2.43-1.41a.18.18,0,0,0,0-.33l-2.8-1.61a.61.61,0,0,0-.56,0l-2.43,1.41a.18.18,0,0,0,0,.33l2.8,1.61a.61.61,0,0,0,.56,0" transform="translate(-3.55 -11.7)"/><path class="cls-53" d="M347.11,195.34a.18.18,0,0,0,0,.33l2.8,1.61a.61.61,0,0,0,.56,0l2.43-1.41c.15-.09.16-.24,0-.33l-2.8-1.61a.64.64,0,0,0-.57,0l-2.42,1.41" transform="translate(-3.55 -11.7)"/><path class="cls-53" d="M352.61,190.91c.1-.06.14-.14.12-.21a.23.23,0,0,0-.11-.11l-2.8-1.62a.62.62,0,0,0-.43-.05l-.13.05-2.42,1.41c-.12.07-.15.17-.1.25a.36.36,0,0,0,.09.08l2.8,1.61a.61.61,0,0,0,.56,0l2.42-1.41" transform="translate(-3.55 -11.7)"/><path class="cls-53" d="M348.19,188.36c.16-.09.17-.24,0-.33l-2.8-1.61a.61.61,0,0,0-.56,0l-2.42,1.41a.18.18,0,0,0,0,.33l2.8,1.61a.61.61,0,0,0,.56,0l2.42-1.41" transform="translate(-3.55 -11.7)"/><path class="cls-53" d="M343.78,185.81c.15-.09.16-.24,0-.33L341,183.87a.61.61,0,0,0-.56,0L338,185.28a.18.18,0,0,0,0,.33l2.8,1.61a.64.64,0,0,0,.57,0l2.42-1.41" transform="translate(-3.55 -11.7)"/><path class="cls-53" d="M339.45,183.18c.06-.08,0-.18-.08-.25l-2.8-1.61a.09.09,0,0,0-.07,0,.58.58,0,0,0-.37,0l-.13,0-2.42,1.41a.24.24,0,0,0-.09.08c-.06.08,0,.18.08.24l2.81,1.62a.51.51,0,0,0,.35.06.73.73,0,0,0,.21-.06l2.42-1.41a.24.24,0,0,0,.09-.08" transform="translate(-3.55 -11.7)"/><path class="cls-53" d="M334.94,180.71a.18.18,0,0,0,0-.33l-2.8-1.62a.67.67,0,0,0-.57,0l-2.42,1.41c-.16.09-.16.23,0,.32l2.8,1.62a.59.59,0,0,0,.56,0l2.42-1.4" transform="translate(-3.55 -11.7)"/><path class="cls-53" d="M330.52,178.16a.18.18,0,0,0,0-.33l-2.8-1.62a.61.61,0,0,0-.56,0l-2.42,1.41c-.16.09-.17.23,0,.32l2.81,1.62a.59.59,0,0,0,.56,0l2.42-1.4" transform="translate(-3.55 -11.7)"/><path class="cls-53" d="M326.16,175.57a.16.16,0,0,0,0-.21.24.24,0,0,0-.09-.08l-2.8-1.62a.61.61,0,0,0-.56,0l-2.42,1.41c-.16.09-.17.23,0,.32l2.8,1.62a.59.59,0,0,0,.56,0l2.42-1.4.06,0" transform="translate(-3.55 -11.7)"/><path class="cls-53" d="M321.69,173.06c.15-.1.16-.24,0-.33l-2.81-1.62a.62.62,0,0,0-.56,0l-2.42,1.4c-.16.1-.16.24,0,.33l2.8,1.62.06,0a.64.64,0,0,0,.51,0l2.42-1.4" transform="translate(-3.55 -11.7)"/><path class="cls-53" d="M319.17,176.07a.64.64,0,0,0-.57,0l-2.42,1.4c-.16.1-.16.24,0,.33l2.81,1.62a.62.62,0,0,0,.56,0L322,178c.16-.09.16-.23,0-.32l-2.8-1.62" transform="translate(-3.55 -11.7)"/><path class="cls-53" d="M316.68,179.72l-2.42,1.41c-.16.09-.17.24,0,.33l2.81,1.62a.62.62,0,0,0,.56,0l2.42-1.41c.16-.09.17-.24,0-.32l-2.8-1.62a.61.61,0,0,0-.56,0" transform="translate(-3.55 -11.7)"/><path class="cls-53" d="M332.26,197.3a.64.64,0,0,0,.57,0l3-1.74c.15-.09.16-.24,0-.32l-1.11-.64-1.69-1-1.62-.93-2.8-1.62-1.62-.93-2.8-1.62L319.77,186a.61.61,0,0,0-.56,0l-3,1.74c-.16.09-.17.24,0,.33l4.41,2.55,2.81,1.62,1.61.93,2.8,1.62,1.62.93,1.7,1,1.1.64" transform="translate(-3.55 -11.7)"/><path class="cls-53" d="M336.68,199.85a.62.62,0,0,0,.56,0l3-1.74c.16-.09.17-.23,0-.32l-2.8-1.62a.62.62,0,0,0-.56,0l-3,1.74c-.16.09-.16.23,0,.32l2.8,1.62" transform="translate(-3.55 -11.7)"/><path class="cls-53" d="M341.1,202.4a.62.62,0,0,0,.56,0l3-1.74c.16-.09.16-.23,0-.32l-2.8-1.62a.62.62,0,0,0-.56,0l-3,1.74c-.16.09-.17.24,0,.32l2.8,1.62" transform="translate(-3.55 -11.7)"/><path class="cls-53" d="M345.52,205a.59.59,0,0,0,.56,0l3-1.74c.16-.09.17-.23,0-.32l-2.8-1.62a.61.61,0,0,0-.56,0l-3,1.74c-.16.09-.17.24,0,.32l2.81,1.62" transform="translate(-3.55 -11.7)"/><path class="cls-53" d="M353.49,205.76a.18.18,0,0,0,0-.33l-2.8-1.62a.61.61,0,0,0-.56,0l-3,1.74c-.16.09-.17.24,0,.32l2.8,1.62a.61.61,0,0,0,.57,0l3-1.73" transform="translate(-3.55 -11.7)"/><path class="cls-53" d="M357.62,203.36c.15-.09.16-.24,0-.33l-9.25-5.34a.55.55,0,0,0-.47,0l-2.52,1.47c-.13.07-.14.2,0,.27l9.26,5.34a.64.64,0,0,0,.57,0l2.42-1.41" transform="translate(-3.55 -11.7)"/><path class="cls-53" d="M361.73,201c.13-.08.15-.2,0-.29l0,0-4.42-2.56-.77-.44-2-1.17a.61.61,0,0,0-.56,0l-2.42,1.41a.24.24,0,0,0-.11.12c0,.08,0,.15.1.21l1.48.86.55.31.77.45,4.42,2.55a.67.67,0,0,0,.35.06.65.65,0,0,0,.21-.07l2.43-1.41" transform="translate(-3.55 -11.7)"/><path class="cls-53" d="M365.87,198.56a.17.17,0,0,0,0-.33l-2.79-1.61a.61.61,0,0,0-.56,0L360.09,198c-.16.09-.16.23,0,.32l2.79,1.61a.59.59,0,0,0,.56,0l2.43-1.41" transform="translate(-3.55 -11.7)"/><path class="cls-53" d="M366.25,194.78a.61.61,0,0,0-.56,0l-1.49.87c-.15.08-.15.23,0,.32l2.79,1.61a.64.64,0,0,0,.57,0l1.49-.86a.18.18,0,0,0,0-.33l-2.79-1.61" transform="translate(-3.55 -11.7)"/><path class="cls-53" d="M361.83,192.23a.61.61,0,0,0-.56,0l-1.48.86a.18.18,0,0,0,0,.33l2.8,1.61a.61.61,0,0,0,.56,0l1.48-.86a.18.18,0,0,0,0-.33l-2.8-1.61" transform="translate(-3.55 -11.7)"/><path class="cls-53" d="M357.41,189.68a.61.61,0,0,0-.56,0l-1.48.86a.18.18,0,0,0,0,.33l2.8,1.61a.61.61,0,0,0,.56,0l1.48-.86a.18.18,0,0,0,0-.33l-2.8-1.61" transform="translate(-3.55 -11.7)"/><path class="cls-53" d="M353,187.12a.65.65,0,0,0-.56,0L351,188c-.15.09-.16.24,0,.33l2.8,1.61a.64.64,0,0,0,.57,0l1.47-.86c.16-.09.17-.24,0-.33l-2.8-1.62" transform="translate(-3.55 -11.7)"/><path class="cls-53" d="M348.57,184.57a.65.65,0,0,0-.56,0l-1.47.86c-.16.09-.17.24,0,.32l2.81,1.62a.59.59,0,0,0,.56,0l1.47-.85c.16-.09.17-.24,0-.33l-2.81-1.62" transform="translate(-3.55 -11.7)"/><path class="cls-53" d="M343.8,182a.65.65,0,0,0-.21.07l-1.47.86-.05,0a.16.16,0,0,0,0,.29l2.8,1.62.06,0a.61.61,0,0,0,.44,0l.06,0L347,184a.36.36,0,0,0,.09-.08.16.16,0,0,0,0-.09.19.19,0,0,0-.11-.16l-2.8-1.62L344,182a.81.81,0,0,0-.22,0" transform="translate(-3.55 -11.7)"/><path class="cls-53" d="M339.74,179.47a.64.64,0,0,0-.57,0l-1.47.86c-.16.09-.17.23,0,.32l2.8,1.62.13.05a.76.76,0,0,0,.3,0,.52.52,0,0,0,.13-.06l1.48-.85c.1-.06.14-.14.11-.21a.17.17,0,0,0-.1-.12l-2.8-1.62" transform="translate(-3.55 -11.7)"/><path class="cls-53" d="M335,176.86a.57.57,0,0,0-.29.07l-1.47.86c-.16.09-.16.23,0,.32l2.8,1.62.13.05a.61.61,0,0,0,.3,0,.25.25,0,0,0,.13-.05l1.48-.86c.16-.09.16-.23,0-.32l-2.8-1.62a.64.64,0,0,0-.28-.06" transform="translate(-3.55 -11.7)"/><path class="cls-53" d="M330.9,174.37a.61.61,0,0,0-.56,0l-1.48.85c-.16.1-.16.24,0,.33l2.81,1.62a.62.62,0,0,0,.56,0l1.47-.86c.16-.09.17-.23,0-.32l-2.8-1.62" transform="translate(-3.55 -11.7)"/><path class="cls-53" d="M326.48,171.82a.59.59,0,0,0-.56,0l-1.48.85c-.15.09-.16.24,0,.33l2.81,1.62a.62.62,0,0,0,.56,0l1.48-.86c.15-.09.16-.23,0-.32l-2.81-1.62" transform="translate(-3.55 -11.7)"/><path class="cls-53" d="M322.06,169.27a.61.61,0,0,0-.56,0l-1.48.86c-.15.09-.16.24,0,.33l2.81,1.62a.62.62,0,0,0,.56,0l1.48-.86c.15-.09.16-.24,0-.32l-2.81-1.62" transform="translate(-3.55 -11.7)"/><path class="cls-53" d="M315.6,167.59a.17.17,0,0,0,0,.32l2.79,1.61a.64.64,0,0,0,.57,0l1.49-.86a.18.18,0,0,0,0-.33l-2.79-1.61a.61.61,0,0,0-.56,0l-1.49.87" transform="translate(-3.55 -11.7)"/><path class="cls-53" d="M311.49,170c-.16.09-.16.23,0,.32l2.79,1.62a.65.65,0,0,0,.56,0l2.43-1.42c.16-.09.16-.23,0-.32l-2.79-1.62a.61.61,0,0,0-.56,0L311.49,170" transform="translate(-3.55 -11.7)"/><path class="cls-53" d="M307.35,172.38c-.16.09-.17.24,0,.33l2.42,1.39.39.23,4.42,2.55a.62.62,0,0,0,.56,0l2.42-1.41c.16-.09.16-.23,0-.32l-4.41-2.55-.39-.23L310.33,171a.61.61,0,0,0-.56,0l-2.42,1.41" transform="translate(-3.55 -11.7)"/><path class="cls-53" d="M303.19,174.8a.17.17,0,0,0-.1.14s0,.09.09.13l9.26,5.34a.61.61,0,0,0,.56,0l2.42-1.41c.12-.07.15-.17.1-.25a.36.36,0,0,0-.09-.08l-9.26-5.34a.28.28,0,0,0-.16-.05.51.51,0,0,0-.25,0l-.05,0-2.52,1.47" transform="translate(-3.55 -11.7)"/><path class="cls-53" d="M298.54,177.5c-.13.08-.16.2-.06.29l0,0,2.81,1.62a.49.49,0,0,0,.28.07.85.85,0,0,0,.22,0l.06,0,3-1.74a.36.36,0,0,0,.09-.08c.06-.08,0-.18-.08-.25l-2.8-1.62-.13-.05a.66.66,0,0,0-.44.06l-3,1.74" transform="translate(-3.55 -11.7)"/><path class="cls-65" d="M376.3,197.84c0,.06,0,.11,0,.16l0,.12s0,.1,0,.14a.61.61,0,0,0,0,.12l-.07.15-.07.11-.11.17-.08.09a2.09,2.09,0,0,1-.2.22l-.08.08-.15.12-.13.11-.18.11-.18.12-33.43,19.43-.45.23-.14.06-.38.14-.14,0-.24.07-.19.05-.27.06-.18,0-.55.08h-.17l-.32,0h-.7l-.24,0-.22,0-.24,0-.22,0-.25-.05-.2,0-.3-.07-.17-.05a3.81,3.81,0,0,1-.51-.17l-.07,0a5,5,0,0,1-.66-.31L278.58,186.7a2.76,2.76,0,0,1-1.33-1.45,1.7,1.7,0,0,1-.09-.54v2.38a2.39,2.39,0,0,0,1.42,2l56.1,32.39a4.33,4.33,0,0,0,.65.31l0,0h0l.51.18H336l.12,0,.3.07.08,0,.12,0,.25.05.11,0H337l.24,0h.22l.25,0h.69l.33,0h.17a5,5,0,0,0,.54-.08h0l.15,0,.27-.06.19-.05.25-.07.05,0,.09,0,.37-.14.14-.06a3.17,3.17,0,0,0,.45-.23L374.9,202l.06,0a.91.91,0,0,1,.13-.08l.17-.12a.69.69,0,0,0,.13-.11l.15-.12,0,0,.05-.06a2.18,2.18,0,0,0,.21-.22l0,0,0,0L376,201l0-.07s0,0,0,0a1,1,0,0,0,.07-.15l0-.08a0,0,0,0,0,0,0,.83.83,0,0,0,0-.15l0-.1v0a.77.77,0,0,0,0-.15s0-.07,0-.1V197.7C376.31,197.75,376.3,197.8,376.3,197.84Z" transform="translate(-3.55 -11.7)"/><path class="cls-53" d="M369.89,203.28c.3-.17.54,0,.54.31a1.2,1.2,0,0,1-.53.93l-2.77,1.6a.33.33,0,0,1-.54-.31,1.22,1.22,0,0,1,.54-.94Z" transform="translate(-3.55 -11.7)"/><path class="cls-53" d="M364.46,206.42c.3-.18.54,0,.54.31a1.18,1.18,0,0,1-.54.93l-2.76,1.59c-.3.18-.54,0-.54-.3a1.19,1.19,0,0,1,.54-.94Z" transform="translate(-3.55 -11.7)"/><path class="cls-32" d="M373.38,201.16c.33-.2.61,0,.61.35a1.35,1.35,0,0,1-.61,1.06c-.34.19-.61,0-.61-.35A1.31,1.31,0,0,1,373.38,201.16Z" transform="translate(-3.55 -11.7)"/><path class="cls-15" d="M320.52,121.34c-.14-.08-.26,0-.26.16l-.11,38.79a.59.59,0,0,0,.26.45l12.29,7.1c.15.08,33.89-19.9,33.89-19.9Z" transform="translate(-3.55 -11.7)"/><path class="cls-65" d="M330.28,199.6a.65.65,0,0,1,0,1.23l-9.54,5.54a2.33,2.33,0,0,1-2.12,0L298.88,195a.65.65,0,0,1,0-1.23l9.55-5.54a2.33,2.33,0,0,1,2.12,0Z" transform="translate(-3.55 -11.7)"/></g><circle class="cls-22" cx="427.27" cy="274.87" r="70.87"/><path class="cls-69" d="M411.1,238.38H451c5.55,0,4.19,4.54,4.19,10.1v76.17c0,5.56,1.36,10.11-4.19,10.11H411.1c-5.55,0-4.78-4.55-4.78-10.11V248.48C406.32,242.92,405.55,238.38,411.1,238.38Z" transform="translate(-3.55 -11.7)"/><path class="cls-70" d="M407.33,246.46H454a.16.16,0,0,1,.17.14v79.12a.17.17,0,0,1-.17.15H407.33a.16.16,0,0,1-.16-.15V246.6A.15.15,0,0,1,407.33,246.46Z" transform="translate(-3.55 -11.7)"/><rect class="cls-66" x="419.07" y="229.06" width="16.29" height="1.46" rx="0.73" ry="0.73"/><path class="cls-71" d="M430.77,332.64a2.47,2.47,0,1,0-2.47-2.47A2.48,2.48,0,0,0,430.77,332.64Z" transform="translate(-3.55 -11.7)"/><path class="cls-72" d="M407.33,246.46H454a.16.16,0,0,1,.17.14v79.12a.17.17,0,0,1-.17.15L407.17,246.6A.15.15,0,0,1,407.33,246.46Z" transform="translate(-3.55 -11.7)"/><circle class="cls-22" cx="199.27" cy="72.87" r="70.87"/><rect class="cls-73" x="149.94" y="46.22" width="98.67" height="53.3"/><polygon class="cls-73" points="199.27 66.22 248.61 99.24 149.94 99.24 199.27 66.22"/><polygon class="cls-73" points="199.27 79.24 149.94 46.22 248.61 46.22 199.27 79.24"/><path class="cls-14" d="M210.77,72.33A6.35,6.35,0,0,1,209.52,76a4.06,4.06,0,0,1-3.47,1.54,2.07,2.07,0,0,1-1.32-.43,2.23,2.23,0,0,1-.79-1.2,3.08,3.08,0,0,1-1.07,1.2,2.76,2.76,0,0,1-1.5.4,2.36,2.36,0,0,1-2.12-1.16,4.74,4.74,0,0,1-.54-3.07,7.58,7.58,0,0,1,1.4-4,3.44,3.44,0,0,1,2.81-1.49,5.35,5.35,0,0,1,1.82.25,8.1,8.1,0,0,1,1.51.78l0,0h.05l-.5,5.6a2.39,2.39,0,0,0,.14,1.27.64.64,0,0,0,.56.34,2.08,2.08,0,0,0,1.8-1.07,5.4,5.4,0,0,0,.75-2.69A8,8,0,0,0,207.69,67a5.44,5.44,0,0,0-4.6-1.94,5.91,5.91,0,0,0-4.73,2.08,8.89,8.89,0,0,0-1.91,5.58,7.94,7.94,0,0,0,1.42,5.47,5.52,5.52,0,0,0,4.58,2,8,8,0,0,0,1.72-.19,8.38,8.38,0,0,0,1.51-.49l.38,1.43a5.25,5.25,0,0,1-1.67.64,8.48,8.48,0,0,1-2,.23,7.44,7.44,0,0,1-6-2.43,9.26,9.26,0,0,1-1.93-6.66A10.08,10.08,0,0,1,197,66a7.92,7.92,0,0,1,6.11-2.51,7.17,7.17,0,0,1,5.79,2.37A9.08,9.08,0,0,1,210.77,72.33Zm-9.86.94a4,4,0,0,0,.18,1.88.94.94,0,0,0,.9.64,1.92,1.92,0,0,0,1-.25,2.13,2.13,0,0,0,.8-.94v-.06a.2.2,0,0,1,0-.07l.43-4.86a3.63,3.63,0,0,0-.45-.1,2.42,2.42,0,0,0-.47,0,1.81,1.81,0,0,0-1.65.94A7,7,0,0,0,200.91,73.27Z" transform="translate(-3.55 -11.7)"/></g></g></svg>