<svg xmlns="http://www.w3.org/2000/svg" viewBox="0 0 579.13 155.2"><defs><style>.cls-1{isolation:isolate;}.cls-2{fill:#efefef;}.cls-3{fill:#848383;}.cls-4{fill:#d0cfd0;}.cls-5{fill:#272626;}.cls-12,.cls-5{opacity:0.2;mix-blend-mode:multiply;}.cls-6{fill:#e2b97a;}.cls-7{fill:#cfa773;}.cls-8{fill:#c9a8b8;}.cls-9{fill:#d7b4c6;}.cls-10{fill:#bf9566;}.cls-11{fill:#f0c985;}.cls-13{fill:#796665;}.cls-14{fill:#4c4c4d;}.cls-15{fill:#555556;}.cls-16{fill:#363637;}.cls-17{fill:#e2aa53;}.cls-18{fill:#683c11;}.cls-19{fill:#a06a14;}.cls-20{fill:#432918;}</style></defs><title>G05_10_02</title><g class="cls-1"><g id="Livello_1" data-name="Livello 1"><polygon class="cls-2" points="97.83 129.43 97.83 134.12 0 79.16 0 74.47 97.83 129.43"/><polygon class="cls-3" points="189.13 77.39 189.13 82.07 97.98 134.2 97.83 134.12 97.83 129.43 97.98 129.52 189.13 77.39"/><polygon class="cls-4" points="97.83 129.43 0 74.47 0 74.21 91.93 23.02 189.13 77.39 97.98 129.52 97.83 129.43"/><polygon class="cls-2" points="295.82 150.43 295.82 155.12 198 100.16 198 95.47 295.82 150.43"/><polygon class="cls-3" points="387.13 98.39 387.13 103.07 295.98 155.2 295.82 155.12 295.82 150.43 295.98 150.52 387.13 98.39"/><polygon class="cls-4" points="295.82 150.43 198 95.47 198 95.21 289.93 44.02 387.13 98.39 295.98 150.52 295.82 150.43"/><polygon class="cls-2" points="487.82 129.43 487.82 134.12 390 79.16 390 74.47 487.82 129.43"/><polygon class="cls-3" points="579.13 77.39 579.13 82.07 487.98 134.2 487.82 134.12 487.82 129.43 487.98 129.52 579.13 77.39"/><polygon class="cls-4" points="487.82 129.43 390 74.47 390 74.21 481.93 23.02 579.13 77.39 487.98 129.52 487.82 129.43"/><polygon class="cls-5" points="430.95 61.48 512.16 108.7 535.21 93.98 455.63 48.2 430.95 61.48"/><g class="cls-1"><polygon class="cls-6" points="503.73 62.01 509.56 105.65 510.77 106.35 506.99 63.89 503.73 62.01"/><polygon class="cls-7" points="506.99 63.89 510.77 106.35 512.62 105.28 508.84 62.81 506.99 63.89"/><polygon class="cls-8" points="503.73 62.01 506.99 63.89 508.84 62.81 505.58 60.94 503.73 62.01"/></g><g class="cls-1"><polygon class="cls-6" points="434.29 61.66 435.49 62.35 444.09 26.79 440.84 24.91 434.29 61.66"/><polygon class="cls-8" points="440.84 24.91 444.09 26.79 445.94 25.71 442.69 23.83 440.84 24.91"/><polygon class="cls-7" points="435.49 62.35 437.34 61.27 445.94 25.71 444.09 26.79 435.49 62.35"/></g><g class="cls-1"><polygon class="cls-6" points="522.47 51.25 528.29 94.9 529.5 95.59 525.72 53.13 522.47 51.25"/><polygon class="cls-7" points="525.72 53.13 529.5 95.59 531.35 94.52 527.57 52.06 525.72 53.13"/><polygon class="cls-8" points="522.47 51.25 525.72 53.13 527.57 52.06 524.31 50.18 522.47 51.25"/></g><g class="cls-1"><polygon class="cls-6" points="453.02 50.9 454.22 51.59 462.82 16.03 459.57 14.15 453.02 50.9"/><polygon class="cls-8" points="459.57 14.15 462.82 16.03 464.67 14.96 461.42 13.08 459.57 14.15"/><polygon class="cls-7" points="454.22 51.59 456.07 50.52 464.67 14.96 462.82 16.03 454.22 51.59"/></g><g class="cls-1"><polygon class="cls-9" points="434.32 14.88 511.1 59.21 531.38 47.42 454.61 3.1 434.32 14.88"/><polygon class="cls-7" points="511.06 67.3 531.35 55.51 531.38 47.42 511.1 59.21 511.06 67.3"/><polygon class="cls-10" points="434.29 22.97 511.06 67.3 511.1 59.21 434.32 14.88 434.29 22.97"/></g><polygon class="cls-11" points="437.11 23.14 472.01 43.29 472.01 38.1 437.14 17.97 437.11 23.14"/><polygon class="cls-11" points="473.37 44.08 508.24 64.21 508.27 59.03 473.37 38.88 473.37 44.08"/><g class="cls-1"><polygon class="cls-11" points="433.12 12.08 511.8 57.5 532.58 45.42 453.91 0 433.12 12.08"/><polygon class="cls-6" points="511.76 59.98 532.55 47.9 532.58 45.42 511.8 57.5 511.76 59.98"/><polygon class="cls-7" points="433.09 14.55 511.76 59.98 511.8 57.5 433.12 12.08 433.09 14.55"/></g><g class="cls-12"><polygon class="cls-13" points="455.81 29.72 455.81 32.16 449.95 28.84 449.95 26.45 448.54 25.55 448.54 29.2 457.28 34.42 457.27 30.54 455.81 29.72"/></g><g class="cls-1"><polygon class="cls-14" points="448.98 27.39 449.95 26.84 449.95 26.38 448.99 26.93 448.98 27.39"/><polygon class="cls-15" points="454.86 30.27 448.99 26.93 449.95 26.38 448.5 25.55 447.54 26.11 447.29 26.25 446.32 26.8 455.09 31.79 456.06 31.23 456.31 31.09 457.27 30.54 455.82 29.71 454.86 30.27"/><polygon class="cls-14" points="456.06 31.23 455.09 31.79 455.09 32.25 456.06 31.7 456.31 31.55 457.27 31 457.27 30.54 456.31 31.09 456.06 31.23"/><polygon class="cls-16" points="446.32 27.26 455.09 32.25 455.09 31.79 446.32 26.8 446.32 27.26"/></g><g class="cls-12"><polygon class="cls-13" points="492.72 51.79 492.72 54.23 486.86 50.91 486.86 48.52 485.45 47.62 485.45 51.27 494.19 56.49 494.18 52.61 492.72 51.79"/></g><g class="cls-1"><polygon class="cls-14" points="485.89 49.46 486.86 48.91 486.86 48.45 485.89 49 485.89 49.46"/><polygon class="cls-15" points="491.77 52.34 485.89 49 486.86 48.45 485.41 47.62 484.44 48.18 484.19 48.32 483.23 48.87 492 53.86 492.97 53.3 493.22 53.16 494.18 52.61 492.73 51.78 491.77 52.34"/><polygon class="cls-14" points="492.97 53.3 492 53.86 492 54.32 492.97 53.77 493.21 53.62 494.18 53.07 494.18 52.61 493.22 53.16 492.97 53.3"/><polygon class="cls-16" points="483.23 49.33 492 54.32 492 53.86 483.23 48.87 483.23 49.33"/></g><polygon class="cls-5" points="228.95 86.48 310.16 133.7 358.43 104.64 278.84 58.86 228.95 86.48"/><g class="cls-1"><polygon class="cls-11" points="254.12 69.08 332.8 114.5 353.58 102.42 274.91 57 254.12 69.08"/><polygon class="cls-6" points="332.76 116.98 353.55 104.9 353.58 102.42 332.8 114.5 332.76 116.98"/><polygon class="cls-7" points="254.09 71.56 332.76 116.98 332.8 114.5 254.12 69.08 254.09 71.56"/></g><g class="cls-1"><polygon class="cls-11" points="254.12 65.08 332.8 110.5 353.58 98.42 274.91 53 254.12 65.08"/><polygon class="cls-6" points="332.76 112.98 353.55 100.9 353.58 98.42 332.8 110.5 332.76 112.98"/><polygon class="cls-7" points="254.09 67.56 332.76 112.98 332.8 110.5 254.12 65.08 254.09 67.56"/></g><g class="cls-1"><polygon class="cls-11" points="254.12 61.08 332.8 106.5 353.58 94.42 274.91 49 254.12 61.08"/><polygon class="cls-6" points="332.76 108.98 353.55 96.9 353.58 94.42 332.8 106.5 332.76 108.98"/><polygon class="cls-7" points="254.09 63.55 332.76 108.98 332.8 106.5 254.12 61.08 254.09 63.55"/></g><g class="cls-1"><polygon class="cls-11" points="254.12 57.08 332.8 102.5 353.58 90.42 274.91 45 254.12 57.08"/><polygon class="cls-6" points="332.76 104.98 353.55 92.9 353.58 90.42 332.8 102.5 332.76 104.98"/><polygon class="cls-7" points="254.09 59.55 332.76 104.98 332.8 102.5 254.12 57.08 254.09 59.55"/></g><g class="cls-1"><polygon class="cls-11" points="231.12 83.08 309.8 128.5 330.58 116.42 251.91 71 231.12 83.08"/><polygon class="cls-6" points="309.76 130.98 330.55 118.9 330.58 116.42 309.8 128.5 309.76 130.98"/><polygon class="cls-7" points="231.09 85.56 309.76 130.98 309.8 128.5 231.12 83.08 231.09 85.56"/></g><g class="cls-1"><polygon class="cls-11" points="231.12 79.08 309.8 124.5 330.58 112.42 251.91 67 231.12 79.08"/><polygon class="cls-6" points="309.76 126.98 330.55 114.9 330.58 112.42 309.8 124.5 309.76 126.98"/><polygon class="cls-7" points="231.09 81.56 309.76 126.98 309.8 124.5 231.12 79.08 231.09 81.56"/></g><g class="cls-1"><polygon class="cls-11" points="231.12 75.08 309.8 120.5 330.58 108.42 251.91 63 231.12 75.08"/><polygon class="cls-6" points="309.76 122.98 330.55 110.9 330.58 108.42 309.8 120.5 309.76 122.98"/><polygon class="cls-7" points="231.09 77.56 309.76 122.98 309.8 120.5 231.12 75.08 231.09 77.56"/></g><g class="cls-1"><polygon class="cls-11" points="231.12 71.08 309.8 116.5 330.58 104.42 251.91 59 231.12 71.08"/><polygon class="cls-6" points="309.76 118.98 330.55 106.9 330.58 104.42 309.8 116.5 309.76 118.98"/><polygon class="cls-7" points="231.09 73.56 309.76 118.98 309.8 116.5 231.12 71.08 231.09 73.56"/><polygon class="cls-17" points="232.96 70.02 312.98 114.66 313.98 114.07 233.97 69.43 232.96 70.02"/><polygon class="cls-17" points="317.92 111.78 242.37 64.55 241.4 65.11 316.94 112.35 317.92 111.78"/><polygon class="cls-17" points="319.98 110.59 302.78 98.74 321.75 109.56 322.59 109.07 293.23 92.16 248.2 61.16 247.25 61.71 319.03 111.14 319.98 110.59"/><polygon class="cls-17" points="326.38 106.88 250.62 59.75 249.63 60.33 325.39 107.46 326.38 106.88"/><polygon class="cls-17" points="269.33 86.14 238.68 66.72 236.71 67.83 269.33 86.14"/><polygon class="cls-17" points="298.06 85.65 329.59 105 330.58 104.44 298.06 85.65"/></g><g class="cls-1"><polygon class="cls-11" points="254.12 53.08 332.8 98.5 353.58 86.42 274.91 41 254.12 53.08"/><polygon class="cls-6" points="332.76 100.98 353.55 88.9 353.58 86.42 332.8 98.5 332.76 100.98"/><polygon class="cls-7" points="254.09 55.55 332.76 100.98 332.8 98.5 254.12 53.08 254.09 55.55"/></g><g class="cls-1"><polygon class="cls-6" points="332.76 96.98 353.55 84.9 353.58 82.42 332.8 94.5 332.76 96.98"/><polygon class="cls-7" points="254.09 51.55 332.76 96.98 332.8 94.5 254.12 49.08 254.09 51.55"/><polygon class="cls-11" points="254.12 49.08 332.8 94.5 334.71 93.39 256.55 47.67 254.12 49.08"/><polygon class="cls-11" points="353.58 82.42 274.91 37 272.36 38.48 352.37 83.12 353.58 82.42"/><polygon class="cls-11" points="271.35 39.07 268.39 40.79 343.94 88.03 351.37 83.71 271.35 39.07"/><polygon class="cls-11" points="257.54 47.09 335.71 92.81 337.13 91.98 265.35 42.55 257.54 47.09"/><polygon class="cls-11" points="266.31 42 338.09 91.42 342.96 88.59 267.41 41.36 266.31 42"/><polygon class="cls-17" points="352.37 83.12 272.36 38.48 271.35 39.07 351.37 83.71 352.37 83.12"/><polygon class="cls-17" points="267.41 41.36 342.96 88.59 343.94 88.03 268.39 40.79 267.41 41.36"/><polygon class="cls-17" points="265.35 42.55 284.82 55.96 263.59 43.58 262.75 44.07 292.11 60.98 337.13 91.98 338.09 91.42 266.31 42 265.35 42.55"/><polygon class="cls-17" points="256.55 47.67 334.71 93.39 335.71 92.81 257.54 47.09 256.55 47.67"/><polygon class="cls-17" points="316.01 67 346.65 86.42 348.68 85.34 316.01 67"/></g><path class="cls-18" d="M164.61,89.08c0,3.42.36,26.67-3.33,26.67-8.72,0-67.19-38.94-70-40-5.36-2-10.38-6.13-10.38-13.7s4.65-13.69,10.38-13.69c1.54,0,13.56,7.94,21.52,12.24,10,5.41,21.81,10.89,31.62,16.3C155.87,83.22,164.61,89.08,164.61,89.08Z" transform="translate(-7.07 -26.33)"/><path class="cls-11" d="M161.28,115.25c-5.45,0-9.88-5.92-9.88-13.2s4.43-13.19,9.88-13.19,9.89,5.92,9.89,13.19S166.73,115.25,161.28,115.25Z" transform="translate(-7.07 -26.33)"/><path class="cls-19" d="M161.28,89.36c5.18,0,9.39,5.69,9.39,12.69s-4.21,12.7-9.39,12.7-9.38-5.69-9.38-12.7,4.21-12.69,9.38-12.69m0-1c-5.73,0-10.38,6.13-10.38,13.69s4.65,13.7,10.38,13.7,10.39-6.13,10.39-13.7S167,88.36,161.28,88.36Z" transform="translate(-7.07 -26.33)"/><ellipse class="cls-19" cx="154.21" cy="75.72" rx="1.42" ry="1.87"/><path class="cls-20" d="M142.61,101.08c0,3.42.36,26.62-3.33,26.67-11.55.17-67.19-38.94-70-40-5.36-2-10.38-6.13-10.38-13.7s4.65-13.69,10.38-13.69c1.58,0,8.87,5.09,17.14,9.58,12.19,6.6,28.37,17.59,40.24,24.22A76.19,76.19,0,0,0,142.61,101.08Z" transform="translate(-7.07 -26.33)"/><path class="cls-11" d="M139.28,127.25a8.9,8.9,0,0,1-6.48-3.06,13.44,13.44,0,0,1-3.4-10.1c.46-6.74,1.56-12.82,9.91-13.23h.4c5.66,0,9.46,5.86,9.46,14.59C149.17,122.72,145.38,127.25,139.28,127.25Z" transform="translate(-7.07 -26.33)"/><path class="cls-19" d="M139.71,101.35h0c5.36,0,9,5.66,9,14.09,0,7-3.6,11.31-9.39,11.31a8.46,8.46,0,0,1-6.12-2.9,13,13,0,0,1-3.26-9.73c.44-6.5,1.5-12.38,9.43-12.76h.38m0-1h-.43c-9.09.44-10,7.64-10.38,13.69-.52,7.55,4.65,13.7,10.38,13.7s10.39-4,10.39-12.31c0-9.75-4.43-15.09-10-15.09Z" transform="translate(-7.07 -26.33)"/><path class="cls-19" d="M140.68,114.24c0,1.13-.63,1.68-1.41,1.68a1.65,1.65,0,0,1-1.42-1.87c.06-.82.18-1.81,1.42-1.87C140.05,112.15,140.68,112.88,140.68,114.24Z" transform="translate(-7.07 -26.33)"/><path class="cls-18" d="M120.61,114.08c0,3.42.36,26.61-3.33,26.67-10.48.17-67.19-38.94-70-40-5.36-2-10.38-6.13-10.38-13.7s4.65-13.69,10.38-13.69S120.61,114.08,120.61,114.08Z" transform="translate(-7.07 -26.33)"/><path class="cls-11" d="M117.28,140.25c-5.76,0-9.12-6.66-9.88-13.25a12.46,12.46,0,0,1,2.93-9.78,9.46,9.46,0,0,1,7-3.36c5.16,0,9.22,5.44,9.89,13.24a13,13,0,0,1-3,10A9.42,9.42,0,0,1,117.28,140.25Z" transform="translate(-7.07 -26.33)"/><path class="cls-19" d="M117.28,114.36c4.89,0,8.75,5.25,9.39,12.78a12.43,12.43,0,0,1-2.9,9.65,8.9,8.9,0,0,1-6.49,3c-5.46,0-8.65-6.43-9.39-12.81a12,12,0,0,1,2.82-9.39,9,9,0,0,1,6.57-3.19m0-1c-5.73,0-11.28,6-10.38,13.69.87,7.52,4.65,13.7,10.38,13.7s11.09-5.37,10.39-13.7c-.64-7.53-4.65-13.69-10.39-13.69Z" transform="translate(-7.07 -26.33)"/><path class="cls-19" d="M118.68,127.05a1.56,1.56,0,0,1-1.41,1.86c-.78,0-1.29-.84-1.41-1.86a1.58,1.58,0,0,1,1.41-1.85C118.05,125.2,118.59,126,118.68,127.05Z" transform="translate(-7.07 -26.33)"/></g></g></svg>