<svg xmlns="http://www.w3.org/2000/svg" xmlns:xlink="http://www.w3.org/1999/xlink" viewBox="0 0 481 268.81"><defs><style>.cls-1{isolation:isolate;}.cls-2{fill:#efefef;}.cls-3{fill:#848383;}.cls-4{fill:#d0cfd0;}.cls-5{fill:#d9d9d9;mix-blend-mode:multiply;}.cls-54,.cls-6{fill:#323232;}.cls-7{fill:#464545;}.cls-8{fill:#251f12;}.cls-9{fill:#c7c9cd;}.cls-10{fill:#5d5d5d;}.cls-11{fill:#3c3c3b;}.cls-12,.cls-17,.cls-27{fill:#6786a0;}.cls-12,.cls-17{stroke:#473763;}.cls-12,.cls-17,.cls-42{stroke-miterlimit:10;}.cls-12{stroke-width:1.12px;}.cls-12,.cls-17,.cls-26{opacity:0.9;}.cls-13{fill:#d9d0d8;}.cls-14{fill:#010101;}.cls-15{fill:#fcbd0b;}.cls-16{fill:#262529;}.cls-17{stroke-width:0.74px;}.cls-18{fill:#eaeaea;}.cls-19{fill:url(#linear-gradient);}.cls-20{fill:#da2715;}.cls-21{fill:url(#linear-gradient-2);}.cls-22{fill:#b8b8b8;}.cls-23{fill:#878787;}.cls-24{fill:#fff;}.cls-25{fill:#e7e6e6;}.cls-28{fill:#473763;}.cls-29{fill:#202121;}.cls-30{fill:#1d71b8;}.cls-31{fill:#be1622;}.cls-32{fill:#36a9e1;}.cls-33{fill:#e6332a;}.cls-34{fill:#303b45;}.cls-35{fill:#e38868;}.cls-36{fill:#f6bbc6;}.cls-37{fill:#5b5b5a;}.cls-38{fill:#353430;}.cls-39{fill:#bb745d;}.cls-40{fill:#4d4a81;}.cls-41{fill:#a9b2bd;}.cls-42{fill:#3d3d3c;stroke:#b2b2b2;stroke-width:0.1px;}.cls-43{fill:#f39200;}.cls-44{fill:#e94e1b;}.cls-45{fill:#063;}.cls-46{fill:#312783;}.cls-47{fill:#f9b233;}.cls-48{fill:#cbbba0;}.cls-49{fill:#a48a7b;}.cls-50{fill:#683c11;}.cls-51{fill:#432918;}.cls-52{fill:#424242;}.cls-53{fill:#454544;opacity:0.3;}.cls-54{opacity:0.5;}.cls-55{fill:#eb980a;}.cls-56{fill:#f6c96c;}.cls-57{fill:#d98d0c;}.cls-58{fill:#2a2214;}.cls-59{fill:#413833;}.cls-60{fill:#a2a5a4;}.cls-61{fill:#29303a;}.cls-62{fill:#fcbf3f;}.cls-63{fill:#464e5b;}.cls-64{fill:#414342;}.cls-65{fill:#563912;}.cls-66{fill:#b08038;}.cls-67{fill:#744c11;}.cls-68{fill:#b87812;}.cls-69{fill:#d48a0a;}.cls-70{fill:#c4cfdb;}.cls-71{fill:#f7a41f;}.cls-72{fill:#ffd888;}.cls-73{fill:#b0d9ea;}.cls-74{fill:#f6a21a;}.cls-75{fill:#bbe3f6;}.cls-76{fill:#a3aaa7;}.cls-77{fill:#3f403f;}.cls-78{fill:#575a59;}.cls-79{fill:#868b89;}</style><linearGradient id="linear-gradient" x1="-94.3" y1="172.72" x2="-72.01" y2="193.2" gradientTransform="translate(442)" gradientUnits="userSpaceOnUse"><stop offset="0" stop-color="#d9d9d9"/><stop offset="0.08" stop-color="#bfbebf"/><stop offset="0.83" stop-color="#a3a5a5"/><stop offset="1" stop-color="#6f7171"/></linearGradient><linearGradient id="linear-gradient-2" x1="-106.17" y1="195.99" x2="-77.69" y2="195.99" xlink:href="#linear-gradient"/></defs><title>G05_18</title><g class="cls-1"><g id="Livello_1" data-name="Livello 1"><polygon class="cls-2" points="389.7 221.74 389.7 226.42 291.88 171.46 291.88 166.78 389.7 221.74"/><polygon class="cls-3" points="481 169.69 481 174.38 389.85 226.51 389.7 226.42 389.7 221.74 389.85 221.82 481 169.69"/><polygon class="cls-4" points="389.7 221.74 291.88 166.78 291.88 166.51 383.8 115.33 481 169.69 389.85 221.82 389.7 221.74"/><polygon class="cls-2" points="101.7 264.13 101.7 268.81 0 211.47 0 206.78 101.7 264.13"/><polygon class="cls-3" points="300.56 148.59 300.56 153.27 101.7 268.81 101.55 264.04 209.41 200.72 300.56 148.59"/><polygon class="cls-4" points="101.7 264.13 0 206.71 203.36 94.23 300.56 148.59 209.41 200.72 101.7 264.13"/><path class="cls-5" d="M383.35,207.3c16.68-4.49,54-31.69,66.93-41.34,2.5-1.87,2.29-4.63-.43-6.14l-15-8.34-8.11,13.06-62.6,42.13S378.72,208.55,383.35,207.3Z" transform="translate(-5.98 -9.13)"/><path class="cls-6" d="M441.07,155.63s-1.93-2,0-3.12V152l-.37-1.9a.82.82,0,0,0-1.18-.63l-7.86,3.37a25.43,25.43,0,0,0-15.82.67c-.52.2-1.05.44-1.57.7-1.56.77-3.08,1.6-4.57,2.46a84.94,84.94,0,0,0-9.38,6.26c-1.72,1.33-2.8,1.55-4.22,2.88-1.66,2-5.33,5.43-7.28,7.86-2.87,3.57-5.46,6.55-7.59,8.9,0,0-.06,0-.1.06l-.15.08c-3.75,2.82-11.9,8.69-15.85,15.08a8.19,8.19,0,0,0-1.05,3.38s-.17,4.59.05,4.64l5.2-2.83.69.85,3.49-2,.51-2.28a14.62,14.62,0,0,1,6-7.87c3.66-2.11,6.64-.41,6.66,3.79,10.81-6.24,25.09-14.49,34.43-20l-1,.55a9.45,9.45,0,0,1,.07-1.18l.54-2.41a14.68,14.68,0,0,1,6-7.87c3.61-2.09,6.57-.46,6.65,3.63l.48-.33,2-4.91,5.21-3.33v-4ZM385.8,180.8c.43-.72.87-1.43,1.33-2.12a26.64,26.64,0,0,1,1.85-2.46,59.05,59.05,0,0,1,10.55-10.66c.46-.36.92-.7,1.37-1a81.77,81.77,0,0,1,7.65-5.06c13.76-7.95,18-3.67,18.19-3.44L385.8,180.8Zm-4.62,1.77h0c.55-.42,1-.76,1.29-1C382.18,181.81,381.74,182.15,381.18,182.57Z" transform="translate(-5.98 -9.13)"/><polygon class="cls-7" points="369.83 196.99 364.97 194.19 369.83 191.69 369.83 196.99"/><polygon class="cls-8" points="435.11 150.47 435.12 153.7 427.92 158.71 429.89 153.81 435.11 150.47"/><path class="cls-9" d="M426.78,168.35c1.82-1,3.32-.21,3.33,1.9A7.34,7.34,0,0,1,426.8,176c-1.83,1.06-3.33.2-3.34-1.9A7.32,7.32,0,0,1,426.78,168.35Z" transform="translate(-5.98 -9.13)"/><path class="cls-7" d="M421.1,175.6v-.15a8.87,8.87,0,0,1,.17-1.68c-.16,0-.32,0-.5,0a3.79,3.79,0,0,1-2-.55,8.14,8.14,0,0,1-1.26,2.78l5.25,3A3.9,3.9,0,0,1,421.1,175.6Z" transform="translate(-5.98 -9.13)"/><path class="cls-10" d="M426.77,165.63c3.14-1.81,5.69-.36,5.71,3.25a12.5,12.5,0,0,1-5.68,9.82c-3.1,1.79-5.62.4-5.7-3.1v-.15A12.51,12.51,0,0,1,426.77,165.63Zm0,10.35a7.34,7.34,0,0,0,3.31-5.73c0-2.11-1.51-2.95-3.33-1.9a7.34,7.34,0,0,0-3.32,5.73c0,2.1,1.51,3,3.34,1.9Z" transform="translate(-5.98 -9.13)"/><path class="cls-11" d="M410.29,133.77a4.77,4.77,0,0,1,3.79.23l25.48,14.54c.29.16,1.05,1.08,1,1.27s-.82-.42-1.06-.32l-7.86,3.37-28.24-16.14Z" transform="translate(-5.98 -9.13)"/><path class="cls-12" d="M399.65,166.53c1.41-1.07,2.76-2.05,4.08-3l0,5.31-14.58,8.83-1.52.78A72.86,72.86,0,0,1,399.65,166.53Z" transform="translate(-5.98 -9.13)"/><path class="cls-13" d="M431.65,152.86a25.43,25.43,0,0,0-15.82.67c-.52.2-1.05.44-1.57.7-1.56.77-3.08,1.6-4.57,2.46a84.94,84.94,0,0,0-9.38,6.26c-1.72,1.33-2.8,1.55-4.22,2.88-1.66,2-5.33,5.43-7.28,7.86-2.87,3.57-5.46,6.55-7.59,8.9,0,0,5.45-1,5.45,3.24v9.65c10.81-6.24,25.09-14.49,34.43-20l-1,.55a9.45,9.45,0,0,1,.07-1.18l.54-2.41a14.68,14.68,0,0,1,6-7.87c3.61-2.09,6.57-.46,6.65,3.63ZM385.8,180.8c.43-.72.87-1.43,1.33-2.12a26.64,26.64,0,0,1,1.85-2.46,59.05,59.05,0,0,1,10.55-10.66c.46-.36.92-.7,1.37-1a81.77,81.77,0,0,1,7.65-5.06c13.76-7.95,18-3.67,18.19-3.44L385.8,180.8Zm-4.62,1.77h0c.55-.42,1-.76,1.29-1C382.18,181.81,381.74,182.15,381.18,182.57Z" transform="translate(-5.98 -9.13)"/><path class="cls-14" d="M433.42,168.17c-.08-4.09-3-5.72-6.65-3.63a14.68,14.68,0,0,0-6,7.87l-.54,2.41a9.45,9.45,0,0,0-.07,1.18l1-.55a12.51,12.51,0,0,1,5.67-9.82c3.14-1.81,5.69-.36,5.71,3.25l.94-.55Z" transform="translate(-5.98 -9.13)"/><path class="cls-12" d="M421.06,155.7a7.38,7.38,0,0,1,3.95.38l-3.88,2.33C421.1,157.77,421.06,156.73,421.06,155.7Z" transform="translate(-5.98 -9.13)"/><path class="cls-15" d="M335.81,186.36s0,.11,0,.16h0C335.82,186.47,335.82,186.42,335.81,186.36Z" transform="translate(-5.98 -9.13)"/><path class="cls-16" d="M335.82,185.11s0,0,0-.06h0S335.82,185.09,335.82,185.11Z" transform="translate(-5.98 -9.13)"/><path class="cls-17" d="M405.47,162.22c1.61-1,9.69-6.06,13.93-6.69v4.24l-13.92,8.38C405.37,167.32,405.49,164,405.47,162.22Z" transform="translate(-5.98 -9.13)"/><path class="cls-18" d="M403.41,136.72a25.43,25.43,0,0,0-15.82.67h0c-.53.2-1,.44-1.58.7-1.55.77-3.08,1.6-4.57,2.46a84.79,84.79,0,0,0-9.37,6.26c-1.72,1.33-3.67,3-5.09,4.35a277.2,277.2,0,0,0,27.94,16c1.43-1.34,3.67-2.85,5.39-4.18a84.94,84.94,0,0,1,9.38-6.26c1.49-.86,3-1.69,4.57-2.46.3-.15,1.57-.7,1.57-.7a25.43,25.43,0,0,1,15.82-.67Z" transform="translate(-5.98 -9.13)"/><path class="cls-9" d="M380,195.5c1.83-1.05,3.32-.2,3.33,1.9a7.3,7.3,0,0,1-3.31,5.73c-1.83,1.06-3.32.2-3.32-1.9A7.29,7.29,0,0,1,380,195.5Z" transform="translate(-5.98 -9.13)"/><path class="cls-15" d="M393.37,169.16c.63-.66,1.31-1.34,2-2C394.68,167.81,394,168.49,393.37,169.16Z" transform="translate(-5.98 -9.13)"/><path class="cls-10" d="M380,192.78c3.14-1.81,5.7-.36,5.71,3.25a12.49,12.49,0,0,1-5.67,9.82c-3.14,1.82-5.7.37-5.71-3.25A12.49,12.49,0,0,1,380,192.78Zm0,10.35a7.3,7.3,0,0,0,3.31-5.73c0-2.1-1.5-3-3.33-1.9a7.29,7.29,0,0,0-3.3,5.73c0,2.1,1.49,3,3.32,1.9Z" transform="translate(-5.98 -9.13)"/><path class="cls-14" d="M380,191.69c3.66-2.11,6.64-.41,6.66,3.79l-.95.55c0-3.61-2.57-5.06-5.71-3.25a12.49,12.49,0,0,0-5.67,9.82l-.95.55a7.89,7.89,0,0,1,.08-1.18l0-.13.51-2.28A14.62,14.62,0,0,1,380,191.69Z" transform="translate(-5.98 -9.13)"/><path class="cls-15" d="M365.69,205.81c.12.82.33,1.4,4.39-.79C366,207.21,365.81,206.63,365.69,205.81Z" transform="translate(-5.98 -9.13)"/><path class="cls-8" d="M364.12,205.83l5.2-2.83.69.85,3.49-2,0,.13a7.85,7.85,0,0,0-.08,1.17L372,204l-.19.11,0,0-.14.08-.06,0-.13.07,0,0-.12.07-.08,0-.08,0-.09.05-.08,0-.08.05-.08,0a.2.2,0,0,0-.08,0l-.57.31c-4.07,2.19-5.8,2.47-5.92,1.65a2.14,2.14,0,0,0-.2-.75Z" transform="translate(-5.98 -9.13)"/><path class="cls-16" d="M365.5,205.06h0a2.44,2.44,0,0,1,.19.75A2.44,2.44,0,0,0,365.5,205.06Z" transform="translate(-5.98 -9.13)"/><path class="cls-19" d="M354.24,165.41c-1.16,1-4.47,3.27-8.05,6.26-3.4,2.84-7.05,6.34-9.32,10a8.13,8.13,0,0,0-1,3.38l28.24,16.14a8.19,8.19,0,0,1,1.05-3.38c2.26-3.66,5.91-7.16,9.31-10,3.58-3,7.14-5.14,8.3-6.15Z" transform="translate(-5.98 -9.13)"/><path class="cls-11" d="M354.24,165.41c-1.16,1-4.47,3.27-8.05,6.26-3.4,2.84-7.05,6.34-9.32,10a8.13,8.13,0,0,0-1,3.38l28.24,16.14a8.19,8.19,0,0,1,1.05-3.38c2.26-3.66,5.91-7.16,9.31-10,3.58-3,7.14-5.14,8.3-6.15Z" transform="translate(-5.98 -9.13)"/><path class="cls-20" d="M441,152.55l.07,0-.07,4.28-2.42,1.06-1.45-2.25A23.57,23.57,0,0,1,441,152.55Z" transform="translate(-5.98 -9.13)"/><path class="cls-21" d="M335.83,187.69a5.15,5.15,0,0,0,2.3,4l26.18,15.25-.24-5.75-28.24-16.14Z" transform="translate(-5.98 -9.13)"/><polygon class="cls-22" points="339.88 184.06 347.64 189 348.13 185.03 339.36 180.69 339.88 184.06"/><path class="cls-8" d="M353.05,195.57c.7.4,1.06,1.93,1.06,2.64s-.57,1-1.27.56l-8.93-5.16a2.62,2.62,0,0,1-1.26-2c0-.71.77-1.6,1.47-1.19Z" transform="translate(-5.98 -9.13)"/><path class="cls-23" d="M343.24,190.5a1.37,1.37,0,0,0-.18.16l10.82,6.24c0-.11-.07-.21-.11-.32Z" transform="translate(-5.98 -9.13)"/><path class="cls-23" d="M342.77,192.18a1.58,1.58,0,0,0,.16.35l10.91,6.3a.46.46,0,0,0,.15-.16Z" transform="translate(-5.98 -9.13)"/><path class="cls-23" d="M342.74,191.19a.9.9,0,0,0-.06.22L354.1,198q0-.12,0-.27Z" transform="translate(-5.98 -9.13)"/><path class="cls-24" d="M346.21,191.06l-10.38-6v2.62a4.08,4.08,0,0,0,.26,1.34l10.1,5.84Z" transform="translate(-5.98 -9.13)"/><path class="cls-25" d="M343.67,190.11a6.4,6.4,0,0,1-2.35-1.07,6.65,6.65,0,0,1-2.09-1.53,6.4,6.4,0,0,1,2.36,1.07C342.81,189.3,343.75,190,343.67,190.11Z" transform="translate(-5.98 -9.13)"/><polygon class="cls-24" points="358 192.29 358.33 196.31 346.23 189.31 346.24 185.51 358 192.29"/><path class="cls-25" d="M361.44,200.47a6.32,6.32,0,0,1-2.35-1.07c-1.23-.72-2.17-1.41-2.09-1.53a6.45,6.45,0,0,1,2.35,1.08C360.58,199.66,361.52,200.35,361.44,200.47Z" transform="translate(-5.98 -9.13)"/><path class="cls-14" d="M405,172.86c.22-.13.41,0,.41.24a.9.9,0,0,1-.41.72l-3.25,1.88c-.23.13-.42,0-.42-.24a.91.91,0,0,1,.42-.72Z" transform="translate(-5.98 -9.13)"/><path class="cls-14" d="M420,163.94c.22-.13.41,0,.41.24a.92.92,0,0,1-.41.72l-3.25,1.87c-.23.14-.42,0-.42-.24a.94.94,0,0,1,.42-.72Z" transform="translate(-5.98 -9.13)"/><g class="cls-26"><path class="cls-27" d="M353.73,166.53c.36-.28.65-.51.87-.7a84.38,84.38,0,0,0,6.41-7.19c1.73-2,3.36-4,4.53-5.24l.82-.85.82-.81,27.24,15.57-.94.94-.51.53c-1.19,1.27-2.83,3.22-4.56,5.28a85.41,85.41,0,0,1-6.29,7.06c-.28.24-.69.56-1.19.95Z" transform="translate(-5.98 -9.13)"/><path class="cls-28" d="M367.27,152.44l26.23,15,0,0,0,.05,0,0,.82.77-.86-.72-.09.09-.09.1-.08.08-.23.23,0,0h0l-.11.12-.14.15c-1.2,1.28-2.84,3.23-4.58,5.3a87.51,87.51,0,0,1-6.23,7c-.21.19-.52.43-.87.7l-26.15-15,.24-.2a86.87,86.87,0,0,0,6.48-7.25c1.71-2.05,3.34-4,4.49-5.21l.24-.25,0,0h0l0,0h0c.06-.07.13-.13.19-.21l.05,0h0l0,0a.8.8,0,0,1,.13-.13l0,0,0,0,0,0,.12-.11.06-.06,0,0h0l.06-.06.09-.08.07-.07,0,0,0,0h0m-.18-1.39a.57.57,0,0,1-.11.11l-.17.17a.47.47,0,0,0-.1.1l-.18.17a.47.47,0,0,0-.1.1l-.18.17-.09.09-.18.19-.08.08-.19.19-.07.07-.2.21-.06.06-.25.26c-2.88,3.07-8.62,10.42-10.89,12.39-.34.29-.86.69-1.52,1.18L381,182.73c.65-.49,1.18-.89,1.51-1.18,2.28-2,8-9.32,10.89-12.39l.25-.26.06-.06.2-.21a.46.46,0,0,0,.07-.07l.19-.19.08-.08.18-.19.09-.09c.06,0,.12-.12.19-.17l.09-.1.18-.17.1-.1.17-.17.12-.11-28.25-16.14Z" transform="translate(-5.98 -9.13)"/></g><polygon class="cls-29" points="363.63 165.15 363.13 164.29 357.19 160.75 356.71 161.2 363.63 165.15"/><path class="cls-29" d="M369.1,173.69a.31.31,0,0,1-.18-.07c-.06-.06-6.49-5.81-12.28-7a.26.26,0,0,1-.21-.31.27.27,0,0,1,.32-.21c5.93,1.18,12.26,6.84,12.53,7.08a.27.27,0,0,1,0,.38A.25.25,0,0,1,369.1,173.69Z" transform="translate(-5.98 -9.13)"/><polygon class="cls-29" points="373.75 170.82 373.25 169.97 367.31 166.42 366.83 166.87 373.75 170.82"/><path class="cls-29" d="M379.23,179.36a.24.24,0,0,1-.18-.07c-.07-.06-6.5-5.8-12.29-6.95a.27.27,0,0,1-.2-.32.27.27,0,0,1,.31-.21c5.93,1.18,12.27,6.85,12.53,7.09a.26.26,0,0,1,0,.37A.25.25,0,0,1,379.23,179.36Z" transform="translate(-5.98 -9.13)"/><polygon class="cls-13" points="400 149.94 371.93 133.63 376.94 130.59 405.17 146.77 400 149.94"/><polygon class="cls-18" points="397.71 145.32 373.7 131.27 378.71 128.23 402.88 142.16 397.71 145.32"/><polygon class="cls-30" points="371.93 133.63 373.7 131.27 378.71 128.23 387.54 133.32 382.48 136.41 382.58 139.81 371.93 133.63"/><polygon class="cls-31" points="388.73 143.39 388.73 140.07 393.98 137.03 402.88 142.16 405.17 146.77 400 149.94 388.73 143.39"/><polygon class="cls-32" points="382.48 136.41 373.7 131.27 378.71 128.23 387.54 133.32 382.48 136.41"/><polygon class="cls-33" points="397.71 145.32 388.73 140.07 393.98 137.03 402.88 142.16 397.71 145.32"/><polygon class="cls-3" points="401.35 86.6 401.35 91.35 311.89 144.12 311.89 139.38 401.35 86.6"/><polygon class="cls-2" points="311.89 139.38 311.89 144.12 215.79 88.39 215.79 83.64 311.89 139.38"/><polygon class="cls-4" points="311.66 139.39 215.57 83.66 215.57 83.39 305.87 31.49 401.35 86.62 311.81 139.48 311.66 139.39"/><ellipse class="cls-5" cx="305.8" cy="83.9" rx="65.41" ry="34.02"/><path class="cls-34" d="M311,58.91a31.19,31.19,0,0,0,.73-6.55l-3.46-.55s-.73,13.31-1.51,17.68c-.14.8-.86,3.13-.86,3.13h7.55s-.51-1.18-1.17-1.36-3-.24-3.39-.51a1.14,1.14,0,0,1-.56-1.26C308.85,66.82,310.7,60,311,58.91Z" transform="translate(-5.98 -9.13)"/><path class="cls-34" d="M299.44,58.67c-.29,2.92-.34,8.12-.55,10.82,0,.5,0,.52-.32.9s-2.07.65-3,.79c-1.81.27-1.81,1.44-1.81,1.44h6.38s.19-2.35.3-3.13c.4-2.61,1.91-9.27,2.19-10.33a62.47,62.47,0,0,0,1.21-6.8l-3.46-.55S299.59,57.05,299.44,58.67Z" transform="translate(-5.98 -9.13)"/><polygon class="cls-35" points="308.72 16.96 310.84 31.22 309.2 31.54 306.41 18.43 305.79 18.05 308.72 16.96"/><path class="cls-36" d="M316.5,38.78s.8,3.32,1,3.84,0,.79-.49.55-.38.4-.78.12-.41.42-.73.24-.48,0-.7-.08-.07-1-.07-1-1.17.22.38-1.55c.35-.4-1.15-3.86-1.15-3.86Z" transform="translate(-5.98 -9.13)"/><path class="cls-36" d="M298.52,24.27s-.49,4.3-.64,5-1.47,9.11-1.47,9.11l1.65.25,2.71-8.94.11-4.69Z" transform="translate(-5.98 -9.13)"/><path class="cls-36" d="M296.66,38.83s-.65,3.34-.79,3.87,0,.79.51.53.4.38.79.09.42.4.73.2c.46-.3.49-.05.7-.1s0-1,0-1,1.17.17-.45-1.53c-.37-.39,1-3.91,1-3.91Z" transform="translate(-5.98 -9.13)"/><path class="cls-37" d="M312.78,37.89s.37,5.16.49,6.92-1.11,8.95-1.11,8.95l-3.07,15h-2.81l.83-15.53L306.74,45l-3.39,13.5L301,68.8h-2.39l.5-10.26,2.3-20.65S308.2,38.07,312.78,37.89Z" transform="translate(-5.98 -9.13)"/><path class="cls-37" d="M312.82,37.08H301.34c-.2,0-.25-.17-.24-.38l.21-5.94-2.66,9.42-2.58-.31,2.58-19s3.92-2.27,5.13-2.78c0,0,.24-.49.27-.5l.21-.13c.73-.18,2,.44,3.06.38.25,0,.63-.48,1.24-.27.09,0,.49.71.58.74a24.61,24.61,0,0,1,4.79,2.32c.37.42,3.28,19.44,3.28,19.44l-2.54.42-2.2-9.74.45,5.9C312.94,36.89,313.05,37.08,312.82,37.08Z" transform="translate(-5.98 -9.13)"/><path class="cls-38" d="M312.12,26.81a21.56,21.56,0,0,1,1-5A8.36,8.36,0,0,0,312,26.71C312,26.77,312.12,26.82,312.12,26.81Z" transform="translate(-5.98 -9.13)"/><path class="cls-36" d="M308.25,15.48v2.2a.87.87,0,0,1-.43.33,3.35,3.35,0,0,1-1,.31l.11.63a4,4,0,0,1-1,.11c-.06,0,.2-.74.2-.74A3.38,3.38,0,0,1,305,18a2.51,2.51,0,0,1-.72-.45l.16-2.1Z" transform="translate(-5.98 -9.13)"/><path class="cls-36" d="M306.87,9.46c2.24.26,2.35,2.79,2.13,4.9s-1.27,3.41-2.7,3.4-2.35-1.54-2.61-3.5S303.27,9,306.87,9.46Z" transform="translate(-5.98 -9.13)"/><path class="cls-36" d="M308.73,13.8s.07-.86.76-.59-.12,2.22-.89,2S308.73,13.8,308.73,13.8Z" transform="translate(-5.98 -9.13)"/><path class="cls-36" d="M304.12,14s0-.86-.74-.61,0,2.22.8,2S304.12,14,304.12,14Z" transform="translate(-5.98 -9.13)"/><path class="cls-39" d="M306.14,17.86h.16A3.34,3.34,0,0,0,308,17c0-.05-1.12.67-1.7.66s-1.68-.91-1.73-.87A3.3,3.3,0,0,0,306.14,17.86Z" transform="translate(-5.98 -9.13)"/><path class="cls-38" d="M313.06,41.75a1.52,1.52,0,0,1-.79-.57,6.86,6.86,0,0,1-.62-1.93,5.15,5.15,0,0,0,.41,2.08,3.08,3.08,0,0,0,1.05,1.1S313.06,41.75,313.06,41.75Z" transform="translate(-5.98 -9.13)"/><path class="cls-38" d="M300.8,43a2.46,2.46,0,0,0,1.48-1.3A5.89,5.89,0,0,0,302.7,40c0-.06-.34.76-.58,1.29a1.91,1.91,0,0,1-1.24,1.07Z" transform="translate(-5.98 -9.13)"/><path class="cls-38" d="M306.74,45l.3,6.69c.49.25.75-5.62.75-5.62L307.2,44c-.21-1.34-.48-4.11-.48-4.11Z" transform="translate(-5.98 -9.13)"/><path class="cls-38" d="M300.48,52.81c1.17,0,2.34-.05,3.5-.14a.11.11,0,0,0,.1-.12.1.1,0,0,0-.11-.1c-1.36.11-2.75.15-4.11.13h0a.11.11,0,0,0-.11.11.11.11,0,0,0,.11.12Z" transform="translate(-5.98 -9.13)"/><path class="cls-38" d="M309,52.8c.72,0,1.44,0,2.16-.11a.11.11,0,0,0,.1-.12.11.11,0,0,0-.13-.1,21.53,21.53,0,0,1-3.59.06.11.11,0,0,0-.12.1.11.11,0,0,0,.1.12C308,52.78,308.51,52.8,309,52.8Z" transform="translate(-5.98 -9.13)"/><path class="cls-40" d="M306.93,9.41c1.84.25,2.3,2,2.15,3.78a1.89,1.89,0,0,0-.31,1l-.32.07,0-1.58s-.63-.2-.37-1.32a7,7,0,0,1-3.29-.06s.12,1.05-.65,1.26l-.06,1.33-.24,0s0-.4-.27-.52C303.35,11.45,303.77,9,306.93,9.41Z" transform="translate(-5.98 -9.13)"/><path class="cls-37" d="M309.39,12.05a1.77,1.77,0,0,1,.39-1.06c.56-.86-1.59-1.86-3.32-1.86h-.28c-1.72,0-3.88,1-3.32,1.86a1.84,1.84,0,0,1,.4,1.06Z" transform="translate(-5.98 -9.13)"/><path class="cls-11" d="M309.42,12.45c0,.39-1.38.71-3.08.71s-3.08-.32-3.08-.71a30.55,30.55,0,0,1,3-.4C307.08,12.05,309.42,12.45,309.42,12.45Z" transform="translate(-5.98 -9.13)"/><path class="cls-41" d="M309.42,12.05s-2.34-.39-3.12-.39-3,.39-3,.39v.4a30.55,30.55,0,0,1,3-.4c.78,0,3.12.4,3.12.4Z" transform="translate(-5.98 -9.13)"/><path class="cls-38" d="M304.05,18.33a4.23,4.23,0,0,0,1.29,1.31l.73-1.32-.43,1.89A4.08,4.08,0,0,1,304.05,18.33Z" transform="translate(-5.98 -9.13)"/><path class="cls-38" d="M309.14,18.32a4.88,4.88,0,0,1-1.75,1.32l-.61-1.32.31,1.89A5.63,5.63,0,0,0,309.14,18.32Z" transform="translate(-5.98 -9.13)"/><ellipse class="cls-18" cx="305.28" cy="18.82" rx="0.34" ry="0.19" transform="translate(149.76 276.5) rotate(-64.26)"/><ellipse class="cls-18" cx="307.5" cy="18.85" rx="0.19" ry="0.34" transform="translate(16.35 126.3) rotate(-25.74)"/><path class="cls-38" d="M305.92,37.14S305.61,21,306.26,20c0-.05.07,17.13.07,17.13S305.92,37.19,305.92,37.14Z" transform="translate(-5.98 -9.13)"/><path class="cls-38" d="M305.44,23.53l-1.83.86-1.84-.86c-.1.17,1.83,1.2,1.83,1.2h0S305.54,23.7,305.44,23.53Z" transform="translate(-5.98 -9.13)"/><path class="cls-38" d="M311.26,23.53l-1.83.86-1.84-.86c-.1.17,1.83,1.2,1.83,1.2h0S311.37,23.7,311.26,23.53Z" transform="translate(-5.98 -9.13)"/><circle class="cls-38" cx="297.63" cy="14.74" r="0.17"/><circle class="cls-38" cx="303.45" cy="14.74" r="0.17"/><rect class="cls-42" x="295.98" y="13.08" width="3.3" height="0.72"/><rect class="cls-43" x="301.65" y="13.39" width="0.43" height="0.49"/><rect class="cls-44" x="304.83" y="13.78" width="0.43" height="0.49"/><rect class="cls-45" x="304.4" y="13.39" width="0.43" height="0.49"/><rect class="cls-32" x="303.98" y="13.39" width="0.43" height="0.49"/><rect class="cls-46" x="302.08" y="13.39" width="1.48" height="0.49"/><rect class="cls-47" x="303.55" y="13.39" width="0.43" height="0.49"/><polygon class="cls-31" points="304.83 13.2 304.4 13.2 303.98 13.2 303.55 13.2 302.08 13.2 301.65 13.2 301.65 13.39 302.08 13.39 303.55 13.39 303.98 13.39 304.4 13.39 304.83 13.39 305.26 13.39 305.26 13.2 304.83 13.2"/><polygon class="cls-18" points="304.99 12.5 301.89 12.5 301.7 12.37 305.18 12.37 304.99 12.5"/><polygon class="cls-18" points="304.62 12.69 302.25 12.69 302.11 12.55 304.77 12.55 304.62 12.69"/><polygon class="cls-18" points="304.15 12.88 302.73 12.88 302.5 12.74 304.4 12.74 304.15 12.88"/><polygon class="cls-18" points="303.68 13.06 303.2 13.06 302.98 12.93 303.89 12.93 303.68 13.06"/><path class="cls-18" d="M308.94,21.35a.51.51,0,0,1,.51-.51.5.5,0,0,1,.5.51.68.68,0,0,0-.21-.1,1.34,1.34,0,0,0-.29.1.77.77,0,0,0-.22-.1A1.34,1.34,0,0,0,308.94,21.35Z" transform="translate(-5.98 -9.13)"/><polygon class="cls-37" points="303.47 13.15 302.89 12.34 304.06 12.34 303.47 13.15"/><rect class="cls-38" x="295.37" y="27.95" width="11.48" height="1.4"/><rect class="cls-18" x="299.75" y="27.95" width="2.53" height="1.4"/><path class="cls-40" d="M358,57c.05.37.39.65.45,1,.09.69.7,5.5,1.29,5.33s.67.63,1.25.81.82.55,1.29.7a1.64,1.64,0,0,0,1.39-.3l.12.11a1.8,1.8,0,0,0,1.77.3c.45-.22.73-.67,1.18-.89a3.2,3.2,0,0,1,1.79,0,1.61,1.61,0,0,0,1.64-.5,1.5,1.5,0,0,0-.06-1.38,4.91,4.91,0,0,1-.52-1.33c-.06-.53.16-1.09-.06-1.58s-1.19-.94-1.2-1.63c0-.38.29-.71.29-1.08s-.45-.83-.89-1c-1.25-.6-1.09-1.17-1.43-2.38a4.89,4.89,0,0,0-1.12-2c-.64-.69-3.22-1.62-4.58,0a4.2,4.2,0,0,0-.82,2.11c-.15,1.25.09,1.79-1.06,2.57C358.35,56.1,357.94,56.5,358,57Z" transform="translate(-5.98 -9.13)"/><circle class="cls-47" cx="355.91" cy="44.9" r="2.57"/><path class="cls-36" d="M347.54,66.26c-.22,0,1.19.69,3.7,2,2.06,1,3.54,1.4,4.62,1S360.48,61,360.48,61l-.07-2.09A2.82,2.82,0,0,0,357.88,60c-1,1.37-3.1,7.12-3.1,7.12L348.7,65.9Z" transform="translate(-5.98 -9.13)"/><path class="cls-36" d="M346.8,66A1.17,1.17,0,1,0,348,64.83,1.16,1.16,0,0,0,346.8,66Z" transform="translate(-5.98 -9.13)"/><path class="cls-48" d="M360.41,58.89A3.07,3.07,0,0,0,357.68,60a4.46,4.46,0,0,0-.53.91c-.64,1.41-1.72,3.53-1.72,3.53l2.9,1.91L360.48,61Z" transform="translate(-5.98 -9.13)"/><path class="cls-49" d="M358.63,62.78c-.63,1.41-1.18,3-1.18,3l.88.58L360.48,61A13.65,13.65,0,0,0,358.63,62.78Z" transform="translate(-5.98 -9.13)"/><path class="cls-50" d="M358,101.05c.12.73,1.29.45,2.21.39s1.55-.67,1.93-.7a15.23,15.23,0,0,0,1.75-.42s.31-.12.12-.38l-6,.9Z" transform="translate(-5.98 -9.13)"/><path class="cls-36" d="M371.36,79.79s-.35-6.47-.19-6.78-2.12-7-2.56-8.55a3.73,3.73,0,0,0-.22-.61l-.47.17a4,4,0,0,0-1,.43,2.67,2.67,0,0,0-.95,1.39,5.37,5.37,0,0,0-.2,1.12c.91,1.32,2.35,3.41,2.54,4.47a73.48,73.48,0,0,0,1.94,8.65C370.56,80.8,371.36,79.79,371.36,79.79Z" transform="translate(-5.98 -9.13)"/><path class="cls-51" d="M370.18,103.45l-.86-4-2-12.24s-.57-8.86-.38-9.53.38-4.29.38-4.29l-8-3-1,1s.05,7.87-.14,9.11,3.64,17,3.64,17A7.16,7.16,0,0,1,360.33,99c-1.33.9-2.45,1.31-2.37,1.75.12.72,1.29.45,2.21.38s1.55-.67,1.93-.69a14.84,14.84,0,0,0,1.75-.43s.25-.19.27-.87a6.11,6.11,0,0,0-.47-1.85h0c-.19-1.75-1.22-11.18-1.22-11.7s.1-7.53.1-7.53,1.14,5.72,1.52,8.2,3.53,12.89,3.53,12.89l.14,2.31s.33,3.46,1.34,3.82c.72.26,1-.65,1.16-1.19A1.63,1.63,0,0,0,370.18,103.45Z" transform="translate(-5.98 -9.13)"/><path class="cls-49" d="M358.13,82.24l2.59,12.05,2.86,0-.77-7.18-.28-8.44,1.53,8.78,2.74,9.83,2.48-.45-1.62-10.22s-.4-13.71-.4-14.28-.51.09-.51.09L358.86,71l-1,2.17Z" transform="translate(-5.98 -9.13)"/><path class="cls-48" d="M363.72,59.36a11.62,11.62,0,0,0-4-.33,2.34,2.34,0,0,0-1.84,1.62,27.39,27.39,0,0,0-.45,2.78c-.05,1.78,1.71,3.9,1.71,3.9L357.66,73s6.58,2.52,8.19,1.72,1.86-1.84,1.8-2.31c0-.29-1.13-3.67-1.12-4l.88-4.87a3.07,3.07,0,0,0-1.28-2.43Z" transform="translate(-5.98 -9.13)"/><path class="cls-36" d="M369.41,80.44a1.17,1.17,0,1,0,1.16-1.16A1.16,1.16,0,0,0,369.41,80.44Z" transform="translate(-5.98 -9.13)"/><path class="cls-48" d="M368.52,64.15c0,.1.07.21.09.31C368.59,64.36,368.55,64.25,368.52,64.15Z" transform="translate(-5.98 -9.13)"/><path class="cls-48" d="M366.66,68.23c.17-.55,2.52-1.5,2.68-1.56,0,.1-1-2.92-.95-2.82a5.62,5.62,0,0,0-2.92-3.12c-1.22-.48-4.16,1.11-4.16,1.11-.31.76,3.69,4,3.69,4s.34.45.8,1.11C365.83,66.58,366.66,68.23,366.66,68.23Z" transform="translate(-5.98 -9.13)"/><path class="cls-48" d="M371.28,79.88a.32.32,0,0,0,.08-.09Z" transform="translate(-5.98 -9.13)"/><path class="cls-36" d="M362.79,59.35s1.16.32,1.26.59-.75-.25-1.67.42a8.38,8.38,0,0,0-1.7,1.91,2.59,2.59,0,0,1-.83-2.3C359.88,58.22,362.79,59.35,362.79,59.35Z" transform="translate(-5.98 -9.13)"/><path class="cls-36" d="M359.68,56.82l1.07,3.24h0a2,2,0,0,0,2.27.24h0a.49.49,0,0,0,.24-.56l-.8-3.15Z" transform="translate(-5.98 -9.13)"/><polygon class="cls-49" points="355.11 52.62 355.79 52.7 358.36 50.77 355.32 50.99 355.11 52.62"/><polygon class="cls-48" points="354.75 53.65 353.05 51.36 354.25 49.34 354.44 49.9 354.75 53.65"/><polygon class="cls-48" points="355.32 50.99 355.82 52.22 358.36 50.77 357.25 49.57 357.01 49.5 357.06 49.83 355.32 50.99"/><path class="cls-36" d="M357.86,55.31A3.16,3.16,0,1,0,361,52.16,3.16,3.16,0,0,0,357.86,55.31Z" transform="translate(-5.98 -9.13)"/><path class="cls-40" d="M358.48,54.76a.64.64,0,0,1-.44-.48,3.15,3.15,0,0,1,6.13,1,2.73,2.73,0,0,1,0,.41,1,1,0,0,1-.42,0c-.32-.08-1-.34-.8-.72-.11.19-.12.46,0,1.18C361.77,54.4,359.67,55.21,358.48,54.76Z" transform="translate(-5.98 -9.13)"/><path class="cls-36" d="M362.82,55.41a1,1,0,1,0,1-1A1,1,0,0,0,362.82,55.41Z" transform="translate(-5.98 -9.13)"/><path class="cls-18" d="M272.94,67.07c.4-.1.78-.2,1-.28l2.54-.76s5.77-7.68,21.93-14.08c4.89-1.94,15.58-3.76,20.8-3.17,5.58.63,10.68,3.3,13.09,5.77,3.23,3.3,6.25,12.52,7.07,17.06,1,5.5-1.64,22.31-1.64,22.31s-5.43,3.64-7.49,3.49c-1.73-.12-5.32-3.74-5.32-3.74L329,90.88l-.51-7.67L326,78.58l-.76,7.48s-5.64,3.52-7.73,3.24c-1.74-.24-4.57-4-4.57-4l3.87-1.84-1.21-.57-7,2.28.51,14.21-1.91,10.78s-5.46,3.68-7.48,3.48c-1.72-.16-5.2-4.62-5.2-4.62l4.06-2.48.07-7.92-1.88-8.23-2.88,10.89s-5.24,3.78-7.23,3.74-6.09-3.87-6.09-3.87l5.08-3.29s0-6.63-.51-8.75a36.67,36.67,0,0,0-2.22-4.85s-10.73,4.23-14.52,4.47c-1.33.08-4.3,0-5.24-.93s-1.09-3.4-.85-4.53c.35-1.62,3.81-5.45,3.81-5.45a22.94,22.94,0,0,1,0-4.69,11.48,11.48,0,0,1,2.28-3.81,5.16,5.16,0,0,1,.57-.45Z" transform="translate(-5.98 -9.13)"/><path class="cls-52" d="M312.32,84l-3.72,1.21.51,14.21-1.91,10.78s-5.46,3.68-7.48,3.48c-1.72-.16-5.2-4.62-5.2-4.62l4.06-2.48.07-7.92-1.88-8.23-2.88,10.89s-5.24,3.78-7.23,3.74-6.09-3.87-6.09-3.87l5.08-3.29s0-6.63-.51-8.75a36.67,36.67,0,0,0-2.22-4.85s-.64.59-4.75,1.76c0,0,7.72-4.64,8.82-7.11,2.76-6.24,1.05-22,1.05-22a74.44,74.44,0,0,1,7.18-3.64s7.86,7.24,12.37,16.17A67.42,67.42,0,0,1,312.32,84Z" transform="translate(-5.98 -9.13)"/><path class="cls-11" d="M269,68.87s-.89-3.05,1.46-3.73c1.52-.45,2.51,1.93,2.51,1.93Z" transform="translate(-5.98 -9.13)"/><path class="cls-53" d="M332.34,54.55c3.23,3.3,6.25,12.52,7.07,17.06,1,5.5-1.64,22.31-1.64,22.31s-5.43,3.64-7.49,3.49c-1.73-.12-5.32-3.74-5.32-3.74L329,90.88l-.51-7.67L326,78.58l-.76,7.48s-5.64,3.52-7.73,3.24c-1.74-.24-4.57-4-4.57-4l3.87-1.84-1.21-.57-7,2.28.51,14.21-1.91,10.78s-5.46,3.68-7.48,3.48c-1.72-.16-5.2-4.62-5.2-4.62l4.06-2.48.07-7.92-1.88-8.23-2.88,10.89s-5.24,3.78-7.23,3.74-6.09-3.87-6.09-3.87l5.08-3.29s0-6.63-.51-8.75a36.67,36.67,0,0,0-2.22-4.85s-10.73,4.23-14.52,4.47c0,0,9.92-1.84,13.47-8.56,3.06-5.79,2.54,1.39,23.65-4.22,18-4.78,14.86-18.65,19.68-18.81C330.9,57,332.34,54.55,332.34,54.55Z" transform="translate(-5.98 -9.13)"/><path class="cls-54" d="M278.17,86A64.2,64.2,0,0,0,285,81.16c1.36-1.23,9.21,3.23,9.21,3.23l2.52,6s-5.56-7.24-9.6-7.48a12.94,12.94,0,0,0-4.25,1.35A27.92,27.92,0,0,1,278.17,86Z" transform="translate(-5.98 -9.13)"/><path class="cls-54" d="M307.21,81.16a8.15,8.15,0,0,1,1.39,4l17.28-5.71s.23-.71.09-.88c-2.22-2.79-4.25-11.67-4.25-11.67s-.89,4.39-.57,5.9c.17.77,1.42,2,1.27,2.79-.39,2.06-4.23,3.8-6.21,4.5A25.42,25.42,0,0,1,307.21,81.16Z" transform="translate(-5.98 -9.13)"/><path class="cls-11" d="M296.77,90.39l-2.88,10.89s-5.24,3.78-7.23,3.74-6.09-3.87-6.09-3.87l5.08-3.29s0-6.63-.51-8.75a36.67,36.67,0,0,0-2.22-4.85S286.5,82.49,288,83C292.3,84.48,296.77,90.39,296.77,90.39Z" transform="translate(-5.98 -9.13)"/><path class="cls-11" d="M308.6,85.17l.51,14.21-1.91,10.78s-5.46,3.68-7.48,3.48c-1.72-.16-5.2-4.62-5.2-4.62l4.06-2.48.07-7.92-1.88-8.23s-2.89-6.43-2.84-7.16c.28-4.4,5.68-4.89,7.55-4.89C308.25,78.33,308.6,85.17,308.6,85.17Z" transform="translate(-5.98 -9.13)"/><path class="cls-11" d="M325.88,79.46l-.67,6.6s-5.64,3.52-7.73,3.24c-1.74-.24-4.57-4-4.57-4l3.87-1.84-1.21-.57Z" transform="translate(-5.98 -9.13)"/><path class="cls-11" d="M331.66,57.12c5.46,2.79,6.93,9.95,7.75,14.49,1,5.5-1.64,22.31-1.64,22.31s-5.43,3.64-7.49,3.49c-1.73-.12-5.32-3.74-5.32-3.74L329,90.88l-.51-7.67L326,78.58s-6.31-11.08-3.2-17.11S329.46,56,331.66,57.12Z" transform="translate(-5.98 -9.13)"/><path class="cls-11" d="M274,79.46c0,2.35-2.06,4.19-3.47,4.19s-.64-1.83-.64-4.18S270.62,76,272,76,274,77.11,274,79.46Z" transform="translate(-5.98 -9.13)"/><path class="cls-11" d="M281,74.44s1.9-4.88-.46-5.57c-1.52-.44-3.26,2.37-3.26,2.37Z" transform="translate(-5.98 -9.13)"/><path class="cls-18" d="M320.81,91.81l.42-.12,1-.3s2.31-3.07,8.78-5.63a23.13,23.13,0,0,1,8.32-1.27,9.33,9.33,0,0,1,5.24,2.31c1.29,1.32,2.5,5,2.82,6.82.4,2.2-.65,8.93-.65,8.93s-2.18,1.45-3,1.39-2.13-1.49-2.13-1.49l1.62-1.12-.2-3.07-1-1.85-.31,3s-2.25,1.41-3.09,1.3-1.83-1.6-1.83-1.6l1.55-.74-.48-.22-2.79.91.2,5.68-.76,4.31s-2.19,1.48-3,1.4-2.08-1.85-2.08-1.85l1.63-1,0-3.17-.75-3.3-1.15,4.36S327.1,107,326.3,107s-2.44-1.55-2.44-1.55l2-1.32a24.59,24.59,0,0,0-.2-3.5,14.88,14.88,0,0,0-.89-1.94,33,33,0,0,1-5.81,1.79,3.64,3.64,0,0,1-2.09-.37,2.62,2.62,0,0,1-.34-1.81,8.94,8.94,0,0,1,1.52-2.18,8.8,8.8,0,0,1,0-1.88,4.7,4.7,0,0,1,.91-1.52,1.54,1.54,0,0,1,.23-.18Z" transform="translate(-5.98 -9.13)"/><path class="cls-52" d="M336.56,98.56l-1.48.49.2,5.68-.76,4.31s-2.19,1.48-3,1.4-2.08-1.85-2.08-1.85l1.63-1,0-3.17-.75-3.3-1.15,4.36S327.1,107,326.3,107s-2.44-1.55-2.44-1.55l2-1.32a24.59,24.59,0,0,0-.2-3.5,14.88,14.88,0,0,0-.89-1.94,6.05,6.05,0,0,1-1.9.71s3.09-1.86,3.53-2.85c1.1-2.49.42-8.78.42-8.78a29.25,29.25,0,0,1,2.87-1.46,26.17,26.17,0,0,1,4.95,6.47A26.78,26.78,0,0,1,336.56,98.56Z" transform="translate(-5.98 -9.13)"/><path class="cls-11" d="M319.22,92.53s-.36-1.22.59-1.5c.6-.17,1,.78,1,.78Z" transform="translate(-5.98 -9.13)"/><path class="cls-53" d="M344.58,86.8c1.29,1.32,2.5,5,2.82,6.82.4,2.2-.65,8.93-.65,8.93s-2.18,1.45-3,1.39-2.13-1.49-2.13-1.49l1.62-1.12-.2-3.07-1-1.85-.31,3s-2.25,1.41-3.09,1.3-1.83-1.6-1.83-1.6l1.55-.74-.48-.22-2.79.91.2,5.68-.76,4.31s-2.19,1.48-3,1.4-2.08-1.85-2.08-1.85l1.63-1,0-3.17-.75-3.3-1.15,4.36S327.1,107,326.3,107s-2.44-1.55-2.44-1.55l2-1.32a24.59,24.59,0,0,0-.2-3.5,14.88,14.88,0,0,0-.89-1.94,33,33,0,0,1-5.81,1.79s4-.74,5.39-3.42c1.23-2.32,1,.55,9.47-1.69,7.18-1.91,5.94-7.46,7.87-7.53C344,87.76,344.58,86.8,344.58,86.8Z" transform="translate(-5.98 -9.13)"/><path class="cls-54" d="M322.9,99.39a25.6,25.6,0,0,0,2.75-2c.55-.49,3.69,1.29,3.69,1.29l1,2.4s-2.22-2.89-3.84-3a5.19,5.19,0,0,0-1.7.54A11.42,11.42,0,0,1,322.9,99.39Z" transform="translate(-5.98 -9.13)"/><path class="cls-54" d="M334.52,97.44a3.27,3.27,0,0,1,.56,1.61L342,96.76s.09-.28,0-.35c-.89-1.12-1.7-4.67-1.7-4.67a9.69,9.69,0,0,0-.23,2.36c.07.31.57.81.51,1.12-.16.82-1.7,1.52-2.49,1.8A10.27,10.27,0,0,1,334.52,97.44Z" transform="translate(-5.98 -9.13)"/><path class="cls-11" d="M330.34,101.13l-1.15,4.36S327.1,107,326.3,107s-2.44-1.55-2.44-1.55l2-1.32a24.59,24.59,0,0,0-.2-3.5,14.88,14.88,0,0,0-.89-1.94s1.43-.71,2-.5C328.56,98.77,330.34,101.13,330.34,101.13Z" transform="translate(-5.98 -9.13)"/><path class="cls-11" d="M335.08,99.05l.2,5.68-.76,4.31s-2.19,1.48-3,1.4-2.08-1.85-2.08-1.85l1.63-1,0-3.17-.75-3.3a25.1,25.1,0,0,1-1.13-2.86c.11-1.76,2.27-2,3-2A2.85,2.85,0,0,1,335.08,99.05Z" transform="translate(-5.98 -9.13)"/><path class="cls-11" d="M342,96.76l-.27,2.64s-2.25,1.41-3.09,1.3-1.83-1.6-1.83-1.6l1.55-.74-.48-.22Z" transform="translate(-5.98 -9.13)"/><path class="cls-11" d="M344.3,87.82c2.19,1.12,2.78,4,3.1,5.8.4,2.2-.65,8.93-.65,8.93s-2.18,1.45-3,1.39-2.13-1.49-2.13-1.49l1.62-1.12-.2-3.07-1-1.85s-2.53-4.43-1.28-6.84S343.42,87.37,344.3,87.82Z" transform="translate(-5.98 -9.13)"/><path class="cls-11" d="M321.24,96.76a1.7,1.7,0,0,1-1.39,1.68c-.56,0-.25-.73-.25-1.67s.28-1.37.85-1.37S321.24,95.82,321.24,96.76Z" transform="translate(-5.98 -9.13)"/><path class="cls-11" d="M324.05,94.75s.75-2-.19-2.22c-.6-.18-1.3.94-1.3.94Z" transform="translate(-5.98 -9.13)"/><g id="_Gruppo_" data-name="&lt;Gruppo&gt;"><polygon id="_Tracciato_" data-name="&lt;Tracciato&gt;" class="cls-5" points="269.73 141.74 98.02 240.21 43.07 209.08 214.76 110.4 269.73 141.74"/><polygon class="cls-55" points="255.59 125.83 255.69 134.47 245.08 140.6 245 139.06 246.43 138.21 246.52 133.03 245.67 132.53 245.67 131.18 255.59 125.83"/><polygon class="cls-56" points="255.59 125.83 245.67 131.18 245.67 130.01 252.44 126.1 252.44 125.6 252.43 123.75 255.59 125.83"/><polygon class="cls-56" points="252.44 125.6 252.44 126.1 245.67 130.01 245.67 131.18 244.67 131.72 242.47 130.59 252.44 125.6"/><polygon class="cls-18" points="252.3 77.94 127.09 150.22 82.57 124.35 207.77 52.07 252.3 77.94"/><polygon class="cls-55" points="246.52 133.03 246.43 138.21 245 139.06 244.67 131.72 245.67 131.18 245.67 132.53 245.67 133.53 246.52 133.03"/><polygon class="cls-55" points="246.52 133.03 245.67 133.53 245.67 132.53 246.52 133.03"/><polygon class="cls-57" points="245 139.06 245.08 140.6 245.07 140.61 243.69 139.84 245 139.06"/><polygon class="cls-57" points="244.67 131.72 245 139.06 243.69 139.84 242.96 139.43 242.47 130.59 244.67 131.72"/><path class="cls-58" d="M225.6,163.14v0L223.73,162a8.78,8.78,0,0,0-.54-2.05l.28.19a6.07,6.07,0,0,1,2.13,3Z" transform="translate(-5.98 -9.13)"/><path class="cls-59" d="M223.73,162a12.35,12.35,0,0,1,.15,1.88c0,6.72-4.72,14.89-10.53,18.25-2.62,1.52-5,1.79-6.86,1a5.15,5.15,0,0,1-1.11-.64,6.1,6.1,0,0,1-2-2.84,9.82,9.82,0,0,1-.45-1.85l3.84-2.22a5.9,5.9,0,0,0,.17.6,3.89,3.89,0,0,0,1.29,1.82,3.36,3.36,0,0,0,.71.41,5.07,5.07,0,0,0,4.41-.66,15,15,0,0,0,6.75-11.72c0-2.08-.7-3.57-1.85-4.3l0,0-.22-.13a3.72,3.72,0,0,0-2.39-.3h-.07a12.7,12.7,0,0,1,3-1.62,7.16,7.16,0,0,1,1.06-.28Z" transform="translate(-5.98 -9.13)"/><path class="cls-59" d="M223.73,162l-4.1-2.58a4.92,4.92,0,0,1,3.56.53A8.78,8.78,0,0,1,223.73,162Z" transform="translate(-5.98 -9.13)"/><path class="cls-60" d="M219.44,156.3l1.14.65a5.34,5.34,0,0,0-1.83-.55Z" transform="translate(-5.98 -9.13)"/><path class="cls-61" d="M218.25,161.76c1.15.73,1.85,2.22,1.85,4.3a15,15,0,0,1-6.75,11.72,5.07,5.07,0,0,1-4.41.66,3.36,3.36,0,0,1-.71-.41,3.89,3.89,0,0,1-1.29-1.82,5.9,5.9,0,0,1-.17-.6l.73-.42c.17-.1.15-.3.17-.48a23.3,23.3,0,0,1,3.44-8.72,17.83,17.83,0,0,1,4.42-4.67h.07a3.72,3.72,0,0,1,2.39.3l.22.13Zm-1.93,6.5a2.12,2.12,0,0,0-.82-1.89h0l-.09-.06a1.58,1.58,0,0,0-1-.14,2.84,2.84,0,0,0-1,.38,6.54,6.54,0,0,0-3,5.13,2.84,2.84,0,0,0,.16,1,1.61,1.61,0,0,0,.57.8,1,1,0,0,0,.3.18,2.19,2.19,0,0,0,1.94-.29A6.59,6.59,0,0,0,216.32,168.26Z" transform="translate(-5.98 -9.13)"/><path class="cls-62" d="M215.5,166.37a2.12,2.12,0,0,1,.82,1.89,6.59,6.59,0,0,1-3,5.13,2.19,2.19,0,0,1-1.94.29,1,1,0,0,1-.3-.18,1.61,1.61,0,0,1-.57-.8,2.84,2.84,0,0,1-.16-1,6.54,6.54,0,0,1,3-5.13,2.84,2.84,0,0,1,1-.38,1.58,1.58,0,0,1,1,.14l.09.06Z" transform="translate(-5.98 -9.13)"/><path class="cls-60" d="M208.74,153.14l-3,1.63a13.28,13.28,0,0,1,1.16-.74A12.42,12.42,0,0,1,208.74,153.14Z" transform="translate(-5.98 -9.13)"/><path class="cls-63" d="M205.38,182.52l-5.27-3.05a16.25,16.25,0,0,0,.27-2.91v-.14l2.39,1.5.16-.09a9.82,9.82,0,0,0,.45,1.85A6.1,6.1,0,0,0,205.38,182.52Z" transform="translate(-5.98 -9.13)"/><path class="cls-60" d="M202.92,174.32l.13.18-.2,2.49c0-.31,0-.61,0-.94A14.61,14.61,0,0,1,202.92,174.32Z" transform="translate(-5.98 -9.13)"/><path class="cls-60" d="M202.93,177.83l-.16.09.08-.93C202.87,177.29,202.89,177.56,202.93,177.83Z" transform="translate(-5.98 -9.13)"/><path class="cls-58" d="M202.77,177.92l-2.39-1.5a11.21,11.21,0,0,0-.41-3,6.64,6.64,0,0,1,2.24,2.87A10.12,10.12,0,0,1,202.77,177.92Z" transform="translate(-5.98 -9.13)"/><path class="cls-59" d="M200.38,176.42v.14a16.25,16.25,0,0,1-.27,2.91l-.54-.29-.27-.18a6.68,6.68,0,0,1-2.84-5Z" transform="translate(-5.98 -9.13)"/><path class="cls-59" d="M200.38,176.42,196.46,174c-.05-.36-.08-.73-.1-1.12a4.21,4.21,0,0,1,.6-.11,4.08,4.08,0,0,1,3,.71A11.21,11.21,0,0,1,200.38,176.42Z" transform="translate(-5.98 -9.13)"/><path class="cls-59" d="M199.57,179.18l.54.29c-1.08,6-5.27,12.46-10.26,15.33-2.62,1.52-5,1.8-6.85,1a5.41,5.41,0,0,1-1.12-.64,6.05,6.05,0,0,1-2-2.84,9.42,9.42,0,0,1-.44-1.88c1.49-.87,2.77-1.64,3.82-2.24.06.22.11.43.18.65a4,4,0,0,0,1.3,1.82,2.92,2.92,0,0,0,.7.41,5,5,0,0,0,4.41-.66,15,15,0,0,0,6.76-11.72c0-2.09-.71-3.57-1.86-4.31h0l-.23-.14a3.09,3.09,0,0,0-.74-.26,8.83,8.83,0,0,1,1.51-.81l1.2.76a6.68,6.68,0,0,0,2.84,5Z" transform="translate(-5.98 -9.13)"/><path class="cls-60" d="M197.08,169.63a3.15,3.15,0,0,0-.47-.2v-.06Z" transform="translate(-5.98 -9.13)"/><path class="cls-59" d="M196.46,174l-1.2-.76a8.83,8.83,0,0,1,1.1-.36C196.38,173.24,196.41,173.61,196.46,174Z" transform="translate(-5.98 -9.13)"/><path class="cls-61" d="M194.75,174.43c1.15.74,1.86,2.22,1.86,4.31a15,15,0,0,1-6.76,11.72,5,5,0,0,1-4.41.66,2.92,2.92,0,0,1-.7-.41,4,4,0,0,1-1.3-1.82c-.07-.22-.12-.43-.18-.65l2.92-1.73c.25-.15.2-.43.25-.7.14-.64.3-1.28.48-1.9a3.39,3.39,0,0,0,0,.45,2.75,2.75,0,0,0,.16,1,1.61,1.61,0,0,0,.56.79,1.59,1.59,0,0,0,.3.18,2.19,2.19,0,0,0,1.94-.29,6.54,6.54,0,0,0,3-5.13,2.12,2.12,0,0,0-.8-1.89h0l-.1-.06a1.61,1.61,0,0,0-1.06-.12,2.83,2.83,0,0,0-1,.36A5.75,5.75,0,0,0,188,181.1a18.31,18.31,0,0,1,2.73-4.33,14,14,0,0,1,3.06-2.75,3.09,3.09,0,0,1,.74.26l.23.14Z" transform="translate(-5.98 -9.13)"/><path class="cls-62" d="M192,179.05a2.12,2.12,0,0,1,.8,1.89,6.54,6.54,0,0,1-3,5.13,2.19,2.19,0,0,1-1.94.29,1.59,1.59,0,0,1-.3-.18,1.61,1.61,0,0,1-.56-.79,2.75,2.75,0,0,1-.16-1,3.39,3.39,0,0,1,0-.45A21.56,21.56,0,0,1,188,181.1a5.75,5.75,0,0,1,1.89-1.88,2.83,2.83,0,0,1,1-.36,1.61,1.61,0,0,1,1.06.12l.1.06Z" transform="translate(-5.98 -9.13)"/><path class="cls-60" d="M188,181.1a21.56,21.56,0,0,0-1.05,2.81A6.41,6.41,0,0,1,188,181.1Z" transform="translate(-5.98 -9.13)"/><path class="cls-60" d="M185.48,165.74,182,167.63a12.49,12.49,0,0,1,1.4-.92A11.39,11.39,0,0,1,185.48,165.74Z" transform="translate(-5.98 -9.13)"/><path class="cls-63" d="M181.88,195.2l-5.29-3,2.85-1.67a9.42,9.42,0,0,0,.44,1.88A6.05,6.05,0,0,0,181.88,195.2Z" transform="translate(-5.98 -9.13)"/><path class="cls-64" d="M171.89,185.23v9.7c-.36.2-.71.41-1.07.63v-7.5L168.71,187Z" transform="translate(-5.98 -9.13)"/><path class="cls-55" d="M170.82,195.54v0c-16.63,9.77-41,24.09-42.36,24.91l0-10.2,4.79-2.76,0-13.41,6.08-3.42.24.11.06,10.83,0,3.91,31.25-17.47Z" transform="translate(-5.98 -9.13)"/><polygon class="cls-65" points="164.84 178.93 133.59 196.41 133.57 192.49 134.68 193.32 134.68 193.57 134.87 193.47 162.74 177.88 164.84 178.93"/><path class="cls-13" d="M248.45,139.72l10-5v-1.84l0-26.68-.05,0-.05-19.17L133.06,159.35l.09,32.44.06,0,3.82-2.12,3.53-2-.16-.31.21-.11,0,15.15.19.15L168.71,187l3.18-1.77v9.7l4.7-2.78,2.85-1.67c1.49-.87,2.77-1.64,3.82-2.24l2.92-1.73c.25-.14.2-.43.25-.7.14-.64.3-1.28.48-1.9A6.41,6.41,0,0,1,188,181.1a18.31,18.31,0,0,1,2.73-4.33,14,14,0,0,1,3.06-2.75,8.16,8.16,0,0,1,2.61-1.17,4.21,4.21,0,0,1,.6-.11,4.08,4.08,0,0,1,3,.71,6.64,6.64,0,0,1,2.24,2.87,10.12,10.12,0,0,1,.56,1.6l4-2.31.73-.42c.17-.1.15-.3.17-.48a23.3,23.3,0,0,1,3.44-8.72,17.83,17.83,0,0,1,4.42-4.67,12.7,12.7,0,0,1,3-1.62,7.16,7.16,0,0,1,1.06-.28,4.92,4.92,0,0,1,3.56.53l.28.19a6.07,6.07,0,0,1,2.13,3h0L249.67,149l-.73-.41Z" transform="translate(-5.98 -9.13)"/><polygon class="cls-60" points="134.87 193.47 134.68 193.57 134.68 193.32 134.87 193.47"/><polygon class="cls-64" points="134.59 180.94 134.68 193.32 133.57 192.49 133.51 181.66 133.51 181.42 133.28 181.55 131.06 180.56 134.58 178.59 134.59 180.94"/><polygon class="cls-66" points="133.51 181.42 133.51 181.66 133.28 181.55 133.51 181.42"/><polygon class="cls-67" points="133.28 181.55 127.19 184.97 127.18 182.66 127.23 182.69 131.06 180.56 133.28 181.55"/><polygon class="cls-68" points="127.19 184.97 127.23 198.38 120.08 194.23 120.75 193.84 122.89 192.6 122.88 187.72 122.86 182.49 127.19 184.97"/><polygon class="cls-69" points="127.23 198.38 122.45 201.15 115.31 196.99 115.68 196.78 120.08 194.23 127.23 198.38"/><polygon class="cls-67" points="127.18 182.66 127.19 184.97 122.86 182.49 122.86 180.09 127.18 182.66"/><polygon class="cls-70" points="127.09 150.22 127.18 182.66 122.86 180.09 122.84 177.96 122.8 162.68 122.8 159.96 122.78 159.89 121.48 156.87 87.56 137.15 82.61 140.02 82.57 124.35 127.09 150.22"/><path class="cls-62" d="M128.85,196.84l0,4.89L126.73,203l-.67.39-.39-.23,2-1.16,0-4.57C128.06,197.2,128.46,197,128.85,196.84Z" transform="translate(-5.98 -9.13)"/><path class="cls-55" d="M128.83,191.62l0,5.22c-.39.18-.79.36-1.18.56l0-9.69,1.17-.63v4.54Z" transform="translate(-5.98 -9.13)"/><polygon class="cls-55" points="122.8 162.68 122.84 177.96 121.67 178.58 121.64 163.29 122.8 162.68"/><polygon class="cls-55" points="122.8 159.96 122.8 162.68 121.64 163.29 121.63 162.08 121.07 160.77 122.78 159.89 122.8 159.96"/><polygon class="cls-71" points="121.48 156.87 122.78 159.89 121.07 160.77 120.39 159.16 118.94 158.33 121.48 156.87"/><path class="cls-68" d="M128.42,210.27l0,10.2-1.64-1c0-.23,0-.46,0-.69,0-3.26-1.1-5.57-2.91-6.7l0,0-.36-.2-5.66-3.27c-.14-.11-.28-.2-.41-.29l3.82-2.21Z" transform="translate(-5.98 -9.13)"/><path class="cls-62" d="M127.67,197.4l0,4.57-2,1.16-4.78,2.77-3.82,2.2a2.3,2.3,0,0,0-.42-.2h0c-1.83-.73-4.21-.45-6.8,1a17.49,17.49,0,0,0-3.67,2.87l-.1-.1a56.37,56.37,0,0,1,8.77-7A107.59,107.59,0,0,1,127.67,197.4Z" transform="translate(-5.98 -9.13)"/><path class="cls-55" d="M127.65,187.71l0,9.69a107.59,107.59,0,0,0-12.83,7.28,56.37,56.37,0,0,0-8.77,7,37.71,37.71,0,0,0-5.38,7c-2.34,4-3.63,9.59-4.46,14.26V214.3l-4.81,2,0,0v-5l.83-4.53,2.12-1.24,3-1.57,8.82-4.72,1.61-.86,15.36-8.22Z" transform="translate(-5.98 -9.13)"/><polygon class="cls-55" points="121.64 163.29 121.67 178.58 117.1 181.04 117.1 165.64 121.64 163.29"/><polygon class="cls-55" points="121.63 162.08 121.64 163.29 117.1 165.64 101.75 173.56 100.13 174.4 100.13 173.46 99.37 171.98 121.07 160.77 121.63 162.08"/><polygon class="cls-56" points="121.48 156.87 118.94 158.33 116.17 156.72 116.67 156.42 87.81 139.66 82.61 142.69 82.61 140.02 87.56 137.15 121.48 156.87"/><polygon class="cls-71" points="120.39 159.16 121.07 160.77 99.37 171.98 95.64 173.92 97.78 172.68 97.76 170.56 118.94 158.33 120.39 159.16"/><path class="cls-59" d="M126.84,218.82c0,.23,0,.46,0,.69l-11.08-6.44.56-.34a10,10,0,0,1,3.5-1.32,5.77,5.77,0,0,1,3.73.47l.36.2,0,0C125.74,213.25,126.84,215.56,126.84,218.82Z" transform="translate(-5.98 -9.13)"/><path class="cls-59" d="M115.74,213.07l11.08,6.44c-.31,6.58-4.9,14.3-10.52,17.54-2.61,1.51-5,1.8-6.85,1a4.33,4.33,0,0,1-1.1-.64,6,6,0,0,1-2-2.84,10.79,10.79,0,0,1-.58-3.63C105.76,224.47,110.19,216.61,115.74,213.07Zm7.34,7.92c0-2.09-.72-3.57-1.88-4.3l0,0-.23-.14a3.74,3.74,0,0,0-2.4-.3,6.44,6.44,0,0,0-2.25.86,14.93,14.93,0,0,0-6.76,11.71,7,7,0,0,0,.37,2.34,3.91,3.91,0,0,0,1.28,1.82,3.13,3.13,0,0,0,.71.41,5.07,5.07,0,0,0,4.4-.66A15,15,0,0,0,123.08,221Z" transform="translate(-5.98 -9.13)"/><polygon class="cls-62" points="120.08 194.23 115.68 196.78 115.31 196.99 114.92 196.77 119.69 194.01 120.08 194.23"/><polygon class="cls-56" points="118.94 158.33 97.76 170.56 63.86 150.85 81.41 140.71 82.61 140.02 82.61 142.69 68.68 150.85 98.07 167.44 116.17 156.72 118.94 158.33"/><path class="cls-63" d="M117.87,208.61l5.66,3.27a5.77,5.77,0,0,0-3.73-.47,10,10,0,0,0-3.5,1.32l-.56.34-2.68-1.56a27,27,0,0,1,2.42-2.06l2-1.13C117.59,208.41,117.73,208.5,117.87,208.61Z" transform="translate(-5.98 -9.13)"/><path class="cls-72" d="M123.08,174.76v15.4l-15.36,8.22V182.69Zm-1.35,14.53V177.12l-12.55,6.45.16,12.3Z" transform="translate(-5.98 -9.13)"/><polygon class="cls-56" points="116.67 156.42 116.17 156.72 88.42 140.59 82.62 143.95 82.61 142.69 87.81 139.66 116.67 156.42"/><polygon class="cls-62" points="116.17 156.72 98.07 167.44 68.68 150.85 82.61 142.69 82.62 143.95 88.42 140.59 116.17 156.72"/><polygon class="cls-73" points="115.76 167.99 115.76 180.16 103.36 186.75 103.2 174.44 115.76 167.99"/><path class="cls-61" d="M121.2,216.69c1.16.73,1.88,2.21,1.88,4.3a15,15,0,0,1-6.78,11.72,5.07,5.07,0,0,1-4.4.66,3.13,3.13,0,0,1-.71-.41,3.91,3.91,0,0,1-1.28-1.82,7,7,0,0,1-.37-2.34,14.93,14.93,0,0,1,6.76-11.71,6.44,6.44,0,0,1,2.25-.86,3.74,3.74,0,0,1,2.4.3l.23.14Zm-1.93,6.49a2.09,2.09,0,0,0-.82-1.88v0l-.11-.05a1.69,1.69,0,0,0-1-.13,3,3,0,0,0-1,.37,6.57,6.57,0,0,0-3,5.14,3.16,3.16,0,0,0,.16,1,1.7,1.7,0,0,0,.56.8,1.65,1.65,0,0,0,.32.18,2.12,2.12,0,0,0,1.92-.3A6.54,6.54,0,0,0,119.27,223.18Z" transform="translate(-5.98 -9.13)"/><path class="cls-62" d="M121.28,206.11l-3.82,2.21a3,3,0,0,0-.39-.22l3.82-2.2Z" transform="translate(-5.98 -9.13)"/><path class="cls-62" d="M118.45,221.3a2.09,2.09,0,0,1,.82,1.88,6.54,6.54,0,0,1-3,5.13,2.12,2.12,0,0,1-1.92.3,1.65,1.65,0,0,1-.32-.18,1.7,1.7,0,0,1-.56-.8,3.16,3.16,0,0,1-.16-1,6.57,6.57,0,0,1,3-5.14,3,3,0,0,1,1-.37,1.69,1.69,0,0,1,1,.13l.11.05Z" transform="translate(-5.98 -9.13)"/><path class="cls-62" d="M117.46,208.32l-2,1.13a27,27,0,0,0-2.42,2.06l-.38-.22a23.11,23.11,0,0,1,2.4-2l2-1.15A3,3,0,0,1,117.46,208.32Z" transform="translate(-5.98 -9.13)"/><path class="cls-62" d="M117.07,208.1l-2,1.15a23.11,23.11,0,0,0-2.4,2l.38.22a.74.74,0,0,0-.13.12c-1.81,1.75-5.57,4.9-7.17,8.51-3.5,8-3.82,12.06-3.86,12.47l-.72.42a8.46,8.46,0,0,1-1.87-5.83c0-5.22,2.86-11.34,6.86-15.38a17.49,17.49,0,0,1,3.67-2.87c2.59-1.5,5-1.78,6.8-1h0A2.3,2.3,0,0,1,117.07,208.1Z" transform="translate(-5.98 -9.13)"/><path class="cls-63" d="M113.06,211.51l2.68,1.56c-5.55,3.54-10,11.4-10,17.91a10.79,10.79,0,0,0,.58,3.63,6,6,0,0,0,2,2.84l-5.82-3.36-.28-.16a5.07,5.07,0,0,1-1.07-.9l.72-.42c0-.41.36-4.49,3.86-12.47,1.6-3.61,5.36-6.76,7.17-8.51A.74.74,0,0,1,113.06,211.51Z" transform="translate(-5.98 -9.13)"/><polygon class="cls-74" points="101.75 173.56 101.75 189.25 100.13 190.12 100.13 174.4 101.75 173.56"/><path class="cls-62" d="M106.07,211.72l.1.1c-4,4-6.86,10.16-6.86,15.38a8.46,8.46,0,0,0,1.87,5.83l-5,2.88v-3c.83-4.67,2.12-10.24,4.46-14.26A37.71,37.71,0,0,1,106.07,211.72Z" transform="translate(-5.98 -9.13)"/><path class="cls-72" d="M106.11,183.52v15.72L97.29,204l5.17-18.55Zm-1.42,14.83.25-12.41-1.43.66L99.61,201Z" transform="translate(-5.98 -9.13)"/><polygon class="cls-55" points="100.13 173.46 100.13 174.4 96.49 176.28 91.31 194.84 88.37 196.41 94.72 174.44 95.64 173.92 99.37 171.98 100.13 173.46"/><polygon class="cls-73" points="98.97 176.82 98.72 189.23 93.64 191.85 97.54 177.48 98.97 176.82"/><polygon class="cls-57" points="97.76 170.56 97.78 172.68 63.86 152.97 63.86 150.85 97.76 170.56"/><polygon class="cls-74" points="97.78 172.68 95.64 173.92 94.72 174.44 60.81 154.73 63.86 152.97 97.78 172.68"/><path class="cls-72" d="M100.69,183.57l-6.35,22L60.42,185.82l6.36-22Zm-7.45,19.88,5.42-19.22L82.82,175l-1.32-.76L67.89,166.3l-5.61,19.13,13.5,7.86,1.33.78Z" transform="translate(-5.98 -9.13)"/><polygon class="cls-75" points="92.68 175.1 87.27 194.32 71.14 184.94 71.2 184.84 76.85 165.88 92.68 175.1"/><polygon class="cls-55" points="90.26 224.13 90.26 226.79 85.6 229.49 85.46 229.41 85.46 226.51 85.46 226.14 90.21 224.15 90.26 224.13"/><path class="cls-74" d="M96.23,232.94v.31l0,0C96.2,233.17,96.22,233.06,96.23,232.94Z" transform="translate(-5.98 -9.13)"/><path class="cls-76" d="M96.23,214.3v18.64c0,.12,0,.23,0,.33l-4.76,2v-7.53l.11.07,2.63-1.51v-2.12l-1.82,1.06-.6.34-.31-.18,0-9.06h0Z" transform="translate(-5.98 -9.13)"/><polygon class="cls-69" points="88.37 196.41 86.24 197.64 52.32 177.93 54.45 176.69 88.37 196.41"/><polygon class="cls-77" points="88.17 215.05 88.19 217.16 86.36 216.11 88.17 215.05"/><polygon class="cls-78" points="88.19 217.16 85.56 218.68 85.45 218.61 85.45 216.27 85.75 216.45 86.36 216.11 88.19 217.16"/><polygon class="cls-74" points="86.24 197.64 85.41 202.17 85.03 204.25 51.13 184.54 52.32 177.93 86.24 197.64"/><polygon class="cls-74" points="85.46 226.51 85.46 229.41 51.69 209.78 51.67 207.13 85.07 226.3 85.46 226.51"/><polygon class="cls-74" points="85.46 226.14 85.46 226.51 85.07 226.3 85.46 226.14"/><path class="cls-79" d="M91.42,227.73v7.53l-.38.16-33.4-19.16,0-8.17Zm-1.92,1.9a2.89,2.89,0,0,0-1.4-2.25l-2.72-1.62c-.81-.49-1.5-.28-1.55.49l-.11,2.14a2.83,2.83,0,0,0,1.4,2.27l2.72,1.62c.81.49,1.5.28,1.54-.49Zm-8.24-4.49c.3.17.54,0,.54-.29a1.16,1.16,0,0,0-.54-.91l-15.69-9.13a.83.83,0,0,0-.24-.07c-.19,0-.3.13-.3.37a1.18,1.18,0,0,0,.55.91Zm-.4,2.17c.3.17.54.05.54-.29a1.16,1.16,0,0,0-.54-.91L65.17,217a.53.53,0,0,0-.24-.07c-.18,0-.3.13-.3.36a1.18,1.18,0,0,0,.55.91ZM64,214.67a2.85,2.85,0,0,0-1.4-2.27l-2.72-1.63c-.81-.49-1.5-.27-1.54.49l-.11,2.16a2.81,2.81,0,0,0,1.4,2.26l2.71,1.62c.8.49,1.5.28,1.54-.49Z" transform="translate(-5.98 -9.13)"/><polygon class="cls-78" points="85.45 216.27 85.45 218.61 51.65 198.96 53.67 197.8 85.45 216.27"/><path class="cls-79" d="M91.4,216.33l0,9.06L59.65,206.93l-1.83-1.07-.54-9.13L91.4,216.3Zm-1.72,1.28a1.83,1.83,0,0,0-.91-1.44l-1.73-1c-.52-.31-1-.17-1,.32L86,216.81a1.85,1.85,0,0,0,.9,1.45l1.74,1.05c.52.3,1,.17,1-.32Zm-.18,3.85a1.88,1.88,0,0,0-.9-1.45l-1.74-1c-.51-.32-1-.17-1,.31l-.07,1.38a1.88,1.88,0,0,0,.89,1.45l1.74,1c.52.32,1,.18,1-.31Zm-6.93-6.09c.3.17.52,0,.52-.29a1.2,1.2,0,0,0-.53-.92L66.86,205c-.28-.17-.52,0-.52.29h0a1.18,1.18,0,0,0,.53.91Zm-.4,2.17c.3.17.53.05.53-.29a1.16,1.16,0,0,0-.54-.91l-15.7-9.13a.32.32,0,0,0-.52.29h0a1.15,1.15,0,0,0,.54.91ZM62.34,201.48a1.86,1.86,0,0,0-.93-1.43l-1.76-1c-.52-.31-1-.15-1,.33l0,1.39a1.83,1.83,0,0,0,.92,1.42l1.76,1c.52.3,1,.15,1-.34Zm-.11,3.85a1.8,1.8,0,0,0-.92-1.42l-1.76-1c-.52-.3-1-.16-1,.33l0,1.38a1.82,1.82,0,0,0,.92,1.43l1.77,1c.52.31,1,.16,1-.33Z" transform="translate(-5.98 -9.13)"/><polygon class="cls-74" points="85.45 207.2 85.42 207.2 85.42 207.18 85.45 207.2"/><polygon class="cls-69" points="85.41 202.17 85.42 207.18 51.31 187.6 51.13 184.54 85.03 204.25 85.41 202.17"/><path class="cls-72" d="M88.77,216.17a1.83,1.83,0,0,1,.91,1.44L89.6,219c0,.49-.47.62-1,.32l-1.74-1.05a1.85,1.85,0,0,1-.9-1.45l.08-1.37c0-.49.47-.63,1-.32Z" transform="translate(-5.98 -9.13)"/><path class="cls-72" d="M88.1,227.38a2.89,2.89,0,0,1,1.4,2.25l-.12,2.16c0,.77-.73,1-1.54.49l-2.72-1.62a2.83,2.83,0,0,1-1.4-2.27l.11-2.14c0-.77.74-1,1.55-.49Z" transform="translate(-5.98 -9.13)"/><path class="cls-72" d="M88.6,220a1.88,1.88,0,0,1,.9,1.45l-.07,1.38c0,.49-.48.63-1,.31l-1.74-1a1.88,1.88,0,0,1-.89-1.45l.07-1.38c0-.48.48-.63,1-.31Z" transform="translate(-5.98 -9.13)"/><path class="cls-77" d="M83.09,215.08c0,.32-.22.46-.52.29l-15.7-9.12a1.18,1.18,0,0,1-.53-.91h0c0-.33.24-.46.52-.29l15.7,9.12A1.2,1.2,0,0,1,83.09,215.08Z" transform="translate(-5.98 -9.13)"/><polygon class="cls-72" points="76.85 165.88 71.2 184.84 71.14 184.94 69.81 184.17 69.92 183.96 75.53 165.11 76.85 165.88"/><path class="cls-77" d="M82.7,217.25c0,.34-.23.46-.53.29l-15.69-9.12a1.15,1.15,0,0,1-.54-.91h0a.32.32,0,0,1,.52-.29l15.7,9.13A1.16,1.16,0,0,1,82.7,217.25Z" transform="translate(-5.98 -9.13)"/><path class="cls-77" d="M81.8,224.85c0,.33-.24.46-.54.29L65.58,216a1.18,1.18,0,0,1-.55-.91c0-.24.11-.37.3-.37a.83.83,0,0,1,.24.07l15.69,9.13A1.16,1.16,0,0,1,81.8,224.85Z" transform="translate(-5.98 -9.13)"/><polygon class="cls-75" points="75.53 165.11 69.92 183.96 69.81 184.17 56.3 176.31 61.91 157.17 75.53 165.11"/><path class="cls-77" d="M81.4,227c0,.34-.24.46-.54.29l-15.68-9.12a1.18,1.18,0,0,1-.55-.91c0-.23.12-.36.3-.36a.53.53,0,0,1,.24.07l15.69,9.12A1.16,1.16,0,0,1,81.4,227Z" transform="translate(-5.98 -9.13)"/><path class="cls-72" d="M62.61,212.4a2.85,2.85,0,0,1,1.4,2.27l-.12,2.14c0,.77-.74,1-1.54.49l-2.71-1.62a2.81,2.81,0,0,1-1.4-2.26l.11-2.16c0-.76.73-1,1.54-.49Z" transform="translate(-5.98 -9.13)"/><path class="cls-72" d="M61.41,200.05a1.86,1.86,0,0,1,.93,1.43l-.05,1.38c0,.49-.46.64-1,.34l-1.76-1a1.83,1.83,0,0,1-.92-1.42l0-1.39c0-.48.46-.64,1-.33Z" transform="translate(-5.98 -9.13)"/><path class="cls-72" d="M61.31,203.91a1.8,1.8,0,0,1,.92,1.42l0,1.38c0,.49-.46.64-1,.33l-1.77-1a1.82,1.82,0,0,1-.92-1.43l0-1.38c0-.49.46-.63,1-.33Z" transform="translate(-5.98 -9.13)"/></g></g></g></svg>