<?xml version="1.0" encoding="utf-8"?>
<!-- Generator: Adobe Illustrator 23.0.3, SVG Export Plug-In . SVG Version: 6.00 Build 0)  -->
<svg version="1.1" id="Livello_1" xmlns="http://www.w3.org/2000/svg" xmlns:xlink="http://www.w3.org/1999/xlink" x="0px" y="0px"
	 viewBox="0 0 185.67 181.13" style="enable-background:new 0 0 185.67 181.13;" xml:space="preserve">
<style type="text/css">
	.st0{fill:#848383;}
	.st1{fill:#EFEFEF;}
	.st2{fill:#D0CFD0;}
	.st3{fill:#D9D9D9;}
	.st4{fill:#5B5B5A;}
	.st5{fill:#F6BBC6;}
	.st6{fill:#303B45;}
	.st7{fill:#4D4471;}
	.st8{fill:#353430;}
	.st9{fill:#EAEAEA;}
	.st10{fill:none;stroke:#FBC01F;stroke-width:1.12;stroke-miterlimit:10;}
	.st11{fill:none;stroke:#4294CE;stroke-width:1.12;stroke-miterlimit:10;}
	.st12{fill:none;stroke:#FFFFFF;stroke-width:1.12;stroke-miterlimit:10;}
	.st13{fill:#EBEBEB;}
	.st14{fill-rule:evenodd;clip-rule:evenodd;fill:#5B5B5A;}
	.st15{fill:#4D4A81;}
	.st16{fill-rule:evenodd;clip-rule:evenodd;fill:#6A6766;}
	.st17{fill-rule:evenodd;clip-rule:evenodd;fill:#353230;}
	.st18{fill-rule:evenodd;clip-rule:evenodd;fill:#8A8B8C;}
	.st19{fill-rule:evenodd;clip-rule:evenodd;fill:#AFAFB1;}
	.st20{fill-rule:evenodd;clip-rule:evenodd;fill:#377D84;}
	.st21{fill-rule:evenodd;clip-rule:evenodd;fill:#48ABB4;}
	.st22{fill-rule:evenodd;clip-rule:evenodd;fill:#ABABAB;}
	.st23{fill-rule:evenodd;clip-rule:evenodd;fill:#969696;}
	.st24{fill-rule:evenodd;clip-rule:evenodd;fill:#CDCBCB;}
	.st25{fill-rule:evenodd;clip-rule:evenodd;fill:#F6BBC6;}
	.st26{fill-rule:evenodd;clip-rule:evenodd;fill:#1F3446;}
	.st27{fill:#F9B233;}
	.st28{fill-rule:evenodd;clip-rule:evenodd;fill:#353430;}
	.st29{fill-rule:evenodd;clip-rule:evenodd;fill:#808081;}
	.st30{fill-rule:evenodd;clip-rule:evenodd;fill:#36393B;}
	.st31{fill-rule:evenodd;clip-rule:evenodd;fill:#66411D;}
	.st32{fill-rule:evenodd;clip-rule:evenodd;fill:#946335;}
	.st33{fill-rule:evenodd;clip-rule:evenodd;fill:#492E16;}
	.st34{fill-rule:evenodd;clip-rule:evenodd;fill:#4D4A81;}
	.st35{fill-rule:evenodd;clip-rule:evenodd;fill:#0A0B0B;}
	.st36{fill-rule:evenodd;clip-rule:evenodd;fill:#1F1F20;}
	.st37{fill-rule:evenodd;clip-rule:evenodd;fill:#2F2F60;}
	.st38{fill:#EF7967;}
	.st39{fill-rule:evenodd;clip-rule:evenodd;fill:#F8FCFC;}
	.st40{fill-rule:evenodd;clip-rule:evenodd;fill:#E4ECED;}
	.st41{fill:#3C3C3B;}
	.st42{fill:#4E4D4C;}
	.st43{fill:#95C11F;}
	.st44{opacity:0.2;}
	.st45{fill:#FFFFFF;}
	.st46{fill:#FCEA10;}
</style>
<title>G05_15</title>
<g>
	<g>
		<g>
			<polygon class="st0" points="185.67,123.46 185.67,128.2 96.19,181.04 96.04,180.95 96.04,176.2 			"/>
			<polygon class="st1" points="96.04,176.2 96.04,180.95 0,125.25 0,120.51 			"/>
			<polygon class="st2" points="0,120.51 90.02,68.38 185.44,123.48 96.04,176.2 			"/>
		</g>
		<ellipse class="st3" cx="90.17" cy="120.85" rx="65.37" ry="34"/>
	</g>
	<g>
		<g>
			<path class="st4" d="M73.65,42.57c0,0-1,14.8-0.85,24.03c0.11,8.48,5.36,25.21,5.36,25.21l1.25,0.15l-0.1,6.08
				c0.65,0.92,1.71,1.45,2.84,1.42c0.64,0,1.52-6.93,1.52-6.93h1l-2.6-23.11c0,0,0-14.66,1.44-14.38c0.32,0.06-0.71,0.17,0.45,0
				c4-0.77,9.76-4.29,9.54-8.46c-0.28-5.39-4.54-5.67-4.54-5.67s-7.37-0.62-8.22-0.34C79.88,40.85,73.65,42.57,73.65,42.57z"/>
			<path class="st4" d="M83.1,48.56c0,0,1.44,21.09,3.43,24.77c1.33,2.47,4.68,19.2,4.68,19.2h1l0.46,3c0,0,4.48,2.27,3.63,0
				c-0.16-1.21-0.23-2.42-0.2-3.64l1.36-0.81l-3-22.8l-1-21.99l-6.24-7.66L83.1,48.56z"/>
			<path class="st4" d="M69.08,15.25c0,0,1.7-3.12,4.26-3.12s19.23,3.71,20.4,4.85c1.17,1.14,9.15,16.36,9.15,21.47
				s-1.7,22.68-1.7,22.68s-3.12,0.57-4-0.85s-1.7-18.99-1.7-18.99s-4.54-16.44-4.54-15.59C90.95,26.54,69.08,15.25,69.08,15.25z"/>
			<path class="st4" d="M73.94,15.19l16.64,4.62l2.35,4.18c0,0,1.42,19.85,0.57,22.4c-0.85,2.55-10.2,3.69-13.61,3.12
				s-6.24-7.09-6.24-7.09l-1.74-28.3L73.94,15.19z"/>
			<path class="st4" d="M69.08,15.25c0,0-4.71,8.54-5,14.5s1.07,18.9,1.07,18.9c1.02,0.65,2.29,0.75,3.41,0.28
				c1.7-0.85,1.13-16.72,2-18.71s6.19-14.46,6.19-14.46S74.74,11.84,69.08,15.25z"/>
			<circle class="st5" cx="78.27" cy="6.75" r="6.65"/>
			<path class="st5" d="M76.07,8.79l2.27,6.8l0,0c1.34,1.13,3.23,1.33,4.77,0.5l0.72-0.39l-1.89-7.4L76.07,8.79z"/>
			<path class="st6" d="M81.56,92.44c-0.87-0.14-1.14-0.27-2.13-0.45c-0.09,3.47-0.09,6.09-0.09,6.09c0.22,2.32,1,2.12,2.88,1.52
				c0.62-0.19,0.88-3.06,1.47-7C82.97,92.6,82.26,92.55,81.56,92.44z"/>
			<path class="st6" d="M83.62,102.59c0.09-1.22-0.84-2.43-0.75-3.65c0.05-0.18,0.05-0.37,0-0.55c-0.26,0.21-0.59,0.32-0.92,0.3
				c-0.87,0.05-1.74-0.02-2.6-0.2c-0.06,1.32-2,3.39-2.93,4.35c-0.98,0.88-1.81,1.91-2.47,3.06c-0.13,0.21-0.16,0.46-0.08,0.69
				c0.13,0.26,0.47,0.32,0.77,0.33c1.3-0.01,2.58-0.36,3.72-1C80.17,104.91,81.93,103.8,83.62,102.59z"/>
			<path class="st5" d="M85.73,7.01c0,1.43-0.6,2.58-1.35,2.58s-1.36-1.15-1.36-2.58s0.61-2.58,1.36-2.58S85.73,5.59,85.73,7.01z"/>
			<path class="st7" d="M78.27,0.1c-2.73,0.01-5.18,1.68-6.19,4.22c1.32,0.64,2.78,0.97,4.25,0.95c0.53,0,5.28-0.65,5.08-1.48
				c0.25,1.05,0.64,2.06,1.17,3c0.01-1.06,0.76-1.97,1.79-2.19h0.17C83.62,1.91,81.1,0.1,78.27,0.1z"/>
			<circle class="st5" cx="98.72" cy="61.26" r="2.42"/>
			<circle class="st5" cx="67.1" cy="50.31" r="2.42"/>
			<polygon class="st4" points="79.78,15.43 80.77,17.81 83.99,18.25 85.7,15 83.56,12.65 83.07,12.52 83.18,13.15 			"/>
			<polygon class="st8" points="79.37,18.59 80.93,18.12 79.78,15.43 			"/>
			<polygon class="st4" points="79.61,16.76 76.38,16.38 76.38,13.12 77.62,13.56 			"/>
			<circle class="st9" cx="81.59" cy="16.13" r="0.89"/>
			<line class="st10" x1="77.37" y1="22.94" x2="74.34" y2="22.37"/>
			<line class="st11" x1="77.37" y1="22.94" x2="76.37" y2="22.75"/>
			<line class="st12" x1="75.34" y1="22.56" x2="74.34" y2="22.37"/>
			<path class="st13" d="M73.46,39.36l0.28,3.05c0,0,9.75,5.16,15.99,3.36c3.6-1.06,4.08-2.4,4.08-2.67c0-0.64,0.1-3.12,0-3.45
				c-1.69,1.45-3.78,2.35-6,2.59C83.27,42.87,73.46,39.36,73.46,39.36z"/>
			<path class="st13" d="M77.2,41.42l-1.06-0.31c0,0,2.37-18.73,8.21-23.92c0.69-0.61,3.33-2.2,4.23-2
				c0.79,0.13,1.55,0.36,2.28,0.68c-2.21,0.34-4.24,1.44-5.73,3.12C81.47,22.92,77.2,41.42,77.2,41.42z"/>
			<path class="st6" d="M94.45,92.11c-0.67,0-1.52,0.66-2.3,0.62c0.58,3.42,1.07,6,1.07,6c0.6,2.25,1.73,1.2,3.06,0.33
				c0.43-0.27,0.09-3.13-0.2-7.12C95.54,92.05,95,92.11,94.45,92.11z"/>
			<path class="st6" d="M91.95,104.18c-0.51,0.94,1.38,3.16,2.37,3.55c0.46,0.02,0.91-0.09,1.31-0.32c1.09-0.59,2.03-1.4,2.78-2.39
				c0.33-0.59,0.13-1.12,0-1.79c-0.38-1.16-0.84-2.29-1.4-3.38c-0.34-1.12-0.59-2.26-0.76-3.42H92.8
				C92.8,96.43,93.43,101.41,91.95,104.18z"/>
		</g>
		<g>
			<g>
				<path class="st14" d="M121.57,58.94c-1.89,1.11-3.62,1.59-5.45,2.81v2.42c2-1.75,3.55-2.17,5.8-3.6L121.57,58.94z"/>
				<path class="st14" d="M116.3,58.26c-0.2,1.16-0.24,2.35-0.12,3.53c-0.64,0.39-1.25,1-1.91,1.32c0.17-1.5,0.46-2.99,0.85-4.46
					L116.3,58.26z"/>
				<path class="st15" d="M112.19,53.56c0,0.71,0.51,1.36,0.48,2.07c-0.06,1.31-0.63,10.5,0.52,10.39c1.15-0.11,1,1.41,2,2
					c0.83,0.44,1.34,1.33,2.16,1.77c0.87,0.4,1.86,0.37,2.71-0.07c0.07,0.08,0.12,0.17,0.19,0.25c0.77,0.95,2,1.4,3.2,1.18
					c0.9-0.24,1.6-1,2.5-1.23c1.12-0.3,2.26,0.23,3.36,0.59c1.1,0.36,2.48,0.51,3.25-0.35c0.53-0.75,0.66-1.72,0.37-2.59
					c-0.3-0.86-0.47-1.76-0.5-2.67c0.07-1,0.67-2,0.45-3c-0.29-1.28-1.9-2.18-1.66-3.47c0.13-0.7,0.79-1.21,0.92-1.91
					c0.18-0.9-0.56-1.7-1.3-2.25c-2.12-1.56-1.62-2.56-1.82-4.94c-0.16-1.44-0.63-2.83-1.4-4.06c-0.95-1.51-5.45-4.15-8.54-1.64
					c-1.08,0.98-1.87,2.24-2.27,3.64c-0.74,2.27-0.47,3.36-2.89,4.41C113.12,52.01,112.23,52.62,112.19,53.56z"/>
				<polygon class="st16" points="109.21,83.43 109.53,90.27 109.19,99.77 107.38,98.73 107.4,82.38 				"/>
				<polygon class="st17" points="109.21,83.43 110.98,82.4 110.96,98.74 109.19,99.77 				"/>
				<polygon class="st18" points="123.96,91.99 124.28,98.82 123.94,117.07 122.13,116.02 122.15,90.94 				"/>
				<polygon class="st19" points="123.96,91.99 125.73,90.96 125.71,116.04 123.94,117.07 				"/>
				<polygon class="st18" points="98.06,89.96 98.38,96.79 98.03,115.04 96.22,114 96.25,88.92 				"/>
				<polygon class="st19" points="98.06,89.96 99.83,88.93 99.81,114.01 98.03,115.04 				"/>
				<polygon class="st18" points="112.81,98.51 113.13,105.35 112.78,123.6 110.97,122.56 111,97.46 				"/>
				<polygon class="st19" points="112.81,98.51 114.58,97.48 114.56,122.57 112.78,123.6 				"/>
				<polygon class="st20" points="110.99,99.11 109.55,98.28 109.54,97.17 110.98,98 				"/>
				<path class="st18" d="M127.5,85.9c0.01-0.17,0.01-0.35,0-0.52l-1.41-0.84c0.01,0.21,0.01,0.41,0,0.62c0,0.03,0,0.06,0,0.09
					c-0.03,0.2-0.07,0.39-0.13,0.58c0,0,0,0,0,0.06c-0.06,0.21-0.14,0.42-0.23,0.63l0,0c-0.09,0.21-0.2,0.42-0.31,0.63l0,0
					c-0.12,0.2-0.24,0.39-0.38,0.58v0.05l-0.39,0.47l-0.09,0.09c-0.11,0.11-0.22,0.21-0.34,0.31l-0.15,0.14
					c-0.16,0.13-0.33,0.24-0.5,0.35l1.43,0.84c0.18-0.1,0.35-0.22,0.51-0.35l0.15-0.14l0.24-0.2c0.03-0.04,0.06-0.08,0.1-0.11
					l0.09-0.1l0.1-0.1l0.21-0.27l0.08-0.1l0,0l0.07-0.09l0.16-0.23c0-0.08,0.09-0.15,0.14-0.23l0,0c0-0.06,0.07-0.12,0.1-0.19
					l0.12-0.22l0.09-0.21l0,0l0,0c0.04-0.08,0.07-0.16,0.1-0.24c0.03-0.08,0.06-0.17,0.09-0.25c0.01-0.04,0.01-0.09,0-0.13
					c0,0,0,0,0-0.05v-0.09c0-0.1,0-0.21,0.07-0.31v-0.18c0,0,0-0.07,0-0.1C127.42,86.02,127.45,85.95,127.5,85.9z"/>
				<polygon class="st18" points="127.53,85.38 126.09,84.54 126.05,69.57 127.49,70.41 				"/>
				<polygon class="st21" points="127.49,70.41 126.05,69.57 127.01,69.01 128.45,69.85 				"/>
				<polygon class="st21" points="123.42,89.16 109.54,97.17 110.98,98 124.86,89.99 				"/>
				<path class="st19" d="M128.45,69.85l-1,0.56V85.4c-0.1,1.88-1.1,3.59-2.67,4.62l-13.88,7.99v1.1l13.88-7.99
					c2.14-1.39,3.48-3.73,3.62-6.28L128.45,69.85z"/>
				<path class="st18" d="M115.1,79.32c0.01-0.17,0.01-0.35,0-0.52l-1.38-0.84c0.01,0.2,0.01,0.41,0,0.61c0,0,0,0.07,0,0.1
					c0,0.19-0.08,0.39-0.14,0.58c0,0,0,0,0,0.06c-0.07,0.21-0.15,0.42-0.24,0.63l0,0c-0.1,0.21-0.2,0.42-0.32,0.62l0,0
					c-0.11,0.2-0.24,0.39-0.37,0.57l0,0c-0.12,0.17-0.25,0.32-0.39,0.47l-0.09,0.1l-0.33,0.31l-0.16,0.14
					c-0.16,0.13-0.32,0.25-0.5,0.35l1.44,0.83c0.17-0.1,0.34-0.21,0.5-0.34c0.05-0.05,0.1-0.1,0.16-0.14l0.23-0.21l0.1-0.1l0.09-0.1
					l0.1-0.11l0.22-0.26l0.07-0.1v-0.05l0.07-0.09l0.15-0.24l0.14-0.22l0,0l0.11-0.19c0-0.07,0.07-0.15,0.11-0.23
					c0.04-0.08,0.07-0.13,0.1-0.2l0,0l0,0l0.1-0.24l0.09-0.25v-0.13l0,0v-0.09c0-0.11,0.05-0.21,0.07-0.31c0-0.06,0-0.12,0-0.18
					c0,0,0-0.07,0-0.1C115.03,79.42,115.09,79.35,115.1,79.32z"/>
				<polygon class="st18" points="115.13,78.8 113.69,77.97 113.65,62.99 115.09,63.82 				"/>
				<polygon class="st21" points="115.09,63.82 113.65,62.99 114.62,62.44 116.05,63.27 				"/>
				<polygon class="st21" points="111.03,82.57 97.15,90.6 98.59,91.43 112.47,83.41 				"/>
				<path class="st19" d="M116.05,63.27l-1,0.55v14.99c-0.1,1.87-1.09,3.58-2.66,4.61l-13.88,7.99v1.12l13.88-7.99
					c2.14-1.39,3.49-3.72,3.63-6.28L116.05,63.27z"/>
				<path class="st22" d="M127.04,91.24c0.01,0.06,0.01,0.11,0,0.17l0,0c-0.02,0.06-0.05,0.11-0.09,0.16l0,0
					c-0.04,0.05-0.08,0.11-0.13,0.15c-0.04,0.03-0.08,0.06-0.12,0.08c-0.03,0.03-0.06,0.06-0.1,0.08l-13.47,7.82v2.15l13.46-7.81
					l0,0l0.09-0.06l0.11-0.09l0,0l0.11-0.11l0,0l0,0l0,0c0-0.03,0-0.07,0-0.1l0,0l0,0c0-0.02,0-0.04,0-0.06c0-0.03,0-0.07,0-0.1l0,0
					l0,0L127.04,91.24z"/>
				<path class="st23" d="M112.56,99.95h-0.08c-0.19,0.04-0.39,0.06-0.59,0.07l0,0c-0.21-0.01-0.42-0.03-0.62-0.07l0,0
					c-0.2-0.04-0.38-0.11-0.56-0.21L95.1,90.75c-0.28-0.13-0.47-0.39-0.5-0.7v2.15c0.03,0.31,0.22,0.58,0.5,0.71l15.61,8.99
					c0.08,0.05,0.16,0.09,0.25,0.12l0.21,0.07h0.1l0,0l0,0h0.17h0.17h0.53h0.22h0.1h0.08h0.15c0.13-0.04,0.25-0.1,0.37-0.17v-2.15
					C112.9,99.85,112.73,99.91,112.56,99.95z"/>
				<path class="st24" d="M126.54,90.54c0.39,0.13,0.59,0.55,0.46,0.94c-0.07,0.22-0.24,0.39-0.46,0.46l-13.47,7.82
					c-0.76,0.38-1.65,0.38-2.41,0l-15.61-8.99c-0.39-0.13-0.59-0.55-0.46-0.94c0.07-0.22,0.24-0.39,0.46-0.46l13.46-7.82
					c0.76-0.38,1.66-0.38,2.42,0L126.54,90.54z"/>
				<path class="st22" d="M129.78,73v8.38c0.01,0.09,0.01,0.17,0,0.26l0,0c-0.02,0.07-0.04,0.14-0.07,0.21l0,0
					c-0.02,0.04-0.04,0.08-0.07,0.12c-0.05,0.07-0.12,0.13-0.19,0.18l1.86-1.09c0.08-0.04,0.14-0.1,0.19-0.18l0,0
					c0.02-0.02,0.04-0.05,0.05-0.08l0,0v-0.06c0,0,0-0.05,0-0.07c0-0.02,0,0,0-0.06l0,0l0,0l0,0c0-0.02,0-0.04,0-0.06V80.5
					c0,0,0,0,0-0.06v-0.06l0,0V72L129.78,73z"/>
				<path class="st23" d="M128.57,70.91l-15.6-8.99c-0.67-0.38-1.22-0.07-1.22,0.7V71c0.04,0.85,0.49,1.62,1.2,2.09l15.61,8.99
					c0.67,0.39,1.21,0.08,1.21-0.69v-8.38C129.72,72.16,129.28,71.38,128.57,70.91z"/>
				<path class="st14" d="M122.28,60.72c3.35,1.93,5.19,4,4.1,4.65c-1.09,0.65-4.69-0.43-7.99-2.36c-3.31-1.93-5.18-4-4.09-4.65
					C115.39,57.71,118.93,58.79,122.28,60.72z"/>
				<path class="st25" d="M122.29,53.2c-0.28,1-1.48,3.32-0.64,6.09l-6.17,3.16l0.51-2.58c0.71-1.78,0.97-3.71,0.75-5.62
					L122.29,53.2z"/>
				<path class="st14" d="M121.71,58.56c0.2,0.56-0.12,1.3,0.12,1.74c0.59,1.12,1.89,1.68,3,2.5c2.84,2.13,0.11,7.45-1.75,10.99
					c-0.82,1.5-1.33,3.15-1.5,4.86c-0.17,0.8-0.13,1.63,0.13,2.4c4.73,12.36-10.11,19.93-12.57,11.15c-0.7-2.5-0.31-6.07,2.06-11.45
					c0.82-1.85,0.31-3.23,0.33-4.16c0.02-0.93-0.66-2.24-1.16-4.29c-0.78-1.34-1.1-2.89-0.9-4.43c0.25-1.77,1.52-3.8,2.58-6
					c0.42-1.08,1-2.09,1.72-3c0.49-0.49,1.65-0.4,2.59-0.63c-0.16,1.06-0.14,2.13,0.07,3.18C117.07,60.97,120.21,59.56,121.71,58.56
					z"/>
				<path class="st25" d="M94.14,95.1c-0.85,5.63-0.7,11.25-1.24,17.09l2.3,2.74c2.15-8.66,4.56-13.26,4.9-18.32
					c0.19-3,0.36-4.84,0.55-6.28C101.15,85.29,94.78,90.85,94.14,95.1z"/>
				<path class="st25" d="M99.73,92.1c-0.37,2.66,0.17,4.06-0.13,6c-0.85,5.63-0.7,11.24-1.23,17.09l2.3,2.74
					c2.14-8.66,4.56-13.26,4.89-18.33c0.18-2.67,0.33-4.48,0.5-5.86C107.72,81.18,100.34,86.54,99.73,92.1z"/>
				<path class="st14" d="M123.12,87.54c-0.18,2.39-0.86,5.19-2.77,6.73c-3.37,2.7-9.82,1.86-14.8,5.58c-4.5-2-9.87-4.94-12.12-6.72
					c0.6-1.47,1.1-2.93,2.6-3.82c2.54-1.52,11.99-7.11,14.42-7.36c0.22-0.32,0.41-0.65,0.58-1l-0.07-0.06
					c1.18-2.67,0-5.89-0.65-8.48c-0.81-1.4-1.16-3.02-1-4.64c0.24-1.76,1.38-3.81,2.44-6c0.58-1.17,1.33-2.26,2.22-3.22
					c0.46-0.3,1.01-0.44,1.56-0.39c-0.92,0.88-2.06,4.47-2.18,7.05c2.87-1.13,6.69-3.22,7.99-4.63c0.32-0.34,0.41,0,0.63-0.23
					c1.37,1,1.61,1.49,2.79,2.37c0.29,0.22,0.53,0.49,0.73,0.79c-0.57-0.66-1.54-0.83-2.3-0.4c-2.24,0.81-2.6,4.3-2.46,7.34
					c0.09,2.08,0.72,3.55,2.46,3.63c-0.85,2-1.52,3.83-1.32,5c0.39,2.39,1.57,4.7,1.27,8.38C123.15,87.54,123.14,87.54,123.12,87.54
					z"/>
				<path class="st26" d="M101.63,95.17c3.32,1.91,5.13,4,4.06,4.6c-1.07,0.6-4.64-0.42-7.99-2.34c-3.36-1.92-5.13-4-4.06-4.6
					C94.71,92.24,98.32,93.26,101.63,95.17z"/>
				<circle class="st27" cx="120.46" cy="49.39" r="4.88"/>
				<path class="st5" d="M112.5,50.37c-0.62,3.25,1.51,6.39,4.76,7.02c3.25,0.62,6.39-1.51,7.02-4.76c0.62-3.25-1.51-6.39-4.76-7.02
					c-0.01,0-0.01,0-0.02,0C116.25,45,113.12,47.13,112.5,50.37z"/>
				<path class="st15" d="M113.84,49.56c-0.38-0.19-0.63-0.57-0.65-1c1.69-2.85,5.36-3.8,8.21-2.11c2.12,1.25,3.26,3.68,2.87,6.11
					c-0.05,0.26-0.12,0.51-0.21,0.76c-0.27,0-0.53-0.06-0.78-0.17c-0.56-0.26-1.81-1-1.24-1.63c-0.28,0.31-0.39,0.81-0.41,2.2
					C120.1,50.05,115.9,50.82,113.84,49.56z"/>
				<path class="st5" d="M121.71,52.31c-0.19,0.99,0.45,1.95,1.45,2.14c0.99,0.19,1.95-0.45,2.14-1.45
					c0.19-0.99-0.45-1.95-1.45-2.14c-0.01,0-0.01,0-0.02,0C122.85,50.68,121.9,51.33,121.71,52.31z"/>
				<path class="st6" d="M100.79,114.28c0.48,1.12,0.78,2.3,0.89,3.51c0,1.3-0.51,1.65-0.51,1.65c-1.09,0.34-2.2,0.61-3.33,0.82
					c-0.72,0-1.93,1.19-3.67,1.31c-1.74,0.12-4,0.65-4.2-0.72c-0.15-0.83,2-1.62,4.51-3.33c1.09-0.77,2.06-1.7,2.88-2.75
					L100.79,114.28z"/>
				<path class="st6" d="M100.1,108.6c0.38,3.53,0.68,6.23,0.68,6.23s0.09,1.13-1.43,1.2c-0.87,0.06-1.67-0.44-2-1.25
					c0,0-0.62-2.55-1.49-6.21L100.1,108.6z"/>
				<path class="st6" d="M105,110.83c0.38,3.53,0.77,6.27,0.77,6.27s0,1.09-1.51,1.16c-0.87,0.04-1.64-0.57-1.8-1.43
					c0,0-0.82-2.37-1.68-6H105z"/>
				<path class="st6" d="M105.72,116.9c0,0-0.14,1.23-1.23,1.16c-0.81-0.16-1.54-0.59-2.06-1.23c0,0,0.41,1-0.54,4.2
					c-0.53,1.79-1.57,6.76,0.35,7.44c1.37,0.49,3.28-1.11,3.51-2.13c0.09-0.41,0.49-4.89,0.43-5.31
					C106,119.59,105.72,116.9,105.72,116.9z"/>
				<path class="st28" d="M121.38,59.2c-1.89,1.11-3.1,1-4.93,2.18l-0.57,3.05c2.09-1.43,4-2.44,6.12-4L121.38,59.2z"/>
				<path class="st28" d="M116.11,58.56c-0.12,0.61,0.19,1.15,0.34,2.86c-0.63,0.39-1.72,1.63-2.37,2c0.19-1.77,0.63-3.5,1.31-5.14
					L116.11,58.56z"/>
				<path class="st14" d="M121.84,58.56c-1.89,1.12-3.62,1.59-5.45,2.81l-0.05,2.43c2-1.75,3.55-2.17,5.8-3.6L121.84,58.56z"/>
				<path class="st14" d="M116.57,57.85c-0.2,1.17-0.24,2.35-0.12,3.53c-0.63,0.39-1.25,1-1.91,1.31c0.18-1.5,0.46-2.99,0.85-4.46
					L116.57,57.85z"/>
				<circle class="st9" cx="117.4" cy="61.89" r="0.68"/>
				
					<ellipse transform="matrix(0.6658 -0.7462 0.7462 0.6658 -7.0191 106.5946)" class="st9" cx="115.47" cy="61.13" rx="0.68" ry="0.52"/>
				<path class="st13" d="M112.01,82.82l-1-0.3c0,0,4.89-15.15,10.57-20.2c0.67-0.6,1.83-1.16,2.53-0.59
					c0.32,0.23,0.62,0.48,0.9,0.76c0,0-1.48,0-4.14,2.79C117.27,69.07,112.01,82.82,112.01,82.82z"/>
				<path class="st13" d="M123,83.08c0,0-1.22-0.34-2.25-0.5c-2.65-0.41-10.46-0.59-10.46-0.59l0.88-3.23c0,0,7,1,9.38,1
					c0.55,0.01,1.09-0.04,1.63-0.16L123,83.08z"/>
			</g>
			<g>
				<polygon class="st19" points="48.78,84.96 51.08,83.62 51.02,109.49 48.73,110.83 				"/>
				<polygon class="st18" points="48.78,84.96 48.73,110.83 46.49,109.53 46.55,83.66 				"/>
			</g>
			<polygon class="st29" points="140.57,101.98 142.87,100.65 142.81,126.52 140.51,127.85 			"/>
			<polygon class="st30" points="140.57,101.98 140.51,127.85 138.27,126.56 138.33,100.69 			"/>
			<polygon class="st29" points="109.28,117.41 111.57,116.07 111.51,144.44 109.22,145.78 			"/>
			<polygon class="st30" points="109.28,117.41 109.22,145.78 106.98,144.49 107.04,116.12 			"/>
			<g>
				<polygon class="st31" points="111.7,121.26 148.63,100.5 148.61,104.86 112.18,126.03 				"/>
				<path class="st32" d="M148.63,100.53l-36.44,21.18L44.13,82.38l36.43-21.17L148.63,100.53z"/>
				<path class="st33" d="M112.2,121.68v4.36c-22.71-13.09-45.4-26.19-68.09-39.29v-4.36l0,0L112.2,121.68z"/>
			</g>
			<g>
				<path class="st34" d="M60.1,121.36c4.12-0.94,7.28-5.3,12.06-8.71l4.24-2.12c0.28-4.39,0-5.8-2.07-6.5
					c-3.83-1.32-10.38,2.12-15.39,4.57L60.1,121.36z"/>
				<path class="st35" d="M69.74,130.51l-3.07,2.34c0,2.82,0,4.21,1.13,4.94c1.33,0.9,3.57,0.18,4.93-0.44l0.36-1.1
					c1.31-0.18,1,0.21,2.43-0.57c2.36-1.31,5.84-3.34,6.3-5.68c0.12-0.6-0.34-1.69-1-1.58l-6.85,1.19L69.74,130.51z"/>
				<path class="st34" d="M65.3,112.24l1.11,21.56l0,0c-0.03,0.17,0.05,0.34,0.2,0.42c0.72,0.42,3.12-0.28,5.34-1.57
					c0.79-0.43,1.52-0.96,2.18-1.57l0.82-0.56l1.24-23.73L65.3,112.24z"/>
				<path class="st36" d="M77.12,134.74l-3.16,2.22c-0.09,2.82-0.15,4.2,0.91,5c1.29,0.95,3.56,0.33,5-0.24l0.41-1.07
					c1.86-0.18,1.35,0.1,3.24-0.88c2.29-1.18,5.07-2.86,5.57-4.93c0.14-0.59-0.27-1.69-0.88-1.61l-6.73,0.81L77.12,134.74z"/>
				<path class="st34" d="M72.6,111.05c0.14,2,0.25,3.89,0.31,5.84l0.65,21.24l0,0c0.01,0.13,0.09,0.25,0.21,0.3
					c0.72,0.42,3.11-0.28,5.34-1.57c2.23-1.29,3.34-2.55,2.8-3l0.12-23.21C82.16,105.81,72.68,106.81,72.6,111.05z"/>
				<g>
					<polygon class="st19" points="60.97,95.25 63.27,93.91 63.21,124.78 60.91,126.11 					"/>
					<polygon class="st18" points="60.97,95.25 60.91,126.11 58.67,124.82 58.73,93.95 					"/>
				</g>
				<polygon class="st30" points="49.58,118.1 49.9,124.94 49.56,143.19 47.75,142.14 47.77,117.06 				"/>
				<polygon class="st29" points="49.58,118.1 51.35,117.08 51.33,142.16 49.56,143.19 				"/>
				<polygon class="st30" points="64.33,126.65 64.65,133.5 64.31,151.74 62.5,150.7 62.52,125.61 				"/>
				<polygon class="st29" points="64.33,126.65 66.1,125.62 66.08,150.71 64.31,151.74 				"/>
				<g>
					<path class="st29" d="M74.23,120.33l-14.89,8.59c-0.17,0.1-0.35,0.18-0.53,0.24h-0.1c-0.15,0.05-0.31,0.09-0.47,0.11l0,0
						c-0.15,0.02-0.31,0.02-0.46,0l0,0c-0.15-0.03-0.29-0.08-0.42-0.15l0,0l1.55,0.89l0,0l0.15,0.07l0.15,0.06h0.1h0.06h0.18h0.4
						h0.25h0.11h0.1l0.13-0.05c0.14-0.06,0.27-0.12,0.4-0.2l14.8-8.67L74.23,120.33z"/>
					<path class="st29" d="M75.74,121.22l-14.88,8.59c-1.58,0.92-2.87,0.18-2.88-1.64v-16.05l-1,0.59v16.06
						c0,2.48,1.76,3.47,3.91,2.23l14.89-8.59L75.74,121.22z"/>
				</g>
				<g>
					<path class="st29" d="M64.58,114.62l-14.89,8.59c-0.17,0.1-0.35,0.18-0.53,0.25h-0.1c-0.15,0.05-0.31,0.08-0.47,0.1l0,0
						c-0.15,0.02-0.31,0.02-0.46,0l0,0c-0.15-0.03-0.29-0.09-0.42-0.16l0,0l1.55,0.9l0,0l0.15,0.07l0.15,0.05h0.1h0.06h0.17h0.41
						l0.25-0.06h0.11h0.1h0.12c0.14-0.06,0.27-0.12,0.4-0.2l14.89-8.59L64.58,114.62z"/>
					<path class="st29" d="M66.12,115.52l-14.89,8.59c-1.58,0.91-2.87,0.18-2.87-1.64l-0.05-16.06l-1,0.6v16.06
						c0,2.47,1.77,3.47,3.92,2.23l14.89-8.59V115.52z"/>
				</g>
				<g>
					<polygon class="st16" points="60.73,111.57 61.05,118.41 60.71,127.91 58.9,126.87 58.93,110.53 					"/>
					<polygon class="st17" points="60.73,111.57 62.51,110.54 62.48,126.88 60.71,127.91 					"/>
				</g>
				<polygon class="st30" points="75.48,120.13 75.8,126.96 75.46,145.21 73.65,144.17 73.67,119.09 				"/>
				<polygon class="st29" points="75.48,120.13 77.26,119.1 77.23,144.18 75.46,145.21 				"/>
				<g>
					<path class="st22" d="M78.57,119.38c0.01,0.06,0.01,0.11,0,0.17l0,0c-0.02,0.06-0.05,0.11-0.08,0.16l0,0
						c-0.04,0.05-0.09,0.1-0.14,0.15l-0.11,0.09l-0.11,0.07l-13.46,7.82V130l13.46-7.82l0,0c0.03-0.02,0.06-0.04,0.09-0.07
						l0.12-0.08l0,0l0.11-0.12l0,0l0,0c0,0,0,0,0-0.05c0.01-0.03,0.01-0.07,0-0.1l0,0l0,0c0,0,0,0,0-0.06s0-0.07,0-0.1l0,0
						L78.57,119.38z"/>
					<path class="st23" d="M64.09,128.09h-0.08c-0.19,0.04-0.39,0.07-0.59,0.07l0,0c-0.21,0-0.42-0.02-0.63-0.07l0,0
						c-0.19-0.04-0.38-0.11-0.55-0.21l-15.61-8.99c-0.29-0.12-0.48-0.39-0.5-0.7v2.16c0.03,0.31,0.22,0.57,0.5,0.7l15.61,8.99
						l0.24,0.12l0.21,0.07h0.11h0.07h0.17h0.17h0.34h0.19c0.07,0.01,0.15,0.01,0.22,0h0.09h0.08h0.15c0.13-0.04,0.25-0.09,0.37-0.16
						v-2.16C64.47,128,64.28,128.06,64.09,128.09z"/>
					<path class="st24" d="M78.06,118.67c0.39,0.13,0.59,0.55,0.46,0.94c-0.07,0.22-0.24,0.39-0.46,0.46l-13.46,7.82
						c-0.76,0.39-1.65,0.39-2.41,0l-15.61-8.99c-0.39-0.13-0.59-0.55-0.46-0.94c0.07-0.22,0.24-0.39,0.46-0.46l13.46-7.81
						c0.76-0.39,1.65-0.39,2.41,0L78.06,118.67z"/>
				</g>
				<path class="st34" d="M52.43,109.76l-2.67,1.45c-0.95,4.32-0.41,7.4,1.58,9.47c2.87,3,8.82,5.25,14.37,4
					c4.12-0.94,7.28-5.3,12.06-8.71l4.24-2.16c0.29-4.39,0-5.81-2.07-6.5c-3.83-1.32-10.38,2.12-15.39,4.57L52.43,109.76z"/>
				<path class="st25" d="M68.75,75.74c0.41-0.54,1.08-0.69,2.21-1.68c0.76-0.82,1.36-1,1.71-0.87s0.49,0.33,0,1.07l-1.27,1.58
					l1.56-0.11l0.88-0.32l1.91-2c0.58-0.67,0.88-0.23,1.53,0.48c0.94,0.87-0.34,2.21-1.49,3.84c-1.17,1.28-0.94,1.52-2.63,1.7
					l-2.63,0.28l-1,1.53l-2.78-1.88c0.4-0.41,0.77-0.85,1.1-1.32C68.33,77.14,68.22,76.46,68.75,75.74z"/>
				<path class="st37" d="M61.87,90.32l5.18-12.08c1.29-0.59,3.63,1.26,3.93,2.2c-1.21,5.79-2.79,11.51-4.73,17.1
					c-0.77,1.89-1.68,2-3.59,1.34C59.36,97.73,60.64,93.53,61.87,90.32z"/>
				<path class="st37" d="M62.41,81.09c4.8,2.77,7.42,5.74,5.87,6.65c-1.55,0.91-6.71-0.61-11.49-3.38s-7.42-5.74-5.86-6.65
					C52.49,76.81,57.62,78.32,62.41,81.09z"/>
				<g>
					<path class="st25" d="M54.63,71.55c0.62,5.22,0.71,4.13-0.56,9.38l6.78,3.17c-0.57-7.39,0.23-8.11,2.3-15.16L54.63,71.55z"/>
					<circle class="st5" cx="60.77" cy="71.35" r="7.26"/>
					<path class="st38" d="M65.56,73.47c-0.06-0.83-0.78-1.46-1.61-1.4c-0.24,0.02-0.48,0.09-0.69,0.22
						c-0.58,0.53-0.78,1.35-0.51,2.09c0.27,0.72,0.68,1.38,1.21,1.94c-2.31,1.54-4.79,2.79-7.41,3.73l-3.25-4.71
						c-0.53-0.68-0.94-1.45-1.22-2.27c-0.4-2.35,0.14-4.77,1.51-6.73c1.76-2,4.27-3.19,6.94-3.27c2.13-0.17,4.71,1.3,6.09,3
						C68.43,68.22,66.41,71.12,65.56,73.47z"/>
				</g>
				<path class="st39" d="M54.6,78.02c1.83,1.16,4.08,1.45,6.14,0.79l0.56,1.68c-1.66,2.31-7.33,2.16-7.2-0.67L54.6,78.02z"/>
				<path class="st37" d="M54.06,79.63c-1.25-0.58-1.56-2.11-2.77-2c-0.41,0.1-0.8,0.28-1.15,0.52c-1.43,0.75-2.51,3-2.83,5.5
					c-1.09,8.55,2.77,9.73,2.33,20.22c-0.08,1.95-0.64,7.46-1.15,11.11c0.32,1.52,1.87,2.92,3.48,4l0.67-7.16l0.79,8.1
					c1.12,1.09,2.46,1.93,3.93,2.47c2.85,1.31,10.56,3,10.5-0.35c-0.08-4.75-1-9.59-0.59-15.34c0.57-8.43,2.59-16.42,1.83-18.27
					c-0.66-1.96-1.9-3.67-3.56-4.9c-1.92-1.34-2.51-2-4.35-3.31C57.62,81.96,54.44,80.78,54.06,79.63z"/>
				<path class="st25" d="M78.37,96.53c1.25-0.91,2.3-2.07,3.09-3.4c0.45-0.71,1.07-1.29,1.81-1.7c1-0.6,3.43-0.2,5.49-0.55
					c0.81-0.19,1.61,0.31,1.8,1.12c0.03,0.12,0.04,0.24,0.04,0.36c0.11,1.25-1.4,2-2.47,3c-0.8,0.8-1.72,1.47-2.72,2
					c-0.86,0.45-2,0.72-2.85,1.17l-2.13,1.55l-1.92-3.34l0.06-0.06L78.37,96.53z"/>
				<path class="st37" d="M68.88,101.69l10.7-6.67c1.45,0.95,2.62,2.27,3.38,3.83c-4.76,4.05-9.77,7.81-14.99,11.26
					c-1.77,1-2.54,0.55-3.66-1.13C62.37,106.05,65.92,103.53,68.88,101.69z"/>
				<path class="st37" d="M67.27,85.02c1.64,1.42,1.76,1.8,2.11,2.81c1.05,3.08,0.57,9.44,0.65,14.7c-0.23,4.33,0.73,6.94-3.53,7.29
					c-2,0.27-2.56-0.47-3-2.44l-2.52-12.73C60.36,87.2,65.05,84.02,67.27,85.02z"/>
				<g>
					<path class="st22" d="M62.21,110.06v8.38c0.01,0.09,0.01,0.18,0,0.27l0,0c-0.01,0.07-0.03,0.14-0.07,0.21l0,0l-0.07,0.11
						c-0.05,0.07-0.11,0.14-0.19,0.18l1.87-1.07c0.07-0.05,0.14-0.12,0.19-0.19l0,0c0-0.03,0-0.05,0-0.08l0,0c0-0.02,0-0.04,0-0.06
						v-0.06c0,0,0,0,0-0.07l0,0l0,0l0,0l0,0v-0.18l0,0v-8.38L62.21,110.06z"/>
					<path class="st24" d="M61.47,108.36L61.47,108.36c0.07,0.08,0.14,0.16,0.2,0.24l0,0c0.07,0.09,0.12,0.18,0.18,0.27l0,0
						c0.05,0.09,0.1,0.18,0.14,0.28l0,0c0,0.1,0.08,0.2,0.11,0.3l0,0c0,0.1,0,0.2,0.07,0.3l0,0c0,0.1,0,0.2,0,0.29l1.87-1.08v-0.06
						c0-0.02,0-0.03,0-0.05v-0.06c0,0,0,0,0-0.06v-0.06l0,0l0,0c0-0.02,0-0.05,0-0.07v-0.07c0,0,0,0,0-0.06l0,0l0,0v-0.06v-0.06
						c0-0.02,0-0.04,0-0.06v-0.06l0,0l0,0v-0.06v-0.06c0.01-0.02,0.01-0.05,0-0.07c0-0.03,0-0.05,0-0.08l0,0l0,0l-0.09-0.14
						l-0.4-0.29l0,0l-0.06-0.07v-0.06v-0.06c0,0,0,0-0.05,0l0,0l0,0l0,0l0,0h-0.06l0,0l0,0l0,0l0,0h-0.06l0,0h-0.05l0,0l-15.6-8.99
						l0,0l0,0h-0.05l0,0h-0.5h-0.08h-0.09l-1.87,1.08c0.06-0.03,0.12-0.05,0.18-0.06l0,0c0.07-0.02,0.14-0.02,0.21,0l0,0
						c0.07-0.01,0.15-0.01,0.22,0l0,0c0.09,0.02,0.17,0.06,0.24,0.11l15.61,8.99l0.24,0.17l0,0L61.47,108.36z"/>
					<path class="st23" d="M61.01,107.98L45.4,98.98c-0.67-0.39-1.21-0.07-1.21,0.69v8.38c0.05,0.85,0.5,1.62,1.21,2.09l15.6,8.99
						c0.67,0.38,1.22,0.07,1.22-0.7v-8.38C62.17,109.21,61.72,108.43,61.01,107.98z"/>
				</g>
				<path class="st30" d="M56.98,128.77v-16.06l-1.54-0.89v16.06c-0.02,0.65,0.14,1.29,0.47,1.85c0.17,0.26,0.4,0.49,0.67,0.65
					l1.54,0.89C57.32,130.71,56.88,129.75,56.98,128.77z"/>
				<polygon class="st24" points="56.93,112.71 55.39,111.82 56.42,111.22 57.97,112.11 				"/>
				<path class="st29" d="M60.89,129.81c-1.58,0.92-2.87,0.18-2.88-1.64v-16.05l-1,0.59v16.06c0,2.48,1.76,3.47,3.91,2.23
					L60.89,129.81z"/>
				<path class="st30" d="M47.32,123.08v-16.06l-1.55-0.9l-0.01,16.06c-0.03,0.65,0.14,1.29,0.47,1.85c0.17,0.27,0.4,0.49,0.67,0.65
					l1.54,0.9C47.65,125,47.22,124.05,47.32,123.08z"/>
				<polygon class="st24" points="47.28,107.02 45.73,106.12 46.77,105.52 48.31,106.42 				"/>
				<path class="st29" d="M51.23,124.12c-1.58,0.91-2.87,0.18-2.87-1.64l-0.05-16.06l-1,0.6v16.06c0,2.47,1.77,3.47,3.92,2.23
					V124.12z"/>
			</g>
			<g>
				<path class="st25" d="M122.49,64.66c-1.59,3.4,0.27,11.69,0.95,15.71l3,0.62c0-0.2,0.61-0.63,0.62-0.84
					c0.2-4.19,0.74-10.39,0.07-14.13c-0.28-1.55-1.29-2.78-2.44-2.74C123.77,63.36,122.95,63.87,122.49,64.66z"/>
				<polygon class="st40" points="109.99,69.95 97.9,63.17 103.84,77.19 115.94,83.96 				"/>
				<circle class="st5" cx="112.78" cy="76.98" r="2.83"/>
				<circle class="st5" cx="101.18" cy="69.52" r="2.83"/>
				<path class="st25" d="M125.08,77.76c-3.48-0.78-6.47-1.31-10.18-2.08c-0.06,0.88-0.08,1.77-0.05,2.65
					c3.09,1.19,5.79,2.39,9.13,3.37c1.78,0.52,2.72-0.32,3-1.25S126.87,78.16,125.08,77.76z"/>
			</g>
			<path class="st14" d="M122.29,64.55c-0.77,1.64-0.83,5.14-0.53,7.99l6.12-0.33c-0.03-2.06-0.22-4.11-0.57-6.15
				c-0.29-1.59-1.4-3.15-2.58-3.11C123.71,63.09,122.81,63.67,122.29,64.55z"/>
		</g>
		<g>
			<g>
				<path class="st41" d="M101.98,93.74v-1.49c0.33-0.2,11.85-4.77,12.18-4.58l8.2,3c0,1,0.18,2.89-0.53,3.31l-10.45,6.17
					c-0.34,0.19-0.76,0.19-1.1,0l-7.76-4.53C101.8,95.2,101.98,94.42,101.98,93.74z"/>
				<path class="st42" d="M102.52,91.32l10.56-6.07c0.33-0.19,0.74-0.19,1.08,0l7.67,4.43c0.52,0.3,0.69,0.96,0.39,1.47
					c-0.09,0.16-0.23,0.3-0.39,0.39l-10.45,6.17c-0.34,0.2-0.76,0.2-1.1,0l-7.76-4.52c-0.52-0.31-0.69-0.98-0.38-1.49
					C102.23,91.54,102.36,91.41,102.52,91.32z"/>
				<g>
					<polygon class="st43" points="103.35,92.09 107.77,89.56 115.18,93.9 110.76,96.43 					"/>
					<g class="st44">
						<polygon class="st45" points="103.35,92.09 107.77,89.56 109.16,90.37 109.15,95.48 						"/>
					</g>
				</g>
			</g>
			<g>
				<polygon class="st41" points="111.79,89.54 110.31,88.66 110.31,88.56 111.11,88.2 112.57,88.96 112.57,89.06 				"/>
				<polygon class="st3" points="111.79,89.45 110.31,88.56 111.11,88.1 112.57,88.96 				"/>
			</g>
			<g>
				<polygon class="st41" points="113.88,90.76 112.39,89.88 112.39,89.79 113.2,89.42 114.66,90.18 114.66,90.28 				"/>
				<polygon class="st3" points="113.88,90.67 112.39,89.79 113.2,89.33 114.66,90.18 				"/>
			</g>
			<g>
				<polygon class="st41" points="115.9,91.97 114.43,91.09 114.43,90.99 115.23,90.63 116.68,91.39 116.68,91.49 				"/>
				<polygon class="st3" points="115.9,91.88 114.43,90.99 115.23,90.54 116.68,91.39 				"/>
			</g>
			<g>
				<polygon class="st41" points="113.33,88.72 111.85,87.84 111.85,87.74 112.65,87.38 114.11,88.14 114.11,88.24 				"/>
				<polygon class="st3" points="113.33,88.63 111.85,87.74 112.65,87.29 114.11,88.14 				"/>
			</g>
			<g>
				<polygon class="st41" points="115.41,89.95 113.93,89.06 113.93,88.97 114.74,88.6 116.19,89.37 116.19,89.46 				"/>
				<polygon class="st3" points="115.41,89.85 113.93,88.97 114.74,88.51 116.19,89.37 				"/>
			</g>
			<g>
				<polygon class="st41" points="117.44,91.15 115.96,90.27 115.96,90.18 116.76,89.81 118.22,90.57 118.22,90.67 				"/>
				<polygon class="st3" points="117.44,91.06 115.96,90.18 116.76,89.72 118.22,90.57 				"/>
			</g>
			<polygon class="st43" points="106.61,97.23 107.97,98.03 108,97.23 106.64,96.43 			"/>
			<polygon class="st46" points="108.34,98.23 109.71,99.03 109.74,98.23 108.37,97.43 			"/>
		</g>
	</g>
</g>
</svg>
