<svg xmlns="http://www.w3.org/2000/svg" xmlns:xlink="http://www.w3.org/1999/xlink" viewBox="0 0 586.55 367.83"><defs><style>.cls-1{fill:#828d9a;}.cls-2{fill:none;}.cls-3{isolation:isolate;}.cls-13,.cls-4{fill:#d0cfd0;}.cls-4{stroke:#eaeaea;stroke-miterlimit:10;stroke-width:4px;}.cls-5{fill:#3d1a10;}.cls-6{fill:#70361e;}.cls-7{fill:#66260f;}.cls-8{fill:#4e1910;}.cls-9{opacity:0.3;}.cls-10{fill:#261c35;}.cls-11{fill:#efefef;}.cls-12{fill:#848383;}.cls-14{fill:#d9d9d9;mix-blend-mode:multiply;}.cls-15{fill:#fef6b5;}.cls-16{fill:#eadfa0;}.cls-17{fill:#4d5c70;}.cls-18{fill:#717c8c;}.cls-19{clip-path:url(#clip-path);}.cls-20{fill:#010101;}.cls-21{clip-path:url(#clip-path-2);}.cls-22{clip-path:url(#clip-path-3);}.cls-23{clip-path:url(#clip-path-4);}.cls-24{clip-path:url(#clip-path-5);}.cls-25{clip-path:url(#clip-path-6);}.cls-26{fill:#827561;}.cls-27{fill:#b2a896;}</style><clipPath id="clip-path" transform="translate(-5.64 -11.7)"><path id="_Ritaglio_" data-name="&lt;Ritaglio&gt;" class="cls-1" d="M242,265.31s-2.41-5.92.55-8.61,10.73-3.06,10.73-3.06-2.59,5.57-3.53,7.28S246,265,244.69,265A14.93,14.93,0,0,0,242,265.31Z"/></clipPath><clipPath id="clip-path-2" transform="translate(-5.64 -11.7)"><path id="_Ritaglio_2" data-name="&lt;Ritaglio&gt;" class="cls-1" d="M234.24,264.43s5.45-3.35,4.65-7.28-6.85-8.81-6.85-8.81-1.2,6-1.46,8,.59,5.47,1.67,6.27A15,15,0,0,1,234.24,264.43Z"/></clipPath><clipPath id="clip-path-3" transform="translate(-5.64 -11.7)"><path class="cls-2" d="M275.58,99.45l-.34,0c-15.54-2.18-28.75-21.22-30.77-35.68-1.47-10.58,5.21-30.8,19.75-23,11.14,5.94,3.85,21.8,15,28.11,7.79,4.39,19.52,9.13,15.84,20.47C292.85,96.23,282.24,100.21,275.58,99.45Z"/></clipPath><clipPath id="clip-path-4" transform="translate(-5.64 -11.7)"><path class="cls-2" d="M299.12,87.34A10.67,10.67,0,0,1,300.35,84c4.59-8.18,16.12-9.51,22.44-16,5.16-5.35,10-11.62,18.14-6.87,23.25,13.63-10.68,52.75-32.33,41.46C303,99.61,298,93.62,299.12,87.34Z"/></clipPath><clipPath id="clip-path-5" transform="translate(-5.64 -11.7)"><path class="cls-2" d="M295.05,104c5.2.54,9.65,2.62,11,8.22,2.24,9.22-10.38,18.81-17.77,21.75-11.83,4.7-24.52,4.43-34.11-4.6-4.76-4.47-12.22-16.74-7.71-23.33,4.3-6.28,12.46-2.79,18.27-1.47a39.9,39.9,0,0,0,13.22.57C282.35,104.7,289.18,103.36,295.05,104Z"/></clipPath><clipPath id="clip-path-6" transform="translate(-5.64 -11.7)"><path class="cls-2" d="M314.29,35.48c7.55,2.72,12.45,10,7.44,20.47-7.2,15.12-39.39,16.17-34.31-6.13C290.59,35.92,304.61,32,314.29,35.48Z"/></clipPath></defs><title>G05_10_01</title><g class="cls-3"><g id="Livello_1" data-name="Livello 1"><circle class="cls-4" cx="513.68" cy="274.87" r="70.87"/><path class="cls-5" d="M564,271c0,.84-12.93,2.88-51.07,3.44-22.14.32-34.66-.59-36.29-1.4.55.61,2.29,2.76,4.41,5.46,4.12,5.26,9.67,12.59,10.67,14.73,2.85,6.15,4.85,14.27,6.09,20.55.41,2.05.73,3.9,1,5.43.43,2.64.64,4.3.64,4.3a26.75,26.75,0,0,0,6.74,1.46c.79.07,1.64.12,2.52.12h.23a91.77,91.77,0,0,0,9.33-.4l.16,0c.78,0,1.53,0,2.25,0a27.27,27.27,0,0,0,6.59-.89c.52-.15,1.32-1.76,2.32-4.08.69-1.58,1.47-3.48,2.33-5.47,1.71-4,3.75-8.29,6-11,2.55-3.16,15.52-13.85,21.4-21.12a27.16,27.16,0,0,0,3.67-5.74C564.56,272.78,564,270.93,564,271Z" transform="translate(-5.64 -11.7)"/><path class="cls-5" d="M564,271c0,.84-12.93,2.88-51.07,3.44-23.79.35-36.47-.74-36.47-1.58,0-.29.38-2.15,4.18-2.7,7.58-1.1,23.38-1,39.22-1,15,0,30.38-.6,38.19,0C562.62,269.53,564,270.72,564,271Z" transform="translate(-5.64 -11.7)"/><path class="cls-6" d="M514,320.6c-1.14,0-3.54-.13-4.84-.23-.19,1.75-.39,3.8-.48,4.76h.23a91.77,91.77,0,0,0,9.33-.4c.21-1.26.52-3.11.74-4.57C517.46,320.33,514.94,320.58,514,320.6Z" transform="translate(-5.64 -11.7)"/><path class="cls-7" d="M509.48,318c-.09.56-.2,1.43-.31,2.39,1.3.1,3.7.26,4.84.23.93,0,3.45-.27,5-.43.1-.66.18-1.25.22-1.66.1-.93.34-2.24.65-3.67-1.45.15-4.31.43-5.43.46s-3.6-.14-4.88-.23A12.77,12.77,0,0,1,509.48,318Z" transform="translate(-5.64 -11.7)"/><path class="cls-7" d="M507.12,320.26c.26-1.33.5-2.57.62-3.24s.21-1.36.29-2c-1.47,0-4.69,0-5.95-.14a29.34,29.34,0,0,1-4.28-1.05c.41,2.05.73,3.9,1,5.43a28.34,28.34,0,0,0,3.36.72C503.22,320.09,505.66,320.2,507.12,320.26Z" transform="translate(-5.64 -11.7)"/><path class="cls-6" d="M502.15,320a28.34,28.34,0,0,1-3.36-.72c.43,2.64.64,4.3.64,4.3a26.75,26.75,0,0,0,6.74,1.46c.19-.94.59-2.93.95-4.75C505.66,320.2,503.22,320.09,502.15,320Z" transform="translate(-5.64 -11.7)"/><path class="cls-6" d="M521,320c-.11,1.47-.23,3.29-.32,4.66a27.27,27.27,0,0,0,6.59-.89c.52-.15,1.32-1.76,2.32-4.08-1.12.09-2.16.16-2.79.17Z" transform="translate(-5.64 -11.7)"/><path class="cls-7" d="M564,271c0,.84-12.93,2.88-51.07,3.44-22.14.32-34.66-.59-36.29-1.4.55.61,2.29,2.76,4.41,5.46,6.15.5,16.71,1,31.34.82,30.46-.43,45.36-2,50.54-3C564.56,272.78,564,270.93,564,271Z" transform="translate(-5.64 -11.7)"/><path class="cls-6" d="M481,278.54c4.12,5.26,9.67,12.59,10.67,14.73,2.85,6.15,4.85,14.27,6.09,20.55a29.34,29.34,0,0,0,4.28,1.05c1.26.13,4.48.15,5.95.14a44.05,44.05,0,0,0,.33-5.85,27.66,27.66,0,0,1,1.19,5.91c1.28.09,3.81.25,4.88.23s4-.31,5.43-.46c.91-4.33,2.42-9.83,2.42-9.83s-.45,5.34-.84,9.72l5.9-.15c.95,0,2.91-.19,4.56-.34,1.71-4,3.75-8.29,6-11,2.55-3.16,15.52-13.85,21.4-21.12a27.16,27.16,0,0,0,3.67-5.74c-5.18,1-20.08,2.56-50.54,3C497.75,279.57,487.19,279,481,278.54Z" transform="translate(-5.64 -11.7)"/><path class="cls-7" d="M521.44,314.73c-.1,1.22-.21,2.37-.3,3.3,0,.46-.1,1.17-.16,2l5.8-.14c.63,0,1.67-.08,2.79-.17.69-1.58,1.47-3.48,2.33-5.47-1.65.15-3.61.31-4.56.34Z" transform="translate(-5.64 -11.7)"/><path class="cls-5" d="M509.55,315.07a27.66,27.66,0,0,0-1.19-5.91A44.05,44.05,0,0,1,508,315h.75Z" transform="translate(-5.64 -11.7)"/><path class="cls-5" d="M508.29,320.3l-1.17,0c-.36,1.82-.76,3.81-.95,4.75.79.07,1.64.12,2.52.12.09-1,.29-3,.48-4.76Z" transform="translate(-5.64 -11.7)"/><path class="cls-8" d="M507.12,320.26l1.17,0,.88.07c.11-1,.22-1.83.31-2.39a12.77,12.77,0,0,0,.07-2.91l-.77-.06H508c-.08.65-.17,1.32-.29,2S507.38,318.93,507.12,320.26Z" transform="translate(-5.64 -11.7)"/><path class="cls-5" d="M520.22,320l-1.23.13c-.22,1.46-.53,3.31-.74,4.57l.16,0c.78,0,1.53,0,2.25,0,.09-1.37.21-3.19.32-4.66Z" transform="translate(-5.64 -11.7)"/><path class="cls-8" d="M519,320.17l1.23-.13.76,0c.06-.82.12-1.53.16-2,.09-.93.2-2.08.3-3.3l-.73,0-.85.09c-.31,1.43-.55,2.74-.65,3.67C519.17,318.92,519.09,319.51,519,320.17Z" transform="translate(-5.64 -11.7)"/><path class="cls-5" d="M521.44,314.73c.39-4.38.84-9.72.84-9.72s-1.51,5.5-2.42,9.83l.85-.09Z" transform="translate(-5.64 -11.7)"/><g class="cls-9"><path class="cls-10" d="M544.6,296.41c1.48-.06,3.71-2,1.49-2.12,1.14-1.65,2.27-3.37,3.11-4.83a33.93,33.93,0,0,0,3.27-1.15c.15-.16,1.39-1.31,1.43-1.43s-1.82.52-2.26.67-1,.31-1.64.46a69.46,69.46,0,0,0,4.77-11.7s-4.33,7.47-6.62,11.16c-.43.69-.93,1.42-1.47,2.17-.25-.72-.58-1.73-.9-3a41.26,41.26,0,0,0-2.14-5.67l1.09,6.33c.2,1.18.35,3,.43,4.29-2.89,3.63-6.12,7-6.12,7l2.59,1.81S543,298.69,544.6,296.41Z" transform="translate(-5.64 -11.7)"/><path class="cls-10" d="M545.09,278.6a2.55,2.55,0,1,1-4.11,1.47c-.85-2.37.28-5.68.28-5.68S544.24,276.22,545.09,278.6Z" transform="translate(-5.64 -11.7)"/><path class="cls-10" d="M541.24,274.45l3,8.5.12,0a4.9,4.9,0,0,0,.74-4.38c-.85-2.38-3.83-4.21-3.83-4.21Z" transform="translate(-5.64 -11.7)"/><path class="cls-10" d="M537.11,305.88h0Z" transform="translate(-5.64 -11.7)"/><path class="cls-10" d="M519.43,314.91a3.45,3.45,0,0,0,3.46,3.44,3.55,3.55,0,0,0,1.79-.51,3.25,3.25,0,0,0-.15,1,3.45,3.45,0,0,0,6.9,0,3.41,3.41,0,0,0-.17-1.06,3.31,3.31,0,0,0,1.89.56,3.45,3.45,0,0,0,.47-6.86,3.44,3.44,0,0,0-2.5-5.81,3.46,3.46,0,0,0-3.32,2.52,3.44,3.44,0,0,0-6.76.94,3.4,3.4,0,0,0,1,2.44A3.46,3.46,0,0,0,519.43,314.91Zm8.38-4.87h0Z" transform="translate(-5.64 -11.7)"/><path class="cls-10" d="M523.93,295.8a3.53,3.53,0,0,0,2,5.82,3.22,3.22,0,0,0-.78.66,3.53,3.53,0,0,0,5.28,4.68A3.35,3.35,0,0,0,531,306a3.43,3.43,0,0,0,1.07,1.71,3.53,3.53,0,0,0,5-4.92,3.53,3.53,0,1,0-2.21-6.48,3.53,3.53,0,0,0-5.82-3.88,3.47,3.47,0,0,0-.88,2.55A3.54,3.54,0,0,0,523.93,295.8Zm9.72,2Z" transform="translate(-5.64 -11.7)"/><path class="cls-10" d="M551.52,274.5a1.38,1.38,0,0,0,.12,2,1.32,1.32,0,0,0,.67.33,1.86,1.86,0,0,0-.31.26,1.4,1.4,0,0,0,2.09,1.85,1.62,1.62,0,0,0,.23-.37,121,121,0,0,1,3.33-1.73,4.38,4.38,0,0,1-2.13-3.74,7.87,7.87,0,0,1-4,1.44Zm3.83.78Z" transform="translate(-5.64 -11.7)"/></g><polygon class="cls-11" points="289.25 363.06 289.25 367.74 191.43 312.79 191.43 308.1 289.25 363.06"/><polygon class="cls-12" points="380.56 311.01 380.56 315.7 289.41 367.83 289.25 367.74 289.25 363.06 289.41 363.15 380.56 311.01"/><polygon class="cls-13" points="289.25 363.06 191.43 308.1 191.43 307.84 283.36 256.65 380.56 311.01 289.41 363.15 289.25 363.06"/><ellipse class="cls-14" cx="287.62" cy="309.36" rx="59.55" ry="30.97"/><circle class="cls-4" cx="72.87" cy="290.14" r="70.87"/><path class="cls-15" d="M76,283c6-18.95,13.47-31,20.61-38.63v0s-26.36,4.2-45.25,38.83c-23.51,43.08,9,74.32,9,74.32A42.5,42.5,0,0,0,73,359.67a120.83,120.83,0,0,0,15.69-1.83C78.29,345,64.41,319.47,76,283Z" transform="translate(-5.64 -11.7)"/><path class="cls-16" d="M85.91,316.71c-10.14-30.68,10.54-72,10.74-72.38C89.51,252,82.08,264,76,283c-11.63,36.51,2.25,62,12.67,74.88,8.57-1.4,16.89-3.08,16.89-3.08S96.1,347.54,85.91,316.71Z" transform="translate(-5.64 -11.7)"/><circle class="cls-4" cx="159.27" cy="161.74" r="70.87"/><path class="cls-1" d="M125.73,127.25s18.42,17.64,12.64,43.14c-9.62,42.41-3.49,43.15-3.49,43.15A82,82,0,0,0,168,223.12c19.18,1.31,24.41-3.92,24.41-3.92s7,1.68.72-21.73c-5.73-21.48,9.74-58.89,9.3-60.2s-29.2-10.89-43.58-13.07S125.73,127.25,125.73,127.25Z" transform="translate(-5.64 -11.7)"/><path class="cls-15" d="M142.31,209.63c2.68,1.09,3.55,7.63,2.24,8.56s-6.88-2.52-7.71-2.9a7.75,7.75,0,0,1-2-2S139.69,208.57,142.31,209.63Z" transform="translate(-5.64 -11.7)"/><path class="cls-15" d="M150.85,212.83c2.85.5,5.72,7,4.63,8.2s-7.25-1-8.14-1.23a7.61,7.61,0,0,1-2.32-1.53S148.06,212.34,150.85,212.83Z" transform="translate(-5.64 -11.7)"/><path class="cls-15" d="M160.68,214.88c2.88.24,6.63,6.6,5.66,7.88s-7.32-.36-8.22-.47a7.72,7.72,0,0,1-2.45-1.31S157.86,214.65,160.68,214.88Z" transform="translate(-5.64 -11.7)"/><circle class="cls-4" cx="410.88" cy="161.74" r="70.87"/><path class="cls-17" d="M364.55,266.82a3.81,3.81,0,0,1-1.76,1.39,3.87,3.87,0,0,0,1.55-.53c-.37.83-1.45,2.09-4.47,3.07-2.2.72-4.64-.29-4.91-1.32s1.5-2.83,5.3-2.12A7.36,7.36,0,0,0,364.55,266.82Z" transform="translate(-5.64 -11.7)"/><path class="cls-1" d="M340,265.34c11,6,19.72,4.56,21,3.36a24.27,24.27,0,0,1-18.8-7.09c-1.95-2-4.53,2.26-2.18,3.73Z" transform="translate(-5.64 -11.7)"/><path class="cls-17" d="M251.17,296.61A24.48,24.48,0,0,1,255,309.53a58.58,58.58,0,0,1-1.05,12.91,24.59,24.59,0,0,0,9.92,2.87c5.74.39,7.3-1.17,7.3-1.17s3.78-6.39,3.91-13.05a49.3,49.3,0,0,0-.91-11.48c-.13-.39-8.74-3.26-13-3.91S251.17,296.61,251.17,296.61Z" transform="translate(-5.64 -11.7)"/><path class="cls-17" d="M306.88,295.85a27,27,0,0,1,9.26,13.95c2.48,9.13-1.14,11.4,1.05,14.22,2.4,3.09,12.58,2,15.65-.39,2.24-1.78-1.55-4.46-1.55-11.5a111.35,111.35,0,0,1,1.16-14.59s-7-6.39-13.31-6.26S306.88,295.85,306.88,295.85Z" transform="translate(-5.64 -11.7)"/><path class="cls-1" d="M261.23,300.15A24.51,24.51,0,0,1,265,313.06,59.08,59.08,0,0,1,264,326a24.69,24.69,0,0,0,9.91,2.87c5.74.39,7.31-1.18,7.31-1.18s.08-5.84.21-12.49,2.92-11.64,2.79-12-8.74-3.26-13.05-3.91S261.23,300.15,261.23,300.15Z" transform="translate(-5.64 -11.7)"/><path class="cls-1" d="M318,299.37a27,27,0,0,1,9.26,13.95c2.48,9.13-1.14,11.41,1,14.22,2.4,3.09,12.58,2,15.65-.39,2.24-1.77-1.7-4.93-1.7-12a89.06,89.06,0,0,1,1.31-14.12s-7.05-6.39-13.31-6.26S318,299.37,318,299.37Z" transform="translate(-5.64 -11.7)"/><path class="cls-15" d="M256.14,321.3c.8.32,1.06,2.28.67,2.56s-2.06-.75-2.31-.87a2.16,2.16,0,0,1-.58-.59S255.35,321,256.14,321.3Z" transform="translate(-5.64 -11.7)"/><path class="cls-15" d="M258.69,322.26c.85.15,1.71,2.09,1.39,2.45s-2.17-.31-2.44-.37a2.33,2.33,0,0,1-.69-.46S257.86,322.11,258.69,322.26Z" transform="translate(-5.64 -11.7)"/><path class="cls-15" d="M261.63,322.87c.87.07,2,2,1.7,2.36s-2.19-.11-2.46-.14a2.46,2.46,0,0,1-.74-.39S260.79,322.8,261.63,322.87Z" transform="translate(-5.64 -11.7)"/><path class="cls-15" d="M266.19,324.81c.81.32,1.07,2.28.67,2.56s-2.05-.76-2.3-.87a2.24,2.24,0,0,1-.59-.59S265.41,324.49,266.19,324.81Z" transform="translate(-5.64 -11.7)"/><path class="cls-15" d="M268.75,325.76c.85.16,1.71,2.1,1.39,2.46s-2.17-.31-2.44-.37a2.19,2.19,0,0,1-.69-.46S267.91,325.62,268.75,325.76Z" transform="translate(-5.64 -11.7)"/><path class="cls-15" d="M271.69,326.38c.86.07,2,2,1.7,2.36s-2.19-.11-2.46-.15a2.25,2.25,0,0,1-.74-.39S270.85,326.31,271.69,326.38Z" transform="translate(-5.64 -11.7)"/><path class="cls-15" d="M330.3,326.32c.76.42.66,2.33.24,2.55s-2-1-2.18-1.15a2.13,2.13,0,0,1-.51-.66S329.56,325.91,330.3,326.32Z" transform="translate(-5.64 -11.7)"/><path class="cls-15" d="M332,327.12c.87.07,2,2,1.7,2.36s-2.19-.11-2.47-.15a2.17,2.17,0,0,1-.73-.39S331.17,327.05,332,327.12Z" transform="translate(-5.64 -11.7)"/><path class="cls-15" d="M334.68,327.27c.86-.09,2.5,1.65,2.28,2.08s-2.17.31-2.44.32a2.23,2.23,0,0,1-.79-.24S333.84,327.36,334.68,327.27Z" transform="translate(-5.64 -11.7)"/><path class="cls-15" d="M318.86,322.69c.75.42.65,2.32.23,2.55s-1.95-1-2.18-1.15a2.21,2.21,0,0,1-.5-.66S318.12,322.27,318.86,322.69Z" transform="translate(-5.64 -11.7)"/><path class="cls-15" d="M320.57,323.49c.86.07,2,2,1.69,2.35s-2.19-.1-2.46-.14a2.17,2.17,0,0,1-.73-.39S319.72,323.42,320.57,323.49Z" transform="translate(-5.64 -11.7)"/><path class="cls-15" d="M323.23,323.64c.87-.09,2.5,1.65,2.29,2.08s-2.17.3-2.44.32a2.18,2.18,0,0,1-.8-.25S322.39,323.73,323.23,323.64Z" transform="translate(-5.64 -11.7)"/><path class="cls-1" d="M312.62,267.41c-1.12-4.07-3.8-9.27-5.71-12.68a70.72,70.72,0,0,1-17.5,1.2,45.38,45.38,0,0,1-7.86-1.44c-2.6,2.88-6.59,9.06-7.41,19.18-1.13,14,5.85,27,10.63,34.11a37.84,37.84,0,0,0,10.77,2.93,27.21,27.21,0,0,0,16.84-2.92c1.5-3.77,3.69-9.82,4-14C316.93,287.24,314.45,274.06,312.62,267.41Z" transform="translate(-5.64 -11.7)"/><path class="cls-18" d="M274.14,273.67c.82-10.12,4.81-16.3,7.41-19.18-5.64-1.46-11.61-3.64-15.88-5-6.4-2-10.05-.26-14,2.35s-12,11.35-12,11.35c5,3.39,6,27.26,6,27.26s5.74,10,9.78,12.13,6,.78,15.52.26c6.53-.36,8.28,2.4,13.76,4.89C280,300.66,273,287.66,274.14,273.67Z" transform="translate(-5.64 -11.7)"/><path class="cls-18" d="M339.75,304.45c2.22.79,8.09-1,9-4.69s-.78-17.87-1.3-21.65-3.13-17-8.35-21.79-18.39-5.61-25.56-3.26a54.38,54.38,0,0,1-6.63,1.67c1.91,3.41,4.59,8.61,5.71,12.68,1.83,6.65,4.31,19.83,3.79,26.35-.34,4.21-2.53,10.26-4,14C318,304.93,321.89,301,325,300,330.62,298.19,337.54,303.67,339.75,304.45Z" transform="translate(-5.64 -11.7)"/><path class="cls-1" d="M243.76,263.93s-5-2.86-7.21-1.27c-3.75,2.69-9.63,6.82-14.06,9.45-7,4.17-18.52,9.78-20.61,13S201,303,204.1,305s12.91,4.56,25.83-.53,20.48-10.43,21.39-18.13-3.65-15.65-5.35-19S243.76,263.93,243.76,263.93Z" transform="translate(-5.64 -11.7)"/><path id="_Ritaglio_3" data-name="&lt;Ritaglio&gt;" class="cls-1" d="M242,265.31s-2.41-5.92.55-8.61,10.73-3.06,10.73-3.06-2.59,5.57-3.53,7.28S246,265,244.69,265A14.93,14.93,0,0,0,242,265.31Z" transform="translate(-5.64 -11.7)"/><g class="cls-19"><path class="cls-17" d="M240.71,266.84c.46-2.54,2.77-8.25,5.59-9.13,1.75-.56,1.32.73.85,2-.75,2-2.09,3-3.57,4.52-1,1-2.09,2.58-3.31,3.14C240.17,267.24,240.11,267.14,240.71,266.84Z" transform="translate(-5.64 -11.7)"/></g><ellipse class="cls-17" cx="201.46" cy="278.93" rx="1.57" ry="2.09"/><circle class="cls-20" cx="222.2" cy="269.8" r="1.57"/><path id="_Ritaglio_4" data-name="&lt;Ritaglio&gt;" class="cls-1" d="M234.24,264.43s5.45-3.35,4.65-7.28-6.85-8.81-6.85-8.81-1.2,6-1.46,8,.59,5.47,1.67,6.27A15,15,0,0,1,234.24,264.43Z" transform="translate(-5.64 -11.7)"/><g class="cls-21"><path class="cls-17" d="M234.37,266.42c1.13-2.32,2.64-8.3.89-10.68-1.09-1.48-1.5-.19-1.84,1.08-.56,2-.12,3.69.21,5.75.22,1.38.16,3.32.81,4.5C234.57,267.06,234.68,267,234.37,266.42Z" transform="translate(-5.64 -11.7)"/></g><path class="cls-16" d="M210.58,282.7c1.8-1.28,4.22-3.29,4.22-3.29s-2.48-.39-7.44-5.09-5.22-14.47-5.22-14.47h0C199.77,274.66,205.76,280.45,210.58,282.7Z" transform="translate(-5.64 -11.7)"/><path class="cls-15" d="M202.14,259.85c-.07,0-6.12,4.36-5.6,14.6s7.3,10.83,7.3,10.83a41.19,41.19,0,0,0,5.41-1.72,13.34,13.34,0,0,0,1.33-.86C205.76,280.45,199.77,274.66,202.14,259.85Z" transform="translate(-5.64 -11.7)"/><path class="cls-16" d="M221.49,275.93c.81-.68,1.89-1.72,1.89-1.72s-.57-.33-3.42-1.79-3.42-3-3.42-3h0C216.54,273.73,220.54,275.25,221.49,275.93Z" transform="translate(-5.64 -11.7)"/><path class="cls-15" d="M216.54,269.4a6.56,6.56,0,0,0-1.74,5.35,5.46,5.46,0,0,0,2.23,3.31s3.28-1.28,3.85-1.65c.16-.11.37-.28.61-.48C219,274.33,216.79,272.56,216.54,269.4Z" transform="translate(-5.64 -11.7)"/><path class="cls-5" d="M546.66,297.08a86.52,86.52,0,0,0,8.91-.72l1,.53c.14.56.37,1.44.5,1.95a16,16,0,0,0,.66,1.86s-.26-1.43-.38-2.05c-.07-.4-.14-1-.18-1.44l.41.21a20.12,20.12,0,0,0,2.65,1l-2.55-1.61c-.28-.18-.64-.44-1-.7a48.85,48.85,0,0,0,8.52-2.59s-6,.95-9,1.34a51,51,0,0,1-8.07.11c1.12-1.61,2.24-3.3,3.06-4.73l1-.42,2.48.77a15.08,15.08,0,0,0,2.21.43l-2.21-.89c-.43-.18-1.08-.51-1.49-.73l1-.41a28.39,28.39,0,0,0,3.45-1.94l-4,1.32c-.44.15-1,.31-1.62.45a66.85,66.85,0,0,0,4.7-11.47s-4.25,7.32-6.5,10.94c-.43.68-.92,1.39-1.45,2.12-.24-.7-.56-1.7-.88-2.9a40.9,40.9,0,0,0-2.08-5.57s.73,4.34,1,6.22c.2,1.15.34,3,.42,4.2-2.84,3.56-6,6.85-6,6.85l2.53,1.78S545.05,299.32,546.66,297.08Z" transform="translate(-5.64 -11.7)"/><path class="cls-6" d="M560.73,288.19a4.82,4.82,0,0,1-4.31-.72,4.83,4.83,0,0,1,2.85-3.31c2.33-.84,5.57.27,5.57.27S563.05,287.35,560.73,288.19Z" transform="translate(-5.64 -11.7)"/><path class="cls-7" d="M564.78,284.41l-8.33,2.94,0,.12a4.82,4.82,0,0,0,4.31.72c2.32-.84,4.11-3.76,4.11-3.76Z" transform="translate(-5.64 -11.7)"/><path class="cls-6" d="M547.17,279.62a2.5,2.5,0,1,1-4,1.44c-.83-2.32.28-5.57.28-5.57S546.34,277.3,547.17,279.62Z" transform="translate(-5.64 -11.7)"/><path class="cls-7" d="M543.4,275.56l2.92,8.33.11,0a4.81,4.81,0,0,0,.74-4.3c-.83-2.32-3.75-4.13-3.75-4.13Z" transform="translate(-5.64 -11.7)"/><path class="cls-6" d="M566.49,296.7a4.84,4.84,0,0,1-3.16-3,4.79,4.79,0,0,1,4.21-1.14c2.39.6,4.47,3.33,4.47,3.33S568.89,297.3,566.49,296.7Z" transform="translate(-5.64 -11.7)"/><path class="cls-7" d="M572,295.83l-8.55-2.22-.09.08a4.84,4.84,0,0,0,3.16,3c2.4.6,5.52-.82,5.52-.82Z" transform="translate(-5.64 -11.7)"/><path class="cls-6" d="M560.75,300a1.29,1.29,0,1,1,1-1.95,5.19,5.19,0,0,1,1.84,2.2A5.19,5.19,0,0,1,560.75,300Z" transform="translate(-5.64 -11.7)"/><path class="cls-7" d="M563.6,300.21l-4-2.13-.06,0a2.48,2.48,0,0,0,1.23,1.88,5.19,5.19,0,0,0,2.86.25Z" transform="translate(-5.64 -11.7)"/><path class="cls-6" d="M535.26,316.09a3.75,3.75,0,0,0,5.26.7,3.64,3.64,0,0,0,1.22-1.62,3.49,3.49,0,0,0,.53,1,3.75,3.75,0,1,0,6-4.56,3.49,3.49,0,0,0-.83-.8,3.75,3.75,0,1,0-2.11-7,3.75,3.75,0,1,0-7.21,1,3.75,3.75,0,1,0-2.75,6.72A3.75,3.75,0,0,0,535.26,316.09Zm4-9.73h0Z" transform="translate(-5.64 -11.7)"/><path class="cls-7" d="M522,315.18a3.39,3.39,0,0,0,5.14,2.89,3.45,3.45,0,0,0-.14,1,3.38,3.38,0,1,0,6.76,0,3.59,3.59,0,0,0-.16-1,3.34,3.34,0,0,0,1.85.56,3.38,3.38,0,0,0,.48-6.73,3.38,3.38,0,1,0-5.71-3.24,3.38,3.38,0,1,0-5.64,3.31A3.38,3.38,0,0,0,522,315.18Zm8.22-4.76Z" transform="translate(-5.64 -11.7)"/><path class="cls-5" d="M526.39,296.46a3.46,3.46,0,0,0,.29,4.89,3.38,3.38,0,0,0,1.68.81,3.64,3.64,0,0,0-.77.65,3.46,3.46,0,1,0,5.17,4.6,3.37,3.37,0,0,0,.58-.9,3.46,3.46,0,1,0,6-3.14,3.46,3.46,0,1,0-2.16-6.36,3.46,3.46,0,1,0-6.56-1.31A3.46,3.46,0,0,0,526.39,296.46Zm9.53,2Z" transform="translate(-5.64 -11.7)"/><path class="cls-5" d="M553.48,275.62a1.36,1.36,0,0,0,.11,1.92,1.4,1.4,0,0,0,.66.32,1.48,1.48,0,0,0-.3.26,1.36,1.36,0,1,0,2,1.81,1.51,1.51,0,0,0,.23-.35,1.25,1.25,0,0,0,.41.66,6.08,6.08,0,0,1,2.85-2.35,1.36,1.36,0,0,0-1.75-2.06,5.84,5.84,0,0,0-4.25-.21Zm3.75.77h0Z" transform="translate(-5.64 -11.7)"/><path class="cls-5" d="M554.75,289.93a1.16,1.16,0,0,0,.09,1.63,1.27,1.27,0,0,0,.56.27,1,1,0,0,0-.25.22,1.15,1.15,0,1,0,1.72,1.53,1,1,0,0,0,.2-.3,1.09,1.09,0,0,0,.34.56,1.15,1.15,0,0,0,1.65-1.61,1.12,1.12,0,0,0,.77-.38,1.15,1.15,0,0,0-.09-1.63,1.18,1.18,0,0,0-1.4-.11,1.14,1.14,0,0,0-.27-1.37,1.16,1.16,0,0,0-1.63.1,1.13,1.13,0,0,0-.29.83A1.15,1.15,0,0,0,554.75,289.93Zm3.18.65Z" transform="translate(-5.64 -11.7)"/></g><g id="Criminal"><circle class="cls-4" cx="285.68" cy="72.87" r="70.87"/><g class="cls-22"><path class="cls-16" d="M275.58,99.45l-.34,0c-15.54-2.18-28.75-21.22-30.77-35.68-1.47-10.58,5.21-30.8,19.75-23,11.14,5.94,3.85,21.8,15,28.11,7.79,4.39,19.52,9.13,15.84,20.47C292.85,96.23,282.24,100.21,275.58,99.45Z" transform="translate(-5.64 -11.7)"/><path class="cls-15" d="M264.22,40.7c-4.54-2.43-8.31-2.12-11.31-.24-8.24,9.49.61,24.45,6.52,32.64a99,99,0,0,0,12.81,14c2.79,2.6,14.95,10.67,18.71,7.7a12,12,0,0,0,4.15-5.56c3.68-11.34-8.05-16.08-15.84-20.47C268.07,62.5,275.36,46.64,264.22,40.7Z" transform="translate(-5.64 -11.7)"/></g><g class="cls-23"><path class="cls-16" d="M299.12,87.34A10.67,10.67,0,0,1,300.35,84c4.59-8.18,16.12-9.51,22.44-16,5.16-5.35,10-11.62,18.14-6.87,23.25,13.63-10.68,52.75-32.33,41.46C303,99.61,298,93.62,299.12,87.34Z" transform="translate(-5.64 -11.7)"/><path class="cls-15" d="M342.4,62c-.46-.33-.95-.66-1.47-1-8.1-4.75-13,1.52-18.14,6.87-6.32,6.54-17.85,7.87-22.44,16a10.67,10.67,0,0,0-1.23,3.35,10.27,10.27,0,0,0,.1,4.1c2.57,4.19,7.83,6,16.12,2.77A62.43,62.43,0,0,0,330,85.53C338.12,79.1,345.11,70.35,342.4,62Z" transform="translate(-5.64 -11.7)"/></g><g class="cls-24"><path class="cls-16" d="M295.05,104c5.2.54,9.65,2.62,11,8.22,2.24,9.22-10.38,18.81-17.77,21.75-11.83,4.7-24.52,4.43-34.11-4.6-4.76-4.47-12.22-16.74-7.71-23.33,4.3-6.28,12.46-2.79,18.27-1.47a39.9,39.9,0,0,0,13.22.57C282.35,104.7,289.18,103.36,295.05,104Z" transform="translate(-5.64 -11.7)"/><path class="cls-15" d="M295.05,104c-5.87-.61-12.7.73-17.08,1.14a39.9,39.9,0,0,1-13.22-.57c-5.81-1.32-14-4.81-18.27,1.47a8.59,8.59,0,0,0-1.4,5,20.78,20.78,0,0,0,7.7,8.35,23.19,23.19,0,0,0,4.59,2.24c10.6,3.75,23.15,4.62,34,1.39,5.45-1.62,11.81-4.4,14.95-9.27a8.4,8.4,0,0,0-.23-1.56C304.7,106.59,300.25,104.51,295.05,104Z" transform="translate(-5.64 -11.7)"/></g><g class="cls-25"><path class="cls-16" d="M314.29,35.48c7.55,2.72,12.45,10,7.44,20.47-7.2,15.12-39.39,16.17-34.31-6.13C290.59,35.92,304.61,32,314.29,35.48Z" transform="translate(-5.64 -11.7)"/><path class="cls-15" d="M305.11,52.06c9.26-.85,18.57-5.87,18.37-14.42-.42-17.52-35.56-10.16-36.38,3.81C286.62,49.6,295.83,52.92,305.11,52.06Z" transform="translate(-5.64 -11.7)"/></g><path class="cls-26" d="M455.51,184.74c-16.23.1-32,4.62-48.18,5.62a59.79,59.79,0,0,1-23.73-2.81c-8.1-2.86-15.37-8.7-20.84-15.22-4-4.8-6.92-11.29-4.2-17.41,2.89-6.48,10.63-9.84,16.89-12,11.95-4.09,24.87-4.39,37.36-3.47a129.58,129.58,0,0,1,26.64,4.76c7.64,2.24,15.4,5.38,21.55,10.55,5.94,5,15.06,12.66,14.43,21.39-.61,8.56-14,8.73-19.92,8.58a.78.78,0,0,0,0,1.55c8.08.2,22.87-1.11,21.39-12.6-.69-5.32-4.54-10-8.06-13.77a57,57,0,0,0-14.95-11.66c-11.27-6-24.34-8.59-36.91-10-12.34-1.35-25.38-1.39-37.47,1.75-9,2.33-20.87,7-23.3,17-2.66,11,9,20.86,16.63,26.5,24.05,17.68,56,2.86,82.67,2.7A.78.78,0,0,0,455.51,184.74Z" transform="translate(-5.64 -11.7)"/><path class="cls-15" d="M397.27,189.69a5.58,5.58,0,0,1-11.14,0c0-2.87.63-5.94,3.71-5.94S397.27,186.82,397.27,189.69Z" transform="translate(-5.64 -11.7)"/><path class="cls-15" d="M468.54,184a5.58,5.58,0,0,1-11.13,0,6.34,6.34,0,0,1,5.93-5.9C466.42,178.05,468.54,181.08,468.54,184Z" transform="translate(-5.64 -11.7)"/><path class="cls-15" d="M374.42,187.68a3.91,3.91,0,0,1,2.15-7.49c1.92.56,3.86,1.57,3.27,3.64S376.35,188.23,374.42,187.68Z" transform="translate(-5.64 -11.7)"/><path class="cls-16" d="M383.75,190.23a3.26,3.26,0,0,1-3.23-5.65c1.45-.84,3.2-1.41,4.09.15S385.2,189.4,383.75,190.23Z" transform="translate(-5.64 -11.7)"/><path class="cls-16" d="M444.44,184.63a3.26,3.26,0,0,1,5.94,2.66c-.68,1.54-1.76,3-3.4,2.29S443.75,186.16,444.44,184.63Z" transform="translate(-5.64 -11.7)"/><path class="cls-15" d="M457.21,188.26a3.9,3.9,0,0,1-4.32-6.48c1.66-1.11,3.69-1.94,4.89-.15S458.88,187.14,457.21,188.26Z" transform="translate(-5.64 -11.7)"/><path class="cls-15" d="M416.33,192.78s3.37-2.68,11.19-.62c0,0-8.78,14.36,7,23.37,0,0,2.7,2-1,1.35C428.1,216,412.27,206.13,416.33,192.78Z" transform="translate(-5.64 -11.7)"/><path class="cls-27" d="M428.2,191.75c.1,1.08-2.8,2.24-6.49,2.58s-6.76-.25-6.86-1.33,2.81-2.24,6.49-2.58S428.1,190.67,428.2,191.75Z" transform="translate(-5.64 -11.7)"/><path class="cls-27" d="M422.53,189.25c.14,1.46-.35,2.69-1.1,2.76s-1.46-1-1.59-2.5.35-2.69,1.1-2.76S422.39,187.8,422.53,189.25Z" transform="translate(-5.64 -11.7)"/><polygon class="cls-15" points="408.45 181.77 393.31 182.64 392.74 177.67 408.29 176.73 408.45 181.77"/><polygon class="cls-15" points="438.37 177.66 423.32 179.47 422.43 174.55 437.89 172.64 438.37 177.66"/><polygon class="cls-15" points="363.58 171.63 353.11 160.66 356.52 157 367.32 168.23 363.58 171.63"/><polygon class="cls-15" points="471.82 167.75 467.34 172.79 463.86 170.26 468.59 164.84 471.82 167.75"/><circle class="cls-15" cx="470.16" cy="166.34" r="2.17"/><circle class="cls-15" cx="465.74" cy="171.33" r="2.17"/><circle class="cls-26" cx="463.94" cy="172.05" r="0.68"/></g></g></svg>