<svg xmlns="http://www.w3.org/2000/svg" xmlns:xlink="http://www.w3.org/1999/xlink" viewBox="0 0 586.55 367.83"><defs><style>.cls-1,.cls-23,.cls-74,.cls-75,.cls-76{fill:none;}.cls-2{isolation:isolate;}.cls-3{fill:#efefef;}.cls-4{fill:#848383;}.cls-22,.cls-5{fill:#d0cfd0;}.cls-6{fill:#d9d9d9;mix-blend-mode:multiply;}.cls-7{fill:#303b45;}.cls-8{fill:#353430;}.cls-9{fill:#5b5b5a;}.cls-10{fill:#f6bbc6;}.cls-11{fill:#ebebeb;}.cls-12{fill:#a9a9a9;}.cls-13{fill:#dfe5ee;}.cls-14{fill:#9ea6b0;}.cls-15,.cls-73{fill:#36a9e1;}.cls-16{fill:#fbc01f;}.cls-17{fill:#4294ce;}.cls-18{fill:#fff;}.cls-19{fill:#8d8d8e;}.cls-20{fill:#ef7967;}.cls-21,.cls-24,.cls-70{fill:#eaeaea;}.cls-22{stroke:#eaeaea;}.cls-22,.cls-23,.cls-24,.cls-74,.cls-75,.cls-76{stroke-miterlimit:10;}.cls-22,.cls-24{stroke-width:4px;}.cls-23,.cls-76{stroke:#5b5b5a;}.cls-23{stroke-width:3px;}.cls-24{stroke:#d0cfd0;}.cls-25{clip-path:url(#clip-path);}.cls-26{fill:#464545;}.cls-27{fill:#444443;}.cls-28{fill:#414142;}.cls-29{fill:#40403f;}.cls-30{fill:#3e3e3d;}.cls-31{fill:#3d3d3b;}.cls-32{fill:#3b3a3a;}.cls-33{fill:#393938;}.cls-34{fill:#383736;}.cls-35{fill:#353535;}.cls-36{fill:#343433;}.cls-37{fill:#333332;}.cls-38{fill:#313131;}.cls-39{fill:#2e2f2f;}.cls-40{fill:#2d2e2d;}.cls-41{fill:#2f2f2e;}.cls-42{clip-path:url(#clip-path-2);}.cls-43{clip-path:url(#clip-path-3);}.cls-44{fill:#a2bfbf;}.cls-45{fill:#9ebab9;}.cls-46{fill:#9bb6b4;}.cls-47{fill:#95b1af;}.cls-48{fill:#91acab;}.cls-49{fill:#8da7a7;}.cls-50{fill:#89a3a1;}.cls-51{fill:#879f9d;}.cls-52{fill:#819998;}.cls-53{fill:#7d9494;}.cls-54{fill:#4b4b4a;}.cls-55{clip-path:url(#clip-path-4);}.cls-56{clip-path:url(#clip-path-5);}.cls-57{fill:#6a7d7b;}.cls-58{fill:#6d8180;}.cls-59{fill:#b0cecc;}.cls-60,.cls-71{fill:#009fe3;}.cls-61{clip-path:url(#clip-path-6);}.cls-62{fill:#6d8280;}.cls-63{fill:#728686;}.cls-64{fill:#758b89;}.cls-65{fill:#7a8f8f;}.cls-66{fill:#b3b7b7;}.cls-67,.cls-72{fill:#261c35;}.cls-68{fill:#434342;}.cls-69{fill:#dce0e0;}.cls-70,.cls-71,.cls-72,.cls-73{fill-rule:evenodd;}.cls-74{stroke:#706f6f;stroke-width:0.99px;}.cls-75{stroke:#e30613;}.cls-76{stroke-width:1.42px;}.cls-77{fill:#e30613;}</style><clipPath id="clip-path" transform="translate(-5.64 -11.7)"><path class="cls-1" d="M408.91,160.74l2-1.19a.59.59,0,0,1-.26-.45l-2.05,1.19A.59.59,0,0,0,408.91,160.74Z"/></clipPath><clipPath id="clip-path-2" transform="translate(-5.64 -11.7)"><path class="cls-1" d="M410.89,120.13l-2.05,1.2s-.08.08-.08.17l2.05-1.2A.19.19,0,0,1,410.89,120.13Z"/></clipPath><clipPath id="clip-path-3" transform="translate(-5.64 -11.7)"><path class="cls-1" d="M410.89,120.13l-2.05,1.2a.17.17,0,0,1,.18,0l2.05-1.19A.2.2,0,0,0,410.89,120.13Z"/></clipPath><clipPath id="clip-path-4" transform="translate(-5.64 -11.7)"><path class="cls-1" d="M465.31,193.21l2.05-1.19a.19.19,0,0,1-.19,0l-2.05,1.19A.19.19,0,0,0,465.31,193.21Z"/></clipPath><clipPath id="clip-path-5" transform="translate(-5.64 -11.7)"><path class="cls-1" d="M465.31,193.21l2.05-1.19a.21.21,0,0,0,.07-.17L465.38,193A.2.2,0,0,1,465.31,193.21Z"/></clipPath><clipPath id="clip-path-6" transform="translate(-5.64 -11.7)"><path class="cls-1" d="M465.49,154.25l2.05-1.19a.58.58,0,0,0-.26-.46l-2,1.2A.55.55,0,0,1,465.49,154.25Z"/></clipPath></defs><title>G05_12_01</title><g class="cls-2"><g id="Livello_1" data-name="Livello 1"><polygon class="cls-3" points="289.25 363.06 289.25 367.74 191.43 312.79 191.43 308.1 289.25 363.06"/><polygon class="cls-4" points="380.56 311.01 380.56 315.7 289.41 367.83 289.25 367.74 289.25 363.06 289.41 363.15 380.56 311.01"/><polygon class="cls-5" points="289.25 363.06 191.43 308.1 191.43 307.84 283.36 256.65 380.56 311.01 289.41 363.15 289.25 363.06"/><ellipse class="cls-6" cx="287.62" cy="309.36" rx="59.55" ry="30.97"/><path class="cls-7" d="M296.22,309a14.8,14.8,0,0,0-1.14,4.5,2.93,2.93,0,0,0,.88,2.27,36.9,36.9,0,0,0,4,.88c.93.05,4,2.48,6.2,2.63s5.06.83,5.37-.93-10.95-8.73-10.95-8.73Z" transform="translate(-5.64 -11.7)"/><path class="cls-8" d="M309,216.07l2.35,2.64s6.15,22.27,6,24.16-2.64,2.26-4.15,1.69-5.66-14.34-5.66-14.34Z" transform="translate(-5.64 -11.7)"/><path class="cls-7" d="M296.7,303.68l-.46,6.06s-.13,1.43,1.82,1.53a2.56,2.56,0,0,0,2.55-1.61l1.37-9Z" transform="translate(-5.64 -11.7)"/><path class="cls-7" d="M283.52,309.11l-1.14,5.43s.36,1.93,2.11,1.66,2.28-2.63,2.28-2.63l1.05-5.78Z" transform="translate(-5.64 -11.7)"/><path class="cls-7" d="M282.56,313.66s.18,1.58,1.58,1.49a4.57,4.57,0,0,0,2.63-1.58l-.35,5.61s-.79,8.42-3.25,9.29-2.92-2.57-3-3.77A24.69,24.69,0,0,1,282.56,313.66Z" transform="translate(-5.64 -11.7)"/><path class="cls-9" d="M287.23,251s.46,8.81.93,10.43-.93,23.17-.93,23.17-4.39,23.48-4.15,24.87,4.17.7,5.09-.69,6.24-20.48,7.17-26.5,3.71-19.93,3.71-19.93.23,16.92.23,18.31-2.89,25.61-2.89,25.61.11.74,2.45,1.09a2.86,2.86,0,0,0,2.66-1.06c1.38-2.26,1.72-6.18,1.72-6.18l6.25-31.74.87-23.19-3.65-1.37Z" transform="translate(-5.64 -11.7)"/><path class="cls-9" d="M296.05,216.79s7.7-2.48,10.85-1.7a5.7,5.7,0,0,1,4.47,3.95c.27,1.05-1.05,26.55-1.05,26.55S296.65,256.9,290.87,254c-4.18-2.09-4.52-4.45-4.38-5.6a13.45,13.45,0,0,0,.12-2.1l2.91-26.84Z" transform="translate(-5.64 -11.7)"/><path class="cls-8" d="M309,235.94l-16,3.19-3.33-16.87-.36-.87-3.47,2.38.74,22.53a13.45,13.45,0,0,1-.12,2.1c-.12,1,.11,2.77,2.62,4.56,5.3-2.73,16-8.6,20.24-13C311.8,237.49,309,235.94,309,235.94Z" transform="translate(-5.64 -11.7)"/><path class="cls-8" d="M311.25,243.71s-1.53-3.41-.15-5h0c1.37-1.58,2.89-2.72,5.15-.75,0,0,4.44,6.32,3.06,7.9h0C317.94,247.44,313.51,245.67,311.25,243.71Z" transform="translate(-5.64 -11.7)"/><path class="cls-10" d="M320.44,244a2.84,2.84,0,1,1-2.84-2.83A2.84,2.84,0,0,1,320.44,244Z" transform="translate(-5.64 -11.7)"/><path class="cls-11" d="M310.21,248.2l-.12,3.76s-14.69,6.28-20.42,4.59c-3.32-1-3.35-3.31-3.25-4.16.06-.52,0-3.24.05-3.55,0,0,1.32,3.94,5,4.44C295.63,253.86,310.21,248.2,310.21,248.2Z" transform="translate(-5.64 -11.7)"/><path class="cls-11" d="M292.13,253.77l1-.19s21.6-29.17,15.08-36.19c-.81-.87-2.32-2.23-2.62-2.11a10,10,0,0,0-2.14.87s.89-.29,3.33,2.33C311.54,223.52,292.13,253.77,292.13,253.77Z" transform="translate(-5.64 -11.7)"/><path class="cls-9" d="M291.5,229.39s-.14-9.14-2-9.93c0,0-4.17.89-5.49,3.78s-1,5.47-2.21,9.93c-.82,3-2.76,9.6-2.37,12.09s3,3.82,9.2,1.32S310.21,238,310.21,238l-.13-2.76-20.14,3Z" transform="translate(-5.64 -11.7)"/><path class="cls-10" d="M314.9,236.26a2.84,2.84,0,1,1-2.84-2.83A2.83,2.83,0,0,1,314.9,236.26Z" transform="translate(-5.64 -11.7)"/><path class="cls-10" d="M316.62,238.8l-2-3.12a.8.8,0,0,0-1.34.87l2,3.12a.81.81,0,0,0,1.11.23A.8.8,0,0,0,316.62,238.8Z" transform="translate(-5.64 -11.7)"/><path class="cls-12" d="M286.79,254.48a3.62,3.62,0,0,1-.37-2.09c.06-.52,0-3.24.05-3.55a7.53,7.53,0,0,0,3.16,3.84Z" transform="translate(-5.64 -11.7)"/><polygon class="cls-12" points="288.73 238.44 293.16 230.83 295.68 229.84 290.77 237.36 288.73 238.44"/><polygon class="cls-13" points="323.69 221.2 309.58 230.29 304.88 235.03 319.6 226.47 323.69 221.2"/><polygon class="cls-14" points="323.69 221.2 323.93 221.51 319.89 226.88 305.15 235.37 304.88 235.03 319.6 226.47 323.69 221.2"/><polygon class="cls-15" points="322.69 222.04 310.17 229.97 305.81 234.33 319.36 226.39 322.69 222.04"/><rect class="cls-16" x="293.32" y="228.57" width="4.55" height="2.14" transform="translate(-42.82 46.55) rotate(-10.59)"/><rect class="cls-17" x="293.35" y="228.85" width="1.5" height="2.14" transform="translate(-42.91 46.31) rotate(-10.6)"/><rect class="cls-18" x="296.35" y="228.29" width="1.5" height="2.14" transform="translate(-42.76 46.85) rotate(-10.6)"/><path class="cls-19" d="M298.31,216.77s-1.66.61-1.92,1.26.91,1.34,3.32,2.71a13.24,13.24,0,0,0,2.34,1,7.2,7.2,0,0,0,1.44-3.29C303.65,214.22,298.31,216.77,298.31,216.77Z" transform="translate(-5.64 -11.7)"/><path class="cls-10" d="M311.44,211.06a7.66,7.66,0,1,1-4.74-9.75A7.66,7.66,0,0,1,311.44,211.06Z" transform="translate(-5.64 -11.7)"/><path class="cls-10" d="M305.87,210.62l-2.61,7.89h0a4.93,4.93,0,0,1-5.5.57h0a1.22,1.22,0,0,1-.6-1.37l1.94-7.65Z" transform="translate(-5.64 -11.7)"/><path class="cls-20" d="M310.67,208.9a2,2,0,0,0,1.15-.31l0,0A7.66,7.66,0,0,0,297,206.06a8.32,8.32,0,0,0-.26,1,2.76,2.76,0,0,0,1,.3c.78.07,3.36-1,3.12-2,.12.52.23,1,.35,1.56a1.85,1.85,0,0,0,1.12-1.36A11.37,11.37,0,0,0,310.67,208.9Z" transform="translate(-5.64 -11.7)"/><path class="cls-10" d="M300,207.37a2.33,2.33,0,1,1-1.45-3A2.34,2.34,0,0,1,300,207.37Z" transform="translate(-5.64 -11.7)"/><polygon class="cls-9" points="294.92 206.66 293.78 209.41 290.7 209.69 289.07 206.66 291.43 204.09 292.05 203.92 291.87 204.62 294.92 206.66"/><polygon class="cls-8" points="296.37 210.16 293.86 209.16 294.92 206.66 296.37 210.16"/><circle class="cls-21" cx="293.24" cy="207.3" r="0.82"/><polygon class="cls-8" points="297.8 206.23 296.37 210.16 298.44 208.02 297.8 206.23"/><circle class="cls-22" cx="72.87" cy="290.14" r="70.87"/><rect class="cls-18" x="20.9" y="266.26" width="68.25" height="41" rx="10.04" ry="10.04"/><polygon class="cls-18" points="32.98 317.51 39.98 303.51 55.03 303.51 32.98 317.51"/><line class="cls-23" x1="70.15" y1="276.35" x2="79.98" y2="276.35"/><line class="cls-23" x1="43.98" y1="276.35" x2="66.82" y2="276.35"/><line class="cls-23" x1="29.98" y1="276.35" x2="39.98" y2="276.35"/><line class="cls-23" x1="74.32" y1="283.35" x2="79.98" y2="283.35"/><line class="cls-23" x1="49.98" y1="283.35" x2="70.15" y2="283.35"/><line class="cls-23" x1="29.98" y1="283.35" x2="46.15" y2="283.35"/><line class="cls-23" x1="70.82" y1="289.35" x2="79.98" y2="289.35"/><line class="cls-23" x1="49.98" y1="289.35" x2="66.82" y2="289.35"/><line class="cls-23" x1="29.98" y1="289.35" x2="45.65" y2="289.35"/><line class="cls-23" x1="29.98" y1="295.35" x2="49.98" y2="295.35"/><path class="cls-21" d="M105,339H75.59a12.06,12.06,0,0,1-12-12.05V306a12.05,12.05,0,0,1,12-12h48.17a12.06,12.06,0,0,1,12,12v20.91a12.07,12.07,0,0,1-12,12.05h-3.94l2.44,9.19Z" transform="translate(-5.64 -11.7)"/><path class="cls-5" d="M123.76,296a10,10,0,0,1,10,10v20.91a10,10,0,0,1-10,10.05h-7.17l5.12,10.25L105.58,337h-30a10,10,0,0,1-10-10.05V306a10,10,0,0,1,10-10h48.17m0-4H75.59a14.05,14.05,0,0,0-14,14v20.91a14.06,14.06,0,0,0,14,14.05h28.82l15.16,9.62,5.72-5.16L123.06,341h.7a14.06,14.06,0,0,0,14-14.05V306a14.05,14.05,0,0,0-14-14Z" transform="translate(-5.64 -11.7)"/><line class="cls-23" x1="78.82" y1="293.35" x2="68.98" y2="293.35"/><line class="cls-23" x1="108.98" y1="293.35" x2="83.15" y2="293.35"/><line class="cls-23" x1="118.98" y1="293.35" x2="111.98" y2="293.35"/><line class="cls-23" x1="74.65" y1="300.35" x2="68.98" y2="300.35"/><line class="cls-23" x1="95.98" y1="300.35" x2="78.82" y2="300.35"/><line class="cls-23" x1="118.98" y1="300.35" x2="99.82" y2="300.35"/><line class="cls-23" x1="78.15" y1="306.35" x2="68.98" y2="306.35"/><line class="cls-23" x1="101.98" y1="306.35" x2="82.15" y2="306.35"/><line class="cls-23" x1="118.98" y1="306.35" x2="106.32" y2="306.35"/><line class="cls-23" x1="88.98" y1="312.35" x2="68.98" y2="312.35"/><circle class="cls-22" cx="159.27" cy="161.74" r="70.87"/><rect class="cls-24" x="109.94" y="135.1" width="98.67" height="53.3"/><polygon class="cls-24" points="159.27 155.1 208.61 188.12 109.94 188.12 159.27 155.1"/><polygon class="cls-24" points="159.27 168.12 109.94 135.1 208.61 135.1 159.27 168.12"/><path class="cls-14" d="M172.87,161.21a6.43,6.43,0,0,1-1.25,3.67,4.09,4.09,0,0,1-3.48,1.54,2.07,2.07,0,0,1-1.32-.43,2.37,2.37,0,0,1-.79-1.2A3.15,3.15,0,0,1,165,166a2.76,2.76,0,0,1-1.5.4,2.36,2.36,0,0,1-2.11-1.16,4.71,4.71,0,0,1-.54-3.08,7.54,7.54,0,0,1,1.4-4,3.43,3.43,0,0,1,2.8-1.5,5.38,5.38,0,0,1,1.83.26,8,8,0,0,1,1.5.78l0,0h.05l-.49,5.59a2.39,2.39,0,0,0,.13,1.27.63.63,0,0,0,.56.35,2.05,2.05,0,0,0,1.8-1.07,5.43,5.43,0,0,0,.76-2.69,8,8,0,0,0-1.34-5.38,5.43,5.43,0,0,0-4.6-1.94,5.89,5.89,0,0,0-4.73,2.08,9,9,0,0,0-1.91,5.58A7.89,7.89,0,0,0,160,167a5.51,5.51,0,0,0,4.58,2,8,8,0,0,0,1.71-.2,7.34,7.34,0,0,0,1.52-.49l.37,1.44a5.39,5.39,0,0,1-1.67.64,9,9,0,0,1-2,.23,7.46,7.46,0,0,1-6-2.43,9.26,9.26,0,0,1-1.92-6.66,10,10,0,0,1,2.49-6.68,7.93,7.93,0,0,1,6.11-2.5,7.17,7.17,0,0,1,5.79,2.37A9.12,9.12,0,0,1,172.87,161.21Zm-9.87.94a4.25,4.25,0,0,0,.18,1.88.94.94,0,0,0,.91.64,2,2,0,0,0,1-.25,2.18,2.18,0,0,0,.79-.94v-.07a.35.35,0,0,0,0-.06l.43-4.86-.45-.11a3.42,3.42,0,0,0-.46,0,1.83,1.83,0,0,0-1.66.95A7.12,7.12,0,0,0,163,162.15Z" transform="translate(-5.64 -11.7)"/><g id="paper"><circle class="cls-22" cx="410.88" cy="161.74" r="70.87"/><g class="cls-2"><g class="cls-25"><g class="cls-2"><path class="cls-26" d="M408.91,160.74l2-1.19a.27.27,0,0,1-.08-.07l-2.05,1.19a.27.27,0,0,0,.08.07" transform="translate(-5.64 -11.7)"/><path class="cls-27" d="M408.83,160.67l2.05-1.19,0,0-2.05,1.19,0,0" transform="translate(-5.64 -11.7)"/><path class="cls-28" d="M408.8,160.64l2.05-1.19,0,0-2.05,1.19,0,0" transform="translate(-5.64 -11.7)"/><path class="cls-29" d="M408.78,160.62l2.05-1.19,0,0-2.05,1.19,0,0" transform="translate(-5.64 -11.7)"/><path class="cls-30" d="M408.76,160.59l2.05-1.19,0,0-2.05,1.19,0,0" transform="translate(-5.64 -11.7)"/><path class="cls-31" d="M408.74,160.57l2.05-1.19v0l-2,1.19v0" transform="translate(-5.64 -11.7)"/><path class="cls-32" d="M408.73,160.55l2-1.19v0l-2,1.2v0" transform="translate(-5.64 -11.7)"/><path class="cls-33" d="M408.72,160.53l2-1.2v0l-2.05,1.19v0" transform="translate(-5.64 -11.7)"/><path class="cls-34" d="M408.71,160.5l2.05-1.19v0l-2.06,1.19,0,0" transform="translate(-5.64 -11.7)"/><path class="cls-35" d="M408.69,160.48l2.06-1.19v0l-2.05,1.19v0" transform="translate(-5.64 -11.7)"/><path class="cls-36" d="M408.69,160.46l2.05-1.19v0l-2.05,1.19v0" transform="translate(-5.64 -11.7)"/><path class="cls-37" d="M408.68,160.43l2.05-1.19v0l-2.05,1.2v0" transform="translate(-5.64 -11.7)"/><path class="cls-38" d="M408.67,160.41l2.05-1.2v0l-2,1.2v0" transform="translate(-5.64 -11.7)"/><path class="cls-39" d="M408.66,160.38l2-1.2v0l-2.06,1.19v0" transform="translate(-5.64 -11.7)"/><path class="cls-40" d="M408.65,160.34l2.06-1.19a.09.09,0,0,1,0-.05l-2.05,1.19v.05" transform="translate(-5.64 -11.7)"/></g></g></g><polygon class="cls-41" points="403.01 148.59 405.06 147.4 405.17 108.6 403.12 109.8 403.01 148.59"/><g class="cls-2"><g class="cls-42"><g class="cls-2"><path class="cls-40" d="M408.76,121.5l2.05-1.2a.19.19,0,0,1,.08-.17l-2.05,1.2s-.08.08-.08.17" transform="translate(-5.64 -11.7)"/></g></g></g><g class="cls-2"><g class="cls-43"><g class="cls-2"><path class="cls-44" d="M409,121.34l2.05-1.19,0,0-2.05,1.2h0" transform="translate(-5.64 -11.7)"/><path class="cls-45" d="M409,121.33l2.05-1.2h0l-2.05,1.2h0" transform="translate(-5.64 -11.7)"/><path class="cls-46" d="M409,121.32l2.05-1.2h0l-2.05,1.19h0" transform="translate(-5.64 -11.7)"/><path class="cls-47" d="M408.93,121.31l2.05-1.19h0l-2.06,1.19h0" transform="translate(-5.64 -11.7)"/><path class="cls-48" d="M408.91,121.31l2.06-1.19h0l-2.05,1.19h0" transform="translate(-5.64 -11.7)"/><path class="cls-49" d="M408.9,121.31l2.05-1.19h0l-2.05,1.19h0" transform="translate(-5.64 -11.7)"/><path class="cls-50" d="M408.88,121.31l2.05-1.19h0l-2.05,1.19h0" transform="translate(-5.64 -11.7)"/><path class="cls-51" d="M408.87,121.31l2.05-1.19h0l-2,1.19h0" transform="translate(-5.64 -11.7)"/><path class="cls-52" d="M408.85,121.32l2-1.19h0l-2.05,1.2h0" transform="translate(-5.64 -11.7)"/><polyline class="cls-53" points="403.19 109.62 405.25 108.43 405.25 108.43 403.19 109.63 403.19 109.63"/></g></g></g><polygon class="cls-54" points="459.47 181.49 461.52 180.3 405.32 147.85 403.27 149.04 459.47 181.49"/><g class="cls-2"><g class="cls-55"><g class="cls-2"><polyline class="cls-35" points="459.66 181.51 461.71 180.32 461.71 180.32 459.66 181.51 459.66 181.51"/><path class="cls-34" d="M465.3,193.21l2.06-1.19h0l-2,1.19h0" transform="translate(-5.64 -11.7)"/><path class="cls-33" d="M465.29,193.22l2-1.19h0l-2.05,1.19h0" transform="translate(-5.64 -11.7)"/><path class="cls-32" d="M465.28,193.22l2.05-1.19h0l-2.05,1.2h0" transform="translate(-5.64 -11.7)"/><path class="cls-31" d="M465.26,193.23l2.05-1.2h0l-2.05,1.19h0" transform="translate(-5.64 -11.7)"/><path class="cls-30" d="M465.25,193.23,467.3,192h0l-2,1.19h0" transform="translate(-5.64 -11.7)"/><path class="cls-29" d="M465.23,193.23l2-1.19h0l-2.05,1.2h0" transform="translate(-5.64 -11.7)"/><path class="cls-28" d="M465.21,193.23l2.05-1.2h0l-2.05,1.19h0" transform="translate(-5.64 -11.7)"/><path class="cls-27" d="M465.19,193.22l2.05-1.19h0l-2,1.19h0" transform="translate(-5.64 -11.7)"/><path class="cls-26" d="M465.16,193.21l2-1.19,0,0-2.05,1.19,0,0" transform="translate(-5.64 -11.7)"/></g></g></g><g class="cls-2"><g class="cls-56"><g class="cls-2"><path class="cls-57" d="M465.31,193.21l2.05-1.19a.21.21,0,0,0,.07-.17L465.38,193a.2.2,0,0,1-.07.17" transform="translate(-5.64 -11.7)"/></g></g></g><polygon class="cls-58" points="459.74 181.34 461.79 180.15 461.9 141.36 459.85 142.55 459.74 181.34"/><polygon class="cls-59" points="459.58 142.09 461.64 140.9 405.43 108.45 403.38 109.64 459.58 142.09"/><path class="cls-60" d="M409,121.34c-.14-.08-.26,0-.26.16l-.11,38.79a.59.59,0,0,0,.26.45l56.21,32.45c.14.09.26,0,.26-.15l.11-38.79a.55.55,0,0,0-.26-.45Z" transform="translate(-5.64 -11.7)"/><g class="cls-2"><g class="cls-61"><g class="cls-2"><path class="cls-57" d="M465.49,154.25l2.05-1.19V153l-2.05,1.19v.05" transform="translate(-5.64 -11.7)"/><path class="cls-62" d="M465.49,154.2l2.05-1.19v0l-2,1.19v0" transform="translate(-5.64 -11.7)"/><path class="cls-63" d="M465.48,154.16l2-1.19v0l-2,1.19v0" transform="translate(-5.64 -11.7)"/><path class="cls-64" d="M465.48,154.13l2-1.19v0l-2,1.19v0" transform="translate(-5.64 -11.7)"/><path class="cls-65" d="M465.47,154.1l2-1.19v0l-2.05,1.19v0" transform="translate(-5.64 -11.7)"/><path class="cls-53" d="M465.46,154.08l2.05-1.19v0l-2.05,1.2v0" transform="translate(-5.64 -11.7)"/><path class="cls-52" d="M465.45,154.06l2.05-1.2v0L465.44,154v0" transform="translate(-5.64 -11.7)"/><path class="cls-51" d="M465.44,154l2.05-1.19v0L465.43,154v0" transform="translate(-5.64 -11.7)"/><path class="cls-50" d="M465.43,154l2.05-1.19,0,0-2,1.19,0,0" transform="translate(-5.64 -11.7)"/><path class="cls-49" d="M465.41,154l2-1.19v0L465.4,154v0" transform="translate(-5.64 -11.7)"/><path class="cls-48" d="M465.4,154l2.05-1.2v0l-2.05,1.19v0" transform="translate(-5.64 -11.7)"/><path class="cls-47" d="M465.39,153.94l2.05-1.19,0,0-2.05,1.19,0,0" transform="translate(-5.64 -11.7)"/><path class="cls-46" d="M465.37,153.92l2.05-1.19,0,0-2,1.19,0,0" transform="translate(-5.64 -11.7)"/><path class="cls-45" d="M465.35,153.89l2-1.19,0,0-2.05,1.19,0,0" transform="translate(-5.64 -11.7)"/><path class="cls-44" d="M465.32,153.86l2.05-1.19-.09-.07-2,1.2.09.06" transform="translate(-5.64 -11.7)"/></g></g></g><path class="cls-66" d="M470.6,154.26v-.07s0-.05,0-.08,0-.17,0-.26a.69.69,0,0,1,0-.13l0-.06s0-.11,0-.17a.83.83,0,0,0,0-.15l0-.09a1,1,0,0,0,0-.14l0-.11-.06-.16a.76.76,0,0,0,0-.11s0,0,0,0l-.12-.3v-.06a2.56,2.56,0,0,1-.11-.24.56.56,0,0,1-.05-.08l0-.1-.05-.1-.11-.21a.1.1,0,0,0,0-.05v0c-.05-.1-.11-.19-.17-.29l0,0-.06-.1a1.3,1.3,0,0,1-.1-.15l-.07-.09-.09-.12-.07-.09a.76.76,0,0,1-.08-.11,1,1,0,0,1-.13-.16l-.06-.06-.07-.08-.23-.24-.07-.08,0,0a4.45,4.45,0,0,0-.47-.41l-.09-.07a4.3,4.3,0,0,0-.52-.35l-56.21-32.46a4.11,4.11,0,0,0-.42-.21l-.05,0-.08,0-.24-.08-.07,0h-.08l-.13,0-.09,0h-.25a.85.85,0,0,0-.16,0h-.06l-.2,0h-.09l-.1,0a.32.32,0,0,0-.09,0l-.05,0h0l-.17.08h0l-2.05,1.19h0l.22-.1.05,0,.19-.06h.06a2,2,0,0,1,.24,0h.37l.18,0,.13,0,.15,0,.24.08.13.06a2.74,2.74,0,0,1,.42.21l56.21,32.45a4.3,4.3,0,0,1,.52.35l.09.07a4.45,4.45,0,0,1,.47.41l.11.11.23.24.13.15.13.16.15.19.09.13a2.49,2.49,0,0,1,.17.24l.06.09a3.24,3.24,0,0,1,.21.35l0,.05.16.31.05.1c0,.11.11.21.15.32l0,.05a2.39,2.39,0,0,1,.15.37.36.36,0,0,1,0,.11l.09.26a1,1,0,0,1,0,.14,2.17,2.17,0,0,1,.07.24c0,.06,0,.12,0,.17a1.06,1.06,0,0,0,0,.19c0,.09,0,.18,0,.27s0,.09,0,.14a5.85,5.85,0,0,1,0,.59l-.11,38.79a2.34,2.34,0,0,1-1,2.15l2.05-1.19a2.34,2.34,0,0,0,1-2.15l.11-38.79A5.85,5.85,0,0,0,470.6,154.26Z" transform="translate(-5.64 -11.7)"/><path class="cls-67" d="M465.24,150.24a7.41,7.41,0,0,1,3.35,5.8l-.11,38.79c0,2.13-1.52,3-3.37,1.92L408.9,164.3a7.38,7.38,0,0,1-3.34-5.8l.11-38.79c0-2.13,1.51-3,3.36-1.92Zm-56.59,10a.59.59,0,0,0,.26.45l56.21,32.45c.14.09.26,0,.26-.15l.11-38.79a.55.55,0,0,0-.26-.45L409,121.34c-.14-.08-.26,0-.26.16l-.11,38.79" transform="translate(-5.64 -11.7)"/><polygon class="cls-39" points="453.65 183.33 453.65 185.7 404 157.03 404.01 154.66 453.65 183.33"/><polygon class="cls-68" points="455.1 182.49 455.09 184.86 453.65 185.7 453.65 183.33 455.1 182.49"/><polygon class="cls-54" points="455.1 182.49 453.65 183.33 404.01 154.66 405.45 153.82 455.1 182.49"/><path class="cls-69" d="M463.39,195.72l-2.65-1.53-1.44.84-49.65-28.67,1.44-.83-3.8-2.2a7.5,7.5,0,0,0-6.81,0l-33.43,19.43c-1.87,1.09-1.85,2.85,0,3.94l56.09,32.39a7.5,7.5,0,0,0,6.81,0l33.43-19.43C465.28,198.57,465.27,196.81,463.39,195.72Z" transform="translate(-5.64 -11.7)"/><path class="cls-66" d="M385.85,176.73l18.57-10.8a2.42,2.42,0,0,1,.92-.28l.34,0a3.08,3.08,0,0,1,.68.08l.16,0,.3.11.14.07,51.54,29.76c.61.36.69.91.24,1.31a1.34,1.34,0,0,1-.23.16L439.94,208a2.53,2.53,0,0,1-.93.28h-.17a2.67,2.67,0,0,1-.85-.07l-.16,0a2.08,2.08,0,0,1-.43-.19L385.85,178.2a.9.9,0,0,1-.52-.74.66.66,0,0,1,.12-.39l.08-.09A1.19,1.19,0,0,1,385.85,176.73Z" transform="translate(-5.64 -11.7)"/><path class="cls-54" d="M394.75,182l.07,0,3-1.74a.18.18,0,0,0,0-.33L395,178.3a.65.65,0,0,0-.56,0l-3,1.74a.18.18,0,0,0,0,.33l2.8,1.61a.35.35,0,0,0,.13,0l.15,0a.72.72,0,0,0,.22,0" transform="translate(-5.64 -11.7)"/><path class="cls-54" d="M399.1,184.59l.14-.05,3-1.74a.3.3,0,0,0,.11-.12.14.14,0,0,0,0-.09l0,0a.3.3,0,0,0-.08-.08l-2.81-1.62a.65.65,0,0,0-.56,0l-3,1.74c-.14.08-.16.2-.06.29l.05,0,2.8,1.62.13,0a.59.59,0,0,0,.23,0h.07" transform="translate(-5.64 -11.7)"/><path class="cls-54" d="M403.09,187.1a.65.65,0,0,0,.56,0l3-1.74c.16-.09.17-.24,0-.33l-2.81-1.61a.61.61,0,0,0-.56,0l-3,1.74c-.16.09-.17.24,0,.33l2.8,1.62" transform="translate(-5.64 -11.7)"/><path class="cls-54" d="M445.53,193.46c.16-.09.16-.24,0-.32l-2.8-1.62a.59.59,0,0,0-.56,0l-2.42,1.4c-.16.1-.17.24,0,.33l2.8,1.62a.65.65,0,0,0,.56,0l2.42-1.41" transform="translate(-5.64 -11.7)"/><path class="cls-54" d="M446.59,194.08l-2.42,1.4c-.16.1-.16.24,0,.33l2.81,1.62a.62.62,0,0,0,.56,0L450,196c.15-.09.16-.23,0-.32l-2.8-1.62a.61.61,0,0,0-.57,0" transform="translate(-5.64 -11.7)"/><path class="cls-54" d="M428.13,188.22a.18.18,0,0,0,0-.33l-2.8-1.62a.62.62,0,0,0-.56,0l-2.42,1.41c-.16.09-.17.24,0,.32l2.8,1.62a.61.61,0,0,0,.56,0l2.42-1.41" transform="translate(-5.64 -11.7)"/><path class="cls-54" d="M429.2,188.83l-2.43,1.41c-.15.09-.16.24,0,.33l2.81,1.61a.61.61,0,0,0,.56,0l2.42-1.41a.18.18,0,0,0,0-.33l-2.8-1.62a.65.65,0,0,0-.56,0" transform="translate(-5.64 -11.7)"/><path class="cls-54" d="M423.71,185.67c.16-.1.17-.24,0-.33l-2.81-1.62a.62.62,0,0,0-.56,0l-2.43,1.41c-.15.09-.16.23,0,.32l2.8,1.62a.59.59,0,0,0,.56,0l2.42-1.4" transform="translate(-5.64 -11.7)"/><path class="cls-54" d="M419.3,183.12c.15-.1.16-.24,0-.33l-2.8-1.62a.64.64,0,0,0-.57,0l-2.42,1.41c-.16.09-.17.23,0,.32l2.8,1.62a.59.59,0,0,0,.56,0l2.43-1.4" transform="translate(-5.64 -11.7)"/><path class="cls-54" d="M414.88,180.56c.16-.09.16-.23,0-.32l-2.81-1.62a.62.62,0,0,0-.56,0L409.1,180c-.16.09-.16.23,0,.32l2.8,1.62a.61.61,0,0,0,.56,0l2.43-1.41" transform="translate(-5.64 -11.7)"/><path class="cls-54" d="M409.6,182.28l-2.42,1.4c-.16.1-.17.24,0,.33l2.8,1.62a.64.64,0,0,0,.57,0l2.42-1.41c.16-.09.16-.23,0-.32l-2.8-1.62a.59.59,0,0,0-.56,0" transform="translate(-5.64 -11.7)"/><path class="cls-54" d="M411.59,186.23c-.16.1-.16.24,0,.33l2.8,1.62a.64.64,0,0,0,.57,0l2.42-1.41c.16-.09.16-.23,0-.32l-2.8-1.62a.61.61,0,0,0-.57,0l-2.42,1.4" transform="translate(-5.64 -11.7)"/><path class="cls-54" d="M416,188.78c-.16.1-.16.24,0,.33l2.8,1.62a.64.64,0,0,0,.57,0l2.42-1.41c.15-.09.16-.23,0-.32L419,187.37a.62.62,0,0,0-.43-.05.75.75,0,0,0-.13.06l-2.42,1.4" transform="translate(-5.64 -11.7)"/><path class="cls-54" d="M420.43,191.33c-.16.1-.17.24,0,.33l2.8,1.62a.64.64,0,0,0,.57,0l2.42-1.4c.15-.1.16-.24,0-.33l-2.81-1.62a.62.62,0,0,0-.56,0l-2.42,1.4" transform="translate(-5.64 -11.7)"/><path class="cls-54" d="M424.85,193.88c-.16.1-.17.24,0,.33l2.81,1.62a.59.59,0,0,0,.56,0l2.42-1.4c.16-.1.17-.24,0-.33l-2.8-1.62a.61.61,0,0,0-.56,0l-2.42,1.4" transform="translate(-5.64 -11.7)"/><path class="cls-54" d="M429.19,196.52c-.07.09,0,.18.07.25l2.81,1.62.06,0a.73.73,0,0,0,.22,0,.57.57,0,0,0,.22,0l.06,0,2.42-1.41c.16-.09.17-.23,0-.32l-2.8-1.62a.59.59,0,0,0-.56,0l-2.42,1.4a.36.36,0,0,0-.09.08" transform="translate(-5.64 -11.7)"/><path class="cls-54" d="M434.54,194.73l2.43-1.41a.18.18,0,0,0,0-.33l-2.8-1.61a.61.61,0,0,0-.56,0l-2.43,1.41a.18.18,0,0,0,0,.33l2.8,1.61a.61.61,0,0,0,.56,0" transform="translate(-5.64 -11.7)"/><path class="cls-54" d="M435.61,195.34a.18.18,0,0,0,0,.33l2.8,1.61a.61.61,0,0,0,.56,0l2.43-1.41c.15-.09.16-.24,0-.33l-2.8-1.61a.64.64,0,0,0-.57,0l-2.42,1.41" transform="translate(-5.64 -11.7)"/><path class="cls-54" d="M441.11,190.91c.1-.06.14-.14.12-.21a.23.23,0,0,0-.11-.11l-2.8-1.62a.62.62,0,0,0-.43-.05l-.13.05-2.42,1.41c-.12.07-.15.17-.1.25a.36.36,0,0,0,.09.08l2.8,1.61a.61.61,0,0,0,.56,0l2.42-1.41" transform="translate(-5.64 -11.7)"/><path class="cls-54" d="M436.69,188.36c.16-.09.17-.24,0-.33l-2.8-1.61a.61.61,0,0,0-.56,0l-2.42,1.41a.18.18,0,0,0,0,.33l2.8,1.61a.61.61,0,0,0,.56,0l2.42-1.41" transform="translate(-5.64 -11.7)"/><path class="cls-54" d="M432.28,185.81c.15-.09.16-.24,0-.33l-2.81-1.61a.61.61,0,0,0-.56,0l-2.42,1.41a.18.18,0,0,0,0,.33l2.8,1.61a.64.64,0,0,0,.57,0l2.42-1.41" transform="translate(-5.64 -11.7)"/><path class="cls-54" d="M428,183.18c.06-.08,0-.18-.08-.25l-2.8-1.61a.09.09,0,0,0-.07,0,.58.58,0,0,0-.37,0l-.13,0-2.42,1.41a.24.24,0,0,0-.09.08c-.06.08,0,.18.08.24l2.81,1.62a.51.51,0,0,0,.35.06.73.73,0,0,0,.21-.06l2.42-1.41a.24.24,0,0,0,.09-.08" transform="translate(-5.64 -11.7)"/><path class="cls-54" d="M423.44,180.71a.18.18,0,0,0,0-.33l-2.8-1.62a.67.67,0,0,0-.57,0l-2.42,1.41c-.16.09-.16.23,0,.32l2.8,1.62a.59.59,0,0,0,.56,0l2.42-1.4" transform="translate(-5.64 -11.7)"/><path class="cls-54" d="M419,178.16a.18.18,0,0,0,0-.33l-2.8-1.62a.61.61,0,0,0-.56,0l-2.42,1.41c-.16.09-.17.23,0,.32l2.81,1.62a.59.59,0,0,0,.56,0l2.42-1.4" transform="translate(-5.64 -11.7)"/><path class="cls-54" d="M414.66,175.57a.16.16,0,0,0,0-.21.24.24,0,0,0-.09-.08l-2.8-1.62a.61.61,0,0,0-.56,0l-2.42,1.41c-.16.09-.17.23,0,.32l2.8,1.62a.59.59,0,0,0,.56,0l2.42-1.4.06,0" transform="translate(-5.64 -11.7)"/><path class="cls-54" d="M410.19,173.06c.15-.1.16-.24,0-.33l-2.81-1.62a.62.62,0,0,0-.56,0l-2.42,1.4c-.16.1-.16.24,0,.33l2.8,1.62.06,0a.64.64,0,0,0,.51,0l2.42-1.4" transform="translate(-5.64 -11.7)"/><path class="cls-54" d="M407.67,176.07a.64.64,0,0,0-.57,0l-2.42,1.4c-.16.1-.16.24,0,.33l2.81,1.62a.62.62,0,0,0,.56,0l2.42-1.41c.16-.09.16-.23,0-.32l-2.8-1.62" transform="translate(-5.64 -11.7)"/><path class="cls-54" d="M405.18,179.72l-2.42,1.41c-.16.09-.17.24,0,.33l2.81,1.62a.62.62,0,0,0,.56,0l2.42-1.41c.16-.09.17-.24,0-.32l-2.8-1.62a.61.61,0,0,0-.56,0" transform="translate(-5.64 -11.7)"/><path class="cls-54" d="M420.76,197.3a.64.64,0,0,0,.57,0l3-1.74c.15-.09.16-.24,0-.32l-1.11-.64-1.69-1-1.62-.93-2.8-1.62-1.62-.93-2.8-1.62L408.27,186a.61.61,0,0,0-.56,0l-3,1.74c-.16.09-.17.24,0,.33l4.41,2.55,2.81,1.62,1.61.93,2.8,1.62,1.62.93,1.7,1,1.1.64" transform="translate(-5.64 -11.7)"/><path class="cls-54" d="M425.18,199.85a.62.62,0,0,0,.56,0l3-1.74c.16-.09.17-.23,0-.32l-2.8-1.62a.62.62,0,0,0-.56,0l-3,1.74c-.16.09-.16.23,0,.32l2.8,1.62" transform="translate(-5.64 -11.7)"/><path class="cls-54" d="M429.6,202.4a.62.62,0,0,0,.56,0l3-1.74c.16-.09.16-.23,0-.32l-2.8-1.62a.62.62,0,0,0-.56,0l-3,1.74c-.16.09-.17.24,0,.32l2.8,1.62" transform="translate(-5.64 -11.7)"/><path class="cls-54" d="M434,205a.59.59,0,0,0,.56,0l3-1.74c.16-.09.17-.23,0-.32l-2.8-1.62a.61.61,0,0,0-.56,0l-3,1.74c-.16.09-.17.24,0,.32L434,205" transform="translate(-5.64 -11.7)"/><path class="cls-54" d="M442,205.76a.18.18,0,0,0,0-.33l-2.8-1.62a.61.61,0,0,0-.56,0l-3,1.74c-.16.09-.17.24,0,.32l2.8,1.62a.61.61,0,0,0,.57,0l3-1.73" transform="translate(-5.64 -11.7)"/><path class="cls-54" d="M446.12,203.36c.15-.09.16-.24,0-.33l-9.25-5.34a.55.55,0,0,0-.47,0l-2.52,1.47c-.13.07-.14.2,0,.27l9.26,5.34a.64.64,0,0,0,.57,0l2.42-1.41" transform="translate(-5.64 -11.7)"/><path class="cls-54" d="M450.23,201c.13-.08.15-.2,0-.29l0,0-4.42-2.56-.77-.44-2-1.17a.61.61,0,0,0-.56,0L440,197.89a.24.24,0,0,0-.11.12c0,.08,0,.15.1.21l1.48.86.55.31.77.45,4.42,2.55a.67.67,0,0,0,.35.06.65.65,0,0,0,.21-.07l2.43-1.41" transform="translate(-5.64 -11.7)"/><path class="cls-54" d="M454.37,198.56a.17.17,0,0,0,0-.33l-2.79-1.61a.61.61,0,0,0-.56,0L448.59,198c-.16.09-.16.23,0,.32l2.79,1.61a.59.59,0,0,0,.56,0l2.43-1.41" transform="translate(-5.64 -11.7)"/><path class="cls-54" d="M454.75,194.78a.61.61,0,0,0-.56,0l-1.49.87c-.15.08-.15.23,0,.32l2.79,1.61a.64.64,0,0,0,.57,0l1.49-.86a.18.18,0,0,0,0-.33l-2.79-1.61" transform="translate(-5.64 -11.7)"/><path class="cls-54" d="M450.33,192.23a.61.61,0,0,0-.56,0l-1.48.86a.18.18,0,0,0,0,.33l2.8,1.61a.61.61,0,0,0,.56,0l1.48-.86a.18.18,0,0,0,0-.33l-2.8-1.61" transform="translate(-5.64 -11.7)"/><path class="cls-54" d="M445.91,189.68a.61.61,0,0,0-.56,0l-1.48.86a.18.18,0,0,0,0,.33l2.8,1.61a.61.61,0,0,0,.56,0l1.48-.86a.18.18,0,0,0,0-.33l-2.8-1.61" transform="translate(-5.64 -11.7)"/><path class="cls-54" d="M441.49,187.12a.65.65,0,0,0-.56,0l-1.48.86c-.15.09-.16.24,0,.33l2.8,1.61a.64.64,0,0,0,.57,0l1.47-.86c.16-.09.17-.24,0-.33l-2.8-1.62" transform="translate(-5.64 -11.7)"/><path class="cls-54" d="M437.07,184.57a.65.65,0,0,0-.56,0l-1.47.86c-.16.09-.17.24,0,.32l2.81,1.62a.59.59,0,0,0,.56,0l1.47-.85c.16-.09.17-.24,0-.33l-2.81-1.62" transform="translate(-5.64 -11.7)"/><path class="cls-54" d="M432.3,182a.65.65,0,0,0-.21.07l-1.47.86-.05,0a.16.16,0,0,0,0,.29l2.8,1.62.06,0a.61.61,0,0,0,.44,0l.06,0,1.48-.85a.36.36,0,0,0,.09-.08.16.16,0,0,0,0-.09.19.19,0,0,0-.11-.16l-2.8-1.62-.14-.05a.81.81,0,0,0-.22,0" transform="translate(-5.64 -11.7)"/><path class="cls-54" d="M428.24,179.47a.64.64,0,0,0-.57,0l-1.47.86c-.16.09-.17.23,0,.32l2.8,1.62.13.05a.76.76,0,0,0,.3,0,.52.52,0,0,0,.13-.06l1.48-.85c.1-.06.14-.14.11-.21a.17.17,0,0,0-.1-.12l-2.8-1.62" transform="translate(-5.64 -11.7)"/><path class="cls-54" d="M423.54,176.86a.57.57,0,0,0-.29.07l-1.47.86c-.16.09-.16.23,0,.32l2.8,1.62.13.05a.61.61,0,0,0,.3,0,.25.25,0,0,0,.13-.05l1.48-.86c.16-.09.16-.23,0-.32l-2.8-1.62a.64.64,0,0,0-.28-.06" transform="translate(-5.64 -11.7)"/><path class="cls-54" d="M419.4,174.37a.61.61,0,0,0-.56,0l-1.48.85c-.16.1-.16.24,0,.33l2.81,1.62a.62.62,0,0,0,.56,0l1.47-.86c.16-.09.17-.23,0-.32l-2.8-1.62" transform="translate(-5.64 -11.7)"/><path class="cls-54" d="M415,171.82a.59.59,0,0,0-.56,0l-1.48.85c-.15.09-.16.24,0,.33l2.81,1.62a.62.62,0,0,0,.56,0l1.48-.86c.15-.09.16-.23,0-.32L415,171.82" transform="translate(-5.64 -11.7)"/><path class="cls-54" d="M410.56,169.27a.61.61,0,0,0-.56,0l-1.48.86c-.15.09-.16.24,0,.33l2.81,1.62a.62.62,0,0,0,.56,0l1.48-.86c.15-.09.16-.24,0-.32l-2.81-1.62" transform="translate(-5.64 -11.7)"/><path class="cls-54" d="M404.1,167.59a.17.17,0,0,0,0,.32l2.79,1.61a.64.64,0,0,0,.57,0l1.49-.86a.18.18,0,0,0,0-.33l-2.79-1.61a.61.61,0,0,0-.56,0l-1.49.87" transform="translate(-5.64 -11.7)"/><path class="cls-54" d="M400,170c-.16.09-.16.23,0,.32l2.79,1.62a.65.65,0,0,0,.56,0l2.43-1.42c.16-.09.16-.23,0-.32L403,168.56a.61.61,0,0,0-.56,0L400,170" transform="translate(-5.64 -11.7)"/><path class="cls-54" d="M395.85,172.38c-.16.09-.17.24,0,.33l2.42,1.39.39.23,4.42,2.55a.62.62,0,0,0,.56,0l2.42-1.41c.16-.09.16-.23,0-.32l-4.41-2.55-.39-.23L398.83,171a.61.61,0,0,0-.56,0l-2.42,1.41" transform="translate(-5.64 -11.7)"/><path class="cls-54" d="M391.69,174.8a.17.17,0,0,0-.1.14s0,.09.09.13l9.26,5.34a.61.61,0,0,0,.56,0l2.42-1.41c.12-.07.15-.17.1-.25a.36.36,0,0,0-.09-.08l-9.26-5.34a.28.28,0,0,0-.16-.05.51.51,0,0,0-.25,0l-.05,0-2.52,1.47" transform="translate(-5.64 -11.7)"/><path class="cls-54" d="M387,177.5c-.13.08-.16.2-.06.29l0,0,2.81,1.62a.49.49,0,0,0,.28.07.85.85,0,0,0,.22,0l.06,0,3-1.74a.36.36,0,0,0,.09-.08c.06-.08,0-.18-.08-.25l-2.8-1.62-.13-.05a.66.66,0,0,0-.44.06l-3,1.74" transform="translate(-5.64 -11.7)"/><path class="cls-66" d="M464.8,197.84c0,.06,0,.11,0,.16l0,.12s0,.1,0,.14a.61.61,0,0,0,0,.12l-.07.15-.07.11-.11.17-.08.09a2.09,2.09,0,0,1-.2.22l-.08.08-.15.12-.13.11-.18.11-.18.12L430,219.09l-.45.23-.14.06-.38.14-.14,0-.24.07-.19.05-.27.06-.18,0-.55.08h-.17l-.32,0h-.7l-.24,0-.22,0-.24,0-.22,0-.25-.05-.2,0-.3-.07-.17-.05a3.81,3.81,0,0,1-.51-.17l-.07,0a5,5,0,0,1-.66-.31L367.08,186.7a2.76,2.76,0,0,1-1.33-1.45,1.7,1.7,0,0,1-.09-.54v2.38a2.39,2.39,0,0,0,1.42,2l56.1,32.39a4.33,4.33,0,0,0,.65.31l0,0h0l.51.18h.05l.12,0,.3.07.08,0,.12,0,.25.05.11,0h.11l.24,0H426l.25,0h.69l.33,0h.17a5,5,0,0,0,.54-.08h0l.15,0,.27-.06.19-.05.25-.07.05,0,.09,0,.37-.14.14-.06a3.17,3.17,0,0,0,.45-.23L463.4,202l.06,0a.91.91,0,0,1,.13-.08l.17-.12a.69.69,0,0,0,.13-.11l.15-.12,0,0,.05-.06a2.18,2.18,0,0,0,.21-.22l0,0,0,0,.12-.17,0-.07s0,0,0,0a1,1,0,0,0,.07-.15l0-.08a0,0,0,0,0,0,0,.83.83,0,0,0,0-.15l0-.1v0a.77.77,0,0,0,0-.15s0-.07,0-.1V197.7C464.81,197.75,464.8,197.8,464.8,197.84Z" transform="translate(-5.64 -11.7)"/><path class="cls-54" d="M458.39,203.28c.3-.17.54,0,.54.31a1.2,1.2,0,0,1-.53.93l-2.77,1.6a.33.33,0,0,1-.54-.31,1.22,1.22,0,0,1,.54-.94Z" transform="translate(-5.64 -11.7)"/><path class="cls-54" d="M453,206.42c.3-.18.54,0,.54.31a1.18,1.18,0,0,1-.54.93l-2.76,1.59c-.3.18-.54,0-.54-.3a1.19,1.19,0,0,1,.54-.94Z" transform="translate(-5.64 -11.7)"/><path class="cls-33" d="M461.88,201.16c.33-.2.61,0,.61.35a1.35,1.35,0,0,1-.61,1.06c-.34.19-.61,0-.61-.35A1.31,1.31,0,0,1,461.88,201.16Z" transform="translate(-5.64 -11.7)"/><path class="cls-15" d="M409,121.34c-.14-.08-.26,0-.26.16l-.11,38.79a.59.59,0,0,0,.26.45l12.29,7.1c.15.08,33.89-19.9,33.89-19.9Z" transform="translate(-5.64 -11.7)"/><path class="cls-66" d="M418.78,199.6a.65.65,0,0,1,0,1.23l-9.54,5.54a2.33,2.33,0,0,1-2.12,0L387.38,195a.65.65,0,0,1,0-1.23l9.55-5.54a2.33,2.33,0,0,1,2.12,0Z" transform="translate(-5.64 -11.7)"/></g><circle class="cls-22" cx="513.68" cy="274.87" r="70.87"/><path class="cls-70" d="M499.6,238.38h39.93c5.55,0,4.19,4.54,4.19,10.1v76.17c0,5.56,1.36,10.11-4.19,10.11H499.6c-5.55,0-4.78-4.55-4.78-10.11V248.48C494.82,242.92,494.05,238.38,499.6,238.38Z" transform="translate(-5.64 -11.7)"/><path class="cls-71" d="M495.83,246.46H542.5a.16.16,0,0,1,.17.14v79.12a.17.17,0,0,1-.17.15H495.83a.16.16,0,0,1-.16-.15V246.6A.15.15,0,0,1,495.83,246.46Z" transform="translate(-5.64 -11.7)"/><rect class="cls-67" x="505.48" y="229.06" width="16.29" height="1.46" rx="0.73" ry="0.73"/><path class="cls-72" d="M519.27,332.64a2.47,2.47,0,1,0-2.47-2.47A2.48,2.48,0,0,0,519.27,332.64Z" transform="translate(-5.64 -11.7)"/><path class="cls-73" d="M495.83,246.46H542.5a.16.16,0,0,1,.17.14v79.12a.17.17,0,0,1-.17.15L495.67,246.6A.15.15,0,0,1,495.83,246.46Z" transform="translate(-5.64 -11.7)"/></g><g id="Criminal"><circle class="cls-22" cx="285.68" cy="72.87" r="70.87"/><rect class="cls-18" x="249.46" y="20.44" width="72.44" height="104.53"/><rect class="cls-74" x="253.08" y="25.67" width="65.2" height="94.07"/><rect class="cls-75" x="255.92" y="65.7" width="59.53" height="33.95"/><line class="cls-75" x1="256.15" y1="77.91" x2="315.21" y2="77.91"/><line class="cls-75" x1="256.15" y1="87.91" x2="315.21" y2="87.91"/><line class="cls-75" x1="285.68" y1="65.87" x2="285.68" y2="99.65"/><line class="cls-76" x1="303.55" y1="36.71" x2="315.21" y2="36.71"/><line class="cls-76" x1="272.51" y1="36.71" x2="299.59" y2="36.71"/><line class="cls-76" x1="255.91" y1="36.71" x2="267.77" y2="36.71"/><line class="cls-76" x1="308.49" y1="42.71" x2="315.21" y2="42.71"/><line class="cls-76" x1="279.63" y1="42.71" x2="303.55" y2="42.71"/><line class="cls-76" x1="255.91" y1="42.71" x2="275.08" y2="42.71"/><line class="cls-76" x1="304.34" y1="48.71" x2="315.21" y2="48.71"/><line class="cls-76" x1="279.63" y1="48.71" x2="299.59" y2="48.71"/><line class="cls-76" x1="255.91" y1="48.71" x2="274.49" y2="48.71"/><line class="cls-76" x1="255.91" y1="51.71" x2="279.63" y2="51.71"/><line class="cls-76" x1="300.55" y1="39.71" x2="315.21" y2="39.71"/><line class="cls-76" x1="292.11" y1="39.71" x2="296.59" y2="39.71"/><line class="cls-76" x1="269.51" y1="39.71" x2="288.53" y2="39.71"/><line class="cls-76" x1="255.91" y1="39.71" x2="264.77" y2="39.71"/><line class="cls-76" x1="303.55" y1="45.71" x2="315.21" y2="45.71"/><line class="cls-76" x1="272.51" y1="45.71" x2="299.59" y2="45.71"/><line class="cls-76" x1="255.91" y1="45.71" x2="267.77" y2="45.71"/><line class="cls-76" x1="304.34" y1="61.71" x2="315.21" y2="61.71"/><line class="cls-76" x1="279.63" y1="61.71" x2="299.59" y2="61.71"/><line class="cls-76" x1="255.91" y1="61.71" x2="274.49" y2="61.71"/><line class="cls-76" x1="303.55" y1="58.71" x2="315.21" y2="58.71"/><line class="cls-76" x1="272.51" y1="58.71" x2="299.59" y2="58.71"/><line class="cls-76" x1="255.91" y1="58.71" x2="267.77" y2="58.71"/><path class="cls-77" d="M267.89,45.17a2.43,2.43,0,0,1-.87.13c-1.46,0-2.16-1.2-2.16-2.83,0-2.16,1.2-3,2.32-3a1.46,1.46,0,0,1,.77.16l-.19.93a1.09,1.09,0,0,0-.52-.11c-.62,0-1.19.54-1.19,2s.51,1.91,1.19,1.91a1.74,1.74,0,0,0,.54-.09Z" transform="translate(-5.64 -11.7)"/><path class="cls-77" d="M269.55,43.94l-.26,1.31h-1.07l1.24-5.73h1.33l1.11,5.73h-1.08l-.24-1.31Zm.93-.86-.19-1.2c-.06-.35-.14-.92-.19-1.3h0c-.06.38-.15,1-.21,1.31l-.21,1.19Z" transform="translate(-5.64 -11.7)"/><path class="cls-77" d="M272.54,39.61a6.4,6.4,0,0,1,1.21-.11,2.21,2.21,0,0,1,1.53.42,1.46,1.46,0,0,1,.45,1.19,1.53,1.53,0,0,1-.88,1.44v0c.39.15.58.52.69,1.13a9.3,9.3,0,0,0,.37,1.55h-1.17a9.45,9.45,0,0,1-.28-1.37c-.1-.71-.28-.91-.65-.91h-.16v2.28h-1.11Zm1.11,2.5h.19a.79.79,0,0,0,.77-.89c0-.49-.2-.84-.7-.85a.69.69,0,0,0-.26,0Z" transform="translate(-5.64 -11.7)"/><path class="cls-77" d="M279.71,45.1a3.82,3.82,0,0,1-1.19.2,2,2,0,0,1-1.53-.57,3.13,3.13,0,0,1-.74-2.31c0-2.08,1.22-3,2.43-3a2.41,2.41,0,0,1,.94.17l-.2,1a1.45,1.45,0,0,0-.65-.12c-.76,0-1.36.51-1.36,2s.53,1.87,1,1.87a.57.57,0,0,0,.22,0V43h-.51V42h1.54Z" transform="translate(-5.64 -11.7)"/><path class="cls-77" d="M283.93,42.29c0,2.16-.77,3-1.86,3-1.3,0-1.81-1.38-1.81-3s.62-2.91,1.89-2.91S283.93,41,283.93,42.29Zm-2.51.1c0,1.3.25,2,.7,2s.64-.85.64-2-.15-1.91-.65-1.91S281.42,41.16,281.42,42.39Z" transform="translate(-5.64 -11.7)"/><path class="cls-77" d="M289.49,43.25c0-.55-.07-1.29-.05-1.9h0c-.1.61-.25,1.32-.36,1.76l-.5,2h-.79l-.47-2c-.11-.46-.27-1.18-.35-1.8h0c0,.62-.05,1.34-.08,1.91l-.1,2h-1l.42-5.73h1.17l.46,2.08c.16.72.31,1.36.41,2h0c.08-.63.21-1.28.36-2l.45-2.08h1.18l.34,5.73h-1Z" transform="translate(-5.64 -11.7)"/><path class="cls-77" d="M292.31,43.94l-.25,1.31H291l1.24-5.73h1.33l1.12,5.73h-1.08l-.25-1.31Zm.93-.86-.19-1.2c-.06-.35-.13-.92-.18-1.3h0c-.06.38-.14,1-.2,1.31l-.22,1.19Z" transform="translate(-5.64 -11.7)"/><path class="cls-77" d="M295.3,45.25V39.52h1l.88,2.25c.17.44.45,1.18.61,1.67h0c0-.6-.11-1.6-.11-2.65V39.52h1v5.73h-1l-.88-2.17a16.67,16.67,0,0,1-.57-1.73h0c0,.58.07,1.46.07,2.61v1.29Z" transform="translate(-5.64 -11.7)"/><path class="cls-77" d="M300.8,39.52v5.73h-1.11V39.52Z" transform="translate(-5.64 -11.7)"/><path class="cls-77" d="M301.8,39.52h2.49v1h-1.38V42h1.29v.93h-1.29v2.36H301.8Z" transform="translate(-5.64 -11.7)"/><path class="cls-77" d="M307.55,42.74h-1.31v1.54h1.48v1h-2.59V39.52h2.49v1h-1.38v1.32h1.31Z" transform="translate(-5.64 -11.7)"/><path class="cls-77" d="M308.35,44.11a2.15,2.15,0,0,0,.95.22c.52,0,.78-.27.78-.64s-.26-.62-.74-.94a1.93,1.93,0,0,1-1.08-1.59,1.65,1.65,0,0,1,1.81-1.69,2,2,0,0,1,.9.21l-.18,1a1.38,1.38,0,0,0-.73-.2.61.61,0,0,0-.7.6c0,.34.17.52.79.89a1.88,1.88,0,0,1,1,1.64,1.72,1.72,0,0,1-1.89,1.73,2.41,2.41,0,0,1-1.1-.23Z" transform="translate(-5.64 -11.7)"/><path class="cls-77" d="M312.45,40.55h-1v-1h3.14v1h-1v4.7h-1.11Z" transform="translate(-5.64 -11.7)"/><path class="cls-77" d="M315,44.11a2.15,2.15,0,0,0,.95.22c.52,0,.78-.27.78-.64s-.26-.62-.74-.94a1.91,1.91,0,0,1-1.08-1.59,1.65,1.65,0,0,1,1.81-1.69,2,2,0,0,1,.9.21l-.18,1a1.38,1.38,0,0,0-.73-.2c-.48,0-.71.29-.71.6s.17.52.79.89a1.87,1.87,0,0,1,1,1.64A1.72,1.72,0,0,1,316,45.3a2.41,2.41,0,0,1-1.1-.23Z" transform="translate(-5.64 -11.7)"/><line class="cls-76" x1="308.49" y1="107.71" x2="315.21" y2="107.71"/><line class="cls-76" x1="279.63" y1="107.71" x2="303.55" y2="107.71"/><line class="cls-76" x1="255.91" y1="107.71" x2="275.08" y2="107.71"/><line class="cls-76" x1="300.55" y1="104.71" x2="315.21" y2="104.71"/><line class="cls-76" x1="292.11" y1="104.71" x2="296.59" y2="104.71"/><line class="cls-76" x1="269.51" y1="104.71" x2="288.53" y2="104.71"/><line class="cls-76" x1="255.91" y1="104.71" x2="264.77" y2="104.71"/><line class="cls-76" x1="255.92" y1="116.83" x2="275.08" y2="116.83"/><line class="cls-76" x1="291.59" y1="116.83" x2="315.21" y2="116.83"/></g></g></svg>