<svg xmlns="http://www.w3.org/2000/svg" viewBox="0 0 185.79 144.12"><defs><style>.cls-1{isolation:isolate;}.cls-2{fill:#848383;}.cls-3{fill:#efefef;}.cls-4{fill:#d0cfd0;}.cls-5{fill:#d9d9d9;mix-blend-mode:multiply;}.cls-6{fill:#303b45;}.cls-7{fill:#e38868;}.cls-8{fill:#f6bbc6;}.cls-9{fill:#5b5b5a;}.cls-10{fill:#353430;}.cls-11{fill:#bb745d;}.cls-12{fill:#4d4a81;}.cls-13{fill:#3c3c3b;}.cls-14{fill:#a9b2bd;}.cls-15{fill:#eaeaea;}.cls-16{fill:#3d3d3c;stroke:#b2b2b2;stroke-miterlimit:10;stroke-width:0.1px;}.cls-17{fill:#f39200;}.cls-18{fill:#e94e1b;}.cls-19{fill:#063;}.cls-20{fill:#36a9e1;}.cls-21{fill:#312783;}.cls-22{fill:#f9b233;}.cls-23{fill:#be1622;}.cls-24{fill:#cbbba0;}.cls-25{fill:#a48a7b;}.cls-26{fill:#683c11;}.cls-27{fill:#432918;}.cls-28{fill:#424242;}.cls-29{fill:#454544;opacity:0.3;}.cls-30{fill:#323232;opacity:0.5;}</style></defs><title>G05_11</title><g class="cls-1"><g id="Livello_1" data-name="Livello 1"><polygon class="cls-2" points="185.79 86.6 185.79 91.35 96.32 144.12 96.32 139.38 185.79 86.6"/><polygon class="cls-3" points="96.32 139.38 96.32 144.12 0.22 88.39 0.22 83.64 96.32 139.38"/><polygon class="cls-4" points="96.1 139.39 0 83.66 0 83.39 90.31 31.49 185.79 86.62 96.25 139.48 96.1 139.39"/><ellipse class="cls-5" cx="90.23" cy="83.9" rx="65.41" ry="34.02"/></g><g id="Livello_2" data-name="Livello 2"><path class="cls-6" d="M95.65,71.91a31.19,31.19,0,0,0,.73-6.55l-3.46-.55s-.73,13.31-1.51,17.68c-.15.8-.86,3.13-.86,3.13H98.1s-.52-1.18-1.18-1.36-3-.24-3.38-.51A1.12,1.12,0,0,1,93,82.49C93.51,79.82,95.37,73,95.65,71.91Z" transform="translate(-6.21 -22.13)"/><path class="cls-6" d="M84.1,71.67c-.28,2.92-.34,8.12-.54,10.82,0,.5,0,.52-.33.9s-2.06.65-3,.79c-1.81.27-1.81,1.44-1.81,1.44h6.38s.18-2.35.3-3.13c.39-2.61,1.91-9.27,2.19-10.33a62.47,62.47,0,0,0,1.21-6.8l-3.46-.55S84.26,70.05,84.1,71.67Z" transform="translate(-6.21 -22.13)"/><polygon class="cls-7" points="93.15 16.96 95.27 31.22 93.64 31.54 90.84 18.43 90.22 18.05 93.15 16.96"/><path class="cls-8" d="M101.16,51.78s.8,3.32,1,3.84,0,.79-.48.55-.38.4-.78.12-.41.42-.73.24-.48,0-.7-.08-.08-1-.08-1-1.16.22.38-1.55c.36-.4-1.15-3.86-1.15-3.86Z" transform="translate(-6.21 -22.13)"/><path class="cls-8" d="M83.19,37.27s-.49,4.3-.64,5-1.47,9.11-1.47,9.11l1.65.25,2.71-8.94L85.55,38Z" transform="translate(-6.21 -22.13)"/><path class="cls-8" d="M81.33,51.83s-.65,3.34-.79,3.87,0,.79.51.53.4.38.78.09.43.4.74.2c.46-.3.48-.05.7-.1s0-1,0-1,1.18.17-.45-1.53c-.37-.39,1-3.91,1-3.91Z" transform="translate(-6.21 -22.13)"/><path class="cls-9" d="M97.44,50.89s.38,5.16.5,6.92-1.12,9-1.12,9l-3.07,15H91l.83-15.53L91.41,58,88,71.54,85.63,81.8h-2.4l.51-10.26L86,50.89S92.87,51.07,97.44,50.89Z" transform="translate(-6.21 -22.13)"/><path class="cls-9" d="M97.49,50.08H86c-.2,0-.26-.17-.25-.38L86,43.76l-2.66,9.42-2.57-.31,2.57-19s3.92-2.27,5.14-2.78c0,0,.23-.49.26-.5s.18-.12.22-.13c.73-.18,2,.44,3.06.38.25,0,.63-.48,1.24-.27.08,0,.49.71.58.74a24.61,24.61,0,0,1,4.79,2.32c.36.42,3.28,19.44,3.28,19.44l-2.54.42-2.2-9.74.45,5.9C97.6,49.89,97.71,50.08,97.49,50.08Z" transform="translate(-6.21 -22.13)"/><path class="cls-10" d="M96.79,39.81a22.49,22.49,0,0,1,1-5,8.28,8.28,0,0,0-1.12,4.91C96.67,39.77,96.78,39.82,96.79,39.81Z" transform="translate(-6.21 -22.13)"/><path class="cls-8" d="M92.91,28.48v2.2a.87.87,0,0,1-.43.33,3.28,3.28,0,0,1-1,.31l.1.63a3.87,3.87,0,0,1-1,.11c-.07,0,.2-.74.2-.74A3.49,3.49,0,0,1,89.61,31a2.46,2.46,0,0,1-.71-.45l.16-2.1Z" transform="translate(-6.21 -22.13)"/><path class="cls-8" d="M91.54,22.46c2.24.26,2.34,2.79,2.13,4.9S92.4,30.77,91,30.76s-2.34-1.54-2.61-3.5S87.94,22,91.54,22.46Z" transform="translate(-6.21 -22.13)"/><path class="cls-8" d="M93.39,26.8s.08-.86.77-.59-.12,2.22-.89,2S93.39,26.8,93.39,26.8Z" transform="translate(-6.21 -22.13)"/><path class="cls-8" d="M88.79,27s0-.86-.75-.61,0,2.22.81,2S88.79,27,88.79,27Z" transform="translate(-6.21 -22.13)"/><path class="cls-11" d="M90.81,30.86H91A3.39,3.39,0,0,0,92.67,30c0-.05-1.12.67-1.7.66s-1.69-.91-1.73-.87A3.3,3.3,0,0,0,90.81,30.86Z" transform="translate(-6.21 -22.13)"/><path class="cls-10" d="M97.72,54.75a1.53,1.53,0,0,1-.78-.57,7,7,0,0,1-.63-1.93,5,5,0,0,0,.42,2.08,3.06,3.06,0,0,0,1,1.1S97.72,54.75,97.72,54.75Z" transform="translate(-6.21 -22.13)"/><path class="cls-10" d="M85.47,56A2.46,2.46,0,0,0,87,54.7,6.21,6.21,0,0,0,87.37,53c0-.06-.34.76-.58,1.29a1.93,1.93,0,0,1-1.24,1.07Z" transform="translate(-6.21 -22.13)"/><path class="cls-10" d="M91.41,58l.3,6.69c.48.25.75-5.62.75-5.62L91.87,57c-.22-1.34-.48-4.11-.48-4.11Z" transform="translate(-6.21 -22.13)"/><path class="cls-10" d="M85.15,65.81c1.17,0,2.34,0,3.5-.14a.11.11,0,1,0,0-.22c-1.36.11-2.74.15-4.1.13h0a.11.11,0,0,0-.11.11.1.1,0,0,0,.1.12Z" transform="translate(-6.21 -22.13)"/><path class="cls-10" d="M93.67,65.8c.72,0,1.44,0,2.15-.11a.11.11,0,1,0,0-.22,21.53,21.53,0,0,1-3.59.06.1.1,0,0,0-.12.1.11.11,0,0,0,.1.12C92.68,65.78,93.17,65.8,93.67,65.8Z" transform="translate(-6.21 -22.13)"/><path class="cls-12" d="M91.6,22.41c1.83.25,2.3,2,2.14,3.78a2.06,2.06,0,0,0-.3,1l-.32.07,0-1.58s-.63-.2-.38-1.32a7,7,0,0,1-3.28-.06s.12,1.05-.65,1.26l-.06,1.33-.24,0s0-.4-.27-.52C88,24.45,88.44,22,91.6,22.41Z" transform="translate(-6.21 -22.13)"/><path class="cls-9" d="M94.06,25.05A1.77,1.77,0,0,1,94.45,24c.56-.86-1.6-1.86-3.32-1.86h-.28c-1.72,0-3.88,1-3.32,1.86a1.77,1.77,0,0,1,.39,1.06Z" transform="translate(-6.21 -22.13)"/><path class="cls-13" d="M94.09,25.45c0,.39-1.38.71-3.08.71s-3.09-.32-3.09-.71a30.55,30.55,0,0,1,3-.4C91.74,25.05,94.09,25.45,94.09,25.45Z" transform="translate(-6.21 -22.13)"/><path class="cls-14" d="M94.09,25.05s-2.35-.39-3.13-.39-3,.39-3,.39v.4a30.55,30.55,0,0,1,3-.4c.78,0,3.13.4,3.13.4Z" transform="translate(-6.21 -22.13)"/><path class="cls-10" d="M88.71,31.33A4.33,4.33,0,0,0,90,32.64l.73-1.32-.43,1.89A4.14,4.14,0,0,1,88.71,31.33Z" transform="translate(-6.21 -22.13)"/><path class="cls-10" d="M93.81,31.32a5.12,5.12,0,0,1-1.75,1.32l-.61-1.32.31,1.89A5.71,5.71,0,0,0,93.81,31.32Z" transform="translate(-6.21 -22.13)"/><ellipse class="cls-15" cx="89.95" cy="31.82" rx="0.34" ry="0.19" transform="translate(16.01 76.89) rotate(-64.26)"/><ellipse class="cls-15" cx="92.17" cy="31.85" rx="0.19" ry="0.34" transform="translate(-10.9 21.07) rotate(-25.74)"/><path class="cls-10" d="M90.59,50.14S90.28,34,90.92,33c0-.05.08,17.13.08,17.13S90.58,50.19,90.59,50.14Z" transform="translate(-6.21 -22.13)"/><path class="cls-10" d="M90.11,36.53l-1.84.86-1.83-.86c-.1.17,1.82,1.2,1.83,1.2h0S90.21,36.7,90.11,36.53Z" transform="translate(-6.21 -22.13)"/><path class="cls-10" d="M95.93,36.53l-1.83.86-1.84-.86c-.1.17,1.83,1.2,1.83,1.2h0S96,36.7,95.93,36.53Z" transform="translate(-6.21 -22.13)"/><circle class="cls-10" cx="82.07" cy="14.74" r="0.17"/><circle class="cls-10" cx="87.89" cy="14.74" r="0.17"/><rect class="cls-16" x="80.41" y="13.08" width="3.3" height="0.72"/><rect class="cls-17" x="86.08" y="13.39" width="0.43" height="0.49"/><rect class="cls-18" x="89.26" y="13.78" width="0.43" height="0.49"/><rect class="cls-19" x="88.84" y="13.39" width="0.43" height="0.49"/><rect class="cls-20" x="88.41" y="13.39" width="0.43" height="0.49"/><rect class="cls-21" x="86.51" y="13.39" width="1.48" height="0.49"/><rect class="cls-22" x="87.99" y="13.39" width="0.43" height="0.49"/><polygon class="cls-23" points="89.26 13.2 88.84 13.2 88.41 13.2 87.99 13.2 86.51 13.2 86.08 13.2 86.08 13.39 86.51 13.39 87.99 13.39 88.41 13.39 88.84 13.39 89.26 13.39 89.69 13.39 89.69 13.2 89.26 13.2"/><polygon class="cls-15" points="89.42 12.5 86.32 12.5 86.13 12.37 89.61 12.37 89.42 12.5"/><polygon class="cls-15" points="89.06 12.69 86.69 12.69 86.54 12.55 89.2 12.55 89.06 12.69"/><polygon class="cls-15" points="88.58 12.88 87.16 12.88 86.93 12.74 88.84 12.74 88.58 12.88"/><polygon class="cls-15" points="88.11 13.06 87.64 13.06 87.42 12.93 88.33 12.93 88.11 13.06"/><path class="cls-15" d="M93.61,34.35a.5.5,0,0,1,.5-.51.51.51,0,0,1,.51.51.68.68,0,0,0-.21-.1,1.47,1.47,0,0,0-.3.1.68.68,0,0,0-.21-.1A1.34,1.34,0,0,0,93.61,34.35Z" transform="translate(-6.21 -22.13)"/><polygon class="cls-9" points="87.91 13.15 87.32 12.34 88.49 12.34 87.91 13.15"/><rect class="cls-10" x="79.8" y="27.95" width="11.48" height="1.4"/><rect class="cls-15" x="84.18" y="27.95" width="2.53" height="1.4"/><path class="cls-12" d="M142.68,70c.06.37.4.65.45,1,.1.69.71,5.5,1.29,5.33s.67.63,1.25.81.82.55,1.29.7a1.65,1.65,0,0,0,1.4-.3l.12.11a1.79,1.79,0,0,0,1.77.3c.44-.22.73-.67,1.17-.89a3.23,3.23,0,0,1,1.8,0,1.61,1.61,0,0,0,1.64-.5,1.53,1.53,0,0,0-.06-1.38,4.33,4.33,0,0,1-.52-1.33c-.06-.53.15-1.09-.06-1.58s-1.2-.94-1.2-1.63c0-.38.29-.71.29-1.08s-.46-.83-.89-1c-1.25-.6-1.09-1.17-1.43-2.38a5,5,0,0,0-1.12-2c-.64-.69-3.22-1.62-4.58,0a4.11,4.11,0,0,0-.82,2.11c-.16,1.25.09,1.79-1.06,2.57C143,69.1,142.61,69.5,142.68,70Z" transform="translate(-6.21 -22.13)"/><circle class="cls-22" cx="140.35" cy="44.9" r="2.57"/><path class="cls-8" d="M132.21,79.26c-.22,0,1.19.69,3.7,2,2.06,1,3.54,1.4,4.62,1S145.14,74,145.14,74l-.07-2.09A2.8,2.8,0,0,0,142.55,73c-1,1.37-3.11,7.12-3.11,7.12l-6.08-1.26Z" transform="translate(-6.21 -22.13)"/><path class="cls-8" d="M131.46,79a1.17,1.17,0,1,0,1.17-1.17A1.17,1.17,0,0,0,131.46,79Z" transform="translate(-6.21 -22.13)"/><path class="cls-24" d="M145.07,71.89A3.07,3.07,0,0,0,142.34,73a5,5,0,0,0-.53.91c-.63,1.41-1.72,3.53-1.72,3.53L143,79.38l2.14-5.4Z" transform="translate(-6.21 -22.13)"/><path class="cls-25" d="M143.3,75.78c-.64,1.41-1.18,3-1.18,3l.88.59,2.14-5.4A13.66,13.66,0,0,0,143.3,75.78Z" transform="translate(-6.21 -22.13)"/><path class="cls-26" d="M142.62,114.05c.13.73,1.3.45,2.21.39s1.55-.67,1.94-.7a15.23,15.23,0,0,0,1.75-.42.24.24,0,0,0,.11-.38l-6,.9Z" transform="translate(-6.21 -22.13)"/><path class="cls-8" d="M156,92.79s-.36-6.47-.2-6.78-2.12-7-2.55-8.55a5,5,0,0,0-.22-.61l-.47.17a3.68,3.68,0,0,0-1,.43,2.61,2.61,0,0,0-1,1.39,4.81,4.81,0,0,0-.21,1.12c.92,1.32,2.35,3.41,2.54,4.47A73.24,73.24,0,0,0,155,93.08C155.22,93.8,156,92.79,156,92.79Z" transform="translate(-6.21 -22.13)"/><path class="cls-27" d="M154.84,116.45l-.85-4-2-12.24s-.57-8.86-.38-9.53.38-4.29.38-4.29l-8-3-1,1s.05,7.87-.15,9.11,3.65,17,3.65,17A7.16,7.16,0,0,1,145,112c-1.33.9-2.45,1.31-2.38,1.75.13.72,1.3.45,2.21.38s1.55-.67,1.94-.69a14.84,14.84,0,0,0,1.75-.43s.24-.19.26-.87a5.9,5.9,0,0,0-.46-1.85h0c-.19-1.75-1.22-11.18-1.22-11.7s.09-7.53.09-7.53,1.15,5.72,1.53,8.2,3.52,12.89,3.52,12.89l.15,2.31s.32,3.46,1.33,3.82c.73.26,1-.65,1.16-1.19A1.47,1.47,0,0,0,154.84,116.45Z" transform="translate(-6.21 -22.13)"/><path class="cls-25" d="M142.8,95.24l2.59,12.05,2.86,0-.77-7.18-.28-8.44,1.53,8.78,2.74,9.83,2.47-.45-1.61-10.22s-.41-13.71-.41-14.28-.5.09-.5.09L143.53,84l-1,2.17Z" transform="translate(-6.21 -22.13)"/><path class="cls-24" d="M148.38,72.36a11.59,11.59,0,0,0-4-.33,2.36,2.36,0,0,0-1.84,1.62,28,28,0,0,0-.44,2.78c-.05,1.78,1.71,3.9,1.71,3.9L142.33,86s6.58,2.52,8.19,1.72,1.86-1.84,1.8-2.31c0-.29-1.13-3.67-1.12-4l.88-4.87a3.08,3.08,0,0,0-1.29-2.43Z" transform="translate(-6.21 -22.13)"/><path class="cls-8" d="M154.07,93.44a1.17,1.17,0,1,0,1.17-1.16A1.17,1.17,0,0,0,154.07,93.44Z" transform="translate(-6.21 -22.13)"/><path class="cls-24" d="M153.18,77.15c0,.1.07.21.1.31C153.25,77.36,153.22,77.25,153.18,77.15Z" transform="translate(-6.21 -22.13)"/><path class="cls-24" d="M151.33,81.23c.17-.55,2.52-1.5,2.68-1.56,0,.1-1-2.92-.95-2.82a5.6,5.6,0,0,0-2.93-3.12c-1.21-.48-4.15,1.11-4.15,1.11-.32.76,3.68,4,3.68,4s.34.45.8,1.11C150.49,79.58,151.33,81.23,151.33,81.23Z" transform="translate(-6.21 -22.13)"/><path class="cls-24" d="M156,92.88l.08-.09Z" transform="translate(-6.21 -22.13)"/><path class="cls-8" d="M147.46,72.35s1.15.32,1.26.59-.75-.25-1.67.42a8.11,8.11,0,0,0-1.7,1.91,2.59,2.59,0,0,1-.83-2.3C144.55,71.22,147.46,72.35,147.46,72.35Z" transform="translate(-6.21 -22.13)"/><path class="cls-8" d="M144.35,69.82l1.07,3.24h0a2,2,0,0,0,2.26.24h0a.5.5,0,0,0,.25-.56l-.8-3.15Z" transform="translate(-6.21 -22.13)"/><polygon class="cls-25" points="139.54 52.62 140.23 52.7 142.79 50.77 139.75 50.99 139.54 52.62"/><polygon class="cls-24" points="139.18 53.65 137.49 51.36 138.68 49.34 138.87 49.9 139.18 53.65"/><polygon class="cls-24" points="139.75 50.99 140.26 52.22 142.79 50.77 141.69 49.57 141.44 49.5 141.5 49.83 139.75 50.99"/><path class="cls-8" d="M142.53,68.31a3.16,3.16,0,1,0,3.15-3.15A3.15,3.15,0,0,0,142.53,68.31Z" transform="translate(-6.21 -22.13)"/><path class="cls-12" d="M143.14,67.76a.63.63,0,0,1-.43-.48,3.15,3.15,0,0,1,6.13,1,2.73,2.73,0,0,1,0,.41,1,1,0,0,1-.43,0c-.31-.08-1-.34-.79-.72-.12.19-.12.46,0,1.18C146.44,67.4,144.34,68.21,143.14,67.76Z" transform="translate(-6.21 -22.13)"/><path class="cls-8" d="M147.49,68.41a1,1,0,1,0,1-1A1,1,0,0,0,147.49,68.41Z" transform="translate(-6.21 -22.13)"/><path class="cls-15" d="M57.61,80.07l1-.28L61.18,79S67,71.35,83.12,65C88,63,98.69,61.19,103.92,61.78c5.58.63,10.67,3.3,13.09,5.77,3.22,3.3,6.25,12.52,7.07,17.06,1,5.5-1.65,22.31-1.65,22.31s-5.43,3.64-7.48,3.49c-1.74-.12-5.33-3.74-5.33-3.74l4.06-2.79-.5-7.67-2.54-4.63-.76,7.48s-5.64,3.52-7.74,3.24c-1.73-.24-4.56-4-4.56-4l3.87-1.84-1.21-.57-7,2.28.5,14.21-1.9,10.78s-5.46,3.68-7.48,3.48c-1.73-.16-5.2-4.62-5.2-4.62l4.06-2.48.06-7.92-1.88-8.23-2.87,10.89s-5.24,3.78-7.23,3.74-6.09-3.87-6.09-3.87l5.07-3.29s0-6.63-.5-8.75a37.76,37.76,0,0,0-2.23-4.85s-10.72,4.23-14.51,4.47c-1.33.08-4.3,0-5.25-.93s-1.08-3.4-.84-4.53c.35-1.62,3.8-5.45,3.8-5.45a22.94,22.94,0,0,1,0-4.69,11.68,11.68,0,0,1,2.29-3.81,5,5,0,0,1,.56-.45Z" transform="translate(-6.21 -22.13)"/><path class="cls-28" d="M97,97l-3.71,1.21.5,14.21-1.9,10.78s-5.46,3.68-7.48,3.48c-1.73-.16-5.2-4.62-5.2-4.62l4.06-2.48.06-7.92-1.88-8.23-2.87,10.89s-5.24,3.78-7.23,3.74-6.09-3.87-6.09-3.87l5.07-3.29s0-6.63-.5-8.75a37.76,37.76,0,0,0-2.23-4.85S67,97.85,62.83,99c0,0,7.72-4.64,8.82-7.11,2.77-6.24,1.06-22,1.06-22a74.44,74.44,0,0,1,7.18-3.64s7.86,7.24,12.36,16.17A67.42,67.42,0,0,1,97,97Z" transform="translate(-6.21 -22.13)"/><path class="cls-13" d="M53.63,81.87s-.88-3.05,1.47-3.73c1.52-.45,2.51,1.93,2.51,1.93Z" transform="translate(-6.21 -22.13)"/><path class="cls-29" d="M117,67.55c3.22,3.3,6.25,12.52,7.07,17.06,1,5.5-1.65,22.31-1.65,22.31s-5.43,3.64-7.48,3.49c-1.74-.12-5.33-3.74-5.33-3.74l4.06-2.79-.5-7.67-2.54-4.63-.76,7.48s-5.64,3.52-7.74,3.24c-1.73-.24-4.56-4-4.56-4l3.87-1.84-1.21-.57-7,2.28.5,14.21-1.9,10.78s-5.46,3.68-7.48,3.48c-1.73-.16-5.2-4.62-5.2-4.62l4.06-2.48.06-7.92-1.88-8.23-2.87,10.89s-5.24,3.78-7.23,3.74-6.09-3.87-6.09-3.87l5.07-3.29s0-6.63-.5-8.75a37.76,37.76,0,0,0-2.23-4.85s-10.72,4.23-14.51,4.47c0,0,9.92-1.84,13.47-8.56,3-5.79,2.54,1.39,23.65-4.22,18-4.78,14.86-18.65,19.67-18.81C115.57,70,117,67.55,117,67.55Z" transform="translate(-6.21 -22.13)"/><path class="cls-30" d="M62.83,99a63.16,63.16,0,0,0,6.87-4.86c1.37-1.23,9.22,3.23,9.22,3.23l2.51,6s-5.55-7.24-9.6-7.48a13,13,0,0,0-4.25,1.35A27.61,27.61,0,0,1,62.83,99Z" transform="translate(-6.21 -22.13)"/><path class="cls-30" d="M91.88,94.16a8.15,8.15,0,0,1,1.39,4l17.28-5.71s.23-.71.09-.88c-2.22-2.79-4.25-11.67-4.25-11.67s-.89,4.39-.57,5.9c.17.77,1.42,2,1.27,2.79-.4,2.06-4.23,3.8-6.22,4.5A25.36,25.36,0,0,1,91.88,94.16Z" transform="translate(-6.21 -22.13)"/><path class="cls-13" d="M81.43,103.39l-2.87,10.89s-5.24,3.78-7.23,3.74-6.09-3.87-6.09-3.87l5.07-3.29s0-6.63-.5-8.75a37.76,37.76,0,0,0-2.23-4.85s3.58-1.77,5.07-1.26C77,97.48,81.43,103.39,81.43,103.39Z" transform="translate(-6.21 -22.13)"/><path class="cls-13" d="M93.27,98.17l.5,14.21-1.9,10.78s-5.46,3.68-7.48,3.48c-1.73-.16-5.2-4.62-5.2-4.62l4.06-2.48.06-7.92-1.88-8.23S78.55,97,78.6,96.23c.28-4.4,5.68-4.89,7.54-4.89C92.91,91.33,93.27,98.17,93.27,98.17Z" transform="translate(-6.21 -22.13)"/><path class="cls-13" d="M110.55,92.46l-.67,6.6s-5.64,3.52-7.74,3.24c-1.73-.24-4.56-4-4.56-4l3.87-1.84-1.21-.57Z" transform="translate(-6.21 -22.13)"/><path class="cls-13" d="M116.33,70.12c5.46,2.79,6.93,9.95,7.75,14.49,1,5.5-1.65,22.31-1.65,22.31s-5.43,3.64-7.48,3.49c-1.74-.12-5.33-3.74-5.33-3.74l4.06-2.79-.5-7.67-2.54-4.63s-6.32-11.08-3.2-17.11S114.13,69,116.33,70.12Z" transform="translate(-6.21 -22.13)"/><path class="cls-13" d="M58.68,92.46c0,2.35-2,4.19-3.46,4.19s-.65-1.83-.65-4.18S55.29,89,56.7,89,58.68,90.11,58.68,92.46Z" transform="translate(-6.21 -22.13)"/><path class="cls-13" d="M65.7,87.44s1.89-4.88-.46-5.57C63.72,81.43,62,84.24,62,84.24Z" transform="translate(-6.21 -22.13)"/><path class="cls-15" d="M105.48,104.81l.41-.12,1-.3s2.31-3.07,8.77-5.63A23.16,23.16,0,0,1,124,97.49a9.27,9.27,0,0,1,5.24,2.31c1.29,1.32,2.5,5,2.83,6.82.4,2.2-.66,8.93-.66,8.93s-2.17,1.45-3,1.39-2.13-1.49-2.13-1.49l1.62-1.12-.2-3.07-1-1.85-.3,3s-2.26,1.41-3.1,1.3-1.82-1.6-1.82-1.6l1.55-.74-.49-.22-2.79.91.21,5.68-.77,4.31s-2.18,1.48-3,1.4-2.08-1.85-2.08-1.85l1.62-1,0-3.17-.75-3.3-1.15,4.36S111.76,120,111,120s-2.44-1.55-2.44-1.55l2-1.32a24.59,24.59,0,0,0-.2-3.5,14.88,14.88,0,0,0-.89-1.94,33,33,0,0,1-5.81,1.79,3.69,3.69,0,0,1-2.1-.37,2.68,2.68,0,0,1-.34-1.81,9.2,9.2,0,0,1,1.53-2.18,8.8,8.8,0,0,1,0-1.88,4.53,4.53,0,0,1,.91-1.52,1.54,1.54,0,0,1,.23-.18Z" transform="translate(-6.21 -22.13)"/><path class="cls-28" d="M121.23,111.56l-1.49.49.21,5.68-.77,4.31s-2.18,1.48-3,1.4-2.08-1.85-2.08-1.85l1.62-1,0-3.17-.75-3.3-1.15,4.36S111.76,120,111,120s-2.44-1.55-2.44-1.55l2-1.32a24.59,24.59,0,0,0-.2-3.5,14.88,14.88,0,0,0-.89-1.94,6.25,6.25,0,0,1-1.9.71s3.09-1.86,3.53-2.85c1.1-2.49.42-8.78.42-8.78a29.25,29.25,0,0,1,2.87-1.46,26.17,26.17,0,0,1,5,6.47A26.78,26.78,0,0,1,121.23,111.56Z" transform="translate(-6.21 -22.13)"/><path class="cls-13" d="M103.89,105.53s-.36-1.22.58-1.5c.61-.17,1,.78,1,.78Z" transform="translate(-6.21 -22.13)"/><path class="cls-29" d="M129.24,99.8c1.29,1.32,2.5,5,2.83,6.82.4,2.2-.66,8.93-.66,8.93s-2.17,1.45-3,1.39-2.13-1.49-2.13-1.49l1.62-1.12-.2-3.07-1-1.85-.3,3s-2.26,1.41-3.1,1.3-1.82-1.6-1.82-1.6l1.55-.74-.49-.22-2.79.91.21,5.68-.77,4.31s-2.18,1.48-3,1.4-2.08-1.85-2.08-1.85l1.62-1,0-3.17-.75-3.3-1.15,4.36S111.76,120,111,120s-2.44-1.55-2.44-1.55l2-1.32a24.59,24.59,0,0,0-.2-3.5,14.88,14.88,0,0,0-.89-1.94,33,33,0,0,1-5.81,1.79s4-.74,5.39-3.42c1.22-2.32,1,.55,9.46-1.69,7.19-1.91,5.95-7.46,7.87-7.53C128.67,100.76,129.24,99.8,129.24,99.8Z" transform="translate(-6.21 -22.13)"/><path class="cls-30" d="M107.57,112.39a25.6,25.6,0,0,0,2.75-2c.54-.49,3.68,1.29,3.68,1.29l1,2.4s-2.22-2.89-3.84-3a5.12,5.12,0,0,0-1.7.54A11.42,11.42,0,0,1,107.57,112.39Z" transform="translate(-6.21 -22.13)"/><path class="cls-30" d="M119.19,110.44a3.31,3.31,0,0,1,.55,1.61l6.92-2.29s.09-.28,0-.35c-.88-1.12-1.7-4.67-1.7-4.67a9.81,9.81,0,0,0-.22,2.36c.06.31.56.81.5,1.12-.16.82-1.69,1.52-2.48,1.8A10.29,10.29,0,0,1,119.19,110.44Z" transform="translate(-6.21 -22.13)"/><path class="cls-13" d="M115,114.13l-1.15,4.36S111.76,120,111,120s-2.44-1.55-2.44-1.55l2-1.32a24.59,24.59,0,0,0-.2-3.5,14.88,14.88,0,0,0-.89-1.94s1.43-.71,2-.5C113.22,111.77,115,114.13,115,114.13Z" transform="translate(-6.21 -22.13)"/><path class="cls-13" d="M119.74,112.05l.21,5.68-.77,4.31s-2.18,1.48-3,1.4-2.08-1.85-2.08-1.85l1.62-1,0-3.17-.75-3.3a27,27,0,0,1-1.14-2.86c.12-1.76,2.28-2,3-2A2.84,2.84,0,0,1,119.74,112.05Z" transform="translate(-6.21 -22.13)"/><path class="cls-13" d="M126.66,109.76l-.27,2.64s-2.26,1.41-3.1,1.3-1.82-1.6-1.82-1.6l1.55-.74-.49-.22Z" transform="translate(-6.21 -22.13)"/><path class="cls-13" d="M129,100.82c2.18,1.12,2.77,4,3.1,5.8.4,2.2-.66,8.93-.66,8.93s-2.17,1.45-3,1.39-2.13-1.49-2.13-1.49l1.62-1.12-.2-3.07-1-1.85s-2.52-4.43-1.28-6.84S128.09,100.37,129,100.82Z" transform="translate(-6.21 -22.13)"/><path class="cls-13" d="M105.91,109.76a1.71,1.71,0,0,1-1.39,1.68c-.56,0-.26-.73-.26-1.67s.29-1.37.85-1.37S105.91,108.82,105.91,109.76Z" transform="translate(-6.21 -22.13)"/><path class="cls-13" d="M108.71,107.75s.76-2-.18-2.22c-.61-.18-1.31.94-1.31.94Z" transform="translate(-6.21 -22.13)"/></g></g></svg>